# Blender 4.5.0
# www.blender.org
mtllib judge_horse.mtl
o Agent
v 0.222619 0.658588 -0.221416
v 0.087009 0.023372 -0.078529
v 0.222619 0.658588 0.222173
v 0.087009 0.023372 0.083860
v -0.220970 0.658588 -0.221416
v -0.075380 0.023372 -0.078529
v -0.220970 0.658588 0.222173
v -0.075380 0.023372 0.083860
v -0.191331 0.785883 0.192534
v -0.113636 1.170195 0.114839
v -0.191331 0.785883 -0.191778
v -0.113636 1.170195 -0.114082
v 0.192981 0.785883 0.192534
v 0.115285 1.170195 0.114839
v 0.192981 0.785883 -0.191778
v 0.115285 1.170195 -0.114082
v -0.191331 1.170195 0.192534
v -0.191331 1.170195 -0.191778
v 0.192981 1.170195 -0.191778
v 0.192981 1.170195 0.192534
v -0.113636 1.309733 0.114839
v -0.113636 1.309733 -0.114082
v 0.115285 1.309733 -0.114082
v 0.115285 1.309733 0.114839
vn -0.0000 1.0000 -0.0000
vn -0.0000 -0.2128 0.9771
vn -0.9747 -0.2234 -0.0000
vn -0.0000 -1.0000 -0.0000
vn 0.9780 -0.2088 -0.0000
vn -0.0000 -0.2195 -0.9756
vn -1.0000 -0.0000 -0.0000
vn -0.0000 -0.0000 -1.0000
vn 1.0000 -0.0000 -0.0000
vn -0.0000 -0.0000 1.0000
vt 0.590888 0.873531
vt 0.590888 0.978966
vt 0.485453 0.978966
vt 0.485453 0.873531
vt 0.655687 0.020315
vt 0.856008 0.975119
vt 0.200746 0.975119
vt 0.415808 0.020315
vt 0.658182 0.020375
vt 0.862494 0.976934
vt 0.207232 0.976934
vt 0.418303 0.020375
vt 0.585243 0.023630
vt 0.585243 0.121842
vt 0.487030 0.121842
vt 0.487030 0.023630
vt 0.651423 0.020283
vt 0.862494 0.974458
vt 0.207232 0.974458
vt 0.411544 0.020283
vt 0.640946 0.021036
vt 0.856008 0.976934
vt 0.200746 0.976934
vt 0.401067 0.021036
vt 0.976981 0.022000
vt 0.976981 0.965050
vt 0.027914 0.965050
vt 0.027914 0.022000
vt 0.981116 0.021787
vt 0.981116 0.965051
vt 0.032049 0.965051
vt 0.032049 0.021787
vt 0.983095 0.033785
vt 0.983095 0.977609
vt 0.034029 0.977608
vt 0.034029 0.033785
vt 0.983095 0.026675
vt 0.983095 0.970294
vt 0.034029 0.970294
vt 0.034029 0.026675
vt 0.482586 0.017214
vt 0.590822 0.017214
vt 0.590822 0.125449
vt 0.482586 0.125449
vt 0.506631 0.952931
vt 0.506631 0.891014
vt 0.568549 0.952931
vt 0.568549 0.891014
vt 0.589563 0.869999
vt 0.589563 0.973946
vt 0.485616 0.869999
vt 0.485616 0.973946
s 0
usemtl Material
f 1/1/1 5/2/1 7/3/1 3/4/1
f 4/5/2 3/6/2 7/7/2 8/8/2
f 8/9/3 7/10/3 5/11/3 6/12/3
f 6/13/4 2/14/4 4/15/4 8/16/4
f 2/17/5 1/18/5 3/19/5 4/20/5
f 6/21/6 5/22/6 1/23/6 2/24/6
f 9/25/7 17/26/7 18/27/7 11/28/7
f 11/29/8 18/30/8 19/31/8 15/32/8
f 15/33/9 19/34/9 20/35/9 13/36/9
f 13/37/10 20/38/10 17/39/10 9/40/10
f 11/41/4 15/42/4 13/43/4 9/44/4
f 14/45/9 16/46/9 23/46/9 24/45/9
f 10/47/1 12/48/1 18/49/1 17/50/1
f 12/48/1 16/46/1 19/51/1 18/49/1
f 16/46/1 14/45/1 20/52/1 19/51/1
f 14/45/1 10/47/1 17/50/1 20/52/1
f 23/46/1 22/48/1 21/47/1 24/45/1
f 12/48/7 10/47/7 21/47/7 22/48/7
f 10/47/10 14/45/10 24/45/10 21/47/10
f 16/46/8 12/48/8 22/48/8 23/46/8
