# Blender 4.5.0
# www.blender.org
o Agent
v 0.222619 0.658588 -0.221416
v 0.087009 0.023372 -0.078529
v 0.222619 0.658588 0.222173
v 0.087009 0.023372 0.083860
v -0.220970 0.658588 -0.221416
v -0.075380 0.023372 -0.078529
v -0.220970 0.658588 0.222173
v -0.075380 0.023372 0.083860
v -0.191331 0.785883 0.192534
v -0.113636 1.170195 0.114839
v -0.191331 0.785883 -0.191778
v -0.113636 1.170195 -0.114082
v 0.192981 0.785883 0.192534
v 0.115285 1.170195 0.114839
v 0.192981 0.785883 -0.191778
v 0.115285 1.170195 -0.114082
v -0.191331 1.170195 0.192534
v -0.191331 1.170195 -0.191778
v 0.192981 1.170195 -0.191778
v 0.192981 1.170195 0.192534
v -0.113636 1.309733 0.114839
v -0.113636 1.309733 -0.114082
v 0.115285 1.309733 -0.114082
v 0.115285 1.309733 0.114839
vn -0.0000 1.0000 -0.0000
vn -0.0000 -0.2128 0.9771
vn -0.9747 -0.2234 -0.0000
vn -0.0000 -1.0000 -0.0000
vn 0.9780 -0.2088 -0.0000
vn -0.0000 -0.2195 -0.9756
vn -1.0000 -0.0000 -0.0000
vn -0.0000 -0.0000 -1.0000
vn 1.0000 -0.0000 -0.0000
vn -0.0000 -0.0000 1.0000
vt 0.590888 0.978966
vt 0.485453 0.873531
vt 0.590888 0.873531
vt 0.856008 0.975119
vt 0.415808 0.020315
vt 0.655687 0.020315
vt 0.862494 0.976934
vt 0.418303 0.020375
vt 0.658182 0.020375
vt 0.585243 0.121842
vt 0.487030 0.023630
vt 0.585243 0.023630
vt 0.651423 0.020283
vt 0.207232 0.974458
vt 0.411544 0.020283
vt 0.640946 0.021036
vt 0.200746 0.976934
vt 0.401067 0.021036
vt 0.976981 0.965050
vt 0.027914 0.022000
vt 0.976981 0.022000
vt 0.981116 0.965051
vt 0.032049 0.021787
vt 0.981116 0.021787
vt 0.983095 0.977609
vt 0.034029 0.033785
vt 0.983095 0.033785
vt 0.983095 0.970294
vt 0.034029 0.026675
vt 0.983095 0.026675
vt 0.590822 0.017214
vt 0.482586 0.125449
vt 0.482586 0.017214
vt 0.506631 0.891014
vt 0.506631 0.952931
vt 0.568549 0.891014
vt 0.589563 0.973946
vt 0.568549 0.952931
vt 0.589563 0.869999
vt 0.485616 0.973946
vt 0.485616 0.869999
vt 0.485453 0.978966
vt 0.200746 0.975119
vt 0.207232 0.976934
vt 0.487030 0.121842
vt 0.862494 0.974458
vt 0.856008 0.976934
vt 0.027914 0.965050
vt 0.032049 0.965051
vt 0.034029 0.977608
vt 0.034029 0.970294
vt 0.590822 0.125449
s 0
f 5/1/1 3/2/1 1/3/1
f 3/4/2 8/5/2 4/6/2
f 7/7/3 6/8/3 8/9/3
f 2/10/4 8/11/4 6/12/4
f 2/13/5 3/14/5 4/15/5
f 6/16/6 1/17/6 2/18/6
f 17/19/7 11/20/7 9/21/7
f 18/22/8 15/23/8 11/24/8
f 19/25/9 13/26/9 15/27/9
f 20/28/10 9/29/10 13/30/10
f 15/31/4 9/32/4 11/33/4
f 16/34/9 24/35/9 14/35/9
f 12/36/1 17/37/1 10/38/1
f 16/34/1 18/39/1 12/36/1
f 16/34/1 20/40/1 19/41/1
f 10/38/1 20/40/1 14/35/1
f 22/36/1 24/35/1 23/34/1
f 10/38/7 22/36/7 12/36/7
f 14/35/10 21/38/10 10/38/10
f 12/36/8 23/34/8 16/34/8
f 5/1/1 7/42/1 3/2/1
f 3/4/2 7/43/2 8/5/2
f 7/7/3 5/44/3 6/8/3
f 2/10/4 4/45/4 8/11/4
f 2/13/5 1/46/5 3/14/5
f 6/16/6 5/47/6 1/17/6
f 17/19/7 18/48/7 11/20/7
f 18/22/8 19/49/8 15/23/8
f 19/25/9 20/50/9 13/26/9
f 20/28/10 17/51/10 9/29/10
f 15/31/4 13/52/4 9/32/4
f 16/34/9 23/34/9 24/35/9
f 12/36/1 18/39/1 17/37/1
f 16/34/1 19/41/1 18/39/1
f 16/34/1 14/35/1 20/40/1
f 10/38/1 17/37/1 20/40/1
f 22/36/1 21/38/1 24/35/1
f 10/38/7 21/38/7 22/36/7
f 14/35/10 24/35/10 21/38/10
f 12/36/8 22/36/8 23/34/8
