# Blender 4.5.0
# www.blender.org
o Cube
v -0.125000 0.500000 -0.500000
v -0.125000 -0.500000 -0.500000
v -0.125000 -0.500000 1.500000
v -0.125000 0.500000 1.500000
v 0.125000 0.500000 1.500000
v 0.125000 0.500000 -0.500000
v 0.125000 -0.500000 -0.500000
v 0.125000 -0.500000 1.500000
v -0.125000 -0.450000 -0.500000
v -0.125000 -0.450000 1.500000
v 0.125000 -0.450000 -0.500000
v 0.125000 -0.450000 1.500000
v -0.125000 0.452500 1.500000
v 0.125000 0.452500 -0.500000
v -0.125000 0.452500 -0.500000
v 0.125000 0.452500 1.500000
v 0.125000 -0.450000 -0.450000
v -0.125000 -0.450000 -0.450000
v -0.125000 0.452500 -0.450000
v 0.125000 0.452500 -0.450000
v -0.125000 -0.450000 1.451250
v -0.125000 0.452500 1.451250
v 0.125000 -0.450000 1.451250
v 0.125000 0.452500 1.451250
vn -0.0000 1.0000 -0.0000
vn 1.0000 -0.0000 -0.0000
vn -0.0000 -1.0000 -0.0000
vn -1.0000 -0.0000 -0.0000
vn -0.0000 -0.0000 1.0000
vn -0.0000 -0.0000 -1.0000
vt 0.101562 1.000000
vt 0.117188 0.875000
vt 0.101562 0.875000
vt 0.125000 1.000000
vt 0.121094 0.996094
vt 0.121094 0.878906
vt 0.070312 1.000000
vt 0.085938 0.875000
vt 0.070312 0.875000
vt 0.121094 1.000000
vt 0.066406 0.996094
vt 0.066406 1.000000
vt 0.121094 0.976562
vt 0.066406 0.960938
vt 0.121094 0.960938
vt 0.062500 0.875000
vt 0.066406 0.878906
vt 0.125000 0.875000
vt 0.121094 0.875000
vt 0.066406 0.875000
vt 0.121094 0.921875
vt 0.066406 0.921875
vt 0.066406 0.906250
vt 0.085938 0.878906
vt 0.070312 0.996094
vt 0.085938 0.996094
vt 0.121094 0.894531
vt 0.066406 0.894531
vt 0.117188 0.996094
vt 0.101562 0.878906
vt 0.101562 0.996094
vt 0.121094 0.980469
vt 0.066406 0.980469
vt 0.062500 1.000000
vt 0.117188 1.000000
vt 0.085938 1.000000
vt 0.066406 0.976562
vt 0.062500 0.976562
vt 0.062500 0.960938
vt 0.125000 0.960938
vt 0.125000 0.976562
vt 0.121094 0.906250
vt 0.125000 0.906250
vt 0.125000 0.921875
vt 0.062500 0.921875
vt 0.062500 0.906250
vt 0.070312 0.878906
vt 0.117188 0.878906
s 0
f 4/1/1 6/2/1 1/3/1
f 5/4/2 24/5/2 20/6/2
f 8/7/3 2/8/3 7/9/3
f 16/10/2 23/11/2 24/5/2
f 21/12/4 13/5/4 22/10/4
f 13/13/5 12/14/5 16/15/5
f 3/16/4 21/17/4 18/11/4
f 19/5/4 4/18/4 15/10/4
f 9/17/4 19/19/4 15/6/4
f 20/6/2 11/20/2 14/19/2
f 14/21/6 11/22/6 9/23/6
f 17/24/1 21/25/1 23/26/1
f 17/17/5 19/27/5 18/28/5
f 22/29/3 20/30/3 24/31/3
f 22/32/6 23/11/6 21/33/6
f 17/17/2 8/34/2 11/20/2
f 4/1/1 5/35/1 6/2/1
f 14/19/2 6/18/2 5/4/2
f 5/4/2 16/10/2 24/5/2
f 20/6/2 14/19/2 5/4/2
f 8/7/3 3/36/3 2/8/3
f 16/10/2 12/12/2 23/11/2
f 21/12/4 10/11/4 13/5/4
f 10/37/5 3/38/5 8/39/5
f 10/37/5 8/39/5 12/14/5
f 5/40/5 4/41/5 13/13/5
f 13/13/5 10/37/5 12/14/5
f 16/15/5 5/40/5 13/13/5
f 9/12/4 2/34/4 3/16/4
f 3/16/4 10/20/4 21/17/4
f 18/11/4 9/12/4 3/16/4
f 22/6/4 13/19/4 4/18/4
f 4/18/4 1/4/4 15/10/4
f 19/5/4 22/6/4 4/18/4
f 9/17/4 18/20/4 19/19/4
f 20/6/2 17/17/2 11/20/2
f 15/42/6 1/43/6 6/44/6
f 15/42/6 6/44/6 14/21/6
f 7/45/6 2/46/6 9/23/6
f 9/23/6 15/42/6 14/21/6
f 11/22/6 7/45/6 9/23/6
f 17/24/1 18/47/1 21/25/1
f 17/17/5 20/6/5 19/27/5
f 22/29/3 19/48/3 20/30/3
f 22/32/6 24/5/6 23/11/6
f 23/11/2 12/12/2 8/34/2
f 8/34/2 7/16/2 11/20/2
f 17/17/2 23/11/2 8/34/2
