# Blender 4.5.0
# www.blender.org
o Cube
v -0.500000 0.125000 1.500000
v -0.500000 0.125000 -0.500000
v 0.500000 0.125000 1.500000
v 0.500000 0.125000 -0.500000
v -0.500000 -0.125000 1.500000
v -0.500000 -0.125000 -0.500000
v 0.500000 -0.125000 1.500000
v 0.500000 -0.125000 -0.500000
v -0.375000 0.125000 1.500000
v 0.375000 0.125000 1.500000
v 0.375000 -0.125000 1.500000
v -0.375000 -0.125000 1.500000
v -0.375000 -0.125000 -0.500000
v 0.375000 -0.125000 -0.500000
v 0.375000 0.125000 -0.500000
v -0.375000 0.125000 -0.500000
vn 1.0000 -0.0000 -0.0000
vn -0.0000 1.0000 -0.0000
vn -0.0000 -0.0000 -1.0000
vn -1.0000 -0.0000 -0.0000
vn -0.0000 -0.0000 1.0000
vn -0.0000 -1.0000 -0.0000
vt 0.101562 1.000000
vt 0.085938 0.875000
vt 0.101562 0.875000
vt 0.070312 1.000000
vt 0.062500 0.875000
vt 0.070312 0.875000
vt 0.101562 0.960938
vt 0.109375 0.976562
vt 0.101562 0.976562
vt 0.085938 1.000000
vt 0.109375 0.984375
vt 0.117188 0.968750
vt 0.109375 0.968750
vt 0.125000 1.000000
vt 0.117188 0.875000
vt 0.125000 0.875000
vt 0.109375 0.960938
vt 0.101562 0.953125
vt 0.101562 0.968750
vt 0.062500 1.000000
vt 0.117188 0.984375
vt 0.117188 1.000000
vt 0.109375 0.953125
s 0
f 3/1/1 8/2/1 4/3/1
f 10/4/2 4/5/2 15/6/2
f 15/7/3 8/8/3 14/9/3
f 5/2/4 2/1/4 6/10/4
f 11/11/5 3/12/5 10/13/5
f 12/4/6 6/5/6 13/6/6
f 7/14/6 14/15/6 8/16/6
f 5/17/5 9/9/5 1/8/5
f 2/18/3 13/13/3 6/19/3
f 1/14/2 16/15/2 2/16/2
f 11/1/4 15/2/4 14/3/4
f 16/3/1 12/10/1 13/2/1
f 3/1/1 7/10/1 8/2/1
f 10/4/2 3/20/2 4/5/2
f 15/7/3 4/17/3 8/8/3
f 5/2/4 1/3/4 2/1/4
f 11/11/5 7/21/5 3/12/5
f 12/4/6 5/20/6 6/5/6
f 7/14/6 11/22/6 14/15/6
f 5/17/5 12/7/5 9/9/5
f 2/18/3 16/23/3 13/13/3
f 1/14/2 9/22/2 16/15/2
f 11/1/4 10/10/4 15/2/4
f 16/3/1 9/1/1 12/10/1
