# Blender 4.5.0
# www.blender.org
o Cube
v 0.125000 0.500000 1.500000
v 0.125000 0.500000 -0.500000
v 0.125000 -0.500000 1.500000
v 0.125000 -0.500000 -0.500000
v -0.125000 0.500000 1.500000
v -0.125000 0.500000 -0.500000
v -0.125000 -0.500000 1.500000
v -0.125000 -0.500000 -0.500000
vn -0.0000 -1.0000 -0.0000
vn 1.0000 -0.0000 -0.0000
vn -0.0000 -0.0000 -1.0000
vn -0.0000 1.0000 -0.0000
vn -0.0000 -0.0000 1.0000
vn -1.0000 -0.0000 -0.0000
vt 0.101562 1.000000
vt 0.085938 0.875000
vt 0.101562 0.875000
vt 0.125000 1.000000
vt 0.062500 0.875000
vt 0.125000 0.875000
vt 0.061710 0.953125
vt 0.125790 0.968750
vt 0.061710 0.968750
vt 0.085938 1.000000
vt 0.062500 0.984375
vt 0.125000 0.968750
vt 0.062500 0.968750
vt 0.062500 1.000000
vt 0.125790 0.953125
vt 0.125000 0.984375
s 0
f 3/1/1 8/2/1 4/3/1
f 1/4/2 4/5/2 2/6/2
f 2/7/3 8/8/3 6/9/3
f 5/2/4 2/1/4 6/10/4
f 5/11/5 3/12/5 1/13/5
f 7/4/6 6/5/6 8/6/6
f 3/1/1 7/10/1 8/2/1
f 1/4/2 3/14/2 4/5/2
f 2/7/3 4/15/3 8/8/3
f 5/2/4 1/3/4 2/1/4
f 5/11/5 7/16/5 3/12/5
f 7/4/6 5/14/6 6/5/6
