# Blender 4.5.0
# www.blender.org
o Cube
v -0.125000 0.375000 0.125000
v 0.125000 0.375000 0.375000
v 0.125000 0.375000 0.125000
v 0.125000 -0.375000 0.375000
v 0.125000 -0.375000 0.125000
v 0.125000 -0.375000 -0.125000
v 0.125000 -0.375000 -0.375000
v -0.125000 -0.375000 0.375000
v -0.125000 -0.375000 0.125000
v -0.125000 -0.375000 -0.125000
v -0.125000 -0.375000 -0.375000
v -0.125000 0.375000 0.375000
v 0.125000 0.375000 -0.125000
v 0.125000 0.375000 -0.375000
v -0.125000 0.375000 -0.125000
v -0.125000 0.375000 -0.375000
v 0.125000 -0.375000 -0.500000
v -0.125000 -0.375000 -0.500000
v 0.125000 -0.500000 -0.500000
v -0.125000 -0.500000 -0.500000
v 0.125000 -0.375000 0.500000
v -0.125000 -0.375000 0.500000
v 0.125000 -0.500000 0.500000
v -0.125000 -0.500000 0.500000
v 0.125000 0.375000 0.500000
v -0.125000 0.375000 0.500000
v 0.125000 0.500000 0.500000
v -0.125000 0.500000 0.500000
v -0.125000 0.375000 -0.500000
v 0.125000 0.375000 -0.500000
v -0.125000 0.500000 -0.500000
v 0.125000 0.500000 -0.500000
v -0.125000 -0.375000 -0.250000
v 0.125000 0.375000 -0.250000
v -0.125000 0.375000 -0.250000
vn -0.0000 -0.0000 -1.0000
vn -0.0000 -0.0000 1.0000
vn -1.0000 -0.0000 -0.0000
vn -0.0000 -1.0000 -0.0000
vn 1.0000 -0.0000 -0.0000
vn -0.0000 1.0000 -0.0000
vt 0.042969 0.902344
vt 0.035156 0.894531
vt 0.042969 0.894531
vt 0.000000 0.921875
vt 0.046875 0.906250
vt 0.046875 0.921875
vt 0.000000 0.914062
vt 0.046875 0.914062
vt 0.000000 0.906250
vt 0.062500 0.921875
vt 0.000000 0.937500
vt 0.062500 0.937500
vt 0.035156 0.902344
vt 0.007812 1.000000
vt 0.007812 0.937500
vt 0.062500 1.000000
vt 0.054688 0.937500
vt 0.054688 1.000000
vt 0.000000 1.000000
vt 0.007812 0.937500
vt 0.007813 1.000000
vt 0.000000 1.000000
vt -0.000000 0.937500
s 0
f 30/1/1 31/2/1 32/3/1
f 10/4/2 13/5/2 15/6/2
f 35/7/3 11/5/3 33/8/3
f 9/9/1 3/6/1 5/4/1
f 34/8/2 13/5/2 14/6/2
f 4/9/2 12/6/2 8/4/2
f 26/10/4 30/11/4 25/12/4
f 25/13/2 28/3/2 26/1/2
f 21/14/5 19/11/5 17/15/5
f 24/13/2 21/3/2 22/1/2
f 24/16/3 18/17/3 20/12/3
f 23/12/4 20/4/4 19/11/4
f 25/18/5 32/12/5 27/16/5
f 27/10/6 31/11/6 28/12/6
f 7/4/1 16/5/1 14/6/1
f 28/19/3 29/20/3 26/21/3
f 12/4/3 9/5/3 8/6/3
f 12/6/6 3/6/6 1/5/6
f 6/9/5 14/6/5 13/5/5
f 5/4/4 8/4/4 9/9/4
f 5/4/5 2/5/5 4/9/5
f 22/12/6 17/4/6 18/11/6
f 19/13/1 18/3/1 17/1/1
f 30/1/1 29/13/1 31/2/1
f 10/4/2 6/9/2 13/5/2
f 33/8/3 10/6/3 15/4/3
f 35/7/3 16/9/3 11/5/3
f 33/8/3 15/4/3 35/7/3
f 9/9/1 1/5/1 3/6/1
f 4/9/2 2/5/2 12/6/2
f 26/10/4 29/4/4 30/11/4
f 25/13/2 27/2/2 28/3/2
f 21/14/5 23/22/5 19/11/5
f 24/13/2 23/2/2 21/3/2
f 24/16/3 22/18/3 18/17/3
f 23/12/4 24/10/4 20/4/4
f 25/18/5 30/17/5 32/12/5
f 27/10/6 32/4/6 31/11/6
f 7/4/1 11/9/1 16/5/1
f 28/19/3 31/23/3 29/20/3
f 12/4/3 1/9/3 9/5/3
f 12/6/6 2/5/6 3/6/6
f 6/9/5 7/4/5 14/6/5
f 5/4/4 4/9/4 8/4/4
f 5/4/5 3/6/5 2/5/5
f 22/12/6 21/10/6 17/4/6
f 19/13/1 20/2/1 18/3/1
l 18 11
l 7 17
l 25 2
l 12 26
