# Blender 4.5.0
# www.blender.org
o Cube
v -0.500000 -0.500000 0.500000
v -0.500000 0.500000 0.500000
v 0.500000 0.500000 0.500000
v 0.500000 -0.500000 0.500000
v -0.500000 -0.500000 0.250000
v -0.500000 0.500000 0.250000
v 0.500000 -0.500000 0.250000
v 0.500000 0.500000 0.250000
vn -0.0000 -0.0000 1.0000
vn -0.0000 -0.0000 -1.0000
vn -0.0000 -1.0000 -0.0000
vn -0.0000 1.0000 -0.0000
vn 1.0000 -0.0000 -0.0000
vn -1.0000 -0.0000 -0.0000
vt 0.062500 0.937500
vt 0.000000 1.000000
vt 0.000000 0.937500
vt 0.062500 0.921875
vt 0.000000 0.921875
vt 0.062500 1.000000
s 0
f 2/1/1 4/2/1 3/3/1
f 7/2/2 6/1/2 8/3/2
f 5/4/3 4/3/3 1/1/3
f 8/5/4 2/1/4 3/3/4
f 7/5/5 3/1/5 4/3/5
f 6/5/6 1/1/6 2/3/6
f 2/1/1 1/6/1 4/2/1
f 7/2/2 5/6/2 6/1/2
f 5/4/3 7/5/3 4/3/3
f 8/5/4 6/4/4 2/1/4
f 7/5/5 8/4/5 3/1/5
f 6/5/6 5/4/6 1/1/6
