# Blender 4.5.0
# www.blender.org
o Cube
v -0.500000 -0.500000 0.500000
v -0.500000 0.500000 0.500000
v -0.250000 0.500000 0.500000
v -0.250000 -0.500000 0.500000
v 0.500000 0.500000 -0.250000
v 0.500000 -0.500000 -0.250000
v 0.250000 -0.500000 0.000000
v 0.250000 -0.500000 -0.250000
v 0.000000 -0.500000 0.250000
v 0.000000 -0.500000 0.000000
v -0.250000 -0.500000 0.250000
v -0.250000 0.500000 0.250000
v 0.000000 0.500000 0.250000
v 0.000000 0.500000 0.000000
v 0.250000 0.500000 0.000000
v 0.250000 0.500000 -0.250000
v -0.500000 -0.500000 0.250000
v -0.500000 0.500000 0.250000
v 0.250000 -0.500000 -0.500000
v 0.250000 0.500000 -0.500000
v 0.500000 -0.500000 -0.500000
v 0.500000 0.500000 -0.500000
v 0.250000 0.500000 -0.250000
v 0.250000 -0.500000 -0.250000
v -0.250000 -0.500000 0.250000
v 0.000000 0.500000 -0.250000
v 0.000000 -0.500000 -0.250000
v -0.250000 0.500000 0.250000
v 0.000000 0.500000 0.000000
v 0.000000 -0.500000 0.000000
v -0.250000 0.500000 0.000000
v -0.250000 -0.500000 0.000000
vn -0.0000 -0.0000 1.0000
vn -0.0000 -0.0000 -1.0000
vn 1.0000 -0.0000 -0.0000
vn -1.0000 -0.0000 -0.0000
vn -0.0000 1.0000 -0.0000
vn -0.0000 -1.0000 -0.0000
vt 0.062500 0.937500
vt 0.000000 0.953125
vt 0.062500 0.953125
vt 0.000000 1.000000
vt 0.062500 0.984375
vt 0.000000 0.984375
vt 0.000000 0.968750
vt 0.062500 0.968750
vt 0.000000 0.937500
vt 0.062500 1.000000
vt 0.039062 0.984375
vt 0.023438 0.968750
vt 0.023438 0.984375
vt 0.039062 0.968750
vt 0.023438 0.953125
vt 0.039062 0.953125
vt 0.023438 0.937500
vt 0.039062 1.000000
vt 0.023438 1.000000
vt 0.039062 0.937500
s 0
f 2/1/1 4/2/1 3/3/1
f 6/4/1 16/5/1 8/6/1
f 12/3/1 9/7/1 13/8/1
f 14/8/1 7/6/1 15/5/1
f 25/9/2 18/3/2 28/1/2
f 20/10/2 21/6/2 19/4/2
f 30/2/2 31/8/2 29/3/2
f 24/7/2 26/5/2 23/8/2
f 30/3/3 13/7/3 9/8/3
f 20/5/4 8/4/4 16/10/4
f 31/3/4 11/7/4 12/8/4
f 21/10/3 5/6/3 6/5/3
f 23/11/5 14/12/5 15/13/5
f 24/5/3 15/7/3 7/8/3
f 29/14/5 12/15/5 13/12/5
f 17/16/6 4/17/6 1/15/6
f 32/14/6 9/15/6 11/12/6
f 26/8/4 10/6/4 14/5/4
f 27/11/6 7/12/6 10/13/6
f 28/16/5 2/17/5 3/15/5
f 19/18/6 6/13/6 8/19/6
f 25/3/3 3/9/3 4/1/3
f 18/1/4 1/2/4 2/3/4
f 22/18/5 16/13/5 5/19/5
f 2/1/1 1/9/1 4/2/1
f 6/4/1 5/10/1 16/5/1
f 12/3/1 11/2/1 9/7/1
f 14/8/1 10/7/1 7/6/1
f 25/9/2 17/2/2 18/3/2
f 20/10/2 22/5/2 21/6/2
f 30/2/2 32/7/2 31/8/2
f 24/7/2 27/6/2 26/5/2
f 30/3/3 29/2/3 13/7/3
f 20/5/4 19/6/4 8/4/4
f 31/3/4 32/2/4 11/7/4
f 21/10/3 22/4/3 5/6/3
f 23/11/5 26/14/5 14/12/5
f 24/5/3 23/6/3 15/7/3
f 29/14/5 31/16/5 12/15/5
f 17/16/6 25/20/6 4/17/6
f 32/14/6 30/16/6 9/15/6
f 26/8/4 27/7/4 10/6/4
f 27/11/6 24/14/6 7/12/6
f 28/16/5 18/20/5 2/17/5
f 19/18/6 21/11/6 6/13/6
f 25/3/3 28/2/3 3/9/3
f 18/1/4 17/9/4 1/2/4
f 22/18/5 20/11/5 16/13/5
