# Blender 4.5.0
# www.blender.org
o Cube
o Sphere
o Sphere.001
v -0.125000 -0.125000 1.375000
v -0.125000 0.000000 1.375000
v -0.125000 0.125000 1.375000
v -0.000000 -0.125000 1.375000
v 0.000000 0.000000 1.375000
v 0.000000 0.125000 1.375000
v 0.125000 -0.125000 1.375000
v 0.125000 -0.000000 1.375000
v 0.125000 0.125000 1.375000
v -0.125000 -0.125000 1.250000
v -0.125000 0.000000 1.250000
v -0.125000 0.125000 1.250000
v -0.000000 -0.125000 1.250000
v 0.125000 -0.125000 1.250000
v 0.125000 -0.000000 1.250000
v 0.125000 0.125000 1.250000
v -0.125000 -0.125000 1.125000
v 0.125000 -0.125000 1.125000
v -0.250000 -0.125000 1.250000
v -0.250000 0.000000 1.250000
v -0.250000 0.125000 1.250000
v -0.250000 -0.125000 1.125000
v -0.250000 0.000000 1.125000
v -0.250000 0.125000 1.125000
v -0.000000 -0.250000 1.250000
v 0.125000 -0.250000 1.250000
v -0.125000 -0.250000 1.250000
v -0.000000 -0.250000 1.125000
v 0.125000 -0.250000 1.125000
v -0.125000 -0.250000 1.125000
v 0.250000 -0.125000 1.250000
v 0.250000 -0.000000 1.250000
v 0.250000 0.125000 1.250000
v 0.250000 -0.125000 1.125000
v 0.250000 -0.000000 1.125000
v 0.250000 0.125000 1.125000
v 0.000000 0.250000 1.125000
v -0.125000 0.250000 1.125000
v -0.125000 -0.125000 1.000000
v -0.125000 0.125000 1.000000
v 0.125000 -0.125000 1.000000
v 0.125000 0.125000 1.000000
v -0.250000 -0.125000 1.000000
v -0.250000 0.000000 1.000000
v -0.250000 0.125000 1.000000
v -0.000000 -0.250000 1.000000
v 0.125000 -0.250000 1.000000
v -0.125000 -0.250000 1.000000
v 0.250000 -0.125000 1.000000
v 0.250000 -0.000000 1.000000
v 0.250000 0.125000 1.000000
v 0.000000 0.250000 1.000000
v -0.000000 -0.125000 1.000000
v 0.125000 -0.000000 1.000000
v 0.000000 0.125000 1.000000
v -0.125000 0.000000 1.000000
v -0.125000 -0.125000 0.875000
v -0.125000 0.125000 0.875000
v 0.125000 -0.125000 0.875000
v 0.125000 0.125000 0.875000
v -0.000000 -0.125000 0.875000
v 0.125000 -0.000000 0.875000
v 0.000000 0.125000 0.875000
v -0.125000 0.000000 0.875000
v 0.250000 -0.125000 0.875000
v 0.250000 0.125000 0.875000
v 0.250000 -0.000000 0.875000
v -0.250000 -0.125000 0.875000
v -0.250000 0.125000 0.875000
v -0.250000 0.000000 0.875000
v -0.125000 0.250000 0.875000
v 0.125000 0.250000 0.875000
v 0.000000 0.250000 0.875000
v 0.250000 0.250000 0.875000
v -0.250000 0.250000 0.875000
v 0.375000 -0.125000 0.875000
v 0.375000 0.125000 0.875000
v 0.375000 -0.000000 0.875000
v 0.375000 0.250000 0.875000
v -0.375000 -0.125000 0.875000
v -0.375000 0.125000 0.875000
v -0.375000 0.000000 0.875000
v -0.375000 0.250000 0.875000
v -0.125000 0.250000 0.750000
v 0.125000 0.250000 0.750000
v 0.000000 0.250000 0.750000
v 0.250000 0.250000 0.750000
v -0.250000 0.250000 0.750000
v 0.375000 0.250000 0.750000
v -0.375000 0.250000 0.750000
v -0.375000 -0.125000 0.750000
v -0.375000 0.125000 0.750000
v 0.375000 -0.125000 0.750000
v 0.375000 0.125000 0.750000
v -0.500000 -0.125000 0.875000
v -0.500000 0.125000 0.875000
v -0.500000 0.000000 0.875000
v -0.500000 -0.125000 0.750000
v -0.500000 0.125000 0.750000
v 0.500000 -0.125000 0.875000
v 0.500000 0.125000 0.875000
v 0.500000 -0.000000 0.875000
v 0.500000 -0.125000 0.750000
v 0.500000 0.125000 0.750000
v 0.500000 -0.000000 0.750000
v -0.500000 0.000000 0.750000
v -0.125000 0.250000 0.625000
v 0.125000 0.250000 0.625000
v 0.000000 0.250000 0.625000
v 0.250000 0.250000 0.625000
v -0.250000 0.250000 0.625000
v 0.375000 0.250000 0.625000
v -0.375000 0.250000 0.625000
v -0.500000 -0.125000 0.625000
v -0.500000 0.125000 0.625000
v 0.500000 -0.125000 0.625000
v 0.500000 0.125000 0.625000
v 0.500000 -0.000000 0.625000
v -0.500000 0.000000 0.625000
v -0.125000 0.250000 0.500000
v 0.125000 0.250000 0.500000
v 0.000000 0.250000 0.500000
v 0.250000 0.250000 0.500000
v -0.250000 0.250000 0.500000
v -0.375000 -0.125000 0.500000
v -0.375000 0.125000 0.500000
v 0.375000 -0.125000 0.500000
v 0.375000 0.125000 0.500000
v -0.500000 -0.125000 0.500000
v -0.500000 0.125000 0.500000
v 0.500000 -0.125000 0.500000
v 0.500000 0.125000 0.500000
v 0.500000 -0.000000 0.500000
v -0.500000 0.000000 0.500000
v 0.375000 -0.000000 0.500000
v -0.375000 0.000000 0.500000
v -0.375000 -0.125000 0.375000
v -0.375000 0.125000 0.375000
v -0.375000 0.000000 0.375000
v -0.250000 0.125000 0.375000
v -0.250000 -0.125000 0.375000
v 0.375000 -0.125000 0.375000
v 0.375000 0.125000 0.375000
v 0.375000 -0.000000 0.375000
v 0.250000 0.125000 0.375000
v 0.250000 -0.125000 0.375000
v -0.125000 -0.125000 0.375000
v 0.125000 -0.125000 0.375000
v -0.000000 -0.125000 0.375000
v -0.125000 0.125000 0.375000
v 0.125000 0.125000 0.375000
v 0.000000 0.125000 0.375000
v 0.250000 -0.000000 0.375000
v -0.250000 0.000000 0.375000
v -0.250000 0.125000 0.250000
v -0.250000 -0.125000 0.250000
v 0.250000 0.125000 0.250000
v 0.250000 -0.125000 0.250000
v -0.125000 -0.125000 0.250000
v 0.125000 -0.125000 0.250000
v -0.000000 -0.125000 0.250000
v -0.125000 0.125000 0.250000
v 0.125000 0.125000 0.250000
v 0.000000 0.125000 0.250000
v 0.250000 -0.000000 0.250000
v -0.250000 0.000000 0.250000
v -0.250000 0.125000 0.125000
v -0.250000 -0.125000 0.125000
v 0.250000 0.125000 0.125000
v 0.250000 -0.125000 0.125000
v -0.125000 -0.125000 0.125000
v 0.125000 -0.125000 0.125000
v -0.000000 -0.125000 0.125000
v -0.125000 0.125000 0.125000
v 0.125000 0.125000 0.125000
v 0.000000 0.125000 0.125000
v 0.250000 -0.000000 0.125000
v -0.250000 0.000000 0.125000
v -0.125000 0.000000 0.125000
v 0.125000 -0.000000 0.125000
v -0.125000 -0.125000 0.000000
v 0.125000 -0.125000 0.000000
v -0.000000 -0.125000 0.000000
v -0.125000 0.125000 0.000000
v 0.125000 0.125000 0.000000
v 0.000000 0.125000 0.000000
v -0.125000 0.000000 0.000000
v 0.125000 -0.000000 0.000000
v -0.125000 -0.125000 -0.125000
v 0.125000 -0.125000 -0.125000
v -0.000000 -0.125000 -0.125000
v -0.125000 0.125000 -0.125000
v 0.125000 0.125000 -0.125000
v 0.000000 0.125000 -0.125000
v -0.125000 0.000000 -0.125000
v 0.125000 -0.000000 -0.125000
v -0.125000 -0.125000 -0.250000
v -0.000000 -0.125000 -0.250000
v 0.125000 -0.125000 -0.250000
v 0.125000 0.125000 -0.250000
v 0.000000 0.125000 -0.250000
v -0.125000 0.125000 -0.250000
v -0.125000 0.000000 -0.250000
v 0.125000 -0.000000 -0.250000
v 0.000000 -0.000000 -0.250000
v 0.000000 0.250000 1.375000
v 0.125000 0.250000 1.375000
v -0.125000 0.250000 1.375000
v 0.000000 0.250000 1.250000
v 0.125000 0.250000 1.250000
v -0.125000 0.250000 1.250000
v 0.125000 0.250000 1.125000
v -0.250000 0.250000 1.250000
v -0.250000 0.250000 1.125000
v 0.250000 0.250000 1.250000
v -0.125000 -0.125000 0.750000
v 0.125000 -0.125000 0.750000
v -0.000000 -0.125000 0.750000
v 0.250000 -0.125000 0.750000
v -0.250000 -0.125000 0.750000
v -0.125000 -0.125000 0.625000
v 0.125000 -0.125000 0.625000
v -0.000000 -0.125000 0.625000
v 0.250000 -0.125000 0.625000
v -0.250000 -0.125000 0.625000
v 0.375000 -0.125000 0.625000
v -0.375000 -0.125000 0.625000
v -0.125000 -0.125000 0.500000
v 0.125000 -0.125000 0.500000
v -0.000000 -0.125000 0.500000
v 0.250000 -0.125000 0.500000
v -0.250000 -0.125000 0.500000
v -0.250000 0.125000 0.500000
v 0.250000 0.125000 0.500000
v -0.125000 0.125000 0.500000
v 0.125000 0.125000 0.500000
v 0.000000 0.125000 0.500000
v -0.375000 0.125000 0.625000
v -0.250000 0.125000 0.625000
v 0.375000 0.125000 0.625000
v 0.250000 0.125000 0.625000
v 0.250000 0.250000 1.125000
v 0.125000 0.250000 1.000000
v 0.250000 0.250000 1.000000
v -0.125000 0.250000 1.000000
v -0.250000 0.250000 1.000000
vn -0.0000 -0.0000 1.0000
vn -0.0000 -1.0000 -0.0000
vn -1.0000 -0.0000 -0.0000
vn 1.0000 -0.0000 -0.0000
vn -0.0000 1.0000 -0.0000
vn -0.0000 -0.0000 -1.0000
vt 0.093750 0.937500
vt 0.078125 0.953125
vt 0.078125 0.937500
vt 0.093750 0.953125
vt 0.015625 0.984375
vt 0.031250 0.968750
vt 0.031250 0.984375
vt 0.031250 0.984375
vt 0.015625 1.000000
vt 0.015625 0.984375
vt 0.015625 0.968750
vt 0.031250 0.953125
vt 0.015625 0.953125
vt 0.015625 0.921875
vt 0.000000 0.937500
vt 0.000000 0.921875
vt 0.015625 0.937500
vt 0.046875 0.921875
vt 0.031250 0.937500
vt 0.031250 0.921875
vt 0.046875 0.921875
vt 0.031250 0.937500
vt 0.031250 0.921875
vt 0.046875 0.937500
vt 0.062500 0.921875
vt 0.046875 0.937500
vt 0.031250 1.000000
vt 0.062500 0.937500
s 0
f 5/1/1 9/2/1 6/3/1
f 4/1/1 8/2/1 5/3/1
f 2/1/1 6/2/1 3/3/1
f 2/3/1 4/4/1 5/2/1
f 4/1/2 14/2/2 7/3/2
f 21/1/3 214/2/3 24/3/3
f 7/1/4 15/2/4 8/3/4
f 1/1/2 13/2/2 4/3/2
f 2/1/3 10/2/3 1/3/3
f 36/1/4 215/2/4 33/3/4
f 8/1/4 16/2/4 9/3/4
f 3/1/3 11/2/3 2/3/3
f 12/1/1 20/2/1 11/3/1
f 18/1/2 31/2/2 14/3/2
f 20/1/3 22/2/3 19/3/3
f 21/1/3 23/2/3 20/3/3
f 10/1/2 22/2/2 17/3/2
f 11/1/1 19/2/1 10/3/1
f 27/1/2 28/2/2 25/3/2
f 25/1/2 29/2/2 26/3/2
f 17/1/3 27/2/3 10/3/3
f 10/1/1 25/2/1 13/3/1
f 14/1/4 29/2/4 18/3/4
f 13/1/1 26/2/1 14/3/1
f 32/1/4 36/2/4 33/3/4
f 31/1/4 35/2/4 32/3/4
f 15/1/1 33/2/1 16/3/1
f 6/1/1 208/2/1 3/3/1
f 14/1/1 32/2/1 15/3/1
f 209/5/5 38/6/5 211/7/5
f 210/5/5 37/6/5 209/7/5
f 28/8/2 47/9/2 29/10/2
f 30/8/2 46/9/2 28/10/2
f 212/11/5 52/12/5 37/6/5
f 18/8/2 49/9/2 34/10/2
f 37/6/5 245/13/5 38/11/5
f 23/8/3 43/9/3 22/10/3
f 22/8/2 39/9/2 17/10/2
f 34/8/4 50/9/4 35/10/4
f 24/8/3 44/9/3 23/10/3
f 17/8/3 48/9/3 30/10/3
f 35/8/4 51/9/4 36/10/4
f 29/8/4 41/9/4 18/10/4
f 48/8/6 53/9/6 46/10/6
f 53/8/6 47/9/6 46/10/6
f 49/8/6 54/9/6 50/10/6
f 54/8/6 51/9/6 50/10/6
f 52/8/6 42/9/6 55/10/6
f 55/8/6 245/9/6 52/10/6
f 44/8/6 40/9/6 56/10/6
f 43/8/6 56/9/6 39/10/6
f 42/8/5 63/9/5 55/10/5
f 41/8/4 62/9/4 54/10/4
f 39/8/2 61/9/2 53/10/2
f 56/8/3 57/9/3 39/10/3
f 55/8/5 58/9/5 40/10/5
f 54/8/4 60/9/4 42/10/4
f 53/8/2 59/9/2 41/10/2
f 40/8/3 64/9/3 56/10/3
f 62/14/1 66/15/1 60/16/1
f 59/14/1 67/15/1 62/16/1
f 64/14/1 68/15/1 57/16/1
f 58/14/1 70/15/1 64/16/1
f 63/14/1 71/15/1 58/16/1
f 69/16/1 71/17/1 75/15/1
f 60/14/1 73/15/1 63/16/1
f 66/14/1 72/15/1 60/16/1
f 65/18/1 78/19/1 67/20/1
f 66/18/1 79/19/1 74/20/1
f 67/18/1 77/19/1 66/20/1
f 69/18/1 82/19/1 70/20/1
f 75/18/1 81/19/1 69/20/1
f 70/18/1 80/19/1 68/20/1
f 79/21/5 87/22/5 74/23/5
f 74/14/5 85/15/5 72/16/5
f 75/18/5 90/19/5 83/20/5
f 72/14/5 86/15/5 73/16/5
f 71/14/5 88/15/5 75/16/5
f 73/14/5 84/15/5 71/16/5
f 83/18/3 92/19/3 81/20/3
f 89/21/4 77/22/4 94/23/4
f 81/18/1 97/19/1 82/20/1
f 92/18/5 96/19/5 81/20/5
f 82/18/1 95/19/1 80/20/1
f 80/18/2 98/19/2 91/20/2
f 93/18/2 100/19/2 76/20/2
f 76/18/1 102/19/1 78/20/1
f 77/21/5 104/22/5 94/23/5
f 78/18/1 101/19/1 77/20/1
f 100/18/4 105/19/4 102/20/4
f 105/18/4 101/19/4 102/20/4
f 96/18/3 106/19/3 97/20/3
f 106/18/3 95/19/3 97/20/3
f 94/21/4 112/22/4 89/23/4
f 93/18/2 116/19/2 103/20/2
f 89/21/5 110/22/5 87/23/5
f 99/18/3 119/19/3 106/20/3
f 98/18/2 227/19/2 91/20/2
f 88/18/5 113/19/5 90/20/5
f 106/18/3 114/19/3 98/20/3
f 104/21/5 240/22/5 94/23/5
f 90/18/3 238/19/3 92/20/3
f 85/14/5 109/15/5 86/16/5
f 86/14/5 107/15/5 84/16/5
f 103/18/4 118/19/4 105/20/4
f 87/21/5 108/22/5 85/23/5
f 105/18/4 117/19/4 104/20/4
f 92/18/5 115/19/5 99/20/5
f 84/18/5 111/19/5 88/20/5
f 107/21/5 124/22/5 111/23/5
f 226/21/2 131/22/2 116/23/2
f 117/21/5 128/22/5 240/23/5
f 116/21/4 133/22/4 118/23/4
f 118/21/4 132/22/4 117/23/4
f 115/21/3 134/22/3 119/23/3
f 108/21/5 122/22/5 109/23/5
f 119/21/3 129/22/3 114/23/3
f 109/21/5 120/22/5 107/23/5
f 238/21/5 130/22/5 115/23/5
f 110/21/5 121/22/5 108/23/5
f 114/21/2 125/22/2 227/23/2
f 134/18/6 126/19/6 136/20/6
f 129/18/6 136/19/6 125/20/6
f 133/18/6 127/19/6 135/20/6
f 132/18/6 135/19/6 128/20/6
f 126/21/3 139/22/3 136/23/3
f 233/21/5 138/22/5 126/23/5
f 136/21/3 137/22/3 125/23/3
f 125/21/2 141/22/2 232/23/2
f 127/21/4 144/22/4 135/23/4
f 231/21/2 142/22/2 127/23/2
f 135/21/4 143/22/4 128/23/4
f 128/21/5 145/22/5 234/23/5
f 153/18/6 143/19/6 144/20/6
f 144/20/6 146/24/6 153/19/6
f 139/20/6 140/24/6 154/19/6
f 154/18/6 137/19/6 139/20/6
f 151/25/5 164/24/5 152/18/5
f 141/25/2 159/24/2 147/18/2
f 154/25/3 156/24/3 141/18/3
f 153/25/4 157/24/4 145/18/4
f 152/25/5 162/24/5 150/18/5
f 148/25/2 158/24/2 146/18/2
f 145/25/5 163/24/5 151/18/5
f 146/25/4 165/24/4 153/18/4
f 147/25/2 161/24/2 149/18/2
f 150/25/5 155/24/5 140/18/5
f 140/25/3 166/24/3 154/18/3
f 149/25/2 160/24/2 148/18/2
f 155/20/3 178/17/3 166/14/3
f 159/20/2 173/17/2 161/14/2
f 160/20/2 170/17/2 158/14/2
f 157/20/5 175/17/5 163/14/5
f 166/20/3 168/17/3 156/14/3
f 161/20/2 172/17/2 160/14/2
f 165/20/4 169/17/4 157/14/4
f 162/20/5 167/17/5 155/14/5
f 163/20/5 176/17/5 164/14/5
f 158/20/4 177/17/4 165/14/4
f 156/20/2 171/17/2 159/14/2
f 164/20/5 174/17/5 162/14/5
f 169/20/6 180/17/6 175/14/6
f 179/20/6 167/17/6 174/14/6
f 168/20/6 179/17/6 171/14/6
f 180/20/6 170/17/6 172/14/6
f 173/20/2 182/17/2 172/14/2
f 172/20/4 188/17/4 180/14/4
f 174/20/3 187/17/3 179/14/3
f 175/20/5 186/17/5 176/14/5
f 171/20/2 183/17/2 173/14/2
f 179/20/3 181/17/3 171/14/3
f 180/20/4 185/17/4 175/14/4
f 176/20/5 184/17/5 174/14/5
f 182/20/4 196/17/4 188/14/4
f 184/20/3 195/17/3 187/14/3
f 185/20/5 194/17/5 186/14/5
f 181/20/2 191/17/2 183/14/2
f 187/20/3 189/17/3 181/14/3
f 188/20/4 193/17/4 185/14/4
f 186/20/5 192/17/5 184/14/5
f 183/20/2 190/17/2 182/14/2
f 189/20/2 198/17/2 191/14/2
f 193/20/5 201/17/5 194/14/5
f 192/20/3 203/17/3 195/14/3
f 190/20/4 204/17/4 196/14/4
f 205/20/6 199/17/6 198/14/6
f 201/14/6 204/19/6 205/17/6
f 205/20/6 202/17/6 201/14/6
f 198/14/6 203/19/6 205/17/6
f 195/20/3 197/17/3 189/14/3
f 196/20/4 200/17/4 193/14/4
f 194/20/5 202/17/5 192/14/5
f 191/20/2 199/17/2 190/14/2
f 207/1/5 209/2/5 206/3/5
f 206/1/5 211/2/5 208/3/5
f 38/1/5 213/2/5 211/3/5
f 210/1/5 242/2/5 212/3/5
f 21/3/1 211/4/1 213/2/1
f 3/1/3 211/2/3 12/3/3
f 9/1/1 206/2/1 6/3/1
f 33/1/1 210/2/1 16/3/1
f 16/1/4 207/2/4 9/3/4
f 65/21/2 93/22/2 76/23/2
f 80/21/2 220/22/2 68/23/2
f 57/21/2 218/22/2 61/23/2
f 59/21/2 219/22/2 65/23/2
f 61/21/2 217/22/2 59/23/2
f 68/21/2 216/22/2 57/23/2
f 218/21/2 222/22/2 217/23/2
f 219/21/2 226/22/2 93/23/2
f 217/21/2 224/22/2 219/23/2
f 216/21/2 223/22/2 218/23/2
f 91/21/2 225/22/2 220/23/2
f 220/21/2 221/22/2 216/23/2
f 224/21/2 127/22/2 226/23/2
f 222/21/2 231/22/2 224/23/2
f 221/21/2 230/22/2 223/23/2
f 227/21/2 232/22/2 225/23/2
f 225/21/2 228/22/2 221/23/2
f 223/21/2 229/22/2 222/23/2
f 228/21/2 141/22/2 147/23/2
f 230/21/2 147/22/2 149/23/2
f 148/21/2 230/22/2 149/23/2
f 231/21/2 148/22/2 146/23/2
f 151/21/5 234/22/5 145/23/5
f 152/21/5 236/22/5 151/23/5
f 140/21/5 235/22/5 150/23/5
f 150/21/5 237/22/5 152/23/5
f 121/23/6 234/26/6 236/22/6
f 121/21/6 237/22/6 122/23/6
f 237/21/6 120/22/6 122/23/6
f 120/23/6 233/26/6 124/22/6
f 126/21/5 239/22/5 233/23/5
f 233/21/3 111/22/3 124/23/3
f 239/21/6 113/22/6 111/23/6
f 234/21/5 240/22/5 128/23/5
f 110/23/6 240/26/6 241/22/6
f 241/21/4 123/22/4 110/23/4
f 242/8/5 243/9/5 212/10/5
f 51/8/4 242/9/4 36/10/4
f 42/8/6 244/9/6 51/10/6
f 38/8/5 246/9/5 214/10/5
f 45/8/6 245/9/6 40/10/6
f 24/8/3 246/9/3 45/10/3
f 5/1/1 8/4/1 9/2/1
f 4/1/1 7/4/1 8/2/1
f 2/1/1 5/4/1 6/2/1
f 2/3/1 1/1/1 4/4/1
f 4/1/2 13/4/2 14/2/2
f 21/1/3 213/4/3 214/2/3
f 7/1/4 14/4/4 15/2/4
f 1/1/2 10/4/2 13/2/2
f 2/1/3 11/4/3 10/2/3
f 36/1/4 242/4/4 215/2/4
f 8/1/4 15/4/4 16/2/4
f 3/1/3 12/4/3 11/2/3
f 12/1/1 21/4/1 20/2/1
f 18/1/2 34/4/2 31/2/2
f 20/1/3 23/4/3 22/2/3
f 21/1/3 24/4/3 23/2/3
f 10/1/2 19/4/2 22/2/2
f 11/1/1 20/4/1 19/2/1
f 27/1/2 30/4/2 28/2/2
f 25/1/2 28/4/2 29/2/2
f 17/1/3 30/4/3 27/2/3
f 10/1/1 27/4/1 25/2/1
f 14/1/4 26/4/4 29/2/4
f 13/1/1 25/4/1 26/2/1
f 32/1/4 35/4/4 36/2/4
f 31/1/4 34/4/4 35/2/4
f 15/1/1 32/4/1 33/2/1
f 6/1/1 206/4/1 208/2/1
f 14/1/1 31/4/1 32/2/1
f 209/5/5 37/11/5 38/6/5
f 210/5/5 212/11/5 37/6/5
f 28/8/2 46/27/2 47/9/2
f 30/8/2 48/27/2 46/9/2
f 212/11/5 243/13/5 52/12/5
f 18/8/2 41/27/2 49/9/2
f 37/6/5 52/12/5 245/13/5
f 23/8/3 44/27/3 43/9/3
f 22/8/2 43/27/2 39/9/2
f 34/8/4 49/27/4 50/9/4
f 24/8/3 45/27/3 44/9/3
f 17/8/3 39/27/3 48/9/3
f 35/8/4 50/27/4 51/9/4
f 29/8/4 47/27/4 41/9/4
f 48/8/6 39/27/6 53/9/6
f 53/8/6 41/27/6 47/9/6
f 49/8/6 41/27/6 54/9/6
f 54/8/6 42/27/6 51/9/6
f 52/8/6 243/27/6 42/9/6
f 55/8/6 40/27/6 245/9/6
f 44/8/6 45/27/6 40/9/6
f 43/8/6 44/27/6 56/9/6
f 42/8/5 60/27/5 63/9/5
f 41/8/4 59/27/4 62/9/4
f 39/8/2 57/27/2 61/9/2
f 56/8/3 64/27/3 57/9/3
f 55/8/5 63/27/5 58/9/5
f 54/8/4 62/27/4 60/9/4
f 53/8/2 61/27/2 59/9/2
f 40/8/3 58/27/3 64/9/3
f 62/14/1 67/17/1 66/15/1
f 59/14/1 65/17/1 67/15/1
f 64/14/1 70/17/1 68/15/1
f 58/14/1 69/17/1 70/15/1
f 63/14/1 73/17/1 71/15/1
f 69/16/1 58/14/1 71/17/1
f 60/14/1 72/17/1 73/15/1
f 66/14/1 74/17/1 72/15/1
f 65/18/1 76/24/1 78/19/1
f 66/18/1 77/24/1 79/19/1
f 67/18/1 78/24/1 77/19/1
f 69/18/1 81/24/1 82/19/1
f 75/18/1 83/24/1 81/19/1
f 70/18/1 82/24/1 80/19/1
f 79/21/5 89/26/5 87/22/5
f 74/14/5 87/17/5 85/15/5
f 75/18/5 88/24/5 90/19/5
f 72/14/5 85/17/5 86/15/5
f 71/14/5 84/17/5 88/15/5
f 73/14/5 86/17/5 84/15/5
f 83/18/3 90/24/3 92/19/3
f 89/21/4 79/26/4 77/22/4
f 81/18/1 96/24/1 97/19/1
f 92/18/5 99/24/5 96/19/5
f 82/18/1 97/24/1 95/19/1
f 80/18/2 95/24/2 98/19/2
f 93/18/2 103/24/2 100/19/2
f 76/18/1 100/24/1 102/19/1
f 77/21/5 101/26/5 104/22/5
f 78/18/1 102/24/1 101/19/1
f 100/18/4 103/24/4 105/19/4
f 105/18/4 104/24/4 101/19/4
f 96/18/3 99/24/3 106/19/3
f 106/18/3 98/24/3 95/19/3
f 94/21/4 240/26/4 112/22/4
f 93/18/2 226/24/2 116/19/2
f 89/21/5 112/26/5 110/22/5
f 99/18/3 115/24/3 119/19/3
f 98/18/2 114/24/2 227/19/2
f 88/18/5 111/24/5 113/19/5
f 106/18/3 119/24/3 114/19/3
f 104/21/5 117/26/5 240/22/5
f 90/18/3 113/24/3 238/19/3
f 85/14/5 108/17/5 109/15/5
f 86/14/5 109/17/5 107/15/5
f 103/18/4 116/24/4 118/19/4
f 87/21/5 110/26/5 108/22/5
f 105/18/4 118/24/4 117/19/4
f 92/18/5 238/24/5 115/19/5
f 84/18/5 107/24/5 111/19/5
f 107/21/5 120/26/5 124/22/5
f 226/21/2 127/26/2 131/22/2
f 117/21/5 132/26/5 128/22/5
f 116/21/4 131/26/4 133/22/4
f 118/21/4 133/26/4 132/22/4
f 115/21/3 130/26/3 134/22/3
f 108/21/5 121/26/5 122/22/5
f 119/21/3 134/26/3 129/22/3
f 109/21/5 122/26/5 120/22/5
f 238/21/5 126/26/5 130/22/5
f 110/21/5 123/26/5 121/22/5
f 114/21/2 129/26/2 125/22/2
f 134/18/6 130/24/6 126/19/6
f 129/18/6 134/24/6 136/19/6
f 133/18/6 131/24/6 127/19/6
f 132/18/6 133/24/6 135/19/6
f 126/21/3 138/26/3 139/22/3
f 233/21/5 140/26/5 138/22/5
f 136/21/3 139/26/3 137/22/3
f 125/21/2 137/26/2 141/22/2
f 127/21/4 142/26/4 144/22/4
f 231/21/2 146/26/2 142/22/2
f 135/21/4 144/26/4 143/22/4
f 128/21/5 143/26/5 145/22/5
f 153/18/6 145/24/6 143/19/6
f 144/20/6 142/18/6 146/24/6
f 139/20/6 138/18/6 140/24/6
f 154/18/6 141/24/6 137/19/6
f 151/25/5 163/28/5 164/24/5
f 141/25/2 156/28/2 159/24/2
f 154/25/3 166/28/3 156/24/3
f 153/25/4 165/28/4 157/24/4
f 152/25/5 164/28/5 162/24/5
f 148/25/2 160/28/2 158/24/2
f 145/25/5 157/28/5 163/24/5
f 146/25/4 158/28/4 165/24/4
f 147/25/2 159/28/2 161/24/2
f 150/25/5 162/28/5 155/24/5
f 140/25/3 155/28/3 166/24/3
f 149/25/2 161/28/2 160/24/2
f 155/20/3 167/19/3 178/17/3
f 159/20/2 171/19/2 173/17/2
f 160/20/2 172/19/2 170/17/2
f 157/20/5 169/19/5 175/17/5
f 166/20/3 178/19/3 168/17/3
f 161/20/2 173/19/2 172/17/2
f 165/20/4 177/19/4 169/17/4
f 162/20/5 174/19/5 167/17/5
f 163/20/5 175/19/5 176/17/5
f 158/20/4 170/19/4 177/17/4
f 156/20/2 168/19/2 171/17/2
f 164/20/5 176/19/5 174/17/5
f 169/20/6 177/19/6 180/17/6
f 179/20/6 178/19/6 167/17/6
f 168/20/6 178/19/6 179/17/6
f 180/20/6 177/19/6 170/17/6
f 173/20/2 183/19/2 182/17/2
f 172/20/4 182/19/4 188/17/4
f 174/20/3 184/19/3 187/17/3
f 175/20/5 185/19/5 186/17/5
f 171/20/2 181/19/2 183/17/2
f 179/20/3 187/19/3 181/17/3
f 180/20/4 188/19/4 185/17/4
f 176/20/5 186/19/5 184/17/5
f 182/20/4 190/19/4 196/17/4
f 184/20/3 192/19/3 195/17/3
f 185/20/5 193/19/5 194/17/5
f 181/20/2 189/19/2 191/17/2
f 187/20/3 195/19/3 189/17/3
f 188/20/4 196/19/4 193/17/4
f 186/20/5 194/19/5 192/17/5
f 183/20/2 191/19/2 190/17/2
f 189/20/2 197/19/2 198/17/2
f 193/20/5 200/19/5 201/17/5
f 192/20/3 202/19/3 203/17/3
f 190/20/4 199/19/4 204/17/4
f 205/20/6 204/19/6 199/17/6
f 201/14/6 200/20/6 204/19/6
f 205/20/6 203/19/6 202/17/6
f 198/14/6 197/20/6 203/19/6
f 195/20/3 203/19/3 197/17/3
f 196/20/4 204/19/4 200/17/4
f 194/20/5 201/19/5 202/17/5
f 191/20/2 198/19/2 199/17/2
f 207/1/5 210/4/5 209/2/5
f 206/1/5 209/4/5 211/2/5
f 38/1/5 214/4/5 213/2/5
f 210/1/5 215/4/5 242/2/5
f 21/3/1 12/1/1 211/4/1
f 3/1/3 208/4/3 211/2/3
f 9/1/1 207/4/1 206/2/1
f 33/1/1 215/4/1 210/2/1
f 16/1/4 210/4/4 207/2/4
f 65/21/2 219/26/2 93/22/2
f 80/21/2 91/26/2 220/22/2
f 57/21/2 216/26/2 218/22/2
f 59/21/2 217/26/2 219/22/2
f 61/21/2 218/26/2 217/22/2
f 68/21/2 220/26/2 216/22/2
f 218/21/2 223/26/2 222/22/2
f 219/21/2 224/26/2 226/22/2
f 217/21/2 222/26/2 224/22/2
f 216/21/2 221/26/2 223/22/2
f 91/21/2 227/26/2 225/22/2
f 220/21/2 225/26/2 221/22/2
f 224/21/2 231/26/2 127/22/2
f 222/21/2 229/26/2 231/22/2
f 221/21/2 228/26/2 230/22/2
f 227/21/2 125/26/2 232/22/2
f 225/21/2 232/26/2 228/22/2
f 223/21/2 230/26/2 229/22/2
f 228/21/2 232/26/2 141/22/2
f 230/21/2 228/26/2 147/22/2
f 148/21/2 229/26/2 230/22/2
f 231/21/2 229/26/2 148/22/2
f 151/21/5 236/26/5 234/22/5
f 152/21/5 237/26/5 236/22/5
f 140/21/5 233/26/5 235/22/5
f 150/21/5 235/26/5 237/22/5
f 121/23/6 123/21/6 234/26/6
f 121/21/6 236/26/6 237/22/6
f 237/21/6 235/26/6 120/22/6
f 120/23/6 235/21/6 233/26/6
f 126/21/5 238/26/5 239/22/5
f 233/21/3 239/26/3 111/22/3
f 239/21/6 238/26/6 113/22/6
f 234/21/5 241/26/5 240/22/5
f 110/23/6 112/21/6 240/26/6
f 241/21/4 234/26/4 123/22/4
f 242/8/5 244/27/5 243/9/5
f 51/8/4 244/27/4 242/9/4
f 42/8/6 243/27/6 244/9/6
f 38/8/5 245/27/5 246/9/5
f 45/8/6 246/27/6 245/9/6
f 24/8/3 214/27/3 246/9/3
