# Blender 4.5.0
# www.blender.org
o Cube
o Sphere
o Sphere.001
v -0.125000 -0.125000 1.375000
v -0.125000 0.000000 1.375000
v -0.125000 0.125000 1.375000
v -0.000000 -0.125000 1.375000
v 0.000000 0.000000 1.375000
v 0.000000 0.125000 1.375000
v 0.125000 -0.125000 1.375000
v 0.125000 -0.000000 1.375000
v 0.125000 0.125000 1.375000
v -0.125000 -0.125000 1.250000
v -0.125000 0.000000 1.250000
v -0.125000 0.125000 1.250000
v -0.000000 -0.125000 1.250000
v 0.000000 0.125000 1.250000
v 0.125000 -0.125000 1.250000
v 0.125000 -0.000000 1.250000
v 0.125000 0.125000 1.250000
v -0.125000 -0.125000 1.125000
v -0.125000 0.125000 1.125000
v 0.125000 -0.125000 1.125000
v 0.125000 0.125000 1.125000
v -0.250000 -0.125000 1.250000
v -0.250000 0.000000 1.250000
v -0.250000 0.125000 1.250000
v -0.250000 -0.125000 1.125000
v -0.250000 0.000000 1.125000
v -0.250000 0.125000 1.125000
v -0.000000 -0.250000 1.250000
v 0.125000 -0.250000 1.250000
v -0.125000 -0.250000 1.250000
v -0.000000 -0.250000 1.125000
v 0.125000 -0.250000 1.125000
v -0.125000 -0.250000 1.125000
v 0.250000 -0.125000 1.250000
v 0.250000 -0.000000 1.250000
v 0.250000 0.125000 1.250000
v 0.250000 -0.125000 1.125000
v 0.250000 -0.000000 1.125000
v 0.250000 0.125000 1.125000
v 0.000000 0.250000 1.125000
v -0.125000 0.250000 1.125000
v -0.125000 -0.125000 1.000000
v -0.125000 0.125000 1.000000
v 0.125000 -0.125000 1.000000
v 0.125000 0.125000 1.000000
v -0.250000 -0.125000 1.000000
v -0.250000 0.000000 1.000000
v -0.250000 0.125000 1.000000
v -0.000000 -0.250000 1.000000
v 0.125000 -0.250000 1.000000
v -0.125000 -0.250000 1.000000
v 0.250000 -0.125000 1.000000
v 0.250000 -0.000000 1.000000
v 0.250000 0.125000 1.000000
v 0.000000 0.250000 1.000000
v 0.125000 0.250000 1.000000
v -0.125000 0.250000 1.000000
v -0.000000 -0.125000 1.000000
v 0.125000 -0.000000 1.000000
v 0.000000 0.125000 1.000000
v -0.125000 0.000000 1.000000
v -0.125000 -0.125000 0.875000
v -0.125000 0.125000 0.875000
v 0.125000 -0.125000 0.875000
v 0.125000 0.125000 0.875000
v -0.000000 -0.125000 0.875000
v 0.125000 -0.000000 0.875000
v 0.000000 0.125000 0.875000
v -0.125000 0.000000 0.875000
v 0.250000 -0.125000 0.875000
v 0.250000 0.125000 0.875000
v 0.250000 -0.000000 0.875000
v -0.250000 -0.125000 0.875000
v -0.250000 0.125000 0.875000
v -0.250000 0.000000 0.875000
v -0.125000 0.250000 0.875000
v 0.125000 0.250000 0.875000
v 0.000000 0.250000 0.875000
v 0.250000 0.250000 0.875000
v -0.250000 0.250000 0.875000
v -0.125000 -0.250000 0.875000
v 0.125000 -0.250000 0.875000
v -0.000000 -0.250000 0.875000
v 0.250000 -0.250000 0.875000
v -0.250000 -0.250000 0.875000
v 0.375000 -0.125000 0.875000
v 0.375000 0.125000 0.875000
v 0.375000 -0.000000 0.875000
v 0.375000 0.250000 0.875000
v 0.375000 -0.250000 0.875000
v -0.375000 -0.125000 0.875000
v -0.375000 0.125000 0.875000
v -0.375000 0.000000 0.875000
v -0.375000 0.250000 0.875000
v -0.375000 -0.250000 0.875000
v -0.125000 0.250000 0.750000
v 0.125000 0.250000 0.750000
v 0.000000 0.250000 0.750000
v 0.250000 0.250000 0.750000
v -0.250000 0.250000 0.750000
v 0.375000 0.250000 0.750000
v -0.375000 0.250000 0.750000
v -0.125000 -0.250000 0.750000
v 0.125000 -0.250000 0.750000
v -0.000000 -0.250000 0.750000
v 0.250000 -0.250000 0.750000
v -0.250000 -0.250000 0.750000
v 0.375000 -0.250000 0.750000
v -0.375000 -0.250000 0.750000
v -0.375000 -0.125000 0.750000
v -0.375000 0.125000 0.750000
v 0.375000 -0.125000 0.750000
v 0.375000 0.125000 0.750000
v -0.500000 -0.125000 0.875000
v -0.500000 0.125000 0.875000
v -0.500000 0.000000 0.875000
v -0.500000 -0.125000 0.750000
v -0.500000 0.125000 0.750000
v 0.500000 -0.125000 0.875000
v 0.500000 0.125000 0.875000
v 0.500000 -0.000000 0.875000
v 0.500000 -0.125000 0.750000
v 0.500000 0.125000 0.750000
v 0.500000 -0.000000 0.750000
v -0.500000 0.000000 0.750000
v -0.125000 0.250000 0.625000
v 0.125000 0.250000 0.625000
v 0.000000 0.250000 0.625000
v 0.250000 0.250000 0.625000
v -0.250000 0.250000 0.625000
v 0.375000 0.250000 0.625000
v -0.375000 0.250000 0.625000
v -0.125000 -0.250000 0.625000
v 0.125000 -0.250000 0.625000
v -0.000000 -0.250000 0.625000
v 0.250000 -0.250000 0.625000
v -0.250000 -0.250000 0.625000
v 0.375000 -0.250000 0.625000
v -0.375000 -0.250000 0.625000
v -0.375000 -0.125000 0.625000
v -0.375000 0.125000 0.625000
v 0.375000 -0.125000 0.625000
v 0.375000 0.125000 0.625000
v -0.500000 -0.125000 0.625000
v -0.500000 0.125000 0.625000
v 0.500000 -0.125000 0.625000
v 0.500000 0.125000 0.625000
v 0.500000 -0.000000 0.625000
v -0.500000 0.000000 0.625000
v -0.125000 0.250000 0.500000
v 0.125000 0.250000 0.500000
v 0.000000 0.250000 0.500000
v 0.250000 0.250000 0.500000
v -0.250000 0.250000 0.500000
v 0.375000 0.250000 0.500000
v -0.375000 0.250000 0.500000
v -0.125000 -0.250000 0.500000
v 0.125000 -0.250000 0.500000
v -0.000000 -0.250000 0.500000
v 0.250000 -0.250000 0.500000
v -0.250000 -0.250000 0.500000
v 0.375000 -0.250000 0.500000
v -0.375000 -0.250000 0.500000
v -0.375000 -0.125000 0.500000
v -0.375000 0.125000 0.500000
v 0.375000 -0.125000 0.500000
v 0.375000 0.125000 0.500000
v -0.500000 -0.125000 0.500000
v -0.500000 0.125000 0.500000
v 0.500000 -0.125000 0.500000
v 0.500000 0.125000 0.500000
v 0.500000 -0.000000 0.500000
v -0.500000 0.000000 0.500000
v -0.125000 0.250000 0.375000
v 0.125000 0.250000 0.375000
v 0.000000 0.250000 0.375000
v 0.250000 0.250000 0.375000
v -0.250000 0.250000 0.375000
v -0.125000 -0.250000 0.375000
v 0.125000 -0.250000 0.375000
v -0.000000 -0.250000 0.375000
v 0.250000 -0.250000 0.375000
v -0.250000 -0.250000 0.375000
v 0.375000 -0.000000 0.500000
v -0.375000 0.000000 0.500000
v 0.250000 0.125000 0.500000
v -0.250000 0.125000 0.500000
v 0.250000 -0.125000 0.500000
v -0.250000 -0.125000 0.500000
v -0.375000 -0.125000 0.375000
v -0.375000 0.125000 0.375000
v -0.375000 0.000000 0.375000
v -0.250000 0.125000 0.375000
v -0.250000 -0.125000 0.375000
v 0.375000 -0.125000 0.375000
v 0.375000 0.125000 0.375000
v 0.375000 -0.000000 0.375000
v 0.250000 0.125000 0.375000
v 0.250000 -0.125000 0.375000
v -0.125000 -0.125000 0.375000
v 0.125000 -0.125000 0.375000
v -0.000000 -0.125000 0.375000
v -0.125000 0.125000 0.375000
v 0.125000 0.125000 0.375000
v 0.000000 0.125000 0.375000
v 0.250000 -0.000000 0.375000
v -0.250000 0.000000 0.375000
v -0.250000 0.125000 0.250000
v -0.250000 -0.125000 0.250000
v 0.250000 0.125000 0.250000
v 0.250000 -0.125000 0.250000
v -0.125000 -0.125000 0.250000
v 0.125000 -0.125000 0.250000
v -0.000000 -0.125000 0.250000
v -0.125000 0.125000 0.250000
v 0.125000 0.125000 0.250000
v 0.000000 0.125000 0.250000
v 0.250000 -0.000000 0.250000
v -0.250000 0.000000 0.250000
v -0.250000 0.125000 0.125000
v -0.250000 -0.125000 0.125000
v 0.250000 0.125000 0.125000
v 0.250000 -0.125000 0.125000
v -0.125000 -0.125000 0.125000
v 0.125000 -0.125000 0.125000
v -0.000000 -0.125000 0.125000
v -0.125000 0.125000 0.125000
v 0.125000 0.125000 0.125000
v 0.000000 0.125000 0.125000
v 0.250000 -0.000000 0.125000
v -0.250000 0.000000 0.125000
v -0.125000 0.000000 0.125000
v 0.125000 -0.000000 0.125000
v -0.125000 -0.125000 0.000000
v 0.125000 -0.125000 0.000000
v -0.000000 -0.125000 0.000000
v -0.125000 0.125000 0.000000
v 0.125000 0.125000 0.000000
v 0.000000 0.125000 0.000000
v -0.125000 0.000000 0.000000
v 0.125000 -0.000000 0.000000
v -0.125000 -0.125000 -0.125000
v 0.125000 -0.125000 -0.125000
v -0.000000 -0.125000 -0.125000
v -0.125000 0.125000 -0.125000
v 0.125000 0.125000 -0.125000
v 0.000000 0.125000 -0.125000
v -0.125000 0.000000 -0.125000
v 0.125000 -0.000000 -0.125000
v -0.125000 -0.125000 -0.250000
v -0.000000 -0.125000 -0.250000
v 0.125000 -0.125000 -0.250000
v 0.125000 0.125000 -0.250000
v 0.000000 0.125000 -0.250000
v -0.125000 0.125000 -0.250000
v -0.125000 0.000000 -0.250000
v 0.125000 -0.000000 -0.250000
v 0.000000 -0.000000 -0.250000
v 0.000000 0.250000 1.375000
v 0.125000 0.250000 1.375000
v -0.125000 0.250000 1.375000
v 0.000000 0.250000 1.250000
v 0.125000 0.250000 1.250000
v -0.125000 0.250000 1.250000
v 0.125000 0.250000 1.125000
v -0.250000 0.250000 1.250000
v -0.250000 0.250000 1.125000
v 0.250000 0.250000 1.125000
v 0.250000 0.250000 1.250000
vn -0.0000 -0.0000 1.0000
vn -0.0000 -1.0000 -0.0000
vn -1.0000 -0.0000 -0.0000
vn 1.0000 -0.0000 -0.0000
vn -0.0000 1.0000 -0.0000
vn -0.0000 -0.0000 -1.0000
vt 0.093750 0.937500
vt 0.078125 0.953125
vt 0.078125 0.937500
vt 0.093750 0.953125
vt 0.062500 0.984375
vt 0.046875 1.000000
vt 0.046875 0.984375
vt 0.015625 0.984375
vt 0.031250 0.968750
vt 0.031250 0.984375
vt 0.031250 0.984375
vt 0.015625 1.000000
vt 0.015625 0.984375
vt 0.015625 0.968750
vt 0.031250 0.953125
vt 0.015625 0.953125
vt 0.015625 0.921875
vt 0.000000 0.937500
vt 0.000000 0.921875
vt 0.015625 0.937500
vt 0.031250 0.921875
vt 0.046875 0.937500
vt 0.031250 0.937500
vt 0.046875 0.921875
vt 0.046875 0.921875
vt 0.031250 0.937500
vt 0.031250 0.921875
vt 0.062500 0.921875
vt 0.062500 1.000000
vt 0.031250 1.000000
vt 0.046875 0.937500
vt 0.062500 0.937500
s 0
f 5/1/1 9/2/1 6/3/1
f 4/1/1 8/2/1 5/3/1
f 2/1/1 6/2/1 3/3/1
f 2/3/1 4/4/1 5/2/1
f 4/1/2 15/2/2 7/3/2
f 24/1/3 267/2/3 27/3/3
f 7/1/4 16/2/4 8/3/4
f 1/1/2 13/2/2 4/3/2
f 2/1/3 10/2/3 1/3/3
f 39/1/4 269/2/4 36/3/4
f 8/1/4 17/2/4 9/3/4
f 3/1/3 11/2/3 2/3/3
f 12/1/1 23/2/1 11/3/1
f 20/1/2 34/2/2 15/3/2
f 12/5/3 41/6/3 19/7/3
f 23/1/3 25/2/3 22/3/3
f 24/1/3 26/2/3 23/3/3
f 10/1/2 25/2/2 18/3/2
f 11/1/1 22/2/1 10/3/1
f 30/1/2 31/2/2 28/3/2
f 28/1/2 32/2/2 29/3/2
f 18/1/3 30/2/3 10/3/3
f 10/1/1 28/2/1 13/3/1
f 15/1/4 32/2/4 20/3/4
f 13/1/1 29/2/1 15/3/1
f 35/1/4 39/2/4 36/3/4
f 34/1/4 38/2/4 35/3/4
f 16/1/1 36/2/1 17/3/1
f 6/1/1 261/2/1 3/3/1
f 15/1/1 35/2/1 16/3/1
f 262/8/5 41/9/5 264/10/5
f 263/8/5 40/9/5 262/10/5
f 31/11/2 50/12/2 32/13/2
f 21/11/4 56/12/4 265/13/4
f 33/11/2 49/12/2 31/13/2
f 265/14/5 55/15/5 40/9/5
f 20/11/2 52/12/2 37/13/2
f 40/9/5 57/16/5 41/14/5
f 19/11/5 48/12/5 27/13/5
f 26/11/3 46/12/3 25/13/3
f 25/11/2 42/12/2 18/13/2
f 37/11/4 53/12/4 38/13/4
f 27/11/3 47/12/3 26/13/3
f 18/11/3 51/12/3 33/13/3
f 38/11/4 54/12/4 39/13/4
f 32/11/4 44/12/4 20/13/4
f 39/11/5 45/12/5 21/13/5
f 41/11/3 43/12/3 19/13/3
f 51/11/6 58/12/6 49/13/6
f 58/11/6 50/12/6 49/13/6
f 52/11/6 59/12/6 53/13/6
f 59/11/6 54/12/6 53/13/6
f 55/11/6 45/12/6 60/13/6
f 60/11/6 57/12/6 55/13/6
f 47/11/6 43/12/6 61/13/6
f 46/11/6 61/12/6 42/13/6
f 45/11/5 68/12/5 60/13/5
f 44/11/4 67/12/4 59/13/4
f 42/11/2 66/12/2 58/13/2
f 61/11/3 62/12/3 42/13/3
f 60/11/5 63/12/5 43/13/5
f 59/11/4 65/12/4 45/13/4
f 58/11/2 64/12/2 44/13/2
f 43/11/3 69/12/3 61/13/3
f 67/17/1 71/18/1 65/19/1
f 64/17/1 72/18/1 67/19/1
f 69/17/1 73/18/1 62/19/1
f 63/17/1 75/18/1 69/19/1
f 68/17/1 76/18/1 63/19/1
f 74/19/1 76/20/1 80/18/1
f 65/17/1 78/18/1 68/19/1
f 71/17/1 77/18/1 65/19/1
f 70/21/1 82/22/1 84/23/1
f 66/17/1 82/18/1 64/19/1
f 73/24/1 81/23/1 62/21/1
f 62/17/1 83/18/1 66/19/1
f 70/24/1 88/23/1 72/21/1
f 71/24/1 89/23/1 79/21/1
f 72/24/1 87/23/1 71/21/1
f 84/24/1 86/23/1 70/21/1
f 74/24/1 93/23/1 75/21/1
f 80/24/1 92/23/1 74/21/1
f 73/24/1 95/23/1 85/21/1
f 75/24/1 91/23/1 73/21/1
f 89/25/5 99/26/5 79/27/5
f 79/17/5 97/18/5 77/19/5
f 80/24/5 102/23/5 94/21/5
f 77/17/5 98/18/5 78/19/5
f 76/17/5 100/18/5 80/19/5
f 78/17/5 96/18/5 76/19/5
f 84/24/2 108/23/2 90/21/2
f 82/24/2 106/23/2 84/21/2
f 81/24/2 105/23/2 83/21/2
f 95/24/2 107/23/2 85/21/2
f 85/24/2 103/23/2 81/21/2
f 83/24/2 104/23/2 82/21/2
f 94/24/3 111/23/3 92/21/3
f 109/24/3 91/23/3 110/21/3
f 90/24/4 112/23/4 86/21/4
f 101/25/4 87/26/4 113/27/4
f 92/24/1 116/23/1 93/21/1
f 111/24/5 115/23/5 92/21/5
f 93/24/1 114/23/1 91/21/1
f 91/24/2 117/23/2 110/21/2
f 112/24/2 119/23/2 86/21/2
f 86/24/1 121/23/1 88/21/1
f 87/25/5 123/26/5 113/27/5
f 88/24/1 120/23/1 87/21/1
f 119/24/4 124/23/4 121/21/4
f 124/24/4 120/23/4 121/21/4
f 115/24/3 125/23/3 116/21/3
f 125/24/3 114/23/3 116/21/3
f 113/25/4 131/26/4 101/27/4
f 112/24/2 146/23/2 122/21/2
f 101/25/5 129/26/5 99/27/5
f 118/24/3 149/23/3 125/21/3
f 117/24/2 140/23/2 110/21/2
f 100/24/5 132/23/5 102/21/5
f 125/24/3 144/23/3 117/21/3
f 123/25/5 143/26/5 113/27/5
f 103/24/2 135/23/2 105/21/2
f 102/24/3 141/23/3 111/21/3
f 105/24/2 134/23/2 104/21/2
f 110/24/3 139/23/3 109/21/3
f 97/17/5 128/18/5 98/19/5
f 104/24/2 136/23/2 106/21/2
f 98/17/5 126/18/5 96/19/5
f 122/24/4 148/23/4 124/21/4
f 107/24/2 133/23/2 103/21/2
f 99/25/5 127/26/5 97/27/5
f 124/24/4 147/23/4 123/21/4
f 106/24/2 138/23/2 108/21/2
f 108/24/4 142/23/4 112/21/4
f 111/24/5 145/23/5 118/21/5
f 96/24/5 130/23/5 100/21/5
f 109/24/2 137/23/2 107/21/2
f 136/25/2 162/26/2 138/27/2
f 126/25/5 154/26/5 130/27/5
f 142/25/2 170/26/2 146/27/2
f 139/25/2 161/26/2 137/27/2
f 131/25/5 153/26/5 129/27/5
f 147/25/5 167/26/5 143/27/5
f 132/25/3 165/26/3 141/27/3
f 130/25/5 156/26/5 132/27/5
f 146/25/4 172/26/4 148/27/4
f 140/25/3 163/26/3 139/27/3
f 133/25/2 159/26/2 135/27/2
f 148/25/4 171/26/4 147/27/4
f 138/25/4 166/26/4 142/27/4
f 135/25/2 158/26/2 134/27/2
f 145/25/3 173/26/3 149/27/3
f 127/25/5 152/26/5 128/27/5
f 143/25/4 155/26/4 131/27/4
f 134/25/2 160/26/2 136/27/2
f 149/25/3 168/26/3 144/27/3
f 128/25/5 150/26/5 126/27/5
f 141/25/5 169/26/5 145/27/5
f 137/25/2 157/26/2 133/27/2
f 129/25/5 151/26/5 127/27/5
f 144/25/2 164/26/2 140/27/2
f 153/25/5 175/26/5 151/27/5
f 151/25/5 176/26/5 152/27/5
f 161/25/2 179/26/2 157/27/2
f 159/25/2 180/26/2 158/27/2
f 150/25/5 178/26/5 154/27/5
f 152/25/5 174/26/5 150/27/5
f 158/25/2 182/26/2 160/27/2
f 157/25/2 181/26/2 159/27/2
f 173/24/6 165/23/6 185/21/6
f 168/24/6 185/23/6 164/21/6
f 172/24/6 166/23/6 184/21/6
f 171/24/6 184/23/6 167/21/6
f 153/21/6 167/22/6 186/23/6
f 165/24/6 154/23/6 187/21/6
f 161/21/6 164/22/6 189/23/6
f 166/24/6 160/23/6 188/21/6
f 165/25/3 192/26/3 185/27/3
f 187/25/5 191/26/5 165/27/5
f 185/25/3 190/26/3 164/27/3
f 164/25/2 194/26/2 189/27/2
f 166/25/4 197/26/4 184/27/4
f 188/25/2 195/26/2 166/27/2
f 184/25/4 196/26/4 167/27/4
f 167/25/5 198/26/5 186/27/5
f 199/25/4 160/26/4 182/27/4
f 186/25/4 177/26/4 153/27/4
f 193/25/3 154/26/3 178/27/3
f 189/25/3 183/26/3 161/27/3
f 180/21/6 202/22/6 201/23/6
f 179/24/6 202/23/6 181/21/6
f 174/21/6 205/22/6 203/23/6
f 175/24/6 205/23/6 176/21/6
f 175/21/6 198/22/6 204/23/6
f 174/21/6 193/22/6 178/23/6
f 179/21/6 194/22/6 200/23/6
f 180/21/6 199/22/6 182/23/6
f 206/24/6 196/23/6 197/21/6
f 197/21/6 199/22/6 206/23/6
f 192/21/6 193/22/6 207/23/6
f 207/24/6 190/23/6 192/21/6
f 204/28/5 217/22/5 205/24/5
f 194/28/2 212/22/2 200/24/2
f 207/28/3 209/22/3 194/24/3
f 206/28/4 210/22/4 198/24/4
f 205/28/5 215/22/5 203/24/5
f 201/28/2 211/22/2 199/24/2
f 198/28/5 216/22/5 204/24/5
f 199/28/4 218/22/4 206/24/4
f 200/28/2 214/22/2 202/24/2
f 203/28/5 208/22/5 193/24/5
f 193/28/3 219/22/3 207/24/3
f 202/28/2 213/22/2 201/24/2
f 208/21/3 231/20/3 219/17/3
f 212/21/2 226/20/2 214/17/2
f 213/21/2 223/20/2 211/17/2
f 210/21/5 228/20/5 216/17/5
f 219/21/3 221/20/3 209/17/3
f 214/21/2 225/20/2 213/17/2
f 218/21/4 222/20/4 210/17/4
f 215/21/5 220/20/5 208/17/5
f 216/21/5 229/20/5 217/17/5
f 211/21/4 230/20/4 218/17/4
f 209/21/2 224/20/2 212/17/2
f 217/21/5 227/20/5 215/17/5
f 222/21/6 233/20/6 228/17/6
f 232/21/6 220/20/6 227/17/6
f 221/21/6 232/20/6 224/17/6
f 233/21/6 223/20/6 225/17/6
f 226/21/2 235/20/2 225/17/2
f 225/21/4 241/20/4 233/17/4
f 227/21/3 240/20/3 232/17/3
f 228/21/5 239/20/5 229/17/5
f 224/21/2 236/20/2 226/17/2
f 232/21/3 234/20/3 224/17/3
f 233/21/4 238/20/4 228/17/4
f 229/21/5 237/20/5 227/17/5
f 235/21/4 249/20/4 241/17/4
f 237/21/3 248/20/3 240/17/3
f 238/21/5 247/20/5 239/17/5
f 234/21/2 244/20/2 236/17/2
f 240/21/3 242/20/3 234/17/3
f 241/21/4 246/20/4 238/17/4
f 239/21/5 245/20/5 237/17/5
f 236/21/2 243/20/2 235/17/2
f 242/21/2 251/20/2 244/17/2
f 246/21/5 254/20/5 247/17/5
f 245/21/3 256/20/3 248/17/3
f 243/21/4 257/20/4 249/17/4
f 258/21/6 252/20/6 251/17/6
f 254/17/6 257/23/6 258/20/6
f 258/21/6 255/20/6 254/17/6
f 251/17/6 256/23/6 258/20/6
f 248/21/3 250/20/3 242/17/3
f 249/21/4 253/20/4 246/17/4
f 247/21/5 255/20/5 245/17/5
f 244/21/2 252/20/2 243/17/2
f 260/1/5 262/2/5 259/3/5
f 259/1/5 264/2/5 261/3/5
f 41/1/5 266/2/5 264/3/5
f 263/1/5 268/2/5 265/3/5
f 14/5/1 264/7/1 12/7/1
f 24/3/1 264/4/1 266/2/1
f 3/1/3 264/2/3 12/3/3
f 9/1/1 259/2/1 6/3/1
f 27/1/6 41/2/6 19/3/6
f 36/1/1 263/2/1 17/3/1
f 17/1/4 260/2/4 9/3/4
f 263/5/1 14/7/1 17/5/1
f 39/3/6 265/4/6 268/2/6
f 17/7/3 265/5/3 21/5/3
f 5/1/1 8/4/1 9/2/1
f 4/1/1 7/4/1 8/2/1
f 2/1/1 5/4/1 6/2/1
f 2/3/1 1/1/1 4/4/1
f 4/1/2 13/4/2 15/2/2
f 24/1/3 266/4/3 267/2/3
f 7/1/4 15/4/4 16/2/4
f 1/1/2 10/4/2 13/2/2
f 2/1/3 11/4/3 10/2/3
f 39/1/4 268/4/4 269/2/4
f 8/1/4 16/4/4 17/2/4
f 3/1/3 12/4/3 11/2/3
f 12/1/1 24/4/1 23/2/1
f 20/1/2 37/4/2 34/2/2
f 12/5/3 264/29/3 41/6/3
f 23/1/3 26/4/3 25/2/3
f 24/1/3 27/4/3 26/2/3
f 10/1/2 22/4/2 25/2/2
f 11/1/1 23/4/1 22/2/1
f 30/1/2 33/4/2 31/2/2
f 28/1/2 31/4/2 32/2/2
f 18/1/3 33/4/3 30/2/3
f 10/1/1 30/4/1 28/2/1
f 15/1/4 29/4/4 32/2/4
f 13/1/1 28/4/1 29/2/1
f 35/1/4 38/4/4 39/2/4
f 34/1/4 37/4/4 38/2/4
f 16/1/1 35/4/1 36/2/1
f 6/1/1 259/4/1 261/2/1
f 15/1/1 34/4/1 35/2/1
f 262/8/5 40/14/5 41/9/5
f 263/8/5 265/14/5 40/9/5
f 31/11/2 49/30/2 50/12/2
f 21/11/4 45/30/4 56/12/4
f 33/11/2 51/30/2 49/12/2
f 265/14/5 56/16/5 55/15/5
f 20/11/2 44/30/2 52/12/2
f 40/9/5 55/15/5 57/16/5
f 19/11/5 43/30/5 48/12/5
f 26/11/3 47/30/3 46/12/3
f 25/11/2 46/30/2 42/12/2
f 37/11/4 52/30/4 53/12/4
f 27/11/3 48/30/3 47/12/3
f 18/11/3 42/30/3 51/12/3
f 38/11/4 53/30/4 54/12/4
f 32/11/4 50/30/4 44/12/4
f 39/11/5 54/30/5 45/12/5
f 41/11/3 57/30/3 43/12/3
f 51/11/6 42/30/6 58/12/6
f 58/11/6 44/30/6 50/12/6
f 52/11/6 44/30/6 59/12/6
f 59/11/6 45/30/6 54/12/6
f 55/11/6 56/30/6 45/12/6
f 60/11/6 43/30/6 57/12/6
f 47/11/6 48/30/6 43/12/6
f 46/11/6 47/30/6 61/12/6
f 45/11/5 65/30/5 68/12/5
f 44/11/4 64/30/4 67/12/4
f 42/11/2 62/30/2 66/12/2
f 61/11/3 69/30/3 62/12/3
f 60/11/5 68/30/5 63/12/5
f 59/11/4 67/30/4 65/12/4
f 58/11/2 66/30/2 64/12/2
f 43/11/3 63/30/3 69/12/3
f 67/17/1 72/20/1 71/18/1
f 64/17/1 70/20/1 72/18/1
f 69/17/1 75/20/1 73/18/1
f 63/17/1 74/20/1 75/18/1
f 68/17/1 78/20/1 76/18/1
f 74/19/1 63/17/1 76/20/1
f 65/17/1 77/20/1 78/18/1
f 71/17/1 79/20/1 77/18/1
f 70/21/1 64/24/1 82/22/1
f 66/17/1 83/20/1 82/18/1
f 73/24/1 85/22/1 81/23/1
f 62/17/1 81/20/1 83/18/1
f 70/24/1 86/22/1 88/23/1
f 71/24/1 87/22/1 89/23/1
f 72/24/1 88/22/1 87/23/1
f 84/24/1 90/22/1 86/23/1
f 74/24/1 92/22/1 93/23/1
f 80/24/1 94/22/1 92/23/1
f 73/24/1 91/22/1 95/23/1
f 75/24/1 93/22/1 91/23/1
f 89/25/5 101/31/5 99/26/5
f 79/17/5 99/20/5 97/18/5
f 80/24/5 100/22/5 102/23/5
f 77/17/5 97/20/5 98/18/5
f 76/17/5 96/20/5 100/18/5
f 78/17/5 98/20/5 96/18/5
f 84/24/2 106/22/2 108/23/2
f 82/24/2 104/22/2 106/23/2
f 81/24/2 103/22/2 105/23/2
f 95/24/2 109/22/2 107/23/2
f 85/24/2 107/22/2 103/23/2
f 83/24/2 105/22/2 104/23/2
f 94/24/3 102/22/3 111/23/3
f 109/24/3 95/22/3 91/23/3
f 90/24/4 108/22/4 112/23/4
f 101/25/4 89/31/4 87/26/4
f 92/24/1 115/22/1 116/23/1
f 111/24/5 118/22/5 115/23/5
f 93/24/1 116/22/1 114/23/1
f 91/24/2 114/22/2 117/23/2
f 112/24/2 122/22/2 119/23/2
f 86/24/1 119/22/1 121/23/1
f 87/25/5 120/31/5 123/26/5
f 88/24/1 121/22/1 120/23/1
f 119/24/4 122/22/4 124/23/4
f 124/24/4 123/22/4 120/23/4
f 115/24/3 118/22/3 125/23/3
f 125/24/3 117/22/3 114/23/3
f 113/25/4 143/31/4 131/26/4
f 112/24/2 142/22/2 146/23/2
f 101/25/5 131/31/5 129/26/5
f 118/24/3 145/22/3 149/23/3
f 117/24/2 144/22/2 140/23/2
f 100/24/5 130/22/5 132/23/5
f 125/24/3 149/22/3 144/23/3
f 123/25/5 147/31/5 143/26/5
f 103/24/2 133/22/2 135/23/2
f 102/24/3 132/22/3 141/23/3
f 105/24/2 135/22/2 134/23/2
f 110/24/3 140/22/3 139/23/3
f 97/17/5 127/20/5 128/18/5
f 104/24/2 134/22/2 136/23/2
f 98/17/5 128/20/5 126/18/5
f 122/24/4 146/22/4 148/23/4
f 107/24/2 137/22/2 133/23/2
f 99/25/5 129/31/5 127/26/5
f 124/24/4 148/22/4 147/23/4
f 106/24/2 136/22/2 138/23/2
f 108/24/4 138/22/4 142/23/4
f 111/24/5 141/22/5 145/23/5
f 96/24/5 126/22/5 130/23/5
f 109/24/2 139/22/2 137/23/2
f 136/25/2 160/31/2 162/26/2
f 126/25/5 150/31/5 154/26/5
f 142/25/2 166/31/2 170/26/2
f 139/25/2 163/31/2 161/26/2
f 131/25/5 155/31/5 153/26/5
f 147/25/5 171/31/5 167/26/5
f 132/25/3 156/31/3 165/26/3
f 130/25/5 154/31/5 156/26/5
f 146/25/4 170/31/4 172/26/4
f 140/25/3 164/31/3 163/26/3
f 133/25/2 157/31/2 159/26/2
f 148/25/4 172/31/4 171/26/4
f 138/25/4 162/31/4 166/26/4
f 135/25/2 159/31/2 158/26/2
f 145/25/3 169/31/3 173/26/3
f 127/25/5 151/31/5 152/26/5
f 143/25/4 167/31/4 155/26/4
f 134/25/2 158/31/2 160/26/2
f 149/25/3 173/31/3 168/26/3
f 128/25/5 152/31/5 150/26/5
f 141/25/5 165/31/5 169/26/5
f 137/25/2 161/31/2 157/26/2
f 129/25/5 153/31/5 151/26/5
f 144/25/2 168/31/2 164/26/2
f 153/25/5 177/31/5 175/26/5
f 151/25/5 175/31/5 176/26/5
f 161/25/2 183/31/2 179/26/2
f 159/25/2 181/31/2 180/26/2
f 150/25/5 174/31/5 178/26/5
f 152/25/5 176/31/5 174/26/5
f 158/25/2 180/31/2 182/26/2
f 157/25/2 179/31/2 181/26/2
f 173/24/6 169/22/6 165/23/6
f 168/24/6 173/22/6 185/23/6
f 172/24/6 170/22/6 166/23/6
f 171/24/6 172/22/6 184/23/6
f 153/21/6 155/24/6 167/22/6
f 165/24/6 156/22/6 154/23/6
f 161/21/6 163/24/6 164/22/6
f 166/24/6 162/22/6 160/23/6
f 165/25/3 191/31/3 192/26/3
f 187/25/5 193/31/5 191/26/5
f 185/25/3 192/31/3 190/26/3
f 164/25/2 190/31/2 194/26/2
f 166/25/4 195/31/4 197/26/4
f 188/25/2 199/31/2 195/26/2
f 184/25/4 197/31/4 196/26/4
f 167/25/5 196/31/5 198/26/5
f 199/25/4 188/31/4 160/26/4
f 186/25/4 198/31/4 177/26/4
f 193/25/3 187/31/3 154/26/3
f 189/25/3 194/31/3 183/26/3
f 180/21/6 181/24/6 202/22/6
f 179/24/6 200/22/6 202/23/6
f 174/21/6 176/24/6 205/22/6
f 175/24/6 204/22/6 205/23/6
f 175/21/6 177/24/6 198/22/6
f 174/21/6 203/24/6 193/22/6
f 179/21/6 183/24/6 194/22/6
f 180/21/6 201/24/6 199/22/6
f 206/24/6 198/22/6 196/23/6
f 197/21/6 195/24/6 199/22/6
f 192/21/6 191/24/6 193/22/6
f 207/24/6 194/22/6 190/23/6
f 204/28/5 216/32/5 217/22/5
f 194/28/2 209/32/2 212/22/2
f 207/28/3 219/32/3 209/22/3
f 206/28/4 218/32/4 210/22/4
f 205/28/5 217/32/5 215/22/5
f 201/28/2 213/32/2 211/22/2
f 198/28/5 210/32/5 216/22/5
f 199/28/4 211/32/4 218/22/4
f 200/28/2 212/32/2 214/22/2
f 203/28/5 215/32/5 208/22/5
f 193/28/3 208/32/3 219/22/3
f 202/28/2 214/32/2 213/22/2
f 208/21/3 220/23/3 231/20/3
f 212/21/2 224/23/2 226/20/2
f 213/21/2 225/23/2 223/20/2
f 210/21/5 222/23/5 228/20/5
f 219/21/3 231/23/3 221/20/3
f 214/21/2 226/23/2 225/20/2
f 218/21/4 230/23/4 222/20/4
f 215/21/5 227/23/5 220/20/5
f 216/21/5 228/23/5 229/20/5
f 211/21/4 223/23/4 230/20/4
f 209/21/2 221/23/2 224/20/2
f 217/21/5 229/23/5 227/20/5
f 222/21/6 230/23/6 233/20/6
f 232/21/6 231/23/6 220/20/6
f 221/21/6 231/23/6 232/20/6
f 233/21/6 230/23/6 223/20/6
f 226/21/2 236/23/2 235/20/2
f 225/21/4 235/23/4 241/20/4
f 227/21/3 237/23/3 240/20/3
f 228/21/5 238/23/5 239/20/5
f 224/21/2 234/23/2 236/20/2
f 232/21/3 240/23/3 234/20/3
f 233/21/4 241/23/4 238/20/4
f 229/21/5 239/23/5 237/20/5
f 235/21/4 243/23/4 249/20/4
f 237/21/3 245/23/3 248/20/3
f 238/21/5 246/23/5 247/20/5
f 234/21/2 242/23/2 244/20/2
f 240/21/3 248/23/3 242/20/3
f 241/21/4 249/23/4 246/20/4
f 239/21/5 247/23/5 245/20/5
f 236/21/2 244/23/2 243/20/2
f 242/21/2 250/23/2 251/20/2
f 246/21/5 253/23/5 254/20/5
f 245/21/3 255/23/3 256/20/3
f 243/21/4 252/23/4 257/20/4
f 258/21/6 257/23/6 252/20/6
f 254/17/6 253/21/6 257/23/6
f 258/21/6 256/23/6 255/20/6
f 251/17/6 250/21/6 256/23/6
f 248/21/3 256/23/3 250/20/3
f 249/21/4 257/23/4 253/20/4
f 247/21/5 254/23/5 255/20/5
f 244/21/2 251/23/2 252/20/2
f 260/1/5 263/4/5 262/2/5
f 259/1/5 262/4/5 264/2/5
f 41/1/5 267/4/5 266/2/5
f 263/1/5 269/4/5 268/2/5
f 14/5/1 262/5/1 264/7/1
f 24/3/1 12/1/1 264/4/1
f 3/1/3 261/4/3 264/2/3
f 9/1/1 260/4/1 259/2/1
f 27/1/6 267/4/6 41/2/6
f 36/1/1 269/4/1 263/2/1
f 17/1/4 263/4/4 260/2/4
f 263/5/1 262/7/1 14/7/1
f 39/3/6 21/1/6 265/4/6
f 17/7/3 263/7/3 265/5/3
