# Blender 4.5.0
# www.blender.org
o Cube
o Sphere
o Sphere.001
v -0.125000 0.125000 1.375000
v 0.000000 0.125000 1.375000
v 0.125000 0.125000 1.375000
v -0.125000 0.000000 1.375000
v 0.000000 0.000000 1.375000
v 0.125000 0.000000 1.375000
v -0.125000 -0.125000 1.375000
v 0.000000 -0.125000 1.375000
v 0.125000 -0.125000 1.375000
v -0.125000 0.125000 1.250000
v 0.000000 0.125000 1.250000
v 0.125000 0.125000 1.250000
v -0.125000 -0.000000 1.250000
v 0.125000 -0.000000 1.250000
v -0.125000 -0.125000 1.250000
v 0.000000 -0.125000 1.250000
v 0.125000 -0.125000 1.250000
v -0.125000 0.125000 1.125000
v 0.125000 0.125000 1.125000
v -0.125000 -0.125000 1.125000
v 0.125000 -0.125000 1.125000
v -0.125000 0.250000 1.250000
v 0.000000 0.250000 1.250000
v 0.125000 0.250000 1.250000
v -0.125000 0.250000 1.125000
v 0.000000 0.250000 1.125000
v 0.125000 0.250000 1.125000
v -0.250000 -0.000000 1.250000
v -0.250000 -0.125000 1.250000
v -0.250000 0.125000 1.250000
v -0.250000 -0.000000 1.125000
v -0.250000 -0.125000 1.125000
v -0.250000 0.125000 1.125000
v -0.125000 -0.250000 1.250000
v 0.000000 -0.250000 1.250000
v 0.125000 -0.250000 1.250000
v -0.125000 -0.250000 1.125000
v 0.000000 -0.250000 1.125000
v 0.125000 -0.250000 1.125000
v 0.250000 -0.000000 1.250000
v 0.250000 -0.125000 1.250000
v 0.250000 0.125000 1.250000
v 0.250000 -0.000000 1.125000
v 0.250000 -0.125000 1.125000
v 0.250000 0.125000 1.125000
v -0.125000 0.125000 1.000000
v 0.125000 0.125000 1.000000
v -0.125000 -0.125000 1.000000
v 0.125000 -0.125000 1.000000
v -0.125000 0.250000 1.000000
v 0.000000 0.250000 1.000000
v 0.125000 0.250000 1.000000
v -0.250000 -0.000000 1.000000
v -0.250000 -0.125000 1.000000
v -0.250000 0.125000 1.000000
v -0.125000 -0.250000 1.000000
v 0.000000 -0.250000 1.000000
v 0.125000 -0.250000 1.000000
v 0.250000 -0.000000 1.000000
v 0.250000 -0.125000 1.000000
v 0.250000 0.125000 1.000000
v -0.125000 -0.000000 1.000000
v 0.000000 -0.125000 1.000000
v 0.125000 -0.000000 1.000000
v 0.000000 0.125000 1.000000
v -0.125000 0.125000 0.875000
v 0.125000 0.125000 0.875000
v -0.125000 -0.125000 0.875000
v 0.125000 -0.125000 0.875000
v -0.125000 -0.000000 0.875000
v 0.000000 -0.125000 0.875000
v 0.125000 -0.000000 0.875000
v 0.000000 0.125000 0.875000
v -0.125000 -0.250000 0.875000
v 0.125000 -0.250000 0.875000
v 0.000000 -0.250000 0.875000
v -0.125000 0.250000 0.875000
v 0.125000 0.250000 0.875000
v 0.000000 0.250000 0.875000
v 0.250000 0.125000 0.875000
v 0.250000 -0.125000 0.875000
v 0.250000 -0.000000 0.875000
v 0.250000 -0.250000 0.875000
v 0.250000 0.250000 0.875000
v -0.250000 0.125000 0.875000
v -0.250000 -0.125000 0.875000
v -0.250000 -0.000000 0.875000
v -0.250000 -0.250000 0.875000
v -0.250000 0.250000 0.875000
v -0.125000 -0.375000 0.875000
v 0.125000 -0.375000 0.875000
v 0.000000 -0.375000 0.875000
v 0.250000 -0.375000 0.875000
v -0.250000 -0.375000 0.875000
v -0.125000 0.375000 0.875000
v 0.125000 0.375000 0.875000
v 0.000000 0.375000 0.875000
v 0.250000 0.375000 0.875000
v -0.250000 0.375000 0.875000
v 0.250000 0.125000 0.750000
v 0.250000 -0.125000 0.750000
v 0.250000 -0.000000 0.750000
v 0.250000 -0.250000 0.750000
v 0.250000 0.250000 0.750000
v 0.250000 -0.375000 0.750000
v 0.250000 0.375000 0.750000
v -0.250000 0.125000 0.750000
v -0.250000 -0.125000 0.750000
v -0.250000 -0.000000 0.750000
v -0.250000 -0.250000 0.750000
v -0.250000 0.250000 0.750000
v -0.250000 -0.375000 0.750000
v -0.250000 0.375000 0.750000
v -0.125000 0.375000 0.750000
v 0.125000 0.375000 0.750000
v -0.125000 -0.375000 0.750000
v 0.125000 -0.375000 0.750000
v -0.125000 0.500000 0.875000
v 0.125000 0.500000 0.875000
v 0.000000 0.500000 0.875000
v -0.125000 0.500000 0.750000
v 0.125000 0.500000 0.750000
v -0.125000 -0.500000 0.875000
v 0.125000 -0.500000 0.875000
v 0.000000 -0.500000 0.875000
v -0.125000 -0.500000 0.750000
v 0.125000 -0.500000 0.750000
v 0.000000 -0.500000 0.750000
v 0.000000 0.500000 0.750000
v 0.250000 0.125000 0.625000
v 0.250000 -0.125000 0.625000
v 0.250000 -0.000000 0.625000
v 0.250000 -0.250000 0.625000
v 0.250000 0.250000 0.625000
v 0.250000 -0.375000 0.625000
v 0.250000 0.375000 0.625000
v -0.250000 0.125000 0.625000
v -0.250000 -0.125000 0.625000
v -0.250000 -0.000000 0.625000
v -0.250000 -0.250000 0.625000
v -0.250000 0.250000 0.625000
v -0.250000 -0.375000 0.625000
v -0.250000 0.375000 0.625000
v -0.125000 0.375000 0.625000
v 0.125000 0.375000 0.625000
v -0.125000 -0.375000 0.625000
v 0.125000 -0.375000 0.625000
v -0.125000 0.500000 0.625000
v 0.125000 0.500000 0.625000
v -0.125000 -0.500000 0.625000
v 0.125000 -0.500000 0.625000
v 0.000000 -0.500000 0.625000
v 0.000000 0.500000 0.625000
v 0.250000 0.125000 0.500000
v 0.250000 -0.125000 0.500000
v 0.250000 -0.000000 0.500000
v 0.250000 -0.250000 0.500000
v 0.250000 0.250000 0.500000
v 0.250000 -0.375000 0.500000
v 0.250000 0.375000 0.500000
v -0.250000 0.125000 0.500000
v -0.250000 -0.125000 0.500000
v -0.250000 -0.000000 0.500000
v -0.250000 -0.250000 0.500000
v -0.250000 0.250000 0.500000
v -0.250000 -0.375000 0.500000
v -0.250000 0.375000 0.500000
v -0.125000 0.375000 0.500000
v 0.125000 0.375000 0.500000
v -0.125000 -0.375000 0.500000
v 0.125000 -0.375000 0.500000
v -0.125000 0.500000 0.500000
v 0.125000 0.500000 0.500000
v -0.125000 -0.500000 0.500000
v 0.125000 -0.500000 0.500000
v 0.000000 -0.500000 0.500000
v 0.000000 0.500000 0.500000
v 0.250000 0.125000 0.375000
v 0.250000 -0.125000 0.375000
v 0.250000 -0.000000 0.375000
v 0.250000 -0.250000 0.375000
v 0.250000 0.250000 0.375000
v -0.250000 0.125000 0.375000
v -0.250000 -0.125000 0.375000
v -0.250000 -0.000000 0.375000
v -0.250000 -0.250000 0.375000
v -0.250000 0.250000 0.375000
v 0.000000 -0.375000 0.500000
v 0.000000 0.375000 0.500000
v 0.125000 -0.250000 0.500000
v 0.125000 0.250000 0.500000
v -0.125000 -0.250000 0.500000
v -0.125000 0.250000 0.500000
v -0.125000 0.375000 0.375000
v 0.125000 0.375000 0.375000
v 0.000000 0.375000 0.375000
v 0.125000 0.250000 0.375000
v -0.125000 0.250000 0.375000
v -0.125000 -0.375000 0.375000
v 0.125000 -0.375000 0.375000
v 0.000000 -0.375000 0.375000
v 0.125000 -0.250000 0.375000
v -0.125000 -0.250000 0.375000
v -0.125000 0.125000 0.375000
v -0.125000 -0.125000 0.375000
v -0.125000 -0.000000 0.375000
v 0.125000 0.125000 0.375000
v 0.125000 -0.125000 0.375000
v 0.125000 -0.000000 0.375000
v 0.000000 -0.250000 0.375000
v 0.000000 0.250000 0.375000
v 0.125000 0.250000 0.250000
v -0.125000 0.250000 0.250000
v 0.125000 -0.250000 0.250000
v -0.125000 -0.250000 0.250000
v -0.125000 0.125000 0.250000
v -0.125000 -0.125000 0.250000
v -0.125000 -0.000000 0.250000
v 0.125000 0.125000 0.250000
v 0.125000 -0.125000 0.250000
v 0.125000 -0.000000 0.250000
v 0.000000 -0.250000 0.250000
v 0.000000 0.250000 0.250000
v 0.125000 0.250000 0.125000
v -0.125000 0.250000 0.125000
v 0.125000 -0.250000 0.125000
v -0.125000 -0.250000 0.125000
v -0.125000 0.125000 0.125000
v -0.125000 -0.125000 0.125000
v -0.125000 -0.000000 0.125000
v 0.125000 0.125000 0.125000
v 0.125000 -0.125000 0.125000
v 0.125000 -0.000000 0.125000
v 0.000000 -0.250000 0.125000
v 0.000000 0.250000 0.125000
v 0.000000 0.125000 0.125000
v 0.000000 -0.125000 0.125000
v -0.125000 0.125000 0.000000
v -0.125000 -0.125000 0.000000
v -0.125000 -0.000000 0.000000
v 0.125000 0.125000 0.000000
v 0.125000 -0.125000 0.000000
v 0.125000 -0.000000 0.000000
v 0.000000 0.125000 0.000000
v 0.000000 -0.125000 0.000000
v -0.125000 0.125000 -0.125000
v -0.125000 -0.125000 -0.125000
v -0.125000 -0.000000 -0.125000
v 0.125000 0.125000 -0.125000
v 0.125000 -0.125000 -0.125000
v 0.125000 -0.000000 -0.125000
v 0.000000 0.125000 -0.125000
v 0.000000 -0.125000 -0.125000
v -0.125000 0.125000 -0.250000
v -0.125000 -0.000000 -0.250000
v -0.125000 -0.125000 -0.250000
v 0.125000 -0.125000 -0.250000
v 0.125000 -0.000000 -0.250000
v 0.125000 0.125000 -0.250000
v 0.000000 0.125000 -0.250000
v 0.000000 -0.125000 -0.250000
v 0.000000 -0.000000 -0.250000
vn -0.0000 -0.0000 1.0000
vn -1.0000 -0.0000 -0.0000
vn 1.0000 -0.0000 -0.0000
vn -0.0000 -1.0000 -0.0000
vn -0.0000 1.0000 -0.0000
vn -0.0000 -0.0000 -1.0000
vt 0.093750 0.937500
vt 0.078125 0.953125
vt 0.078125 0.937500
vt 0.062500 0.984375
vt 0.046875 1.000000
vt 0.046875 0.984375
vt 0.062500 0.968750
vt 0.046875 0.968750
vt 0.062500 0.953125
vt 0.046875 0.953125
vt 0.015625 0.921875
vt 0.000000 0.937500
vt 0.000000 0.921875
vt 0.046875 0.921875
vt 0.031250 0.937500
vt 0.031250 0.921875
vt 0.046875 0.921875
vt 0.031250 0.937500
vt 0.031250 0.921875
vt 0.062500 0.921875
vt 0.046875 0.937500
vt 0.015625 0.937500
vt 0.093750 0.953125
vt 0.062500 1.000000
vt 0.046875 0.937500
vt 0.062500 0.937500
s 0
f 5/1/1 9/2/1 6/3/1
f 4/1/1 8/2/1 5/3/1
f 2/1/1 6/2/1 3/3/1
f 1/1/1 5/2/1 2/3/1
f 4/1/2 15/2/2 7/3/2
f 9/1/3 14/2/3 6/3/3
f 7/1/4 16/2/4 8/3/4
f 1/1/2 13/2/2 4/3/2
f 2/1/5 10/2/5 1/3/5
f 6/1/3 12/2/3 3/3/3
f 8/1/4 17/2/4 9/3/4
f 3/1/5 11/2/5 2/3/5
f 12/1/1 23/2/1 11/3/1
f 20/1/2 34/2/2 15/3/2
f 21/4/4 41/5/4 17/6/4
f 12/4/5 45/5/5 19/6/5
f 23/1/5 25/2/5 22/3/5
f 24/1/5 26/2/5 23/3/5
f 19/1/3 24/2/3 12/3/3
f 10/1/2 25/2/2 18/3/2
f 11/1/1 22/2/1 10/3/1
f 30/1/2 31/2/2 28/3/2
f 28/1/2 32/2/2 29/3/2
f 18/1/5 30/2/5 10/3/5
f 10/1/1 28/2/1 13/3/1
f 15/1/4 32/2/4 20/3/4
f 13/1/1 29/2/1 15/3/1
f 35/1/4 39/2/4 36/3/4
f 34/1/4 38/2/4 35/3/4
f 16/1/1 36/2/1 17/3/1
f 17/1/3 39/2/3 21/3/3
f 15/1/1 35/2/1 16/3/1
f 40/6/3 45/7/3 42/4/3
f 41/6/3 43/7/3 40/4/3
f 14/4/1 42/5/1 12/6/1
f 17/4/1 40/5/1 14/6/1
f 31/1/2 54/2/2 32/3/2
f 21/4/4 60/5/4 44/6/4
f 33/1/2 53/2/2 31/3/2
f 44/8/3 59/9/3 43/7/3
f 20/1/2 56/2/2 37/3/2
f 43/7/3 61/10/3 45/8/3
f 19/1/3 52/2/3 27/3/3
f 26/1/5 50/2/5 25/3/5
f 25/1/2 46/2/2 18/3/2
f 37/1/4 57/2/4 38/3/4
f 27/1/5 51/2/5 26/3/5
f 18/1/5 55/2/5 33/3/5
f 38/1/4 58/2/4 39/3/4
f 32/1/4 48/2/4 20/3/4
f 39/1/3 49/2/3 21/3/3
f 45/4/5 47/5/5 19/6/5
f 55/1/6 62/2/6 53/3/6
f 62/1/6 54/2/6 53/3/6
f 56/1/6 63/2/6 57/3/6
f 63/1/6 58/2/6 57/3/6
f 59/4/6 49/5/6 64/6/6
f 64/4/6 61/5/6 59/6/6
f 51/1/6 47/2/6 65/3/6
f 50/1/6 65/2/6 46/3/6
f 49/4/3 72/5/3 64/6/3
f 48/4/4 71/5/4 63/6/4
f 46/4/2 70/5/2 62/6/2
f 65/4/5 66/5/5 46/6/5
f 64/4/3 67/5/3 47/6/3
f 63/4/4 69/5/4 49/6/4
f 62/4/2 68/5/2 48/6/2
f 47/4/5 73/5/5 65/6/5
f 71/11/1 75/12/1 69/13/1
f 68/11/1 76/12/1 71/13/1
f 73/11/1 77/12/1 66/13/1
f 67/11/1 79/12/1 73/13/1
f 72/11/1 80/12/1 67/13/1
f 67/11/1 84/12/1 78/13/1
f 69/11/1 82/12/1 72/13/1
f 75/11/1 81/12/1 69/13/1
f 68/14/1 88/15/1 74/16/1
f 70/11/1 86/12/1 68/13/1
f 77/14/1 85/15/1 66/16/1
f 66/11/1 87/12/1 70/13/1
f 74/14/1 92/15/1 76/16/1
f 75/14/1 93/15/1 83/16/1
f 76/14/1 91/15/1 75/16/1
f 88/14/1 90/15/1 74/16/1
f 78/14/1 97/15/1 79/16/1
f 84/14/1 96/15/1 78/16/1
f 77/14/1 99/15/1 89/16/1
f 79/14/1 95/15/1 77/16/1
f 93/17/3 103/18/3 83/19/3
f 83/11/3 101/12/3 81/13/3
f 84/14/3 106/15/3 98/16/3
f 81/11/3 102/12/3 82/13/3
f 80/11/3 104/12/3 84/13/3
f 82/11/3 100/12/3 80/13/3
f 88/14/2 112/15/2 94/16/2
f 86/14/2 110/15/2 88/16/2
f 85/14/2 109/15/2 87/16/2
f 99/14/2 111/15/2 89/16/2
f 89/14/2 107/15/2 85/16/2
f 87/14/2 108/15/2 86/16/2
f 98/14/5 115/15/5 96/16/5
f 113/14/5 95/15/5 114/16/5
f 94/14/4 116/15/4 90/16/4
f 105/17/4 91/18/4 117/19/4
f 96/14/1 120/15/1 97/16/1
f 115/14/3 119/15/3 96/16/3
f 97/14/1 118/15/1 95/16/1
f 95/14/2 121/15/2 114/16/2
f 116/14/2 123/15/2 90/16/2
f 90/14/1 125/15/1 92/16/1
f 91/17/3 127/18/3 117/19/3
f 92/14/1 124/15/1 91/16/1
f 123/14/4 128/15/4 125/16/4
f 128/14/4 124/15/4 125/16/4
f 119/14/5 129/15/5 120/16/5
f 129/14/5 118/15/5 120/16/5
f 117/17/4 135/18/4 105/19/4
f 116/14/2 150/15/2 126/16/2
f 105/17/3 133/18/3 103/19/3
f 122/14/5 153/15/5 129/16/5
f 121/14/2 144/15/2 114/16/2
f 104/14/3 136/15/3 106/16/3
f 129/14/5 148/15/5 121/16/5
f 127/17/3 147/18/3 117/19/3
f 107/14/2 139/15/2 109/16/2
f 106/14/5 145/15/5 115/16/5
f 109/14/2 138/15/2 108/16/2
f 114/14/5 143/15/5 113/16/5
f 101/11/3 132/12/3 102/13/3
f 108/14/2 140/15/2 110/16/2
f 102/11/3 130/12/3 100/13/3
f 126/14/4 152/15/4 128/16/4
f 111/14/2 137/15/2 107/16/2
f 103/17/3 131/18/3 101/19/3
f 128/14/4 151/15/4 127/16/4
f 110/14/2 142/15/2 112/16/2
f 112/14/4 146/15/4 116/16/4
f 115/14/3 149/15/3 122/16/3
f 100/14/3 134/15/3 104/16/3
f 113/14/2 141/15/2 111/16/2
f 140/17/2 166/18/2 142/19/2
f 130/17/3 158/18/3 134/19/3
f 146/17/2 174/18/2 150/19/2
f 143/17/2 165/18/2 141/19/2
f 135/17/3 157/18/3 133/19/3
f 151/17/3 171/18/3 147/19/3
f 136/17/5 169/18/5 145/19/5
f 134/17/3 160/18/3 136/19/3
f 150/17/4 176/18/4 152/19/4
f 144/17/5 167/18/5 143/19/5
f 137/17/2 163/18/2 139/19/2
f 152/17/4 175/18/4 151/19/4
f 142/17/4 170/18/4 146/19/4
f 139/17/2 162/18/2 138/19/2
f 149/17/5 177/18/5 153/19/5
f 131/17/3 156/18/3 132/19/3
f 147/17/4 159/18/4 135/19/4
f 138/17/2 164/18/2 140/19/2
f 153/17/5 172/18/5 148/19/5
f 132/17/3 154/18/3 130/19/3
f 145/17/3 173/18/3 149/19/3
f 141/17/2 161/18/2 137/19/2
f 133/17/3 155/18/3 131/19/3
f 148/17/2 168/18/2 144/19/2
f 157/17/3 179/18/3 155/19/3
f 155/17/3 180/18/3 156/19/3
f 165/17/2 183/18/2 161/19/2
f 163/17/2 184/18/2 162/19/2
f 154/17/3 182/18/3 158/19/3
f 156/17/3 178/18/3 154/19/3
f 162/17/2 186/18/2 164/19/2
f 161/17/2 185/18/2 163/19/2
f 177/14/6 169/15/6 189/16/6
f 172/14/6 189/15/6 168/16/6
f 176/14/6 170/15/6 188/16/6
f 175/14/6 188/15/6 171/16/6
f 159/14/6 190/15/6 157/16/6
f 169/14/6 158/15/6 191/16/6
f 167/14/6 193/15/6 165/16/6
f 170/14/6 164/15/6 192/16/6
f 169/17/5 196/18/5 189/19/5
f 191/17/3 195/18/3 169/19/3
f 189/17/5 194/18/5 168/19/5
f 168/17/2 198/18/2 193/19/2
f 170/17/4 201/18/4 188/19/4
f 192/17/2 199/18/2 170/19/2
f 188/17/4 200/18/4 171/19/4
f 171/17/3 202/18/3 190/19/3
f 203/17/4 164/18/4 186/19/4
f 190/17/4 181/18/4 157/19/4
f 197/17/5 158/18/5 182/19/5
f 193/17/5 187/18/5 165/19/5
f 185/14/6 205/15/6 184/16/6
f 183/14/6 206/15/6 185/16/6
f 180/14/6 207/15/6 178/16/6
f 179/14/6 209/15/6 180/16/6
f 181/14/6 208/15/6 179/16/6
f 207/14/6 182/15/6 178/16/6
f 187/14/6 204/15/6 183/16/6
f 205/14/6 186/15/6 184/16/6
f 210/14/6 200/15/6 201/16/6
f 199/14/6 210/15/6 201/16/6
f 195/14/6 211/15/6 196/16/6
f 211/14/6 194/15/6 196/16/6
f 208/20/3 221/21/3 209/14/3
f 198/20/2 216/21/2 204/14/2
f 211/20/5 213/21/5 198/14/5
f 210/20/4 214/21/4 202/14/4
f 209/20/3 219/21/3 207/14/3
f 205/20/2 215/21/2 203/14/2
f 202/20/3 220/21/3 208/14/3
f 203/20/4 222/21/4 210/14/4
f 204/20/2 218/21/2 206/14/2
f 207/20/3 212/21/3 197/14/3
f 197/20/5 223/21/5 211/14/5
f 206/20/2 217/21/2 205/14/2
f 212/16/5 235/22/5 223/11/5
f 216/16/2 230/22/2 218/11/2
f 217/16/2 227/22/2 215/11/2
f 214/16/3 232/22/3 220/11/3
f 223/16/5 225/22/5 213/11/5
f 218/16/2 229/22/2 217/11/2
f 222/16/4 226/22/4 214/11/4
f 219/16/3 224/22/3 212/11/3
f 220/16/3 233/22/3 221/11/3
f 215/16/4 234/22/4 222/11/4
f 213/16/2 228/22/2 216/11/2
f 221/16/3 231/22/3 219/11/3
f 226/16/6 237/22/6 232/11/6
f 236/16/6 224/22/6 231/11/6
f 225/16/6 236/22/6 228/11/6
f 237/16/6 227/22/6 229/11/6
f 230/16/2 239/22/2 229/11/2
f 229/16/4 245/22/4 237/11/4
f 231/16/5 244/22/5 236/11/5
f 232/16/3 243/22/3 233/11/3
f 228/16/2 240/22/2 230/11/2
f 236/16/5 238/22/5 228/11/5
f 237/16/4 242/22/4 232/11/4
f 233/16/3 241/22/3 231/11/3
f 239/16/4 253/22/4 245/11/4
f 241/16/5 252/22/5 244/11/5
f 242/16/3 251/22/3 243/11/3
f 238/16/2 248/22/2 240/11/2
f 244/16/5 246/22/5 238/11/5
f 245/16/4 250/22/4 242/11/4
f 243/16/3 249/22/3 241/11/3
f 240/16/2 247/22/2 239/11/2
f 246/16/2 255/22/2 248/11/2
f 250/16/3 258/22/3 251/11/3
f 249/16/5 260/22/5 252/11/5
f 247/16/4 261/22/4 253/11/4
f 262/16/6 256/22/6 255/11/6
f 257/16/6 262/22/6 258/11/6
f 262/16/6 259/22/6 258/11/6
f 254/16/6 262/22/6 255/11/6
f 252/16/5 254/22/5 246/11/5
f 253/16/4 257/22/4 250/11/4
f 251/16/3 259/22/3 249/11/3
f 248/16/2 256/22/2 247/11/2
f 5/1/1 8/23/1 9/2/1
f 4/1/1 7/23/1 8/2/1
f 2/1/1 5/23/1 6/2/1
f 1/1/1 4/23/1 5/2/1
f 4/1/2 13/23/2 15/2/2
f 9/1/3 17/23/3 14/2/3
f 7/1/4 15/23/4 16/2/4
f 1/1/2 10/23/2 13/2/2
f 2/1/5 11/23/5 10/2/5
f 6/1/3 14/23/3 12/2/3
f 8/1/4 16/23/4 17/2/4
f 3/1/5 12/23/5 11/2/5
f 12/1/1 24/23/1 23/2/1
f 20/1/2 37/23/2 34/2/2
f 21/4/4 44/24/4 41/5/4
f 12/4/5 42/24/5 45/5/5
f 23/1/5 26/23/5 25/2/5
f 24/1/5 27/23/5 26/2/5
f 19/1/3 27/23/3 24/2/3
f 10/1/2 22/23/2 25/2/2
f 11/1/1 23/23/1 22/2/1
f 30/1/2 33/23/2 31/2/2
f 28/1/2 31/23/2 32/2/2
f 18/1/5 33/23/5 30/2/5
f 10/1/1 30/23/1 28/2/1
f 15/1/4 29/23/4 32/2/4
f 13/1/1 28/23/1 29/2/1
f 35/1/4 38/23/4 39/2/4
f 34/1/4 37/23/4 38/2/4
f 16/1/1 35/23/1 36/2/1
f 17/1/3 36/23/3 39/2/3
f 15/1/1 34/23/1 35/2/1
f 40/6/3 43/8/3 45/7/3
f 41/6/3 44/8/3 43/7/3
f 14/4/1 40/24/1 42/5/1
f 17/4/1 41/24/1 40/5/1
f 31/1/2 53/23/2 54/2/2
f 21/4/4 49/24/4 60/5/4
f 33/1/2 55/23/2 53/2/2
f 44/8/3 60/10/3 59/9/3
f 20/1/2 48/23/2 56/2/2
f 43/7/3 59/9/3 61/10/3
f 19/1/3 47/23/3 52/2/3
f 26/1/5 51/23/5 50/2/5
f 25/1/2 50/23/2 46/2/2
f 37/1/4 56/23/4 57/2/4
f 27/1/5 52/23/5 51/2/5
f 18/1/5 46/23/5 55/2/5
f 38/1/4 57/23/4 58/2/4
f 32/1/4 54/23/4 48/2/4
f 39/1/3 58/23/3 49/2/3
f 45/4/5 61/24/5 47/5/5
f 55/1/6 46/23/6 62/2/6
f 62/1/6 48/23/6 54/2/6
f 56/1/6 48/23/6 63/2/6
f 63/1/6 49/23/6 58/2/6
f 59/4/6 60/24/6 49/5/6
f 64/4/6 47/24/6 61/5/6
f 51/1/6 52/23/6 47/2/6
f 50/1/6 51/23/6 65/2/6
f 49/4/3 69/24/3 72/5/3
f 48/4/4 68/24/4 71/5/4
f 46/4/2 66/24/2 70/5/2
f 65/4/5 73/24/5 66/5/5
f 64/4/3 72/24/3 67/5/3
f 63/4/4 71/24/4 69/5/4
f 62/4/2 70/24/2 68/5/2
f 47/4/5 67/24/5 73/5/5
f 71/11/1 76/22/1 75/12/1
f 68/11/1 74/22/1 76/12/1
f 73/11/1 79/22/1 77/12/1
f 67/11/1 78/22/1 79/12/1
f 72/11/1 82/22/1 80/12/1
f 67/11/1 80/22/1 84/12/1
f 69/11/1 81/22/1 82/12/1
f 75/11/1 83/22/1 81/12/1
f 68/14/1 86/21/1 88/15/1
f 70/11/1 87/22/1 86/12/1
f 77/14/1 89/21/1 85/15/1
f 66/11/1 85/22/1 87/12/1
f 74/14/1 90/21/1 92/15/1
f 75/14/1 91/21/1 93/15/1
f 76/14/1 92/21/1 91/15/1
f 88/14/1 94/21/1 90/15/1
f 78/14/1 96/21/1 97/15/1
f 84/14/1 98/21/1 96/15/1
f 77/14/1 95/21/1 99/15/1
f 79/14/1 97/21/1 95/15/1
f 93/17/3 105/25/3 103/18/3
f 83/11/3 103/22/3 101/12/3
f 84/14/3 104/21/3 106/15/3
f 81/11/3 101/22/3 102/12/3
f 80/11/3 100/22/3 104/12/3
f 82/11/3 102/22/3 100/12/3
f 88/14/2 110/21/2 112/15/2
f 86/14/2 108/21/2 110/15/2
f 85/14/2 107/21/2 109/15/2
f 99/14/2 113/21/2 111/15/2
f 89/14/2 111/21/2 107/15/2
f 87/14/2 109/21/2 108/15/2
f 98/14/5 106/21/5 115/15/5
f 113/14/5 99/21/5 95/15/5
f 94/14/4 112/21/4 116/15/4
f 105/17/4 93/25/4 91/18/4
f 96/14/1 119/21/1 120/15/1
f 115/14/3 122/21/3 119/15/3
f 97/14/1 120/21/1 118/15/1
f 95/14/2 118/21/2 121/15/2
f 116/14/2 126/21/2 123/15/2
f 90/14/1 123/21/1 125/15/1
f 91/17/3 124/25/3 127/18/3
f 92/14/1 125/21/1 124/15/1
f 123/14/4 126/21/4 128/15/4
f 128/14/4 127/21/4 124/15/4
f 119/14/5 122/21/5 129/15/5
f 129/14/5 121/21/5 118/15/5
f 117/17/4 147/25/4 135/18/4
f 116/14/2 146/21/2 150/15/2
f 105/17/3 135/25/3 133/18/3
f 122/14/5 149/21/5 153/15/5
f 121/14/2 148/21/2 144/15/2
f 104/14/3 134/21/3 136/15/3
f 129/14/5 153/21/5 148/15/5
f 127/17/3 151/25/3 147/18/3
f 107/14/2 137/21/2 139/15/2
f 106/14/5 136/21/5 145/15/5
f 109/14/2 139/21/2 138/15/2
f 114/14/5 144/21/5 143/15/5
f 101/11/3 131/22/3 132/12/3
f 108/14/2 138/21/2 140/15/2
f 102/11/3 132/22/3 130/12/3
f 126/14/4 150/21/4 152/15/4
f 111/14/2 141/21/2 137/15/2
f 103/17/3 133/25/3 131/18/3
f 128/14/4 152/21/4 151/15/4
f 110/14/2 140/21/2 142/15/2
f 112/14/4 142/21/4 146/15/4
f 115/14/3 145/21/3 149/15/3
f 100/14/3 130/21/3 134/15/3
f 113/14/2 143/21/2 141/15/2
f 140/17/2 164/25/2 166/18/2
f 130/17/3 154/25/3 158/18/3
f 146/17/2 170/25/2 174/18/2
f 143/17/2 167/25/2 165/18/2
f 135/17/3 159/25/3 157/18/3
f 151/17/3 175/25/3 171/18/3
f 136/17/5 160/25/5 169/18/5
f 134/17/3 158/25/3 160/18/3
f 150/17/4 174/25/4 176/18/4
f 144/17/5 168/25/5 167/18/5
f 137/17/2 161/25/2 163/18/2
f 152/17/4 176/25/4 175/18/4
f 142/17/4 166/25/4 170/18/4
f 139/17/2 163/25/2 162/18/2
f 149/17/5 173/25/5 177/18/5
f 131/17/3 155/25/3 156/18/3
f 147/17/4 171/25/4 159/18/4
f 138/17/2 162/25/2 164/18/2
f 153/17/5 177/25/5 172/18/5
f 132/17/3 156/25/3 154/18/3
f 145/17/3 169/25/3 173/18/3
f 141/17/2 165/25/2 161/18/2
f 133/17/3 157/25/3 155/18/3
f 148/17/2 172/25/2 168/18/2
f 157/17/3 181/25/3 179/18/3
f 155/17/3 179/25/3 180/18/3
f 165/17/2 187/25/2 183/18/2
f 163/17/2 185/25/2 184/18/2
f 154/17/3 178/25/3 182/18/3
f 156/17/3 180/25/3 178/18/3
f 162/17/2 184/25/2 186/18/2
f 161/17/2 183/25/2 185/18/2
f 177/14/6 173/21/6 169/15/6
f 172/14/6 177/21/6 189/15/6
f 176/14/6 174/21/6 170/15/6
f 175/14/6 176/21/6 188/15/6
f 159/14/6 171/21/6 190/15/6
f 169/14/6 160/21/6 158/15/6
f 167/14/6 168/21/6 193/15/6
f 170/14/6 166/21/6 164/15/6
f 169/17/5 195/25/5 196/18/5
f 191/17/3 197/25/3 195/18/3
f 189/17/5 196/25/5 194/18/5
f 168/17/2 194/25/2 198/18/2
f 170/17/4 199/25/4 201/18/4
f 192/17/2 203/25/2 199/18/2
f 188/17/4 201/25/4 200/18/4
f 171/17/3 200/25/3 202/18/3
f 203/17/4 192/25/4 164/18/4
f 190/17/4 202/25/4 181/18/4
f 197/17/5 191/25/5 158/18/5
f 193/17/5 198/25/5 187/18/5
f 185/14/6 206/21/6 205/15/6
f 183/14/6 204/21/6 206/15/6
f 180/14/6 209/21/6 207/15/6
f 179/14/6 208/21/6 209/15/6
f 181/14/6 202/21/6 208/15/6
f 207/14/6 197/21/6 182/15/6
f 187/14/6 198/21/6 204/15/6
f 205/14/6 203/21/6 186/15/6
f 210/14/6 202/21/6 200/15/6
f 199/14/6 203/21/6 210/15/6
f 195/14/6 197/21/6 211/15/6
f 211/14/6 198/21/6 194/15/6
f 208/20/3 220/26/3 221/21/3
f 198/20/2 213/26/2 216/21/2
f 211/20/5 223/26/5 213/21/5
f 210/20/4 222/26/4 214/21/4
f 209/20/3 221/26/3 219/21/3
f 205/20/2 217/26/2 215/21/2
f 202/20/3 214/26/3 220/21/3
f 203/20/4 215/26/4 222/21/4
f 204/20/2 216/26/2 218/21/2
f 207/20/3 219/26/3 212/21/3
f 197/20/5 212/26/5 223/21/5
f 206/20/2 218/26/2 217/21/2
f 212/16/5 224/15/5 235/22/5
f 216/16/2 228/15/2 230/22/2
f 217/16/2 229/15/2 227/22/2
f 214/16/3 226/15/3 232/22/3
f 223/16/5 235/15/5 225/22/5
f 218/16/2 230/15/2 229/22/2
f 222/16/4 234/15/4 226/22/4
f 219/16/3 231/15/3 224/22/3
f 220/16/3 232/15/3 233/22/3
f 215/16/4 227/15/4 234/22/4
f 213/16/2 225/15/2 228/22/2
f 221/16/3 233/15/3 231/22/3
f 226/16/6 234/15/6 237/22/6
f 236/16/6 235/15/6 224/22/6
f 225/16/6 235/15/6 236/22/6
f 237/16/6 234/15/6 227/22/6
f 230/16/2 240/15/2 239/22/2
f 229/16/4 239/15/4 245/22/4
f 231/16/5 241/15/5 244/22/5
f 232/16/3 242/15/3 243/22/3
f 228/16/2 238/15/2 240/22/2
f 236/16/5 244/15/5 238/22/5
f 237/16/4 245/15/4 242/22/4
f 233/16/3 243/15/3 241/22/3
f 239/16/4 247/15/4 253/22/4
f 241/16/5 249/15/5 252/22/5
f 242/16/3 250/15/3 251/22/3
f 238/16/2 246/15/2 248/22/2
f 244/16/5 252/15/5 246/22/5
f 245/16/4 253/15/4 250/22/4
f 243/16/3 251/15/3 249/22/3
f 240/16/2 248/15/2 247/22/2
f 246/16/2 254/15/2 255/22/2
f 250/16/3 257/15/3 258/22/3
f 249/16/5 259/15/5 260/22/5
f 247/16/4 256/15/4 261/22/4
f 262/16/6 261/15/6 256/22/6
f 257/16/6 261/15/6 262/22/6
f 262/16/6 260/15/6 259/22/6
f 254/16/6 260/15/6 262/22/6
f 252/16/5 260/15/5 254/22/5
f 253/16/4 261/15/4 257/22/4
f 251/16/3 258/15/3 259/22/3
f 248/16/2 255/15/2 256/22/2
