# Blender 4.5.0
# www.blender.org
o Cube
o Sphere
o Sphere.001
v 0.125000 -0.125000 1.375000
v 0.000000 -0.125000 1.375000
v -0.125000 -0.125000 1.375000
v 0.125000 0.000000 1.375000
v 0.000000 0.000000 1.375000
v -0.125000 -0.000000 1.375000
v 0.125000 0.125000 1.375000
v -0.000000 0.125000 1.375000
v -0.125000 0.125000 1.375000
v 0.125000 -0.125000 1.250000
v 0.000000 -0.125000 1.250000
v -0.125000 -0.125000 1.250000
v -0.125000 -0.000000 1.250000
v 0.125000 0.125000 1.250000
v -0.000000 0.125000 1.250000
v -0.125000 0.125000 1.250000
v 0.125000 -0.125000 1.125000
v -0.125000 -0.125000 1.125000
v 0.125000 0.125000 1.125000
v -0.125000 0.125000 1.125000
v 0.125000 -0.250000 1.250000
v 0.000000 -0.250000 1.250000
v -0.125000 -0.250000 1.250000
v 0.125000 -0.250000 1.125000
v 0.000000 -0.250000 1.125000
v -0.125000 -0.250000 1.125000
v 0.250000 0.000000 1.250000
v 0.250000 0.125000 1.250000
v 0.250000 0.000000 1.125000
v 0.250000 0.125000 1.125000
v 0.125000 0.250000 1.250000
v -0.000000 0.250000 1.250000
v -0.125000 0.250000 1.250000
v 0.125000 0.250000 1.125000
v -0.000000 0.250000 1.125000
v -0.125000 0.250000 1.125000
v -0.250000 -0.000000 1.250000
v -0.250000 0.125000 1.250000
v -0.250000 -0.125000 1.250000
v -0.250000 -0.000000 1.125000
v -0.250000 0.125000 1.125000
v -0.250000 -0.125000 1.125000
v 0.125000 -0.125000 1.000000
v -0.125000 -0.125000 1.000000
v 0.125000 0.125000 1.000000
v -0.125000 0.125000 1.000000
v 0.125000 -0.250000 1.000000
v 0.000000 -0.250000 1.000000
v -0.125000 -0.250000 1.000000
v 0.250000 0.000000 1.000000
v 0.250000 0.125000 1.000000
v 0.250000 -0.125000 1.000000
v 0.125000 0.250000 1.000000
v -0.000000 0.250000 1.000000
v -0.125000 0.250000 1.000000
v -0.250000 -0.000000 1.000000
v -0.250000 0.125000 1.000000
v -0.250000 -0.125000 1.000000
v 0.125000 0.000000 1.000000
v -0.000000 0.125000 1.000000
v -0.125000 -0.000000 1.000000
v 0.000000 -0.125000 1.000000
v 0.125000 -0.125000 0.875000
v -0.125000 -0.125000 0.875000
v 0.125000 0.125000 0.875000
v -0.125000 0.125000 0.875000
v 0.125000 0.000000 0.875000
v -0.000000 0.125000 0.875000
v -0.125000 -0.000000 0.875000
v 0.000000 -0.125000 0.875000
v 0.125000 0.250000 0.875000
v -0.125000 0.250000 0.875000
v -0.000000 0.250000 0.875000
v 0.125000 -0.250000 0.875000
v -0.125000 -0.250000 0.875000
v 0.000000 -0.250000 0.875000
v -0.250000 -0.125000 0.875000
v -0.250000 0.125000 0.875000
v -0.250000 -0.000000 0.875000
v -0.250000 0.250000 0.875000
v -0.250000 -0.250000 0.875000
v 0.250000 -0.125000 0.875000
v 0.250000 0.125000 0.875000
v 0.250000 0.000000 0.875000
v 0.250000 0.250000 0.875000
v 0.250000 -0.250000 0.875000
v 0.125000 0.375000 0.875000
v -0.125000 0.375000 0.875000
v -0.000000 0.375000 0.875000
v 0.125000 -0.375000 0.875000
v -0.125000 -0.375000 0.875000
v 0.000000 -0.375000 0.875000
v -0.250000 -0.125000 0.750000
v -0.250000 0.125000 0.750000
v -0.250000 -0.000000 0.750000
v -0.250000 0.250000 0.750000
v -0.250000 -0.250000 0.750000
v 0.250000 -0.125000 0.750000
v 0.250000 0.125000 0.750000
v 0.250000 0.000000 0.750000
v 0.250000 0.250000 0.750000
v 0.250000 -0.250000 0.750000
v -0.250000 -0.125000 0.625000
v -0.250000 0.125000 0.625000
v -0.250000 -0.000000 0.625000
v -0.250000 0.250000 0.625000
v -0.250000 -0.250000 0.625000
v 0.250000 -0.125000 0.625000
v 0.250000 0.125000 0.625000
v 0.250000 0.000000 0.625000
v 0.250000 0.250000 0.625000
v 0.250000 -0.250000 0.625000
v -0.125000 0.250000 0.500000
v -0.125000 -0.250000 0.500000
v 0.125000 0.250000 0.500000
v 0.125000 -0.250000 0.500000
v -0.125000 -0.250000 0.375000
v 0.125000 -0.250000 0.375000
v -0.125000 0.250000 0.375000
v 0.125000 0.250000 0.375000
v 0.125000 -0.125000 0.375000
v 0.125000 0.125000 0.375000
v 0.125000 0.000000 0.375000
v -0.125000 -0.125000 0.375000
v -0.125000 0.125000 0.375000
v -0.125000 -0.000000 0.375000
v -0.000000 0.250000 0.375000
v 0.000000 -0.250000 0.375000
v 0.125000 -0.250000 0.750000
v -0.125000 -0.250000 0.750000
v 0.125000 -0.375000 0.750000
v -0.125000 -0.375000 0.750000
v 0.000000 -0.375000 0.750000
v 0.125000 -0.250000 0.625000
v -0.125000 -0.250000 0.625000
v 0.125000 -0.375000 0.625000
v -0.125000 -0.375000 0.625000
v 0.000000 -0.375000 0.625000
v 0.125000 0.250000 0.750000
v -0.125000 0.250000 0.750000
v 0.125000 0.375000 0.750000
v -0.125000 0.375000 0.750000
v -0.000000 0.375000 0.750000
v 0.125000 0.250000 0.625000
v -0.125000 0.250000 0.625000
v 0.125000 0.375000 0.625000
v -0.125000 0.375000 0.625000
v -0.000000 0.375000 0.625000
v 0.000000 -0.250000 0.625000
v -0.000000 0.250000 0.625000
v 0.000000 -0.250000 0.500000
v -0.000000 0.250000 0.500000
v 0.125000 -0.125000 0.500000
v 0.125000 0.125000 0.500000
v 0.125000 0.000000 0.500000
v -0.125000 -0.125000 0.500000
v -0.125000 0.125000 0.500000
v -0.125000 -0.000000 0.500000
v -0.125000 -0.125000 0.625000
v -0.125000 0.125000 0.625000
v -0.125000 -0.000000 0.625000
v 0.125000 -0.125000 0.625000
v 0.125000 0.125000 0.625000
v 0.125000 0.000000 0.625000
v -0.125000 -0.250000 0.250000
v 0.125000 -0.250000 0.250000
v -0.125000 0.250000 0.250000
v 0.125000 0.250000 0.250000
v 0.125000 -0.125000 0.250000
v 0.125000 0.125000 0.250000
v 0.125000 0.000000 0.250000
v -0.125000 -0.125000 0.250000
v -0.125000 0.125000 0.250000
v -0.125000 -0.000000 0.250000
v -0.000000 0.250000 0.250000
v 0.000000 -0.250000 0.250000
v -0.125000 -0.250000 0.125000
v 0.125000 -0.250000 0.125000
v -0.125000 0.250000 0.125000
v 0.125000 0.250000 0.125000
v 0.125000 -0.125000 0.125000
v 0.125000 0.125000 0.125000
v 0.125000 0.000000 0.125000
v -0.125000 -0.125000 0.125000
v -0.125000 0.125000 0.125000
v -0.125000 -0.000000 0.125000
v -0.000000 0.250000 0.125000
v 0.000000 -0.250000 0.125000
v -0.125000 -0.250000 0.000000
v 0.125000 -0.250000 0.000000
v -0.125000 0.250000 0.000000
v 0.125000 0.250000 0.000000
v 0.125000 -0.125000 0.000000
v 0.125000 0.125000 0.000000
v 0.125000 0.000000 0.000000
v -0.125000 -0.125000 0.000000
v -0.125000 0.125000 0.000000
v -0.125000 -0.000000 0.000000
v -0.000000 0.250000 0.000000
v 0.000000 -0.250000 0.000000
v -0.125000 -0.250000 -0.125000
v 0.125000 -0.250000 -0.125000
v -0.125000 0.250000 -0.125000
v 0.125000 0.250000 -0.125000
v 0.125000 -0.125000 -0.125000
v 0.125000 0.125000 -0.125000
v 0.125000 0.000000 -0.125000
v -0.125000 -0.125000 -0.125000
v -0.125000 0.125000 -0.125000
v -0.125000 -0.000000 -0.125000
v -0.000000 0.250000 -0.125000
v 0.000000 -0.250000 -0.125000
v 0.000000 -0.125000 -0.125000
v -0.000000 0.125000 -0.125000
v 0.125000 -0.125000 -0.250000
v 0.125000 0.125000 -0.250000
v 0.125000 0.000000 -0.250000
v -0.125000 -0.125000 -0.250000
v -0.125000 0.125000 -0.250000
v -0.125000 -0.000000 -0.250000
v 0.000000 -0.125000 -0.250000
v -0.000000 0.125000 -0.250000
v 0.000000 0.000000 -0.250000
v 0.250000 0.000000 1.375000
v 0.250000 0.125000 1.375000
v 0.250000 -0.125000 1.375000
v 0.250000 -0.125000 1.250000
v 0.250000 -0.125000 1.125000
v 0.250000 -0.250000 1.125000
v 0.250000 -0.250000 1.250000
v 0.250000 0.250000 1.125000
v 0.250000 0.250000 1.250000
vn -0.0000 -0.0000 1.0000
vn -0.0000 1.0000 -0.0000
vn -1.0000 -0.0000 -0.0000
vn -0.0000 -1.0000 -0.0000
vn 1.0000 -0.0000 -0.0000
vn -0.0000 -0.0000 -1.0000
vt 0.109375 1.000000
vt 0.125000 0.984375
vt 0.125000 1.000000
vt 0.109375 0.984375
vt 0.015625 0.984375
vt 0.031250 0.968750
vt 0.031250 0.984375
vt 0.015625 0.953125
vt 0.015625 0.968750
vt 0.031250 0.953125
vt 0.015625 1.000000
vt 0.031250 1.000000
vt 0.062500 0.937500
vt 0.078125 0.921875
vt 0.078125 0.937500
vt 0.062500 0.921875
vt 0.109375 0.937500
vt 0.093750 0.921875
vt 0.109375 0.921875
vt 0.093750 0.937500
vt 0.109375 0.937500
vt 0.093750 0.921875
vt 0.109375 0.921875
vt 0.093750 0.937500
vt 0.093750 0.937500
vt 0.109375 0.921875
vt 0.109375 0.937500
vt 0.093750 0.937500
vt 0.109375 0.921875
vt 0.109375 0.937500
vt 0.093750 0.937500
vt 0.109375 0.921875
vt 0.109375 0.937500
vt 0.093750 0.937500
vt 0.109375 0.921875
vt 0.109375 0.937500
vt 0.093750 0.937500
vt 0.109375 0.921875
vt 0.109375 0.937500
vt 0.093750 0.921875
vt 0.093750 0.937500
vt 0.109375 0.921875
vt 0.109375 0.937500
vt 0.062500 0.937500
vt 0.078125 0.921875
vt 0.078125 0.937500
vt 0.125000 0.921875
vt 0.125000 0.937500
vt 0.078125 0.937500
vt 0.093750 0.921875
vt 0.093750 0.937500
vt 0.078125 0.921875
vt 0.093750 0.921875
vt 0.093750 0.921875
vt 0.093750 0.921875
vt 0.093750 0.921875
vt 0.093750 0.921875
vt 0.062500 0.921875
s 0
f 5/1/1 9/2/1 6/3/1
f 4/1/1 8/2/1 5/3/1
f 2/1/1 6/2/1 3/3/1
f 2/3/1 4/4/1 5/2/1
f 31/1/2 231/2/2 34/3/2
f 9/1/3 13/2/3 6/3/3
f 7/1/2 15/2/2 8/3/2
f 24/1/4 230/2/4 21/3/4
f 2/1/4 10/2/4 1/3/4
f 6/1/3 12/2/3 3/3/3
f 8/1/2 16/2/2 9/3/2
f 3/1/4 11/2/4 2/3/4
f 11/3/1 23/4/1 22/2/1
f 4/1/1 225/2/1 7/3/1
f 20/1/2 38/2/2 16/3/2
f 12/1/4 42/2/4 18/3/4
f 22/1/4 24/2/4 21/3/4
f 23/1/4 25/2/4 22/3/4
f 18/1/3 23/2/3 12/3/3
f 11/1/1 21/2/1 10/3/1
f 227/5/5 29/6/5 27/7/5
f 27/5/5 30/6/5 28/7/5
f 32/1/2 36/2/2 33/3/2
f 31/1/2 35/2/2 32/3/2
f 15/1/1 33/2/1 16/3/1
f 16/1/3 36/2/3 20/3/3
f 15/3/1 31/4/1 32/2/1
f 37/1/3 42/2/3 39/3/3
f 38/1/3 40/2/3 37/3/3
f 13/1/1 39/2/1 12/3/1
f 13/3/1 38/4/1 37/2/1
f 29/6/5 51/8/5 30/9/5
f 20/1/2 57/2/2 41/3/2
f 228/9/5 50/10/5 29/6/5
f 41/1/3 56/2/3 40/3/3
f 19/1/5 53/2/5 34/3/5
f 40/1/3 58/2/3 42/3/3
f 18/1/3 49/2/3 26/3/3
f 25/1/4 47/2/4 24/3/4
f 24/1/5 43/2/5 17/3/5
f 34/1/2 54/2/2 35/3/2
f 26/1/4 48/2/4 25/3/4
f 17/11/4 52/7/4 228/12/4
f 35/1/2 55/2/2 36/3/2
f 30/11/2 45/7/2 19/12/2
f 36/1/3 46/2/3 20/3/3
f 42/1/4 44/2/4 18/3/4
f 52/11/6 59/7/6 50/12/6
f 59/11/6 51/7/6 50/12/6
f 53/1/6 60/2/6 54/3/6
f 60/1/6 55/2/6 54/3/6
f 61/3/6 57/4/6 46/2/6
f 61/1/6 58/2/6 56/3/6
f 62/3/6 49/4/6 44/2/6
f 47/1/6 62/2/6 43/3/6
f 46/11/3 69/7/3 61/12/3
f 45/11/2 68/7/2 60/12/2
f 43/11/5 67/7/5 59/12/5
f 62/11/4 63/7/4 43/12/4
f 61/11/3 64/7/3 44/12/3
f 60/11/2 66/7/2 46/12/2
f 59/11/5 65/7/5 45/12/5
f 44/11/4 70/7/4 62/12/4
f 68/13/1 72/14/1 66/15/1
f 68/15/1 71/16/1 73/14/1
f 70/13/1 74/14/1 63/15/1
f 70/15/1 75/16/1 76/14/1
f 69/13/1 77/14/1 64/15/1
f 75/17/1 77/18/1 81/19/1
f 69/15/1 78/16/1 79/14/1
f 72/20/1 78/19/1 66/17/1
f 71/21/1 83/22/1 85/23/1
f 67/13/1 83/14/1 65/15/1
f 74/24/1 82/23/1 63/21/1
f 67/15/1 82/16/1 84/14/1
f 71/25/1 89/26/1 73/27/1
f 73/25/1 88/26/1 72/27/1
f 75/20/1 92/19/1 76/17/1
f 76/20/1 90/19/1 74/17/1
f 80/28/3 94/29/3 78/30/3
f 78/31/3 95/32/3 79/33/3
f 77/28/3 97/29/3 81/30/3
f 79/31/3 93/32/3 77/33/3
f 83/24/5 101/23/5 85/21/5
f 82/13/5 100/14/5 84/15/5
f 86/24/5 98/23/5 82/21/5
f 84/13/5 99/14/5 83/15/5
f 98/13/5 110/14/5 100/15/5
f 100/13/5 109/14/5 99/15/5
f 94/31/3 105/32/3 95/33/3
f 99/24/5 111/23/5 101/21/5
f 95/31/3 103/32/3 93/33/3
f 102/24/5 108/23/5 98/21/5
f 96/28/3 104/29/3 94/30/3
f 93/28/3 107/29/3 97/30/3
f 90/34/5 129/35/5 74/36/5
f 91/28/4 133/29/4 92/30/4
f 75/34/3 132/35/3 91/36/3
f 92/28/4 131/29/4 90/30/4
f 130/34/3 137/35/3 132/36/3
f 132/28/4 138/29/4 133/30/4
f 131/34/5 134/35/5 129/36/5
f 133/28/4 136/29/4 131/30/4
f 129/24/4 86/23/4 74/21/4
f 129/24/4 112/23/4 102/21/4
f 135/34/4 97/35/4 107/36/4
f 81/34/4 130/35/4 75/36/4
f 88/34/3 140/35/3 72/36/3
f 87/31/2 143/32/2 89/33/2
f 71/34/5 141/35/5 87/36/5
f 89/31/2 142/32/2 88/33/2
f 139/34/5 146/35/5 141/36/5
f 141/31/2 148/32/2 143/33/2
f 142/34/3 145/35/3 140/36/3
f 143/31/2 147/32/2 142/33/2
f 140/34/2 80/35/2 72/36/2
f 140/34/2 106/35/2 96/36/2
f 85/24/2 139/23/2 71/21/2
f 144/24/2 101/23/2 111/21/2
f 137/20/6 149/19/6 138/17/6
f 138/17/6 134/18/6 136/19/6
f 146/37/6 150/38/6 148/39/6
f 148/39/6 145/40/6 147/38/6
f 149/41/4 114/42/4 151/43/4
f 134/41/4 151/42/4 116/43/4
f 117/41/4 151/42/4 114/43/4
f 151/41/4 118/42/4 116/43/4
f 150/41/2 115/42/2 152/43/2
f 145/41/2 152/42/2 113/43/2
f 152/41/2 119/42/2 113/43/2
f 120/41/2 152/42/2 115/43/2
f 126/41/3 157/42/3 125/43/3
f 123/41/5 153/42/5 121/43/5
f 124/41/3 158/42/3 126/43/3
f 122/41/5 155/42/5 123/43/5
f 125/41/3 113/42/3 119/43/3
f 156/41/3 117/42/3 114/43/3
f 121/41/5 116/42/5 118/43/5
f 154/41/5 120/42/5 115/43/5
f 156/41/3 161/42/3 158/43/3
f 158/41/3 160/42/3 157/43/3
f 154/44/5 164/45/5 155/46/5
f 155/44/5 162/45/5 153/46/5
f 108/13/6 164/14/6 110/15/6
f 164/13/6 109/14/6 110/15/6
f 153/41/5 134/42/5 116/43/5
f 163/41/5 115/42/5 144/43/5
f 163/20/6 111/19/6 109/17/6
f 108/17/6 134/18/6 162/19/6
f 159/41/3 114/42/3 135/43/3
f 157/41/3 145/42/3 113/43/3
f 104/39/6 145/40/6 160/38/6
f 104/37/6 161/38/6 105/39/6
f 161/37/6 103/38/6 105/39/6
f 159/37/6 107/38/6 103/39/6
f 123/17/5 170/47/5 122/48/5
f 127/17/2 167/47/2 119/48/2
f 124/17/3 165/47/3 117/48/3
f 125/17/3 174/47/3 126/48/3
f 120/17/2 175/47/2 127/48/2
f 118/17/5 169/47/5 121/48/5
f 126/17/3 172/47/3 124/48/3
f 117/17/4 176/47/4 128/48/4
f 121/17/5 171/47/5 123/48/5
f 122/17/5 168/47/5 120/48/5
f 119/17/3 173/47/3 125/48/3
f 128/17/4 166/47/4 118/48/4
f 171/49/5 182/50/5 170/51/5
f 175/49/2 179/50/2 167/51/2
f 172/49/3 177/50/3 165/51/3
f 173/49/3 186/50/3 174/51/3
f 168/49/2 187/50/2 175/51/2
f 166/49/5 181/50/5 169/51/5
f 174/49/3 184/50/3 172/51/3
f 165/49/4 188/50/4 176/51/4
f 169/49/5 183/50/5 171/51/5
f 170/49/5 180/50/5 168/51/5
f 167/49/3 185/50/3 173/51/3
f 176/49/4 178/50/4 166/51/4
f 188/49/4 190/50/4 178/51/4
f 183/49/5 194/50/5 182/51/5
f 187/49/2 191/50/2 179/51/2
f 184/49/3 189/50/3 177/51/3
f 185/49/3 198/50/3 186/51/3
f 180/49/2 199/50/2 187/51/2
f 178/49/5 193/50/5 181/51/5
f 186/49/3 196/50/3 184/51/3
f 177/49/4 200/50/4 188/51/4
f 181/49/5 195/50/5 183/51/5
f 182/49/5 192/50/5 180/51/5
f 179/49/3 197/50/3 185/51/3
f 196/49/3 201/50/3 189/51/3
f 197/49/3 210/50/3 198/51/3
f 192/49/2 211/50/2 199/51/2
f 190/49/5 205/50/5 193/51/5
f 198/49/3 208/50/3 196/51/3
f 189/49/4 212/50/4 200/51/4
f 193/49/5 207/50/5 195/51/5
f 194/49/5 204/50/5 192/51/5
f 191/49/3 209/50/3 197/51/3
f 200/49/4 202/50/4 190/51/4
f 195/49/5 206/50/5 194/51/5
f 199/49/2 203/50/2 191/51/2
f 202/49/6 213/50/6 205/51/6
f 213/49/6 201/50/6 208/51/6
f 214/49/6 204/50/6 206/51/6
f 203/49/6 214/50/6 209/51/6
f 207/49/5 216/50/5 206/51/5
f 206/49/2 222/50/2 214/51/2
f 213/49/4 215/50/4 205/51/4
f 209/49/3 220/50/3 210/51/3
f 205/49/5 217/50/5 207/51/5
f 214/49/2 219/50/2 209/51/2
f 208/49/4 221/50/4 213/51/4
f 210/49/3 218/50/3 208/51/3
f 215/49/6 223/50/6 217/51/6
f 223/49/6 218/50/6 220/51/6
f 223/49/6 216/50/6 217/51/6
f 220/51/6 222/52/6 223/50/6
f 225/3/5 27/4/5 28/2/5
f 226/1/5 27/2/5 224/3/5
f 30/1/5 232/2/5 28/3/5
f 227/1/5 229/2/5 228/3/5
f 10/1/4 226/2/4 1/3/4
f 1/1/1 224/2/1 4/3/1
f 34/1/6 30/2/6 19/3/6
f 7/1/2 28/2/2 14/3/2
f 14/1/1 232/2/1 31/3/1
f 17/1/6 229/2/6 24/3/6
f 10/3/1 230/4/1 227/2/1
f 5/1/1 8/4/1 9/2/1
f 4/1/1 7/4/1 8/2/1
f 2/1/1 5/4/1 6/2/1
f 2/3/1 1/1/1 4/4/1
f 31/1/2 232/4/2 231/2/2
f 9/1/3 16/4/3 13/2/3
f 7/1/2 14/4/2 15/2/2
f 24/1/4 229/4/4 230/2/4
f 2/1/4 11/4/4 10/2/4
f 6/1/3 13/4/3 12/2/3
f 8/1/2 15/4/2 16/2/2
f 3/1/4 12/4/4 11/2/4
f 11/3/1 12/1/1 23/4/1
f 4/1/1 224/4/1 225/2/1
f 20/1/2 41/4/2 38/2/2
f 12/1/4 39/4/4 42/2/4
f 22/1/4 25/4/4 24/2/4
f 23/1/4 26/4/4 25/2/4
f 18/1/3 26/4/3 23/2/3
f 11/1/1 22/4/1 21/2/1
f 227/5/5 228/9/5 29/6/5
f 27/5/5 29/9/5 30/6/5
f 32/1/2 35/4/2 36/2/2
f 31/1/2 34/4/2 35/2/2
f 15/1/1 32/4/1 33/2/1
f 16/1/3 33/4/3 36/2/3
f 15/3/1 14/1/1 31/4/1
f 37/1/3 40/4/3 42/2/3
f 38/1/3 41/4/3 40/2/3
f 13/1/1 37/4/1 39/2/1
f 13/3/1 16/1/1 38/4/1
f 29/6/5 50/10/5 51/8/5
f 20/1/2 46/4/2 57/2/2
f 228/9/5 52/8/5 50/10/5
f 41/1/3 57/4/3 56/2/3
f 19/1/5 45/4/5 53/2/5
f 40/1/3 56/4/3 58/2/3
f 18/1/3 44/4/3 49/2/3
f 25/1/4 48/4/4 47/2/4
f 24/1/5 47/4/5 43/2/5
f 34/1/2 53/4/2 54/2/2
f 26/1/4 49/4/4 48/2/4
f 17/11/4 43/5/4 52/7/4
f 35/1/2 54/4/2 55/2/2
f 30/11/2 51/5/2 45/7/2
f 36/1/3 55/4/3 46/2/3
f 42/1/4 58/4/4 44/2/4
f 52/11/6 43/5/6 59/7/6
f 59/11/6 45/5/6 51/7/6
f 53/1/6 45/4/6 60/2/6
f 60/1/6 46/4/6 55/2/6
f 61/3/6 56/1/6 57/4/6
f 61/1/6 44/4/6 58/2/6
f 62/3/6 48/1/6 49/4/6
f 47/1/6 48/4/6 62/2/6
f 46/11/3 66/5/3 69/7/3
f 45/11/2 65/5/2 68/7/2
f 43/11/5 63/5/5 67/7/5
f 62/11/4 70/5/4 63/7/4
f 61/11/3 69/5/3 64/7/3
f 60/11/2 68/5/2 66/7/2
f 59/11/5 67/5/5 65/7/5
f 44/11/4 64/5/4 70/7/4
f 68/13/1 73/16/1 72/14/1
f 68/15/1 65/13/1 71/16/1
f 70/13/1 76/16/1 74/14/1
f 70/15/1 64/13/1 75/16/1
f 69/13/1 79/16/1 77/14/1
f 75/17/1 64/20/1 77/18/1
f 69/15/1 66/13/1 78/16/1
f 72/20/1 80/18/1 78/19/1
f 71/21/1 65/24/1 83/22/1
f 67/13/1 84/16/1 83/14/1
f 74/24/1 86/22/1 82/23/1
f 67/15/1 63/13/1 82/16/1
f 71/25/1 87/53/1 89/26/1
f 73/25/1 89/53/1 88/26/1
f 75/20/1 91/18/1 92/19/1
f 76/20/1 92/18/1 90/19/1
f 80/28/3 96/54/3 94/29/3
f 78/31/3 94/55/3 95/32/3
f 77/28/3 93/54/3 97/29/3
f 79/31/3 95/55/3 93/32/3
f 83/24/5 99/22/5 101/23/5
f 82/13/5 98/16/5 100/14/5
f 86/24/5 102/22/5 98/23/5
f 84/13/5 100/16/5 99/14/5
f 98/13/5 108/16/5 110/14/5
f 100/13/5 110/16/5 109/14/5
f 94/31/3 104/55/3 105/32/3
f 99/24/5 109/22/5 111/23/5
f 95/31/3 105/55/3 103/32/3
f 102/24/5 112/22/5 108/23/5
f 96/28/3 106/54/3 104/29/3
f 93/28/3 103/54/3 107/29/3
f 90/34/5 131/56/5 129/35/5
f 91/28/4 132/54/4 133/29/4
f 75/34/3 130/56/3 132/35/3
f 92/28/4 133/54/4 131/29/4
f 130/34/3 135/56/3 137/35/3
f 132/28/4 137/54/4 138/29/4
f 131/34/5 136/56/5 134/35/5
f 133/28/4 138/54/4 136/29/4
f 129/24/4 102/22/4 86/23/4
f 129/24/4 134/22/4 112/23/4
f 135/34/4 130/56/4 97/35/4
f 81/34/4 97/56/4 130/35/4
f 88/34/3 142/56/3 140/35/3
f 87/31/2 141/55/2 143/32/2
f 71/34/5 139/56/5 141/35/5
f 89/31/2 143/55/2 142/32/2
f 139/34/5 144/56/5 146/35/5
f 141/31/2 146/55/2 148/32/2
f 142/34/3 147/56/3 145/35/3
f 143/31/2 148/55/2 147/32/2
f 140/34/2 96/56/2 80/35/2
f 140/34/2 145/56/2 106/35/2
f 85/24/2 101/22/2 139/23/2
f 144/24/2 139/22/2 101/23/2
f 137/20/6 135/18/6 149/19/6
f 138/17/6 149/20/6 134/18/6
f 146/37/6 144/40/6 150/38/6
f 148/39/6 150/37/6 145/40/6
f 149/41/4 135/57/4 114/42/4
f 134/41/4 149/57/4 151/42/4
f 117/41/4 128/57/4 151/42/4
f 151/41/4 128/57/4 118/42/4
f 150/41/2 144/57/2 115/42/2
f 145/41/2 150/57/2 152/42/2
f 152/41/2 127/57/2 119/42/2
f 120/41/2 127/57/2 152/42/2
f 126/41/3 158/57/3 157/42/3
f 123/41/5 155/57/5 153/42/5
f 124/41/3 156/57/3 158/42/3
f 122/41/5 154/57/5 155/42/5
f 125/41/3 157/57/3 113/42/3
f 156/41/3 124/57/3 117/42/3
f 121/41/5 153/57/5 116/42/5
f 154/41/5 122/57/5 120/42/5
f 156/41/3 159/57/3 161/42/3
f 158/41/3 161/57/3 160/42/3
f 154/44/5 163/58/5 164/45/5
f 155/44/5 164/58/5 162/45/5
f 108/13/6 162/16/6 164/14/6
f 164/13/6 163/16/6 109/14/6
f 153/41/5 162/57/5 134/42/5
f 163/41/5 154/57/5 115/42/5
f 163/20/6 144/18/6 111/19/6
f 108/17/6 112/20/6 134/18/6
f 159/41/3 156/57/3 114/42/3
f 157/41/3 160/57/3 145/42/3
f 104/39/6 106/37/6 145/40/6
f 104/37/6 160/40/6 161/38/6
f 161/37/6 159/40/6 103/38/6
f 159/37/6 135/40/6 107/38/6
f 123/17/5 171/19/5 170/47/5
f 127/17/2 175/19/2 167/47/2
f 124/17/3 172/19/3 165/47/3
f 125/17/3 173/19/3 174/47/3
f 120/17/2 168/19/2 175/47/2
f 118/17/5 166/19/5 169/47/5
f 126/17/3 174/19/3 172/47/3
f 117/17/4 165/19/4 176/47/4
f 121/17/5 169/19/5 171/47/5
f 122/17/5 170/19/5 168/47/5
f 119/17/3 167/19/3 173/47/3
f 128/17/4 176/19/4 166/47/4
f 171/49/5 183/52/5 182/50/5
f 175/49/2 187/52/2 179/50/2
f 172/49/3 184/52/3 177/50/3
f 173/49/3 185/52/3 186/50/3
f 168/49/2 180/52/2 187/50/2
f 166/49/5 178/52/5 181/50/5
f 174/49/3 186/52/3 184/50/3
f 165/49/4 177/52/4 188/50/4
f 169/49/5 181/52/5 183/50/5
f 170/49/5 182/52/5 180/50/5
f 167/49/3 179/52/3 185/50/3
f 176/49/4 188/52/4 178/50/4
f 188/49/4 200/52/4 190/50/4
f 183/49/5 195/52/5 194/50/5
f 187/49/2 199/52/2 191/50/2
f 184/49/3 196/52/3 189/50/3
f 185/49/3 197/52/3 198/50/3
f 180/49/2 192/52/2 199/50/2
f 178/49/5 190/52/5 193/50/5
f 186/49/3 198/52/3 196/50/3
f 177/49/4 189/52/4 200/50/4
f 181/49/5 193/52/5 195/50/5
f 182/49/5 194/52/5 192/50/5
f 179/49/3 191/52/3 197/50/3
f 196/49/3 208/52/3 201/50/3
f 197/49/3 209/52/3 210/50/3
f 192/49/2 204/52/2 211/50/2
f 190/49/5 202/52/5 205/50/5
f 198/49/3 210/52/3 208/50/3
f 189/49/4 201/52/4 212/50/4
f 193/49/5 205/52/5 207/50/5
f 194/49/5 206/52/5 204/50/5
f 191/49/3 203/52/3 209/50/3
f 200/49/4 212/52/4 202/50/4
f 195/49/5 207/52/5 206/50/5
f 199/49/2 211/52/2 203/50/2
f 202/49/6 212/52/6 213/50/6
f 213/49/6 212/52/6 201/50/6
f 214/49/6 211/52/6 204/50/6
f 203/49/6 211/52/6 214/50/6
f 207/49/5 217/52/5 216/50/5
f 206/49/2 216/52/2 222/50/2
f 213/49/4 221/52/4 215/50/4
f 209/49/3 219/52/3 220/50/3
f 205/49/5 215/52/5 217/50/5
f 214/49/2 222/52/2 219/50/2
f 208/49/4 218/52/4 221/50/4
f 210/49/3 220/52/3 218/50/3
f 215/49/6 221/52/6 223/50/6
f 223/49/6 221/52/6 218/50/6
f 223/49/6 222/52/6 216/50/6
f 220/51/6 219/49/6 222/52/6
f 225/3/5 224/1/5 27/4/5
f 226/1/5 227/4/5 27/2/5
f 30/1/5 231/4/5 232/2/5
f 227/1/5 230/4/5 229/2/5
f 10/1/4 227/4/4 226/2/4
f 1/1/1 226/4/1 224/2/1
f 34/1/6 231/4/6 30/2/6
f 7/1/2 225/4/2 28/2/2
f 14/1/1 28/4/1 232/2/1
f 17/1/6 228/4/6 229/2/6
f 10/3/1 21/1/1 230/4/1
