# Blender 4.5.0
# www.blender.org
o Cube
o Sphere
o Sphere.001
v -0.125000 0.250000 1.000000
v -0.000000 0.250000 0.875000
v -0.125000 0.250000 0.875000
v 0.125000 0.125000 0.750000
v 0.125000 -0.125000 0.750000
v -0.125000 -0.125000 0.750000
v -0.000000 0.250000 0.750000
v 0.000000 -0.125000 0.750000
v 0.125000 0.125000 0.625000
v 0.125000 -0.125000 0.625000
v -0.125000 0.125000 0.625000
v -0.125000 -0.125000 0.625000
v -0.000000 0.125000 0.625000
v -0.125000 -0.000000 0.625000
v 0.000000 -0.125000 0.625000
v 0.125000 0.000000 0.625000
v -0.250000 0.125000 0.625000
v -0.250000 -0.125000 0.625000
v -0.250000 -0.000000 0.625000
v 0.250000 0.125000 0.625000
v 0.250000 -0.125000 0.625000
v 0.250000 0.000000 0.625000
v 0.125000 0.250000 0.625000
v -0.125000 0.250000 0.625000
v -0.000000 0.250000 0.625000
v -0.250000 0.250000 0.625000
v 0.250000 0.250000 0.625000
v -0.375000 0.125000 0.625000
v -0.375000 -0.125000 0.625000
v -0.375000 -0.000000 0.625000
v 0.375000 0.125000 0.625000
v 0.375000 -0.125000 0.625000
v 0.375000 0.000000 0.625000
v 0.125000 0.250000 0.500000
v -0.125000 0.250000 0.500000
v -0.000000 0.250000 0.500000
v -0.250000 0.250000 0.500000
v 0.250000 0.250000 0.500000
v 0.125000 0.250000 0.375000
v -0.125000 0.250000 0.375000
v -0.000000 0.250000 0.375000
v -0.250000 0.250000 0.375000
v 0.250000 0.250000 0.375000
v -0.250000 -0.125000 0.250000
v -0.250000 0.125000 0.250000
v 0.250000 -0.125000 0.125000
v 0.250000 0.125000 0.125000
v -0.250000 -0.125000 0.125000
v -0.250000 0.125000 0.125000
v 0.125000 0.125000 0.125000
v -0.125000 0.125000 0.125000
v -0.000000 0.125000 0.125000
v 0.125000 -0.125000 0.125000
v -0.125000 -0.125000 0.125000
v 0.000000 -0.125000 0.125000
v -0.250000 -0.000000 0.125000
v 0.250000 0.000000 0.125000
v 0.250000 0.125000 0.500000
v 0.250000 -0.125000 0.500000
v 0.375000 0.125000 0.500000
v 0.375000 -0.125000 0.500000
v 0.375000 0.000000 0.500000
v 0.250000 0.125000 0.375000
v 0.375000 0.125000 0.375000
v 0.375000 -0.125000 0.375000
v 0.375000 0.000000 0.375000
v -0.250000 0.125000 0.500000
v -0.375000 0.125000 0.500000
v -0.375000 -0.125000 0.500000
v -0.375000 -0.000000 0.500000
v -0.250000 0.125000 0.375000
v -0.250000 -0.125000 0.375000
v -0.375000 0.125000 0.375000
v -0.375000 -0.125000 0.375000
v -0.375000 -0.000000 0.375000
v 0.250000 0.000000 0.375000
v -0.250000 -0.000000 0.375000
v 0.125000 -0.125000 0.250000
v -0.125000 -0.125000 0.250000
v 0.000000 -0.125000 0.250000
v -0.125000 -0.125000 0.375000
v 0.125000 0.125000 0.375000
v -0.125000 0.125000 0.375000
v -0.000000 0.125000 0.375000
v 0.250000 -0.125000 0.000000
v 0.250000 0.125000 0.000000
v -0.250000 -0.125000 0.000000
v -0.250000 0.125000 0.000000
v 0.125000 0.125000 0.000000
v -0.125000 0.125000 0.000000
v -0.000000 0.125000 0.000000
v 0.125000 -0.125000 0.000000
v -0.125000 -0.125000 0.000000
v 0.000000 -0.125000 0.000000
v -0.250000 -0.000000 0.000000
v 0.250000 0.000000 0.000000
v 0.250000 -0.125000 -0.125000
v 0.250000 0.125000 -0.125000
v -0.250000 -0.125000 -0.125000
v -0.250000 0.125000 -0.125000
v 0.125000 0.125000 -0.125000
v -0.125000 0.125000 -0.125000
v -0.000000 0.125000 -0.125000
v 0.125000 -0.125000 -0.125000
v -0.125000 -0.125000 -0.125000
v 0.000000 -0.125000 -0.125000
v -0.250000 -0.000000 -0.125000
v 0.250000 0.000000 -0.125000
v 0.250000 -0.125000 -0.250000
v 0.250000 0.125000 -0.250000
v -0.250000 -0.125000 -0.250000
v -0.250000 0.125000 -0.250000
v 0.125000 0.125000 -0.250000
v -0.125000 0.125000 -0.250000
v -0.000000 0.125000 -0.250000
v 0.125000 -0.125000 -0.250000
v -0.125000 -0.125000 -0.250000
v 0.000000 -0.125000 -0.250000
v -0.250000 -0.000000 -0.250000
v 0.250000 0.000000 -0.250000
v 0.250000 0.125000 -0.375000
v -0.250000 0.125000 -0.375000
v -0.125000 0.125000 -0.375000
v -0.000000 0.125000 -0.375000
v -0.125000 -0.125000 -0.375000
v 0.000000 -0.125000 -0.375000
v -0.250000 -0.000000 -0.375000
v 0.250000 0.000000 -0.375000
v 0.125000 0.250000 1.000000
v 0.125000 0.250000 0.875000
v 0.125000 0.250000 0.750000
v -0.125000 0.250000 0.750000
v 0.125000 -0.125000 0.500000
v -0.125000 -0.125000 0.500000
v 0.000000 -0.125000 0.500000
v -0.250000 -0.125000 0.500000
v 0.125000 -0.125000 0.375000
v 0.000000 -0.125000 0.375000
v 0.250000 -0.125000 0.375000
v 0.125000 0.125000 1.125000
v 0.125000 0.000000 1.125000
v 0.125000 -0.125000 1.125000
v -0.000000 0.125000 1.125000
v 0.000000 0.000000 1.125000
v 0.000000 -0.125000 1.125000
v -0.125000 0.125000 1.125000
v -0.125000 -0.000000 1.125000
v -0.125000 -0.125000 1.125000
v 0.125000 0.125000 1.000000
v 0.125000 0.000000 1.000000
v 0.125000 -0.125000 1.000000
v 0.000000 -0.125000 1.000000
v -0.125000 0.125000 1.000000
v -0.125000 -0.000000 1.000000
v -0.125000 -0.125000 1.000000
v 0.125000 -0.125000 0.875000
v -0.125000 -0.125000 0.875000
v 0.250000 0.125000 1.000000
v 0.250000 0.000000 1.000000
v 0.250000 -0.125000 1.000000
v 0.250000 0.125000 0.875000
v 0.250000 0.000000 0.875000
v 0.250000 -0.125000 0.875000
v -0.000000 0.250000 1.000000
v -0.250000 0.125000 1.000000
v -0.250000 -0.000000 1.000000
v -0.250000 -0.125000 1.000000
v -0.250000 0.125000 0.875000
v -0.250000 -0.000000 0.875000
v -0.250000 -0.125000 0.875000
v 0.000000 -0.250000 1.000000
v -0.125000 -0.250000 1.000000
v 0.125000 -0.250000 1.000000
v 0.000000 -0.250000 0.875000
v -0.125000 -0.250000 0.875000
v 0.125000 -0.250000 0.875000
v -0.125000 0.125000 0.750000
v 0.250000 0.125000 0.750000
v 0.250000 0.000000 0.750000
v 0.250000 -0.125000 0.750000
v -0.250000 0.125000 0.750000
v -0.250000 -0.000000 0.750000
v -0.250000 -0.125000 0.750000
v 0.000000 -0.250000 0.750000
v -0.125000 -0.250000 0.750000
v 0.125000 -0.250000 0.750000
v -0.000000 0.125000 0.750000
v -0.125000 -0.000000 0.750000
v 0.125000 0.000000 0.750000
v -0.000000 0.250000 1.125000
v -0.125000 0.250000 1.125000
v 0.125000 0.250000 1.125000
v 0.250000 0.250000 0.875000
v 0.250000 0.250000 1.000000
v -0.250000 0.250000 0.875000
v -0.250000 0.250000 1.000000
v 0.250000 0.250000 0.750000
v -0.250000 0.250000 0.750000
v 0.125000 0.125000 -0.375000
v -0.250000 -0.125000 -0.375000
v 0.125000 0.250000 0.250000
v -0.000000 0.250000 0.250000
v -0.125000 0.250000 0.250000
v -0.250000 0.250000 0.250000
v 0.250000 0.250000 0.250000
v 0.375000 -0.125000 0.250000
v 0.375000 0.000000 0.250000
v 0.375000 0.125000 0.250000
v 0.250000 0.125000 0.250000
v -0.375000 0.125000 0.250000
v -0.375000 -0.000000 0.250000
v -0.375000 -0.125000 0.250000
v 0.250000 0.000000 0.250000
v -0.250000 -0.000000 0.250000
v 0.125000 0.125000 0.250000
v -0.000000 0.125000 0.250000
v -0.125000 0.125000 0.250000
v 0.250000 -0.125000 0.250000
v 0.125000 -0.125000 -0.375000
v 0.250000 -0.125000 -0.375000
v -0.250000 -0.000000 -0.500000
v 0.000000 -0.125000 -0.500000
v -0.125000 -0.125000 -0.500000
v 0.125000 -0.125000 -0.500000
v -0.000000 0.125000 -0.500000
v -0.125000 0.125000 -0.500000
v 0.125000 0.125000 -0.500000
v -0.250000 0.125000 -0.500000
v -0.250000 -0.125000 -0.500000
v 0.250000 0.125000 -0.500000
v 0.250000 -0.125000 -0.500000
v 0.250000 0.000000 -0.500000
v -0.000000 0.000000 -0.500000
v 0.125000 0.000000 -0.500000
v -0.125000 -0.000000 -0.500000
vn -0.0000 1.0000 -0.0000
vn -0.0000 -0.0000 -1.0000
vn -0.0000 -1.0000 -0.0000
vn -1.0000 -0.0000 -0.0000
vn 1.0000 -0.0000 -0.0000
vn -0.0000 -0.0000 1.0000
vt 0.250000 1.000000
vt 0.500000 0.750000
vt 0.500000 1.000000
vt 0.750000 1.000000
vt 0.750000 0.750000
vt 0.000000 0.500000
vt 0.250000 0.250000
vt 0.250000 0.500000
vt 0.000000 0.750000
vt 0.000000 1.000000
vt 0.000000 0.000000
vt 0.000000 0.250000
vt 0.500000 0.000000
vt 0.250000 0.000000
vt 0.500000 0.250000
vt 0.250000 0.750000
s 0
f 129/1/1 2/2/1 164/3/1
f 164/1/1 3/2/1 1/3/1
f 2/4/1 132/2/1 3/3/1
f 130/3/1 7/5/1 2/4/1
f 184/6/2 6/7/2 8/8/2
f 8/6/2 186/7/2 184/8/2
f 6/9/3 15/1/3 8/10/3
f 177/9/4 14/1/4 188/10/4
f 4/9/1 13/1/1 187/10/1
f 189/9/5 9/1/5 4/10/5
f 8/9/3 10/1/3 5/10/3
f 188/9/4 12/1/4 6/10/4
f 187/9/1 11/1/1 177/10/1
f 5/9/5 16/1/5 189/10/5
f 14/11/6 18/7/6 12/12/6
f 11/11/6 19/7/6 14/12/6
f 16/11/6 20/7/6 9/12/6
f 10/11/6 22/7/6 16/12/6
f 11/11/6 26/7/6 17/12/6
f 13/11/6 24/7/6 11/12/6
f 20/11/6 23/7/6 9/12/6
f 9/11/6 25/7/6 13/12/6
f 17/11/6 30/7/6 19/12/6
f 19/11/6 29/7/6 18/12/6
f 21/11/6 33/7/6 22/12/6
f 22/11/6 31/7/6 20/12/6
f 24/11/1 37/7/1 26/12/1
f 23/11/1 36/7/1 25/12/1
f 27/11/1 34/7/1 23/12/1
f 25/11/1 35/7/1 24/12/1
f 34/11/1 41/7/1 36/12/1
f 36/11/1 40/7/1 35/12/1
f 35/11/1 42/7/1 37/12/1
f 38/11/1 39/7/1 34/12/1
f 31/11/1 58/7/1 20/12/1
f 32/11/5 62/7/5 33/12/5
f 21/11/3 61/7/3 32/12/3
f 33/11/5 60/7/5 31/12/5
f 59/11/3 65/7/3 61/12/3
f 61/11/5 66/7/5 62/12/5
f 60/11/1 63/7/1 58/12/1
f 62/11/5 64/7/5 60/12/5
f 58/11/5 27/7/5 20/12/5
f 58/11/5 43/7/5 38/12/5
f 29/11/3 136/7/3 18/12/3
f 28/11/4 70/7/4 30/12/4
f 17/11/1 68/7/1 28/12/1
f 30/11/4 69/7/4 29/12/4
f 67/11/1 73/7/1 68/12/1
f 68/11/4 75/7/4 70/12/4
f 69/11/3 72/7/3 136/12/3
f 70/11/4 74/7/4 69/12/4
f 26/11/4 67/7/4 17/12/4
f 71/11/4 37/7/4 42/12/4
f 83/11/3 216/11/3 84/11/3
f 43/11/1 201/7/1 39/12/1
f 42/11/4 45/7/4 71/12/4
f 82/11/3 209/11/3 63/11/3
f 63/11/4 213/7/4 76/12/4
f 76/11/4 218/7/4 139/12/4
f 46/11/5 213/7/5 218/12/5
f 213/11/5 47/7/5 209/12/5
f 65/11/5 207/7/5 66/12/5
f 71/11/3 217/11/3 83/11/3
f 214/11/4 48/7/4 44/12/4
f 49/11/4 214/7/4 45/12/4
f 55/11/3 79/7/3 54/12/3
f 52/11/1 215/7/1 50/12/1
f 53/11/3 80/7/3 55/12/3
f 51/11/1 216/7/1 52/12/1
f 54/11/3 44/7/3 48/12/3
f 78/11/3 46/7/3 218/12/3
f 50/11/1 209/7/1 47/12/1
f 217/11/1 49/7/1 45/12/1
f 205/11/2 215/7/2 201/12/2
f 217/11/2 204/7/2 203/12/2
f 216/11/2 203/7/2 202/12/2
f 201/11/2 216/7/2 202/12/2
f 74/11/3 44/7/3 72/12/3
f 84/11/3 215/11/3 82/11/3
f 214/11/2 212/7/2 211/12/2
f 210/11/2 214/7/2 211/12/2
f 40/11/1 204/7/1 42/12/1
f 71/11/1 210/7/1 73/12/1
f 213/11/2 208/7/2 207/12/2
f 206/11/2 213/7/2 207/12/2
f 52/13/1 90/7/1 51/14/1
f 56/13/4 87/7/4 48/14/4
f 53/13/3 85/7/3 46/14/3
f 54/13/3 94/7/3 55/14/3
f 49/13/4 95/7/4 56/14/4
f 47/13/1 89/7/1 50/14/1
f 55/13/3 92/7/3 53/14/3
f 46/13/5 96/7/5 57/14/5
f 50/13/1 91/7/1 52/14/1
f 51/13/1 88/7/1 49/14/1
f 48/13/3 93/7/3 54/14/3
f 57/13/5 86/7/5 47/14/5
f 91/13/1 102/7/1 90/14/1
f 95/13/4 99/7/4 87/14/4
f 92/13/3 97/7/3 85/14/3
f 93/13/3 106/7/3 94/14/3
f 88/13/4 107/7/4 95/14/4
f 86/13/1 101/7/1 89/14/1
f 94/13/3 104/7/3 92/14/3
f 85/13/5 108/7/5 96/14/5
f 89/13/1 103/7/1 91/14/1
f 90/13/1 100/7/1 88/14/1
f 87/13/3 105/7/3 93/14/3
f 96/13/5 98/7/5 86/14/5
f 108/13/5 110/7/5 98/14/5
f 103/13/1 114/7/1 102/14/1
f 107/13/4 111/7/4 99/14/4
f 104/13/3 109/7/3 97/14/3
f 105/13/3 118/7/3 106/14/3
f 100/13/4 119/7/4 107/14/4
f 98/13/1 113/7/1 101/14/1
f 106/13/3 116/7/3 104/14/3
f 97/13/5 120/7/5 108/14/5
f 101/13/1 115/7/1 103/14/1
f 102/13/1 112/7/1 100/14/1
f 99/13/3 117/7/3 105/14/3
f 116/13/3 220/7/3 109/14/3
f 117/13/3 126/7/3 118/14/3
f 112/13/4 127/7/4 119/14/4
f 110/13/1 199/7/1 113/14/1
f 118/13/3 219/7/3 116/14/3
f 109/13/5 128/7/5 120/14/5
f 113/13/1 124/7/1 115/14/1
f 114/13/1 122/7/1 112/14/1
f 111/13/3 125/7/3 117/14/3
f 120/13/5 121/7/5 110/14/5
f 115/13/1 123/7/1 114/14/1
f 119/13/4 200/7/4 111/14/4
f 129/6/1 193/7/1 130/8/1
f 12/11/3 135/7/3 15/12/3
f 18/11/3 134/7/3 12/12/3
f 15/11/3 133/7/3 10/12/3
f 10/11/3 59/7/3 21/12/3
f 135/11/3 137/7/3 133/12/3
f 136/11/3 81/7/3 134/12/3
f 134/11/3 138/7/3 135/12/3
f 133/11/3 139/7/3 59/12/3
f 144/6/6 148/7/6 145/8/6
f 143/6/6 147/7/6 144/8/6
f 141/6/6 145/7/6 142/8/6
f 140/6/6 144/7/6 141/8/6
f 165/6/4 195/7/4 168/8/4
f 148/6/3 152/7/3 145/8/3
f 146/6/4 154/7/4 147/8/4
f 161/6/5 194/7/5 158/8/5
f 141/6/5 149/7/5 140/8/5
f 145/6/3 151/7/3 142/8/3
f 147/6/4 155/7/4 148/8/4
f 142/6/5 150/7/5 141/8/5
f 151/6/6 159/7/6 150/8/6
f 143/6/6 191/7/6 146/8/6
f 157/6/4 172/7/4 155/8/4
f 151/6/5 176/7/5 156/8/5
f 159/6/5 161/7/5 158/8/5
f 160/6/5 162/7/5 159/8/5
f 156/6/3 160/7/3 151/8/3
f 150/6/6 158/7/6 149/8/6
f 166/6/4 170/7/4 167/8/4
f 165/6/4 169/7/4 166/8/4
f 154/6/6 167/7/6 155/8/6
f 155/6/3 170/7/3 157/8/3
f 153/6/6 166/7/6 154/8/6
f 171/6/3 176/7/3 173/8/3
f 172/6/3 174/7/3 171/8/3
f 152/6/6 173/7/6 151/8/6
f 155/6/6 171/7/6 152/8/6
f 157/6/4 185/7/4 175/8/4
f 175/6/3 184/7/3 174/8/3
f 174/6/3 186/7/3 176/8/3
f 156/6/3 180/7/3 163/8/3
f 162/6/5 178/7/5 161/8/5
f 178/6/5 193/7/5 161/8/5
f 168/6/4 182/7/4 169/8/4
f 163/6/5 179/7/5 162/8/5
f 169/6/4 183/7/4 170/8/4
f 170/6/3 6/7/3 157/8/3
f 176/6/5 5/7/5 156/8/5
f 131/9/2 187/1/2 7/10/2
f 187/9/2 132/1/2 7/10/2
f 181/6/2 188/7/2 182/8/2
f 188/6/2 183/7/2 182/8/2
f 179/6/2 5/7/2 189/8/2
f 178/6/2 189/7/2 4/8/2
f 190/6/1 1/7/1 191/8/1
f 192/6/1 164/7/1 190/8/1
f 3/6/1 196/7/1 1/8/1
f 149/6/5 192/7/5 140/8/5
f 140/6/6 190/7/6 143/8/6
f 146/6/4 1/7/4 153/8/4
f 153/6/6 196/7/6 165/8/6
f 149/8/6 194/12/6 129/7/6
f 195/8/1 132/12/1 198/7/1
f 193/6/1 131/7/1 130/8/1
f 4/6/2 197/7/2 178/8/2
f 168/6/4 198/7/4 181/8/4
f 181/6/2 132/7/2 177/8/2
f 66/11/5 208/7/5 64/12/5
f 63/11/5 205/7/5 43/12/5
f 64/11/1 209/7/1 63/12/1
f 73/11/4 211/7/4 75/12/4
f 77/11/5 45/11/5 71/11/5
f 139/11/3 206/7/3 65/12/3
f 39/11/1 202/7/1 41/12/1
f 75/11/4 212/7/4 74/12/4
f 72/11/5 214/11/5 77/11/5
f 41/11/1 203/7/1 40/12/1
f 81/11/3 44/7/3 79/12/3
f 138/11/3 79/7/3 80/12/3
f 78/11/3 138/7/3 80/12/3
f 139/11/3 78/7/3 218/12/3
f 121/13/1 227/7/1 199/14/1
f 122/13/4 221/7/4 127/14/4
f 125/13/3 222/7/3 126/14/3
f 219/13/3 231/7/3 220/14/3
f 127/13/4 229/7/4 200/14/4
f 124/13/1 226/7/1 123/14/1
f 220/13/5 232/7/5 128/14/5
f 200/13/3 223/7/3 125/14/3
f 123/13/1 228/7/1 122/14/1
f 199/13/1 225/7/1 124/14/1
f 128/13/5 230/7/5 121/14/5
f 126/13/3 224/7/3 219/14/3
f 225/14/2 234/15/2 233/7/2
f 223/13/2 233/7/2 222/14/2
f 222/14/2 234/15/2 224/7/2
f 234/13/2 230/7/2 232/14/2
f 231/13/2 234/7/2 232/14/2
f 233/13/2 226/7/2 225/14/2
f 228/13/2 235/7/2 221/14/2
f 235/13/2 229/7/2 221/14/2
f 129/1/1 130/16/1 2/2/1
f 164/1/1 2/16/1 3/2/1
f 2/4/1 7/5/1 132/2/1
f 130/3/1 131/2/1 7/5/1
f 184/6/2 185/12/2 6/7/2
f 8/6/2 5/12/2 186/7/2
f 6/9/3 12/16/3 15/1/3
f 177/9/4 11/16/4 14/1/4
f 4/9/1 9/16/1 13/1/1
f 189/9/5 16/16/5 9/1/5
f 8/9/3 15/16/3 10/1/3
f 188/9/4 14/16/4 12/1/4
f 187/9/1 13/16/1 11/1/1
f 5/9/5 10/16/5 16/1/5
f 14/11/6 19/14/6 18/7/6
f 11/11/6 17/14/6 19/7/6
f 16/11/6 22/14/6 20/7/6
f 10/11/6 21/14/6 22/7/6
f 11/11/6 24/14/6 26/7/6
f 13/11/6 25/14/6 24/7/6
f 20/11/6 27/14/6 23/7/6
f 9/11/6 23/14/6 25/7/6
f 17/11/6 28/14/6 30/7/6
f 19/11/6 30/14/6 29/7/6
f 21/11/6 32/14/6 33/7/6
f 22/11/6 33/14/6 31/7/6
f 24/11/1 35/14/1 37/7/1
f 23/11/1 34/14/1 36/7/1
f 27/11/1 38/14/1 34/7/1
f 25/11/1 36/14/1 35/7/1
f 34/11/1 39/14/1 41/7/1
f 36/11/1 41/14/1 40/7/1
f 35/11/1 40/14/1 42/7/1
f 38/11/1 43/14/1 39/7/1
f 31/11/1 60/14/1 58/7/1
f 32/11/5 61/14/5 62/7/5
f 21/11/3 59/14/3 61/7/3
f 33/11/5 62/14/5 60/7/5
f 59/11/3 139/14/3 65/7/3
f 61/11/5 65/14/5 66/7/5
f 60/11/1 64/14/1 63/7/1
f 62/11/5 66/14/5 64/7/5
f 58/11/5 38/14/5 27/7/5
f 58/11/5 63/14/5 43/7/5
f 29/11/3 69/14/3 136/7/3
f 28/11/4 68/14/4 70/7/4
f 17/11/1 67/14/1 68/7/1
f 30/11/4 70/14/4 69/7/4
f 67/11/1 71/14/1 73/7/1
f 68/11/4 73/14/4 75/7/4
f 69/11/3 74/14/3 72/7/3
f 70/11/4 75/14/4 74/7/4
f 26/11/4 37/14/4 67/7/4
f 71/11/4 67/14/4 37/7/4
f 83/11/3 217/11/3 216/11/3
f 43/11/1 205/14/1 201/7/1
f 42/11/4 204/14/4 45/7/4
f 82/11/3 215/11/3 209/11/3
f 63/11/4 209/14/4 213/7/4
f 76/11/4 213/14/4 218/7/4
f 46/11/5 57/14/5 213/7/5
f 213/11/5 57/14/5 47/7/5
f 65/11/5 206/14/5 207/7/5
f 71/11/3 45/11/3 217/11/3
f 214/11/4 56/14/4 48/7/4
f 49/11/4 56/14/4 214/7/4
f 55/11/3 80/14/3 79/7/3
f 52/11/1 216/14/1 215/7/1
f 53/11/3 78/14/3 80/7/3
f 51/11/1 217/14/1 216/7/1
f 54/11/3 79/14/3 44/7/3
f 78/11/3 53/14/3 46/7/3
f 50/11/1 215/14/1 209/7/1
f 217/11/1 51/14/1 49/7/1
f 205/11/2 209/14/2 215/7/2
f 217/11/2 45/14/2 204/7/2
f 216/11/2 217/14/2 203/7/2
f 201/11/2 215/14/2 216/7/2
f 74/11/3 212/14/3 44/7/3
f 84/11/3 216/11/3 215/11/3
f 214/11/2 44/14/2 212/7/2
f 210/11/2 45/14/2 214/7/2
f 40/11/1 203/14/1 204/7/1
f 71/11/1 45/14/1 210/7/1
f 213/11/2 209/14/2 208/7/2
f 206/11/2 218/14/2 213/7/2
f 52/13/1 91/15/1 90/7/1
f 56/13/4 95/15/4 87/7/4
f 53/13/3 92/15/3 85/7/3
f 54/13/3 93/15/3 94/7/3
f 49/13/4 88/15/4 95/7/4
f 47/13/1 86/15/1 89/7/1
f 55/13/3 94/15/3 92/7/3
f 46/13/5 85/15/5 96/7/5
f 50/13/1 89/15/1 91/7/1
f 51/13/1 90/15/1 88/7/1
f 48/13/3 87/15/3 93/7/3
f 57/13/5 96/15/5 86/7/5
f 91/13/1 103/15/1 102/7/1
f 95/13/4 107/15/4 99/7/4
f 92/13/3 104/15/3 97/7/3
f 93/13/3 105/15/3 106/7/3
f 88/13/4 100/15/4 107/7/4
f 86/13/1 98/15/1 101/7/1
f 94/13/3 106/15/3 104/7/3
f 85/13/5 97/15/5 108/7/5
f 89/13/1 101/15/1 103/7/1
f 90/13/1 102/15/1 100/7/1
f 87/13/3 99/15/3 105/7/3
f 96/13/5 108/15/5 98/7/5
f 108/13/5 120/15/5 110/7/5
f 103/13/1 115/15/1 114/7/1
f 107/13/4 119/15/4 111/7/4
f 104/13/3 116/15/3 109/7/3
f 105/13/3 117/15/3 118/7/3
f 100/13/4 112/15/4 119/7/4
f 98/13/1 110/15/1 113/7/1
f 106/13/3 118/15/3 116/7/3
f 97/13/5 109/15/5 120/7/5
f 101/13/1 113/15/1 115/7/1
f 102/13/1 114/15/1 112/7/1
f 99/13/3 111/15/3 117/7/3
f 116/13/3 219/15/3 220/7/3
f 117/13/3 125/15/3 126/7/3
f 112/13/4 122/15/4 127/7/4
f 110/13/1 121/15/1 199/7/1
f 118/13/3 126/15/3 219/7/3
f 109/13/5 220/15/5 128/7/5
f 113/13/1 199/15/1 124/7/1
f 114/13/1 123/15/1 122/7/1
f 111/13/3 200/15/3 125/7/3
f 120/13/5 128/15/5 121/7/5
f 115/13/1 124/15/1 123/7/1
f 119/13/4 127/15/4 200/7/4
f 129/6/1 194/12/1 193/7/1
f 12/11/3 134/14/3 135/7/3
f 18/11/3 136/14/3 134/7/3
f 15/11/3 135/14/3 133/7/3
f 10/11/3 133/14/3 59/7/3
f 135/11/3 138/14/3 137/7/3
f 136/11/3 72/14/3 81/7/3
f 134/11/3 81/14/3 138/7/3
f 133/11/3 137/14/3 139/7/3
f 144/6/6 147/12/6 148/7/6
f 143/6/6 146/12/6 147/7/6
f 141/6/6 144/12/6 145/7/6
f 140/6/6 143/12/6 144/7/6
f 165/6/4 196/12/4 195/7/4
f 148/6/3 155/12/3 152/7/3
f 146/6/4 153/12/4 154/7/4
f 161/6/5 193/12/5 194/7/5
f 141/6/5 150/12/5 149/7/5
f 145/6/3 152/12/3 151/7/3
f 147/6/4 154/12/4 155/7/4
f 142/6/5 151/12/5 150/7/5
f 151/6/6 160/12/6 159/7/6
f 143/6/6 190/12/6 191/7/6
f 157/6/4 175/12/4 172/7/4
f 151/6/5 173/12/5 176/7/5
f 159/6/5 162/12/5 161/7/5
f 160/6/5 163/12/5 162/7/5
f 156/6/3 163/12/3 160/7/3
f 150/6/6 159/12/6 158/7/6
f 166/6/4 169/12/4 170/7/4
f 165/6/4 168/12/4 169/7/4
f 154/6/6 166/12/6 167/7/6
f 155/6/3 167/12/3 170/7/3
f 153/6/6 165/12/6 166/7/6
f 171/6/3 174/12/3 176/7/3
f 172/6/3 175/12/3 174/7/3
f 152/6/6 171/12/6 173/7/6
f 155/6/6 172/12/6 171/7/6
f 157/6/4 6/12/4 185/7/4
f 175/6/3 185/12/3 184/7/3
f 174/6/3 184/12/3 186/7/3
f 156/6/3 5/12/3 180/7/3
f 162/6/5 179/12/5 178/7/5
f 178/6/5 197/12/5 193/7/5
f 168/6/4 181/12/4 182/7/4
f 163/6/5 180/12/5 179/7/5
f 169/6/4 182/12/4 183/7/4
f 170/6/3 183/12/3 6/7/3
f 176/6/5 186/12/5 5/7/5
f 131/9/2 4/16/2 187/1/2
f 187/9/2 177/16/2 132/1/2
f 181/6/2 177/12/2 188/7/2
f 188/6/2 6/12/2 183/7/2
f 179/6/2 180/12/2 5/7/2
f 178/6/2 179/12/2 189/7/2
f 190/6/1 164/12/1 1/7/1
f 192/6/1 129/12/1 164/7/1
f 3/6/1 195/12/1 196/7/1
f 149/6/5 129/12/5 192/7/5
f 140/6/6 192/12/6 190/7/6
f 146/6/4 191/12/4 1/7/4
f 153/6/6 1/12/6 196/7/6
f 149/8/6 158/6/6 194/12/6
f 195/8/1 3/6/1 132/12/1
f 193/6/1 197/12/1 131/7/1
f 4/6/2 131/12/2 197/7/2
f 168/6/4 195/12/4 198/7/4
f 181/6/2 198/12/2 132/7/2
f 66/11/5 207/14/5 208/7/5
f 63/11/5 209/14/5 205/7/5
f 64/11/1 208/14/1 209/7/1
f 73/11/4 210/14/4 211/7/4
f 77/11/5 214/11/5 45/11/5
f 139/11/3 218/14/3 206/7/3
f 39/11/1 201/14/1 202/7/1
f 75/11/4 211/14/4 212/7/4
f 72/11/5 44/11/5 214/11/5
f 41/11/1 202/14/1 203/7/1
f 81/11/3 72/14/3 44/7/3
f 138/11/3 81/14/3 79/7/3
f 78/11/3 137/14/3 138/7/3
f 139/11/3 137/14/3 78/7/3
f 121/13/1 230/15/1 227/7/1
f 122/13/4 228/15/4 221/7/4
f 125/13/3 223/15/3 222/7/3
f 219/13/3 224/15/3 231/7/3
f 127/13/4 221/15/4 229/7/4
f 124/13/1 225/15/1 226/7/1
f 220/13/5 231/15/5 232/7/5
f 200/13/3 229/15/3 223/7/3
f 123/13/1 226/15/1 228/7/1
f 199/13/1 227/15/1 225/7/1
f 128/13/5 232/15/5 230/7/5
f 126/13/3 222/15/3 224/7/3
f 225/14/2 227/13/2 234/15/2
f 223/13/2 235/15/2 233/7/2
f 222/14/2 233/13/2 234/15/2
f 234/13/2 227/15/2 230/7/2
f 231/13/2 224/15/2 234/7/2
f 233/13/2 235/15/2 226/7/2
f 228/13/2 226/15/2 235/7/2
f 235/13/2 223/15/2 229/7/2
