# Blender 4.5.0
# www.blender.org
o Cube
o Sphere
o Sphere.001
v -0.125000 0.250000 0.625000
v -0.000000 0.250000 0.500000
v -0.125000 0.250000 0.500000
v 0.125000 0.125000 0.375000
v 0.125000 -0.125000 0.375000
v -0.125000 -0.125000 0.375000
v -0.000000 0.250000 0.375000
v 0.000000 -0.125000 0.375000
v 0.125000 0.125000 0.250000
v -0.000000 0.125000 0.250000
v 0.000000 -0.125000 0.250000
v 0.125000 0.000000 0.250000
v -0.125000 0.125000 0.250000
v -0.125000 -0.125000 0.250000
v -0.125000 -0.000000 0.250000
v 0.125000 -0.125000 0.250000
v -0.000000 0.250000 0.250000
v -0.125000 0.250000 0.250000
v 0.125000 0.250000 0.250000
v -0.250000 0.125000 0.250000
v -0.250000 -0.125000 0.250000
v -0.250000 -0.000000 0.250000
v 0.250000 -0.125000 0.250000
v 0.250000 0.000000 0.250000
v -0.000000 0.250000 0.125000
v -0.125000 0.250000 0.125000
v 0.125000 0.250000 0.125000
v -0.125000 0.250000 0.000000
v 0.125000 0.250000 0.000000
v -0.125000 -0.125000 -0.250000
v 0.125000 0.125000 -0.375000
v -0.125000 0.125000 -0.375000
v 0.000000 -0.125000 -0.375000
v 0.125000 0.125000 0.125000
v 0.125000 -0.125000 0.125000
v 0.250000 0.125000 0.125000
v 0.250000 -0.125000 0.125000
v 0.250000 0.000000 0.125000
v 0.250000 -0.125000 0.000000
v 0.250000 0.000000 0.000000
v -0.125000 0.125000 0.125000
v -0.250000 -0.125000 0.125000
v -0.250000 -0.000000 0.125000
v -0.125000 0.125000 0.000000
v -0.125000 -0.125000 0.000000
v -0.250000 0.125000 0.000000
v -0.250000 -0.125000 0.000000
v -0.250000 -0.000000 0.000000
v 0.000000 -0.125000 -0.250000
v -0.000000 0.125000 -0.375000
v 0.125000 -0.125000 -0.375000
v -0.125000 -0.125000 -0.375000
v 0.125000 0.250000 0.625000
v 0.125000 0.250000 0.500000
v 0.125000 0.250000 0.375000
v -0.125000 0.250000 0.375000
v 0.000000 -0.125000 0.125000
v -0.125000 -0.125000 0.125000
v 0.125000 0.125000 0.750000
v 0.125000 0.000000 0.750000
v 0.125000 -0.125000 0.750000
v -0.000000 0.125000 0.750000
v 0.000000 0.000000 0.750000
v 0.000000 -0.125000 0.750000
v -0.125000 0.125000 0.750000
v -0.125000 -0.000000 0.750000
v -0.125000 -0.125000 0.750000
v 0.125000 0.125000 0.625000
v 0.125000 0.000000 0.625000
v 0.125000 -0.125000 0.625000
v 0.000000 -0.125000 0.625000
v -0.125000 0.125000 0.625000
v -0.125000 -0.000000 0.625000
v -0.125000 -0.125000 0.625000
v 0.125000 -0.125000 0.500000
v -0.125000 -0.125000 0.500000
v 0.250000 0.125000 0.625000
v 0.250000 0.000000 0.625000
v 0.250000 -0.125000 0.625000
v 0.250000 0.125000 0.500000
v 0.250000 0.000000 0.500000
v 0.250000 -0.125000 0.500000
v -0.000000 0.250000 0.625000
v -0.250000 0.125000 0.625000
v -0.250000 -0.000000 0.625000
v -0.250000 -0.125000 0.625000
v -0.250000 0.125000 0.500000
v -0.250000 -0.000000 0.500000
v -0.250000 -0.125000 0.500000
v 0.000000 -0.250000 0.625000
v -0.125000 -0.250000 0.625000
v 0.125000 -0.250000 0.625000
v 0.000000 -0.250000 0.500000
v -0.125000 -0.250000 0.500000
v 0.125000 -0.250000 0.500000
v -0.125000 0.125000 0.375000
v 0.250000 0.125000 0.375000
v 0.250000 0.000000 0.375000
v 0.250000 -0.125000 0.375000
v -0.250000 0.125000 0.375000
v -0.250000 -0.000000 0.375000
v -0.250000 -0.125000 0.375000
v 0.000000 -0.250000 0.375000
v -0.125000 -0.250000 0.375000
v 0.125000 -0.250000 0.375000
v -0.000000 0.125000 0.375000
v -0.125000 -0.000000 0.375000
v 0.125000 0.000000 0.375000
v -0.000000 0.250000 0.750000
v -0.125000 0.250000 0.750000
v 0.125000 0.250000 0.750000
v 0.250000 0.250000 0.500000
v 0.250000 0.250000 0.625000
v -0.250000 0.250000 0.500000
v -0.250000 0.250000 0.625000
v 0.250000 0.250000 0.375000
v -0.250000 0.250000 0.375000
v -0.000000 0.250000 0.000000
v 0.125000 -0.000000 -0.250000
v 0.125000 -0.000000 -0.375000
v -0.125000 -0.000000 -0.375000
v -0.125000 -0.000000 -0.250000
v 0.125000 0.125000 -0.250000
v -0.000000 0.125000 -0.250000
v -0.125000 0.125000 -0.250000
v 0.125000 -0.125000 -0.250000
v 0.000000 -0.125000 -0.500000
v -0.125000 -0.125000 -0.500000
v 0.125000 -0.125000 -0.500000
v -0.000000 0.125000 -0.500000
v -0.125000 0.125000 -0.500000
v 0.125000 0.125000 -0.500000
v -0.000000 0.000000 -0.500000
v 0.125000 0.000000 -0.500000
v -0.125000 -0.000000 -0.500000
v 0.250000 0.125000 0.250000
v 0.250000 0.125000 0.000000
v -0.250000 0.125000 0.125000
v -0.125000 -0.125000 -0.125000
v 0.000000 -0.125000 -0.125000
v 0.125000 -0.000000 -0.125000
v -0.125000 -0.000000 -0.125000
v 0.125000 0.125000 -0.125000
v -0.000000 0.125000 -0.125000
v -0.125000 0.125000 -0.125000
v 0.125000 -0.125000 -0.125000
v 0.000000 -0.125000 0.000000
v 0.125000 -0.000000 0.000000
v -0.125000 -0.000000 0.000000
v 0.125000 0.125000 0.000000
v -0.000000 0.125000 0.000000
v 0.125000 -0.125000 0.000000
vn -0.0000 1.0000 -0.0000
vn -0.0000 -0.0000 -1.0000
vn -0.0000 -1.0000 -0.0000
vn -1.0000 -0.0000 -0.0000
vn 1.0000 -0.0000 -0.0000
vn -0.0000 -0.0000 1.0000
vt 0.250000 1.000000
vt 0.500000 0.750000
vt 0.500000 1.000000
vt 0.750000 1.000000
vt 0.750000 0.750000
vt 0.000000 0.500000
vt 0.250000 0.250000
vt 0.250000 0.500000
vt 0.000000 0.750000
vt 0.000000 1.000000
vt 0.250000 0.750000
vt 0.000000 0.000000
vt 0.000000 0.250000
vt 0.250000 0.000000
vt 0.500000 0.250000
vt 0.500000 0.000000
s 0
f 53/1/1 2/2/1 83/3/1
f 83/1/1 3/2/1 1/3/1
f 2/4/1 56/2/1 3/3/1
f 54/3/1 7/5/1 2/4/1
f 103/6/2 6/7/2 8/8/2
f 8/6/2 105/7/2 103/8/2
f 6/9/3 11/1/3 8/10/3
f 107/10/4 13/11/4 15/1/4
f 4/9/1 10/1/1 106/10/1
f 108/9/5 9/1/5 4/10/5
f 8/9/3 16/1/3 5/10/3
f 6/10/4 15/11/4 14/1/4
f 106/9/1 13/1/1 96/10/1
f 108/10/5 16/11/5 12/1/5
f 10/12/6 18/7/6 13/13/6
f 9/12/6 17/7/6 10/13/6
f 13/12/6 22/7/6 15/13/6
f 15/12/6 21/7/6 14/13/6
f 12/13/6 23/14/6 24/7/6
f 9/13/6 24/14/6 136/7/6
f 19/12/1 25/7/1 17/13/1
f 17/12/1 26/7/1 18/13/1
f 27/12/1 118/7/1 25/13/1
f 25/12/1 28/7/1 26/13/1
f 34/12/3 136/7/3 9/13/3
f 23/12/5 38/7/5 24/13/5
f 16/12/3 37/7/3 23/13/3
f 136/13/5 38/14/5 36/7/5
f 35/12/3 39/7/3 37/13/3
f 37/12/5 40/7/5 38/13/5
f 38/12/5 137/7/5 36/13/5
f 150/12/3 36/7/3 34/13/3
f 21/12/3 58/7/3 14/13/3
f 20/12/4 43/7/4 22/13/4
f 22/12/4 42/7/4 21/13/4
f 138/12/4 48/7/4 43/13/4
f 42/12/3 45/7/3 58/13/3
f 43/12/4 47/7/4 42/13/4
f 41/12/3 46/7/3 44/13/3
f 52/15/4 135/14/4 128/16/4
f 33/15/3 30/14/3 52/16/3
f 50/15/1 123/14/1 31/16/1
f 51/15/3 49/14/3 33/16/3
f 32/15/1 124/14/1 50/16/1
f 126/15/3 140/14/3 49/16/3
f 121/15/4 131/14/4 135/16/4
f 52/15/4 122/14/4 121/16/4
f 53/6/1 112/7/1 54/8/1
f 14/12/3 57/7/3 11/13/3
f 11/12/3 35/7/3 16/13/3
f 57/12/3 152/7/3 35/13/3
f 58/12/3 147/7/3 57/13/3
f 63/6/6 67/7/6 64/8/6
f 62/6/6 66/7/6 63/8/6
f 60/6/6 64/7/6 61/8/6
f 59/6/6 63/7/6 60/8/6
f 84/6/4 114/7/4 87/8/4
f 67/6/3 71/7/3 64/8/3
f 65/6/4 73/7/4 66/8/4
f 80/6/5 113/7/5 77/8/5
f 60/6/5 68/7/5 59/8/5
f 64/6/3 70/7/3 61/8/3
f 66/6/4 74/7/4 67/8/4
f 61/6/5 69/7/5 60/8/5
f 70/6/6 78/7/6 69/8/6
f 62/6/6 110/7/6 65/8/6
f 76/6/4 91/7/4 74/8/4
f 70/6/5 95/7/5 75/8/5
f 78/6/5 80/7/5 77/8/5
f 79/6/5 81/7/5 78/8/5
f 75/6/3 79/7/3 70/8/3
f 69/6/6 77/7/6 68/8/6
f 85/6/4 89/7/4 86/8/4
f 84/6/4 88/7/4 85/8/4
f 73/6/6 86/7/6 74/8/6
f 74/6/3 89/7/3 76/8/3
f 72/6/6 85/7/6 73/8/6
f 90/6/3 95/7/3 92/8/3
f 91/6/3 93/7/3 90/8/3
f 71/6/6 92/7/6 70/8/6
f 74/6/6 90/7/6 71/8/6
f 76/6/4 104/7/4 94/8/4
f 94/6/3 103/7/3 93/8/3
f 93/6/3 105/7/3 95/8/3
f 75/6/3 99/7/3 82/8/3
f 81/6/5 97/7/5 80/8/5
f 97/6/5 112/7/5 80/8/5
f 87/6/4 101/7/4 88/8/4
f 82/6/5 98/7/5 81/8/5
f 88/6/4 102/7/4 89/8/4
f 89/6/3 6/7/3 76/8/3
f 95/6/5 5/7/5 75/8/5
f 55/9/2 106/1/2 7/10/2
f 106/9/2 56/1/2 7/10/2
f 100/6/2 107/7/2 101/8/2
f 107/6/2 102/7/2 101/8/2
f 98/6/2 5/7/2 108/8/2
f 97/6/2 108/7/2 4/8/2
f 109/6/1 1/7/1 110/8/1
f 111/6/1 83/7/1 109/8/1
f 3/6/1 115/7/1 1/8/1
f 68/6/5 111/7/5 59/8/5
f 59/6/6 109/7/6 62/8/6
f 65/6/4 1/7/4 72/8/4
f 72/6/6 115/7/6 84/8/6
f 68/8/6 113/13/6 53/7/6
f 114/8/1 56/13/1 117/7/1
f 112/6/1 55/7/1 54/8/1
f 4/6/2 116/7/2 97/8/2
f 100/8/4 114/13/4 117/7/4
f 100/6/2 56/7/2 96/8/2
f 125/15/4 121/14/4 122/16/4
f 122/15/4 145/14/4 125/16/4
f 149/12/2 47/7/2 48/13/2
f 125/15/1 144/14/1 124/16/1
f 46/13/2 149/14/2 48/7/2
f 151/13/6 28/14/6 44/7/6
f 123/15/5 141/14/5 119/16/5
f 29/13/2 151/14/2 118/7/2
f 30/15/4 142/14/4 122/16/4
f 49/15/3 139/14/3 30/16/3
f 52/15/3 127/14/3 33/16/3
f 50/15/1 131/14/1 32/16/1
f 31/15/1 130/14/1 50/16/1
f 33/15/3 129/14/3 51/16/3
f 130/16/2 134/7/2 133/14/2
f 128/15/2 133/14/2 127/16/2
f 127/16/2 134/7/2 129/14/2
f 133/15/2 131/14/2 130/16/2
f 31/15/5 134/14/5 132/16/5
f 120/15/5 129/14/5 134/16/5
f 31/15/5 119/14/5 120/16/5
f 124/15/1 143/14/1 123/16/1
f 119/15/5 146/14/5 126/16/5
f 150/13/2 40/14/2 148/7/2
f 39/12/2 148/7/2 40/13/2
f 51/15/5 119/14/5 126/16/5
f 44/12/5 26/7/5 41/13/5
f 18/12/4 41/7/4 13/13/4
f 13/12/3 138/7/3 41/13/3
f 34/12/5 29/7/5 27/13/5
f 9/12/5 27/7/5 19/13/5
f 144/12/1 150/7/1 143/13/1
f 143/12/5 148/7/5 141/13/5
f 139/12/4 149/7/4 142/13/4
f 146/12/3 147/7/3 140/13/3
f 140/12/3 45/7/3 139/13/3
f 145/12/1 151/7/1 144/13/1
f 142/12/4 44/7/4 145/13/4
f 141/12/5 152/7/5 146/13/5
f 53/1/1 54/11/1 2/2/1
f 83/1/1 2/11/1 3/2/1
f 2/4/1 7/5/1 56/2/1
f 54/3/1 55/2/1 7/5/1
f 103/6/2 104/13/2 6/7/2
f 8/6/2 5/13/2 105/7/2
f 6/9/3 14/11/3 11/1/3
f 107/10/4 96/9/4 13/11/4
f 4/9/1 9/11/1 10/1/1
f 108/9/5 12/11/5 9/1/5
f 8/9/3 11/11/3 16/1/3
f 6/10/4 107/9/4 15/11/4
f 106/9/1 10/11/1 13/1/1
f 108/10/5 5/9/5 16/11/5
f 10/12/6 17/14/6 18/7/6
f 9/12/6 19/14/6 17/7/6
f 13/12/6 20/14/6 22/7/6
f 15/12/6 22/14/6 21/7/6
f 12/13/6 16/12/6 23/14/6
f 9/13/6 12/12/6 24/14/6
f 19/12/1 27/14/1 25/7/1
f 17/12/1 25/14/1 26/7/1
f 27/12/1 29/14/1 118/7/1
f 25/12/1 118/14/1 28/7/1
f 34/12/3 36/14/3 136/7/3
f 23/12/5 37/14/5 38/7/5
f 16/12/3 35/14/3 37/7/3
f 136/13/5 24/12/5 38/14/5
f 35/12/3 152/14/3 39/7/3
f 37/12/5 39/14/5 40/7/5
f 38/12/5 40/14/5 137/7/5
f 150/12/3 137/14/3 36/7/3
f 21/12/3 42/14/3 58/7/3
f 20/12/4 138/14/4 43/7/4
f 22/12/4 43/14/4 42/7/4
f 138/12/4 46/14/4 48/7/4
f 42/12/3 47/14/3 45/7/3
f 43/12/4 48/14/4 47/7/4
f 41/12/3 138/14/3 46/7/3
f 52/15/4 121/7/4 135/14/4
f 33/15/3 49/7/3 30/14/3
f 50/15/1 124/7/1 123/14/1
f 51/15/3 126/7/3 49/14/3
f 32/15/1 125/7/1 124/14/1
f 126/15/3 146/7/3 140/14/3
f 121/15/4 32/7/4 131/14/4
f 52/15/4 30/7/4 122/14/4
f 53/6/1 113/13/1 112/7/1
f 14/12/3 58/14/3 57/7/3
f 11/12/3 57/14/3 35/7/3
f 57/12/3 147/14/3 152/7/3
f 58/12/3 45/14/3 147/7/3
f 63/6/6 66/13/6 67/7/6
f 62/6/6 65/13/6 66/7/6
f 60/6/6 63/13/6 64/7/6
f 59/6/6 62/13/6 63/7/6
f 84/6/4 115/13/4 114/7/4
f 67/6/3 74/13/3 71/7/3
f 65/6/4 72/13/4 73/7/4
f 80/6/5 112/13/5 113/7/5
f 60/6/5 69/13/5 68/7/5
f 64/6/3 71/13/3 70/7/3
f 66/6/4 73/13/4 74/7/4
f 61/6/5 70/13/5 69/7/5
f 70/6/6 79/13/6 78/7/6
f 62/6/6 109/13/6 110/7/6
f 76/6/4 94/13/4 91/7/4
f 70/6/5 92/13/5 95/7/5
f 78/6/5 81/13/5 80/7/5
f 79/6/5 82/13/5 81/7/5
f 75/6/3 82/13/3 79/7/3
f 69/6/6 78/13/6 77/7/6
f 85/6/4 88/13/4 89/7/4
f 84/6/4 87/13/4 88/7/4
f 73/6/6 85/13/6 86/7/6
f 74/6/3 86/13/3 89/7/3
f 72/6/6 84/13/6 85/7/6
f 90/6/3 93/13/3 95/7/3
f 91/6/3 94/13/3 93/7/3
f 71/6/6 90/13/6 92/7/6
f 74/6/6 91/13/6 90/7/6
f 76/6/4 6/13/4 104/7/4
f 94/6/3 104/13/3 103/7/3
f 93/6/3 103/13/3 105/7/3
f 75/6/3 5/13/3 99/7/3
f 81/6/5 98/13/5 97/7/5
f 97/6/5 116/13/5 112/7/5
f 87/6/4 100/13/4 101/7/4
f 82/6/5 99/13/5 98/7/5
f 88/6/4 101/13/4 102/7/4
f 89/6/3 102/13/3 6/7/3
f 95/6/5 105/13/5 5/7/5
f 55/9/2 4/11/2 106/1/2
f 106/9/2 96/11/2 56/1/2
f 100/6/2 96/13/2 107/7/2
f 107/6/2 6/13/2 102/7/2
f 98/6/2 99/13/2 5/7/2
f 97/6/2 98/13/2 108/7/2
f 109/6/1 83/13/1 1/7/1
f 111/6/1 53/13/1 83/7/1
f 3/6/1 114/13/1 115/7/1
f 68/6/5 53/13/5 111/7/5
f 59/6/6 111/13/6 109/7/6
f 65/6/4 110/13/4 1/7/4
f 72/6/6 1/13/6 115/7/6
f 68/8/6 77/6/6 113/13/6
f 114/8/1 3/6/1 56/13/1
f 112/6/1 116/13/1 55/7/1
f 4/6/2 55/13/2 116/7/2
f 100/8/4 87/6/4 114/13/4
f 100/6/2 117/13/2 56/7/2
f 125/15/4 32/7/4 121/14/4
f 122/15/4 142/7/4 145/14/4
f 149/12/2 45/14/2 47/7/2
f 125/15/1 145/7/1 144/14/1
f 46/13/2 44/12/2 149/14/2
f 151/13/6 118/12/6 28/14/6
f 123/15/5 143/7/5 141/14/5
f 29/13/2 150/12/2 151/14/2
f 30/15/4 139/7/4 142/14/4
f 49/15/3 140/7/3 139/14/3
f 52/15/3 128/7/3 127/14/3
f 50/15/1 130/7/1 131/14/1
f 31/15/1 132/7/1 130/14/1
f 33/15/3 127/7/3 129/14/3
f 130/16/2 132/15/2 134/7/2
f 128/15/2 135/7/2 133/14/2
f 127/16/2 133/15/2 134/7/2
f 133/15/2 135/7/2 131/14/2
f 31/15/5 120/7/5 134/14/5
f 120/15/5 51/7/5 129/14/5
f 31/15/5 123/7/5 119/14/5
f 124/15/1 144/7/1 143/14/1
f 119/15/5 141/7/5 146/14/5
f 150/13/2 137/12/2 40/14/2
f 39/12/2 152/14/2 148/7/2
f 51/15/5 120/7/5 119/14/5
f 44/12/5 28/14/5 26/7/5
f 18/12/4 26/14/4 41/7/4
f 13/12/3 20/14/3 138/7/3
f 34/12/5 150/14/5 29/7/5
f 9/12/5 34/14/5 27/7/5
f 144/12/1 151/14/1 150/7/1
f 143/12/5 150/14/5 148/7/5
f 139/12/4 45/14/4 149/7/4
f 146/12/3 152/14/3 147/7/3
f 140/12/3 147/14/3 45/7/3
f 145/12/1 44/14/1 151/7/1
f 142/12/4 149/14/4 44/7/4
f 141/12/5 148/14/5 152/7/5
