# Blender 4.5.0
# www.blender.org
o Cube
o Sphere
o Sphere.001
v -0.125000 0.250000 1.125000
v -0.000000 0.250000 1.000000
v -0.125000 0.250000 1.000000
v 0.125000 0.125000 0.875000
v 0.125000 -0.125000 0.875000
v -0.125000 -0.125000 0.875000
v -0.000000 0.250000 0.875000
v 0.000000 -0.125000 0.875000
v 0.125000 0.125000 0.750000
v 0.125000 -0.125000 0.750000
v -0.125000 0.125000 0.750000
v -0.125000 -0.125000 0.750000
v -0.000000 0.125000 0.750000
v -0.125000 -0.000000 0.750000
v 0.000000 -0.125000 0.750000
v 0.125000 0.000000 0.750000
v -0.250000 0.125000 0.750000
v -0.250000 -0.125000 0.750000
v -0.250000 -0.000000 0.750000
v 0.250000 0.125000 0.750000
v 0.250000 -0.125000 0.750000
v 0.250000 0.000000 0.750000
v 0.125000 0.250000 0.750000
v -0.125000 0.250000 0.750000
v -0.000000 0.250000 0.750000
v -0.250000 0.250000 0.750000
v 0.250000 0.250000 0.750000
v -0.375000 0.125000 0.750000
v -0.375000 -0.125000 0.750000
v -0.375000 -0.000000 0.750000
v 0.375000 0.125000 0.750000
v 0.375000 -0.125000 0.750000
v 0.375000 0.000000 0.750000
v 0.125000 0.250000 0.625000
v -0.125000 0.250000 0.625000
v -0.000000 0.250000 0.625000
v -0.250000 0.250000 0.625000
v 0.250000 0.250000 0.625000
v 0.125000 0.250000 0.500000
v -0.125000 0.250000 0.500000
v -0.000000 0.250000 0.500000
v -0.250000 0.250000 0.500000
v 0.250000 0.250000 0.500000
v -0.250000 -0.125000 0.375000
v -0.250000 0.125000 0.375000
v 0.250000 -0.125000 0.250000
v 0.250000 0.125000 0.250000
v -0.250000 -0.125000 0.250000
v -0.250000 0.125000 0.250000
v 0.125000 0.125000 0.250000
v -0.125000 0.125000 0.250000
v -0.000000 0.125000 0.250000
v 0.125000 -0.125000 0.250000
v -0.125000 -0.125000 0.250000
v 0.000000 -0.125000 0.250000
v -0.250000 -0.000000 0.250000
v 0.250000 0.000000 0.250000
v 0.250000 0.125000 0.625000
v 0.250000 -0.125000 0.625000
v 0.375000 0.125000 0.625000
v 0.375000 -0.125000 0.625000
v 0.375000 0.000000 0.625000
v 0.250000 0.125000 0.500000
v 0.375000 0.125000 0.500000
v 0.375000 -0.125000 0.500000
v 0.375000 0.000000 0.500000
v -0.250000 0.125000 0.625000
v -0.375000 0.125000 0.625000
v -0.375000 -0.125000 0.625000
v -0.375000 -0.000000 0.625000
v -0.250000 0.125000 0.500000
v -0.250000 -0.125000 0.500000
v -0.375000 0.125000 0.500000
v -0.375000 -0.125000 0.500000
v -0.375000 -0.000000 0.500000
v 0.250000 0.000000 0.500000
v -0.250000 -0.000000 0.500000
v 0.125000 -0.125000 0.375000
v -0.125000 -0.125000 0.375000
v 0.000000 -0.125000 0.375000
v -0.125000 -0.125000 0.500000
v 0.125000 0.125000 0.500000
v -0.125000 0.125000 0.500000
v -0.000000 0.125000 0.500000
v 0.250000 -0.125000 0.125000
v 0.250000 0.125000 0.125000
v -0.250000 -0.125000 0.125000
v -0.250000 0.125000 0.125000
v 0.125000 0.125000 0.125000
v -0.125000 0.125000 0.125000
v -0.000000 0.125000 0.125000
v 0.125000 -0.125000 0.125000
v -0.125000 -0.125000 0.125000
v 0.000000 -0.125000 0.125000
v -0.250000 -0.000000 0.125000
v 0.250000 0.000000 0.125000
v 0.250000 -0.125000 0.000000
v 0.250000 0.125000 0.000000
v -0.250000 -0.125000 0.000000
v -0.250000 0.125000 0.000000
v 0.125000 0.125000 0.000000
v -0.125000 0.125000 0.000000
v -0.000000 0.125000 0.000000
v 0.125000 -0.125000 0.000000
v -0.125000 -0.125000 0.000000
v 0.000000 -0.125000 0.000000
v -0.250000 -0.000000 0.000000
v 0.250000 0.000000 0.000000
v 0.250000 -0.125000 -0.125000
v 0.250000 0.125000 -0.125000
v -0.250000 -0.125000 -0.125000
v -0.250000 0.125000 -0.125000
v 0.125000 0.125000 -0.125000
v -0.125000 0.125000 -0.125000
v -0.000000 0.125000 -0.125000
v 0.125000 -0.125000 -0.125000
v -0.125000 -0.125000 -0.125000
v 0.000000 -0.125000 -0.125000
v -0.250000 -0.000000 -0.125000
v 0.250000 0.000000 -0.125000
v 0.250000 -0.125000 -0.250000
v 0.250000 0.125000 -0.250000
v -0.250000 -0.125000 -0.250000
v -0.250000 0.125000 -0.250000
v 0.125000 0.125000 -0.250000
v -0.125000 0.125000 -0.250000
v -0.000000 0.125000 -0.250000
v 0.125000 -0.125000 -0.250000
v -0.125000 -0.125000 -0.250000
v 0.000000 -0.125000 -0.250000
v -0.250000 -0.000000 -0.250000
v 0.250000 0.000000 -0.250000
v 0.125000 -0.125000 -0.375000
v -0.000000 0.125000 -0.375000
v 0.125000 0.125000 -0.375000
v -0.250000 0.125000 -0.375000
v 0.250000 0.125000 -0.375000
v 0.250000 -0.125000 -0.375000
v 0.125000 0.250000 1.125000
v 0.125000 0.250000 1.000000
v 0.125000 0.250000 0.875000
v -0.125000 0.250000 0.875000
v 0.125000 -0.125000 0.625000
v -0.125000 -0.125000 0.625000
v 0.000000 -0.125000 0.625000
v -0.250000 -0.125000 0.625000
v 0.125000 -0.125000 0.500000
v 0.000000 -0.125000 0.500000
v 0.250000 -0.125000 0.500000
v 0.125000 0.125000 1.250000
v 0.125000 0.000000 1.250000
v 0.125000 -0.125000 1.250000
v -0.000000 0.125000 1.250000
v 0.000000 0.000000 1.250000
v 0.000000 -0.125000 1.250000
v -0.125000 0.125000 1.250000
v -0.125000 -0.000000 1.250000
v -0.125000 -0.125000 1.250000
v 0.125000 0.125000 1.125000
v 0.125000 0.000000 1.125000
v 0.125000 -0.125000 1.125000
v 0.000000 -0.125000 1.125000
v -0.125000 0.125000 1.125000
v -0.125000 -0.000000 1.125000
v -0.125000 -0.125000 1.125000
v 0.125000 -0.125000 1.000000
v -0.125000 -0.125000 1.000000
v 0.250000 0.125000 1.125000
v 0.250000 0.000000 1.125000
v 0.250000 -0.125000 1.125000
v 0.250000 0.125000 1.000000
v 0.250000 0.000000 1.000000
v 0.250000 -0.125000 1.000000
v -0.000000 0.250000 1.125000
v -0.250000 0.125000 1.125000
v -0.250000 -0.000000 1.125000
v -0.250000 -0.125000 1.125000
v -0.250000 0.125000 1.000000
v -0.250000 -0.000000 1.000000
v -0.250000 -0.125000 1.000000
v 0.000000 -0.250000 1.125000
v -0.125000 -0.250000 1.125000
v 0.125000 -0.250000 1.125000
v 0.000000 -0.250000 1.000000
v -0.125000 -0.250000 1.000000
v 0.125000 -0.250000 1.000000
v -0.125000 0.125000 0.875000
v 0.250000 0.125000 0.875000
v 0.250000 0.000000 0.875000
v 0.250000 -0.125000 0.875000
v -0.250000 0.125000 0.875000
v -0.250000 -0.000000 0.875000
v -0.250000 -0.125000 0.875000
v 0.000000 -0.250000 0.875000
v -0.125000 -0.250000 0.875000
v 0.125000 -0.250000 0.875000
v -0.000000 0.125000 0.875000
v -0.125000 -0.000000 0.875000
v 0.125000 0.000000 0.875000
v -0.000000 0.250000 1.250000
v -0.125000 0.250000 1.250000
v 0.125000 0.250000 1.250000
v 0.250000 0.250000 1.000000
v 0.250000 0.250000 1.125000
v -0.250000 0.250000 1.000000
v -0.250000 0.250000 1.125000
v 0.250000 0.250000 0.875000
v -0.250000 0.250000 0.875000
v -0.125000 0.125000 -0.375000
v -0.250000 -0.125000 -0.375000
v 0.250000 0.000000 -0.375000
v 0.125000 0.250000 0.375000
v -0.000000 0.250000 0.375000
v -0.125000 0.250000 0.375000
v -0.250000 0.250000 0.375000
v 0.250000 0.250000 0.375000
v 0.375000 -0.125000 0.375000
v 0.375000 0.000000 0.375000
v 0.375000 0.125000 0.375000
v 0.250000 0.125000 0.375000
v -0.375000 0.125000 0.375000
v -0.375000 -0.000000 0.375000
v -0.375000 -0.125000 0.375000
v 0.250000 0.000000 0.375000
v -0.250000 -0.000000 0.375000
v 0.125000 0.125000 0.375000
v -0.000000 0.125000 0.375000
v -0.125000 0.125000 0.375000
v 0.250000 -0.125000 0.375000
v -0.250000 -0.000000 -0.375000
v 0.000000 -0.125000 -0.375000
v -0.125000 -0.125000 -0.375000
v -0.250000 -0.000000 -0.500000
v 0.000000 -0.125000 -0.500000
v -0.125000 -0.125000 -0.500000
v 0.125000 -0.125000 -0.500000
v -0.000000 0.125000 -0.500000
v -0.125000 0.125000 -0.500000
v 0.125000 0.125000 -0.500000
v -0.250000 0.125000 -0.500000
v -0.250000 -0.125000 -0.500000
v 0.250000 0.125000 -0.500000
v 0.250000 -0.125000 -0.500000
v 0.250000 0.000000 -0.500000
v -0.000000 0.000000 -0.500000
v 0.125000 0.000000 -0.500000
v -0.125000 -0.000000 -0.500000
vn -0.0000 1.0000 -0.0000
vn -0.0000 -0.0000 -1.0000
vn -0.0000 -1.0000 -0.0000
vn -1.0000 -0.0000 -0.0000
vn 1.0000 -0.0000 -0.0000
vn -0.0000 -0.0000 1.0000
vt 0.250000 1.000000
vt 0.500000 0.750000
vt 0.500000 1.000000
vt 0.750000 1.000000
vt 0.750000 0.750000
vt 0.000000 0.500000
vt 0.250000 0.250000
vt 0.250000 0.500000
vt 0.000000 0.750000
vt 0.000000 1.000000
vt 0.000000 0.000000
vt 0.000000 0.250000
vt 0.500000 0.000000
vt 0.250000 0.000000
vt 0.500000 0.250000
vt 0.250000 0.750000
s 0
f 139/1/1 2/2/1 174/3/1
f 174/1/1 3/2/1 1/3/1
f 2/4/1 142/2/1 3/3/1
f 140/3/1 7/5/1 2/4/1
f 194/6/2 6/7/2 8/8/2
f 8/6/2 196/7/2 194/8/2
f 6/9/3 15/1/3 8/10/3
f 187/9/4 14/1/4 198/10/4
f 4/9/1 13/1/1 197/10/1
f 199/9/5 9/1/5 4/10/5
f 8/9/3 10/1/3 5/10/3
f 198/9/4 12/1/4 6/10/4
f 197/9/1 11/1/1 187/10/1
f 5/9/5 16/1/5 199/10/5
f 14/11/6 18/7/6 12/12/6
f 11/11/6 19/7/6 14/12/6
f 16/11/6 20/7/6 9/12/6
f 10/11/6 22/7/6 16/12/6
f 11/11/6 26/7/6 17/12/6
f 13/11/6 24/7/6 11/12/6
f 20/11/6 23/7/6 9/12/6
f 9/11/6 25/7/6 13/12/6
f 17/11/6 30/7/6 19/12/6
f 19/11/6 29/7/6 18/12/6
f 21/11/6 33/7/6 22/12/6
f 22/11/6 31/7/6 20/12/6
f 24/11/1 37/7/1 26/12/1
f 23/11/1 36/7/1 25/12/1
f 27/11/1 34/7/1 23/12/1
f 25/11/1 35/7/1 24/12/1
f 34/11/1 41/7/1 36/12/1
f 36/11/1 40/7/1 35/12/1
f 35/11/1 42/7/1 37/12/1
f 38/11/1 39/7/1 34/12/1
f 31/11/1 58/7/1 20/12/1
f 32/11/5 62/7/5 33/12/5
f 21/11/3 61/7/3 32/12/3
f 33/11/5 60/7/5 31/12/5
f 59/11/3 65/7/3 61/12/3
f 61/11/5 66/7/5 62/12/5
f 60/11/1 63/7/1 58/12/1
f 62/11/5 64/7/5 60/12/5
f 58/11/5 27/7/5 20/12/5
f 58/11/5 43/7/5 38/12/5
f 29/11/3 146/7/3 18/12/3
f 28/11/4 70/7/4 30/12/4
f 17/11/1 68/7/1 28/12/1
f 30/11/4 69/7/4 29/12/4
f 67/11/1 73/7/1 68/12/1
f 68/11/4 75/7/4 70/12/4
f 69/11/3 72/7/3 146/12/3
f 70/11/4 74/7/4 69/12/4
f 26/11/4 67/7/4 17/12/4
f 71/11/4 37/7/4 42/12/4
f 83/11/3 227/11/3 84/11/3
f 43/11/1 212/7/1 39/12/1
f 42/11/4 45/7/4 71/12/4
f 82/11/3 220/11/3 63/11/3
f 63/11/4 224/7/4 76/12/4
f 76/11/4 229/7/4 149/12/4
f 46/11/5 224/7/5 229/12/5
f 224/11/5 47/7/5 220/12/5
f 65/11/5 218/7/5 66/12/5
f 71/11/3 228/11/3 83/11/3
f 225/11/4 48/7/4 44/12/4
f 49/11/4 225/7/4 45/12/4
f 55/11/3 79/7/3 54/12/3
f 52/11/1 226/7/1 50/12/1
f 53/11/3 80/7/3 55/12/3
f 51/11/1 227/7/1 52/12/1
f 54/11/3 44/7/3 48/12/3
f 78/11/3 46/7/3 229/12/3
f 50/11/1 220/7/1 47/12/1
f 228/11/1 49/7/1 45/12/1
f 216/11/2 226/7/2 212/12/2
f 228/11/2 215/7/2 214/12/2
f 227/11/2 214/7/2 213/12/2
f 212/11/2 227/7/2 213/12/2
f 74/11/3 44/7/3 72/12/3
f 84/11/3 226/11/3 82/11/3
f 225/11/2 223/7/2 222/12/2
f 221/11/2 225/7/2 222/12/2
f 40/11/1 215/7/1 42/12/1
f 71/11/1 221/7/1 73/12/1
f 224/11/2 219/7/2 218/12/2
f 217/11/2 224/7/2 218/12/2
f 52/13/1 90/7/1 51/14/1
f 56/13/4 87/7/4 48/14/4
f 53/13/3 85/7/3 46/14/3
f 54/13/3 94/7/3 55/14/3
f 49/13/4 95/7/4 56/14/4
f 47/13/1 89/7/1 50/14/1
f 55/13/3 92/7/3 53/14/3
f 46/13/5 96/7/5 57/14/5
f 50/13/1 91/7/1 52/14/1
f 51/13/1 88/7/1 49/14/1
f 48/13/3 93/7/3 54/14/3
f 57/13/5 86/7/5 47/14/5
f 91/13/1 102/7/1 90/14/1
f 95/13/4 99/7/4 87/14/4
f 92/13/3 97/7/3 85/14/3
f 93/13/3 106/7/3 94/14/3
f 88/13/4 107/7/4 95/14/4
f 86/13/1 101/7/1 89/14/1
f 94/13/3 104/7/3 92/14/3
f 85/13/5 108/7/5 96/14/5
f 89/13/1 103/7/1 91/14/1
f 90/13/1 100/7/1 88/14/1
f 87/13/3 105/7/3 93/14/3
f 96/13/5 98/7/5 86/14/5
f 108/13/5 110/7/5 98/14/5
f 103/13/1 114/7/1 102/14/1
f 107/13/4 111/7/4 99/14/4
f 104/13/3 109/7/3 97/14/3
f 105/13/3 118/7/3 106/14/3
f 100/13/4 119/7/4 107/14/4
f 98/13/1 113/7/1 101/14/1
f 106/13/3 116/7/3 104/14/3
f 97/13/5 120/7/5 108/14/5
f 101/13/1 115/7/1 103/14/1
f 102/13/1 112/7/1 100/14/1
f 99/13/3 117/7/3 105/14/3
f 116/13/3 121/7/3 109/14/3
f 117/13/3 130/7/3 118/14/3
f 112/13/4 131/7/4 119/14/4
f 110/13/1 125/7/1 113/14/1
f 118/13/3 128/7/3 116/14/3
f 109/13/5 132/7/5 120/14/5
f 113/13/1 127/7/1 115/14/1
f 114/13/1 124/7/1 112/14/1
f 111/13/3 129/7/3 117/14/3
f 120/13/5 122/7/5 110/14/5
f 115/13/1 126/7/1 114/14/1
f 119/13/4 123/7/4 111/14/4
f 124/13/4 230/7/4 131/14/4
f 129/13/3 231/7/3 130/14/3
f 128/13/3 138/7/3 121/14/3
f 131/13/4 210/7/4 123/14/4
f 127/13/1 209/7/1 126/14/1
f 132/13/5 137/7/5 122/14/5
f 123/13/3 232/7/3 129/14/3
f 126/13/1 136/7/1 124/14/1
f 125/13/1 134/7/1 127/14/1
f 121/13/5 211/7/5 132/14/5
f 130/13/3 133/7/3 128/14/3
f 122/13/1 135/7/1 125/14/1
f 139/6/1 203/7/1 140/8/1
f 12/11/3 145/7/3 15/12/3
f 18/11/3 144/7/3 12/12/3
f 15/11/3 143/7/3 10/12/3
f 10/11/3 59/7/3 21/12/3
f 145/11/3 147/7/3 143/12/3
f 146/11/3 81/7/3 144/12/3
f 144/11/3 148/7/3 145/12/3
f 143/11/3 149/7/3 59/12/3
f 154/6/6 158/7/6 155/8/6
f 153/6/6 157/7/6 154/8/6
f 151/6/6 155/7/6 152/8/6
f 150/6/6 154/7/6 151/8/6
f 175/6/4 205/7/4 178/8/4
f 158/6/3 162/7/3 155/8/3
f 156/6/4 164/7/4 157/8/4
f 171/6/5 204/7/5 168/8/5
f 151/6/5 159/7/5 150/8/5
f 155/6/3 161/7/3 152/8/3
f 157/6/4 165/7/4 158/8/4
f 152/6/5 160/7/5 151/8/5
f 161/6/6 169/7/6 160/8/6
f 153/6/6 201/7/6 156/8/6
f 167/6/4 182/7/4 165/8/4
f 161/6/5 186/7/5 166/8/5
f 169/6/5 171/7/5 168/8/5
f 170/6/5 172/7/5 169/8/5
f 166/6/3 170/7/3 161/8/3
f 160/6/6 168/7/6 159/8/6
f 176/6/4 180/7/4 177/8/4
f 175/6/4 179/7/4 176/8/4
f 164/6/6 177/7/6 165/8/6
f 165/6/3 180/7/3 167/8/3
f 163/6/6 176/7/6 164/8/6
f 181/6/3 186/7/3 183/8/3
f 182/6/3 184/7/3 181/8/3
f 162/6/6 183/7/6 161/8/6
f 165/6/6 181/7/6 162/8/6
f 167/6/4 195/7/4 185/8/4
f 185/6/3 194/7/3 184/8/3
f 184/6/3 196/7/3 186/8/3
f 166/6/3 190/7/3 173/8/3
f 172/6/5 188/7/5 171/8/5
f 188/6/5 203/7/5 171/8/5
f 178/6/4 192/7/4 179/8/4
f 173/6/5 189/7/5 172/8/5
f 179/6/4 193/7/4 180/8/4
f 180/6/3 6/7/3 167/8/3
f 186/6/5 5/7/5 166/8/5
f 141/9/2 197/1/2 7/10/2
f 197/9/2 142/1/2 7/10/2
f 191/6/2 198/7/2 192/8/2
f 198/6/2 193/7/2 192/8/2
f 189/6/2 5/7/2 199/8/2
f 188/6/2 199/7/2 4/8/2
f 200/6/1 1/7/1 201/8/1
f 202/6/1 174/7/1 200/8/1
f 3/6/1 206/7/1 1/8/1
f 159/6/5 202/7/5 150/8/5
f 150/6/6 200/7/6 153/8/6
f 156/6/4 1/7/4 163/8/4
f 163/6/6 206/7/6 175/8/6
f 159/8/6 204/12/6 139/7/6
f 205/8/1 142/12/1 208/7/1
f 203/6/1 141/7/1 140/8/1
f 4/6/2 207/7/2 188/8/2
f 178/6/4 208/7/4 191/8/4
f 191/6/2 142/7/2 187/8/2
f 66/11/5 219/7/5 64/12/5
f 63/11/5 216/7/5 43/12/5
f 64/11/1 220/7/1 63/12/1
f 73/11/4 222/7/4 75/12/4
f 77/11/5 45/11/5 71/11/5
f 149/11/3 217/7/3 65/12/3
f 39/11/1 213/7/1 41/12/1
f 75/11/4 223/7/4 74/12/4
f 72/11/5 225/11/5 77/11/5
f 41/11/1 214/7/1 40/12/1
f 81/11/3 44/7/3 79/12/3
f 148/11/3 79/7/3 80/12/3
f 78/11/3 148/7/3 80/12/3
f 149/11/3 78/7/3 229/12/3
f 137/13/1 239/7/1 135/14/1
f 136/13/4 233/7/4 230/14/4
f 232/13/3 234/7/3 231/14/3
f 133/13/3 243/7/3 138/14/3
f 230/13/4 241/7/4 210/14/4
f 134/13/1 238/7/1 209/14/1
f 138/13/5 244/7/5 211/14/5
f 210/13/3 235/7/3 232/14/3
f 209/13/1 240/7/1 136/14/1
f 135/13/1 237/7/1 134/14/1
f 211/13/5 242/7/5 137/14/5
f 231/13/3 236/7/3 133/14/3
f 237/14/2 246/15/2 245/7/2
f 235/13/2 245/7/2 234/14/2
f 234/14/2 246/15/2 236/7/2
f 246/13/2 242/7/2 244/14/2
f 243/13/2 246/7/2 244/14/2
f 245/13/2 238/7/2 237/14/2
f 240/13/2 247/7/2 233/14/2
f 247/13/2 241/7/2 233/14/2
f 139/1/1 140/16/1 2/2/1
f 174/1/1 2/16/1 3/2/1
f 2/4/1 7/5/1 142/2/1
f 140/3/1 141/2/1 7/5/1
f 194/6/2 195/12/2 6/7/2
f 8/6/2 5/12/2 196/7/2
f 6/9/3 12/16/3 15/1/3
f 187/9/4 11/16/4 14/1/4
f 4/9/1 9/16/1 13/1/1
f 199/9/5 16/16/5 9/1/5
f 8/9/3 15/16/3 10/1/3
f 198/9/4 14/16/4 12/1/4
f 197/9/1 13/16/1 11/1/1
f 5/9/5 10/16/5 16/1/5
f 14/11/6 19/14/6 18/7/6
f 11/11/6 17/14/6 19/7/6
f 16/11/6 22/14/6 20/7/6
f 10/11/6 21/14/6 22/7/6
f 11/11/6 24/14/6 26/7/6
f 13/11/6 25/14/6 24/7/6
f 20/11/6 27/14/6 23/7/6
f 9/11/6 23/14/6 25/7/6
f 17/11/6 28/14/6 30/7/6
f 19/11/6 30/14/6 29/7/6
f 21/11/6 32/14/6 33/7/6
f 22/11/6 33/14/6 31/7/6
f 24/11/1 35/14/1 37/7/1
f 23/11/1 34/14/1 36/7/1
f 27/11/1 38/14/1 34/7/1
f 25/11/1 36/14/1 35/7/1
f 34/11/1 39/14/1 41/7/1
f 36/11/1 41/14/1 40/7/1
f 35/11/1 40/14/1 42/7/1
f 38/11/1 43/14/1 39/7/1
f 31/11/1 60/14/1 58/7/1
f 32/11/5 61/14/5 62/7/5
f 21/11/3 59/14/3 61/7/3
f 33/11/5 62/14/5 60/7/5
f 59/11/3 149/14/3 65/7/3
f 61/11/5 65/14/5 66/7/5
f 60/11/1 64/14/1 63/7/1
f 62/11/5 66/14/5 64/7/5
f 58/11/5 38/14/5 27/7/5
f 58/11/5 63/14/5 43/7/5
f 29/11/3 69/14/3 146/7/3
f 28/11/4 68/14/4 70/7/4
f 17/11/1 67/14/1 68/7/1
f 30/11/4 70/14/4 69/7/4
f 67/11/1 71/14/1 73/7/1
f 68/11/4 73/14/4 75/7/4
f 69/11/3 74/14/3 72/7/3
f 70/11/4 75/14/4 74/7/4
f 26/11/4 37/14/4 67/7/4
f 71/11/4 67/14/4 37/7/4
f 83/11/3 228/11/3 227/11/3
f 43/11/1 216/14/1 212/7/1
f 42/11/4 215/14/4 45/7/4
f 82/11/3 226/11/3 220/11/3
f 63/11/4 220/14/4 224/7/4
f 76/11/4 224/14/4 229/7/4
f 46/11/5 57/14/5 224/7/5
f 224/11/5 57/14/5 47/7/5
f 65/11/5 217/14/5 218/7/5
f 71/11/3 45/11/3 228/11/3
f 225/11/4 56/14/4 48/7/4
f 49/11/4 56/14/4 225/7/4
f 55/11/3 80/14/3 79/7/3
f 52/11/1 227/14/1 226/7/1
f 53/11/3 78/14/3 80/7/3
f 51/11/1 228/14/1 227/7/1
f 54/11/3 79/14/3 44/7/3
f 78/11/3 53/14/3 46/7/3
f 50/11/1 226/14/1 220/7/1
f 228/11/1 51/14/1 49/7/1
f 216/11/2 220/14/2 226/7/2
f 228/11/2 45/14/2 215/7/2
f 227/11/2 228/14/2 214/7/2
f 212/11/2 226/14/2 227/7/2
f 74/11/3 223/14/3 44/7/3
f 84/11/3 227/11/3 226/11/3
f 225/11/2 44/14/2 223/7/2
f 221/11/2 45/14/2 225/7/2
f 40/11/1 214/14/1 215/7/1
f 71/11/1 45/14/1 221/7/1
f 224/11/2 220/14/2 219/7/2
f 217/11/2 229/14/2 224/7/2
f 52/13/1 91/15/1 90/7/1
f 56/13/4 95/15/4 87/7/4
f 53/13/3 92/15/3 85/7/3
f 54/13/3 93/15/3 94/7/3
f 49/13/4 88/15/4 95/7/4
f 47/13/1 86/15/1 89/7/1
f 55/13/3 94/15/3 92/7/3
f 46/13/5 85/15/5 96/7/5
f 50/13/1 89/15/1 91/7/1
f 51/13/1 90/15/1 88/7/1
f 48/13/3 87/15/3 93/7/3
f 57/13/5 96/15/5 86/7/5
f 91/13/1 103/15/1 102/7/1
f 95/13/4 107/15/4 99/7/4
f 92/13/3 104/15/3 97/7/3
f 93/13/3 105/15/3 106/7/3
f 88/13/4 100/15/4 107/7/4
f 86/13/1 98/15/1 101/7/1
f 94/13/3 106/15/3 104/7/3
f 85/13/5 97/15/5 108/7/5
f 89/13/1 101/15/1 103/7/1
f 90/13/1 102/15/1 100/7/1
f 87/13/3 99/15/3 105/7/3
f 96/13/5 108/15/5 98/7/5
f 108/13/5 120/15/5 110/7/5
f 103/13/1 115/15/1 114/7/1
f 107/13/4 119/15/4 111/7/4
f 104/13/3 116/15/3 109/7/3
f 105/13/3 117/15/3 118/7/3
f 100/13/4 112/15/4 119/7/4
f 98/13/1 110/15/1 113/7/1
f 106/13/3 118/15/3 116/7/3
f 97/13/5 109/15/5 120/7/5
f 101/13/1 113/15/1 115/7/1
f 102/13/1 114/15/1 112/7/1
f 99/13/3 111/15/3 117/7/3
f 116/13/3 128/15/3 121/7/3
f 117/13/3 129/15/3 130/7/3
f 112/13/4 124/15/4 131/7/4
f 110/13/1 122/15/1 125/7/1
f 118/13/3 130/15/3 128/7/3
f 109/13/5 121/15/5 132/7/5
f 113/13/1 125/15/1 127/7/1
f 114/13/1 126/15/1 124/7/1
f 111/13/3 123/15/3 129/7/3
f 120/13/5 132/15/5 122/7/5
f 115/13/1 127/15/1 126/7/1
f 119/13/4 131/15/4 123/7/4
f 124/13/4 136/15/4 230/7/4
f 129/13/3 232/15/3 231/7/3
f 128/13/3 133/15/3 138/7/3
f 131/13/4 230/15/4 210/7/4
f 127/13/1 134/15/1 209/7/1
f 132/13/5 211/15/5 137/7/5
f 123/13/3 210/15/3 232/7/3
f 126/13/1 209/15/1 136/7/1
f 125/13/1 135/15/1 134/7/1
f 121/13/5 138/15/5 211/7/5
f 130/13/3 231/15/3 133/7/3
f 122/13/1 137/15/1 135/7/1
f 139/6/1 204/12/1 203/7/1
f 12/11/3 144/14/3 145/7/3
f 18/11/3 146/14/3 144/7/3
f 15/11/3 145/14/3 143/7/3
f 10/11/3 143/14/3 59/7/3
f 145/11/3 148/14/3 147/7/3
f 146/11/3 72/14/3 81/7/3
f 144/11/3 81/14/3 148/7/3
f 143/11/3 147/14/3 149/7/3
f 154/6/6 157/12/6 158/7/6
f 153/6/6 156/12/6 157/7/6
f 151/6/6 154/12/6 155/7/6
f 150/6/6 153/12/6 154/7/6
f 175/6/4 206/12/4 205/7/4
f 158/6/3 165/12/3 162/7/3
f 156/6/4 163/12/4 164/7/4
f 171/6/5 203/12/5 204/7/5
f 151/6/5 160/12/5 159/7/5
f 155/6/3 162/12/3 161/7/3
f 157/6/4 164/12/4 165/7/4
f 152/6/5 161/12/5 160/7/5
f 161/6/6 170/12/6 169/7/6
f 153/6/6 200/12/6 201/7/6
f 167/6/4 185/12/4 182/7/4
f 161/6/5 183/12/5 186/7/5
f 169/6/5 172/12/5 171/7/5
f 170/6/5 173/12/5 172/7/5
f 166/6/3 173/12/3 170/7/3
f 160/6/6 169/12/6 168/7/6
f 176/6/4 179/12/4 180/7/4
f 175/6/4 178/12/4 179/7/4
f 164/6/6 176/12/6 177/7/6
f 165/6/3 177/12/3 180/7/3
f 163/6/6 175/12/6 176/7/6
f 181/6/3 184/12/3 186/7/3
f 182/6/3 185/12/3 184/7/3
f 162/6/6 181/12/6 183/7/6
f 165/6/6 182/12/6 181/7/6
f 167/6/4 6/12/4 195/7/4
f 185/6/3 195/12/3 194/7/3
f 184/6/3 194/12/3 196/7/3
f 166/6/3 5/12/3 190/7/3
f 172/6/5 189/12/5 188/7/5
f 188/6/5 207/12/5 203/7/5
f 178/6/4 191/12/4 192/7/4
f 173/6/5 190/12/5 189/7/5
f 179/6/4 192/12/4 193/7/4
f 180/6/3 193/12/3 6/7/3
f 186/6/5 196/12/5 5/7/5
f 141/9/2 4/16/2 197/1/2
f 197/9/2 187/16/2 142/1/2
f 191/6/2 187/12/2 198/7/2
f 198/6/2 6/12/2 193/7/2
f 189/6/2 190/12/2 5/7/2
f 188/6/2 189/12/2 199/7/2
f 200/6/1 174/12/1 1/7/1
f 202/6/1 139/12/1 174/7/1
f 3/6/1 205/12/1 206/7/1
f 159/6/5 139/12/5 202/7/5
f 150/6/6 202/12/6 200/7/6
f 156/6/4 201/12/4 1/7/4
f 163/6/6 1/12/6 206/7/6
f 159/8/6 168/6/6 204/12/6
f 205/8/1 3/6/1 142/12/1
f 203/6/1 207/12/1 141/7/1
f 4/6/2 141/12/2 207/7/2
f 178/6/4 205/12/4 208/7/4
f 191/6/2 208/12/2 142/7/2
f 66/11/5 218/14/5 219/7/5
f 63/11/5 220/14/5 216/7/5
f 64/11/1 219/14/1 220/7/1
f 73/11/4 221/14/4 222/7/4
f 77/11/5 225/11/5 45/11/5
f 149/11/3 229/14/3 217/7/3
f 39/11/1 212/14/1 213/7/1
f 75/11/4 222/14/4 223/7/4
f 72/11/5 44/11/5 225/11/5
f 41/11/1 213/14/1 214/7/1
f 81/11/3 72/14/3 44/7/3
f 148/11/3 81/14/3 79/7/3
f 78/11/3 147/14/3 148/7/3
f 149/11/3 147/14/3 78/7/3
f 137/13/1 242/15/1 239/7/1
f 136/13/4 240/15/4 233/7/4
f 232/13/3 235/15/3 234/7/3
f 133/13/3 236/15/3 243/7/3
f 230/13/4 233/15/4 241/7/4
f 134/13/1 237/15/1 238/7/1
f 138/13/5 243/15/5 244/7/5
f 210/13/3 241/15/3 235/7/3
f 209/13/1 238/15/1 240/7/1
f 135/13/1 239/15/1 237/7/1
f 211/13/5 244/15/5 242/7/5
f 231/13/3 234/15/3 236/7/3
f 237/14/2 239/13/2 246/15/2
f 235/13/2 247/15/2 245/7/2
f 234/14/2 245/13/2 246/15/2
f 246/13/2 239/15/2 242/7/2
f 243/13/2 236/15/2 246/7/2
f 245/13/2 247/15/2 238/7/2
f 240/13/2 238/15/2 247/7/2
f 247/13/2 235/15/2 241/7/2
