# Blender 4.5.0
# www.blender.org
o Cube
o Sphere
o Sphere.001
v -0.125000 -0.125000 1.000000
v -0.125000 0.000000 1.000000
v -0.125000 0.125000 1.000000
v -0.000000 -0.125000 1.000000
v 0.000000 0.000000 1.000000
v 0.000000 0.125000 1.000000
v 0.125000 -0.125000 1.000000
v 0.125000 -0.000000 1.000000
v 0.125000 0.125000 1.000000
v -0.125000 -0.125000 0.875000
v -0.125000 0.000000 0.875000
v -0.125000 0.125000 0.875000
v -0.000000 -0.125000 0.875000
v 0.125000 -0.125000 0.875000
v 0.125000 -0.000000 0.875000
v 0.125000 0.125000 0.875000
v -0.125000 -0.125000 0.750000
v 0.125000 -0.125000 0.750000
v -0.250000 -0.125000 0.875000
v -0.250000 0.000000 0.875000
v -0.250000 0.125000 0.875000
v -0.250000 -0.125000 0.750000
v -0.250000 0.000000 0.750000
v -0.250000 0.125000 0.750000
v -0.000000 -0.250000 0.875000
v 0.125000 -0.250000 0.875000
v -0.125000 -0.250000 0.875000
v -0.000000 -0.250000 0.750000
v 0.125000 -0.250000 0.750000
v -0.125000 -0.250000 0.750000
v 0.250000 -0.125000 0.875000
v 0.250000 -0.000000 0.875000
v 0.250000 0.125000 0.875000
v 0.250000 -0.125000 0.750000
v 0.250000 -0.000000 0.750000
v 0.250000 0.125000 0.750000
v 0.000000 0.250000 0.750000
v -0.125000 0.250000 0.750000
v -0.125000 -0.125000 0.625000
v -0.125000 0.125000 0.625000
v 0.125000 -0.125000 0.625000
v 0.125000 0.125000 0.625000
v -0.250000 -0.125000 0.625000
v -0.250000 0.000000 0.625000
v -0.250000 0.125000 0.625000
v -0.000000 -0.250000 0.625000
v 0.125000 -0.250000 0.625000
v -0.125000 -0.250000 0.625000
v 0.250000 -0.125000 0.625000
v 0.250000 -0.000000 0.625000
v 0.250000 0.125000 0.625000
v 0.000000 0.250000 0.625000
v -0.000000 -0.125000 0.625000
v 0.125000 -0.000000 0.625000
v 0.000000 0.125000 0.625000
v -0.125000 0.000000 0.625000
v -0.125000 -0.125000 0.500000
v -0.125000 0.125000 0.500000
v 0.125000 -0.125000 0.500000
v 0.125000 0.125000 0.500000
v -0.000000 -0.125000 0.500000
v 0.000000 0.125000 0.500000
v -0.125000 0.000000 0.500000
v 0.125000 -0.000000 0.500000
v 0.000000 0.250000 0.500000
v 0.125000 0.250000 0.500000
v -0.125000 0.250000 0.500000
v 0.250000 -0.125000 0.500000
v 0.250000 0.125000 0.500000
v 0.250000 -0.000000 0.500000
v 0.250000 0.250000 0.500000
v -0.250000 -0.125000 0.500000
v -0.250000 0.125000 0.500000
v -0.250000 0.000000 0.500000
v -0.250000 0.250000 0.500000
v -0.125000 0.250000 0.375000
v 0.000000 0.250000 0.375000
v 0.125000 0.250000 0.375000
v 0.250000 0.250000 0.375000
v -0.250000 0.250000 0.375000
v -0.250000 -0.125000 0.375000
v -0.250000 0.125000 0.375000
v 0.250000 -0.125000 0.375000
v 0.250000 0.125000 0.375000
v -0.375000 -0.125000 0.500000
v -0.375000 0.125000 0.500000
v -0.375000 0.000000 0.500000
v -0.375000 -0.125000 0.375000
v -0.375000 0.125000 0.375000
v 0.375000 -0.125000 0.500000
v 0.375000 0.125000 0.500000
v 0.375000 -0.000000 0.500000
v 0.375000 -0.125000 0.375000
v 0.375000 0.125000 0.375000
v 0.375000 -0.000000 0.375000
v -0.375000 0.000000 0.375000
v -0.125000 0.250000 0.250000
v 0.000000 0.250000 0.250000
v 0.125000 0.250000 0.250000
v 0.250000 0.250000 0.250000
v -0.250000 0.250000 0.250000
v -0.375000 0.125000 0.250000
v 0.375000 -0.125000 0.250000
v 0.375000 0.125000 0.250000
v 0.375000 -0.000000 0.250000
v 0.125000 0.250000 0.125000
v 0.000000 0.250000 0.125000
v -0.125000 0.250000 0.125000
v -0.250000 -0.125000 0.125000
v -0.250000 0.125000 0.125000
v 0.250000 -0.125000 0.125000
v 0.250000 0.125000 0.125000
v -0.375000 -0.125000 0.125000
v -0.375000 0.125000 0.125000
v 0.375000 -0.125000 0.125000
v 0.375000 0.125000 0.125000
v 0.375000 -0.000000 0.125000
v -0.375000 0.000000 0.125000
v 0.250000 -0.000000 0.125000
v -0.250000 0.000000 0.125000
v -0.250000 -0.125000 0.000000
v -0.250000 0.125000 0.000000
v -0.250000 0.000000 0.000000
v -0.125000 0.125000 0.000000
v 0.250000 -0.125000 0.000000
v 0.250000 0.125000 0.000000
v 0.250000 -0.000000 0.000000
v 0.125000 0.125000 0.000000
v -0.125000 -0.125000 0.000000
v 0.125000 -0.125000 0.000000
v -0.000000 -0.125000 0.000000
v 0.000000 0.125000 0.000000
v -0.250000 0.125000 -0.125000
v -0.250000 -0.125000 -0.125000
v 0.250000 0.125000 -0.125000
v 0.250000 -0.125000 -0.125000
v -0.125000 -0.125000 -0.125000
v 0.125000 -0.125000 -0.125000
v -0.000000 -0.125000 -0.125000
v -0.125000 0.125000 -0.125000
v 0.125000 0.125000 -0.125000
v 0.000000 0.125000 -0.125000
v 0.250000 -0.000000 -0.125000
v -0.250000 0.000000 -0.125000
v -0.125000 0.125000 -0.375000
v 0.250000 -0.000000 -0.375000
v 0.250000 0.125000 -0.375000
v 0.000000 0.250000 1.000000
v 0.125000 0.250000 1.000000
v -0.125000 0.250000 1.000000
v 0.000000 0.250000 0.875000
v 0.125000 0.250000 0.875000
v -0.125000 0.250000 0.875000
v 0.125000 0.250000 0.750000
v -0.250000 0.250000 0.875000
v -0.250000 0.250000 0.750000
v 0.250000 0.250000 0.875000
v -0.125000 -0.125000 0.375000
v -0.000000 -0.125000 0.375000
v 0.125000 -0.125000 0.375000
v 0.125000 -0.125000 0.250000
v -0.000000 -0.125000 0.250000
v -0.125000 -0.125000 0.250000
v 0.250000 -0.125000 0.250000
v -0.250000 -0.125000 0.250000
v -0.125000 -0.125000 0.125000
v 0.125000 -0.125000 0.125000
v -0.000000 -0.125000 0.125000
v -0.125000 0.125000 0.125000
v 0.125000 0.125000 0.125000
v 0.000000 0.125000 0.125000
v -0.250000 0.125000 0.250000
v -0.125000 0.125000 0.250000
v 0.250000 0.125000 0.250000
v 0.125000 0.125000 0.250000
v 0.250000 0.250000 0.750000
v 0.125000 0.250000 0.625000
v 0.250000 0.250000 0.625000
v -0.125000 0.250000 0.625000
v -0.250000 0.250000 0.625000
v -0.250000 0.125000 -0.250000
v -0.250000 -0.125000 -0.250000
v 0.250000 0.125000 -0.250000
v 0.250000 -0.125000 -0.250000
v -0.125000 -0.125000 -0.250000
v 0.125000 -0.125000 -0.250000
v -0.000000 -0.125000 -0.250000
v -0.125000 0.125000 -0.250000
v 0.125000 0.125000 -0.250000
v 0.000000 0.125000 -0.250000
v 0.250000 -0.000000 -0.250000
v -0.250000 0.000000 -0.250000
v 0.250000 -0.125000 -0.375000
v 0.125000 -0.125000 -0.375000
v 0.000000 0.125000 -0.375000
v -0.250000 0.000000 -0.375000
v 0.125000 0.125000 -0.375000
v -0.375000 -0.125000 0.250000
v -0.375000 0.000000 0.250000
v -0.125000 -0.125000 -0.375000
v -0.000000 -0.125000 -0.375000
v -0.250000 -0.125000 -0.375000
v -0.250000 0.125000 -0.375000
v 0.125000 -0.125000 -0.500000
v 0.000000 0.125000 -0.500000
v 0.250000 -0.000000 -0.500000
v -0.250000 0.000000 -0.500000
v -0.125000 -0.125000 -0.500000
v -0.000000 -0.125000 -0.500000
v -0.125000 0.125000 -0.500000
v 0.250000 -0.125000 -0.500000
v 0.250000 0.125000 -0.500000
v 0.125000 0.125000 -0.500000
v -0.250000 -0.125000 -0.500000
v -0.250000 0.125000 -0.500000
v 0.000000 0.000000 -0.500000
v 0.125000 -0.000000 -0.500000
v -0.125000 0.000000 -0.500000
vn -0.0000 -0.0000 1.0000
vn -0.0000 -1.0000 -0.0000
vn -1.0000 -0.0000 -0.0000
vn 1.0000 -0.0000 -0.0000
vn -0.0000 1.0000 -0.0000
vn -0.0000 -0.0000 -1.0000
vt 0.000000 0.500000
vt 0.250000 0.250000
vt 0.250000 0.500000
vt 0.000000 0.250000
vt 0.500000 1.000000
vt 0.250000 0.750000
vt 0.250000 1.000000
vt 0.750000 0.750000
vt 0.750000 1.000000
vt 0.500000 0.750000
vt 0.000000 0.750000
vt 0.000000 1.000000
vt 0.000000 0.000000
vt 0.250000 0.000000
vt 0.500000 0.000000
vt 0.500000 0.250000
s 0
f 5/1/1 9/2/1 6/3/1
f 4/1/1 8/2/1 5/3/1
f 2/1/1 6/2/1 3/3/1
f 2/3/1 4/4/1 5/2/1
f 4/1/2 14/2/2 7/3/2
f 21/1/3 156/2/3 24/3/3
f 7/1/4 15/2/4 8/3/4
f 1/1/2 13/2/2 4/3/2
f 2/1/3 10/2/3 1/3/3
f 36/1/4 157/2/4 33/3/4
f 8/1/4 16/2/4 9/3/4
f 3/1/3 11/2/3 2/3/3
f 12/1/1 20/2/1 11/3/1
f 18/1/2 31/2/2 14/3/2
f 20/1/3 22/2/3 19/3/3
f 21/1/3 23/2/3 20/3/3
f 10/1/2 22/2/2 17/3/2
f 11/1/1 19/2/1 10/3/1
f 27/1/2 28/2/2 25/3/2
f 25/1/2 29/2/2 26/3/2
f 17/1/3 27/2/3 10/3/3
f 10/1/1 25/2/1 13/3/1
f 14/1/4 29/2/4 18/3/4
f 13/1/1 26/2/1 14/3/1
f 32/1/4 36/2/4 33/3/4
f 31/1/4 35/2/4 32/3/4
f 15/1/1 33/2/1 16/3/1
f 6/1/1 150/2/1 3/3/1
f 14/1/1 32/2/1 15/3/1
f 151/5/5 38/6/5 153/7/5
f 152/5/5 37/6/5 151/7/5
f 28/1/2 47/2/2 29/3/2
f 30/1/2 46/2/2 28/3/2
f 154/5/5 52/8/5 37/9/5
f 18/1/2 49/2/2 34/3/2
f 37/9/5 179/10/5 38/5/5
f 23/1/3 43/2/3 22/3/3
f 22/1/2 39/2/2 17/3/2
f 34/1/4 50/2/4 35/3/4
f 24/1/3 44/2/3 23/3/3
f 17/1/3 48/2/3 30/3/3
f 35/1/4 51/2/4 36/3/4
f 29/1/4 41/2/4 18/3/4
f 48/1/6 53/2/6 46/3/6
f 53/1/6 47/2/6 46/3/6
f 49/1/6 54/2/6 50/3/6
f 54/1/6 51/2/6 50/3/6
f 52/11/6 42/7/6 55/12/6
f 55/11/6 179/7/6 52/12/6
f 44/1/6 40/2/6 56/3/6
f 43/1/6 56/2/6 39/3/6
f 42/11/5 62/7/5 55/12/5
f 41/11/4 64/7/4 54/12/4
f 39/11/2 61/7/2 53/12/2
f 56/11/3 57/7/3 39/12/3
f 55/11/5 58/7/5 40/12/5
f 54/11/4 60/7/4 42/12/4
f 53/11/2 59/7/2 41/12/2
f 40/11/3 63/7/3 56/12/3
f 62/13/1 67/2/1 58/4/1
f 60/13/1 65/2/1 62/4/1
f 59/13/1 70/2/1 64/4/1
f 66/4/1 69/14/1 71/2/1
f 60/4/1 70/14/1 69/2/1
f 58/13/1 74/2/1 63/4/1
f 58/4/1 75/14/1 73/2/1
f 63/13/1 72/2/1 57/4/1
f 71/13/5 78/2/5 66/4/5
f 75/4/5 76/14/5 80/2/5
f 66/13/5 77/2/5 65/4/5
f 65/13/5 76/2/5 67/4/5
f 75/13/3 82/2/3 73/4/3
f 79/13/4 69/2/4 84/4/4
f 73/13/1 87/2/1 74/4/1
f 82/13/5 86/2/5 73/4/5
f 74/13/1 85/2/1 72/4/1
f 72/13/2 88/2/2 81/4/2
f 83/13/2 90/2/2 68/4/2
f 68/13/1 92/2/1 70/4/1
f 69/13/5 94/2/5 84/4/5
f 70/13/1 91/2/1 69/4/1
f 90/13/4 95/2/4 92/4/4
f 95/13/4 91/2/4 92/4/4
f 86/13/3 96/2/3 87/4/3
f 96/13/3 85/2/3 87/4/3
f 84/13/4 100/2/4 79/4/4
f 83/13/2 103/2/2 93/4/2
f 79/13/5 99/2/5 78/4/5
f 89/13/3 199/2/3 96/4/3
f 88/13/2 165/2/2 81/4/2
f 76/13/5 101/2/5 80/4/5
f 96/13/3 198/2/3 88/4/3
f 94/13/5 174/2/5 84/4/5
f 80/13/3 172/2/3 82/4/3
f 78/13/5 98/2/5 77/4/5
f 77/13/5 97/2/5 76/4/5
f 93/13/4 105/2/4 95/4/4
f 95/13/4 104/2/4 94/4/4
f 82/13/5 102/2/5 89/4/5
f 164/13/2 115/2/2 103/4/2
f 104/13/5 112/2/5 174/4/5
f 103/13/4 117/2/4 105/4/4
f 105/13/4 116/2/4 104/4/4
f 102/13/3 118/2/3 199/4/3
f 99/13/5 107/2/5 98/4/5
f 98/13/5 108/2/5 97/4/5
f 172/13/5 114/2/5 102/4/5
f 198/13/2 109/2/2 165/4/2
f 118/13/6 110/2/6 120/4/6
f 113/13/6 120/2/6 109/4/6
f 117/13/6 111/2/6 119/4/6
f 116/13/6 119/2/6 112/4/6
f 110/13/3 123/2/3 120/4/3
f 169/13/5 122/2/5 110/4/5
f 120/13/3 121/2/3 109/4/3
f 109/13/2 129/2/2 166/4/2
f 111/13/4 127/2/4 119/4/4
f 167/13/2 125/2/2 111/4/2
f 119/13/4 126/2/4 112/4/4
f 112/13/5 128/2/5 170/4/5
f 128/15/5 142/2/5 132/14/5
f 126/15/5 141/2/5 128/14/5
f 140/15/5 122/2/5 124/14/5
f 121/15/2 137/2/2 129/14/2
f 132/15/5 140/2/5 124/14/5
f 138/15/2 125/2/2 130/14/2
f 127/14/4 136/16/4 143/2/4
f 143/15/4 126/2/4 127/14/4
f 129/15/2 139/2/2 131/14/2
f 123/14/3 133/16/3 144/2/3
f 144/15/3 121/2/3 123/14/3
f 131/15/2 138/2/2 130/14/2
f 149/1/5 151/2/5 148/3/5
f 148/1/5 153/2/5 150/3/5
f 38/1/5 155/2/5 153/3/5
f 152/1/5 176/2/5 154/3/5
f 21/3/1 153/4/1 155/2/1
f 3/1/3 153/2/3 12/3/3
f 9/1/1 148/2/1 6/3/1
f 33/1/1 152/2/1 16/3/1
f 16/1/4 149/2/4 9/3/4
f 59/13/2 83/2/2 68/4/2
f 72/13/2 158/2/2 57/4/2
f 57/13/2 159/2/2 61/4/2
f 61/13/2 160/2/2 59/4/2
f 159/13/2 161/2/2 160/4/2
f 83/4/2 161/14/2 164/2/2
f 159/4/2 163/14/2 162/2/2
f 158/4/2 165/14/2 163/2/2
f 161/13/2 111/2/2 164/4/2
f 163/13/2 168/2/2 162/4/2
f 165/13/2 166/2/2 163/4/2
f 162/13/2 167/2/2 161/4/2
f 168/13/2 129/2/2 131/4/2
f 130/13/2 168/2/2 131/4/2
f 132/13/5 170/2/5 128/4/5
f 124/13/5 171/2/5 132/4/5
f 106/13/6 171/2/6 107/4/6
f 107/4/6 169/14/6 108/2/6
f 110/13/5 173/2/5 169/4/5
f 169/13/3 97/2/3 108/4/3
f 173/13/6 101/2/6 97/4/6
f 170/13/5 174/2/5 112/4/5
f 99/4/6 174/14/6 175/2/6
f 175/13/4 106/2/4 99/4/4
f 176/1/5 177/2/5 154/3/5
f 51/1/4 176/2/4 36/3/4
f 42/1/6 178/2/6 51/3/6
f 38/1/5 180/2/5 156/3/5
f 45/1/6 179/2/6 40/3/6
f 24/1/3 180/2/3 45/3/3
f 134/15/2 185/2/2 137/14/2
f 142/15/5 188/2/5 140/14/5
f 133/15/3 192/2/3 144/14/3
f 137/15/2 187/2/2 139/14/2
f 138/15/2 184/2/2 136/14/2
f 135/15/5 189/2/5 141/14/5
f 144/15/3 182/2/3 134/14/3
f 139/15/2 186/2/2 138/14/2
f 143/15/4 183/2/4 135/14/4
f 140/15/5 181/2/5 133/14/5
f 141/15/5 190/2/5 142/14/5
f 136/15/4 191/2/4 143/14/4
f 191/15/4 147/2/4 183/14/4
f 188/15/5 203/2/5 181/14/5
f 189/15/5 195/2/5 190/14/5
f 184/15/4 146/2/4 191/14/4
f 182/15/2 200/2/2 185/14/2
f 190/15/5 145/2/5 188/14/5
f 181/15/3 196/2/3 192/14/3
f 185/15/2 201/2/2 187/14/2
f 186/15/2 193/2/2 184/14/2
f 183/15/5 197/2/5 189/14/5
f 192/15/3 202/2/3 182/14/3
f 187/15/2 194/2/2 186/14/2
f 113/2/3 199/14/3 118/14/3
f 145/15/5 215/2/5 203/14/5
f 203/15/3 207/2/3 196/14/3
f 197/15/5 205/2/5 195/14/5
f 194/15/2 211/2/2 193/14/2
f 202/15/2 208/2/2 200/14/2
f 196/15/3 214/2/3 202/14/3
f 195/15/5 210/2/5 145/14/5
f 146/15/4 212/2/4 147/14/4
f 147/15/5 213/2/5 197/14/5
f 200/15/2 209/2/2 201/14/2
f 193/15/4 206/2/4 146/14/4
f 201/15/2 204/2/2 194/14/2
f 213/15/6 216/2/6 205/14/6
f 217/15/6 212/2/6 206/14/6
f 217/15/6 211/2/6 204/14/6
f 209/14/6 217/16/6 204/2/6
f 215/15/6 218/2/6 207/14/6
f 207/14/6 208/16/6 214/2/6
f 218/15/6 209/2/6 208/14/6
f 205/15/6 218/2/6 210/14/6
f 5/1/1 8/4/1 9/2/1
f 4/1/1 7/4/1 8/2/1
f 2/1/1 5/4/1 6/2/1
f 2/3/1 1/1/1 4/4/1
f 4/1/2 13/4/2 14/2/2
f 21/1/3 155/4/3 156/2/3
f 7/1/4 14/4/4 15/2/4
f 1/1/2 10/4/2 13/2/2
f 2/1/3 11/4/3 10/2/3
f 36/1/4 176/4/4 157/2/4
f 8/1/4 15/4/4 16/2/4
f 3/1/3 12/4/3 11/2/3
f 12/1/1 21/4/1 20/2/1
f 18/1/2 34/4/2 31/2/2
f 20/1/3 23/4/3 22/2/3
f 21/1/3 24/4/3 23/2/3
f 10/1/2 19/4/2 22/2/2
f 11/1/1 20/4/1 19/2/1
f 27/1/2 30/4/2 28/2/2
f 25/1/2 28/4/2 29/2/2
f 17/1/3 30/4/3 27/2/3
f 10/1/1 27/4/1 25/2/1
f 14/1/4 26/4/4 29/2/4
f 13/1/1 25/4/1 26/2/1
f 32/1/4 35/4/4 36/2/4
f 31/1/4 34/4/4 35/2/4
f 15/1/1 32/4/1 33/2/1
f 6/1/1 148/4/1 150/2/1
f 14/1/1 31/4/1 32/2/1
f 151/5/5 37/10/5 38/6/5
f 152/5/5 154/10/5 37/6/5
f 28/1/2 46/4/2 47/2/2
f 30/1/2 48/4/2 46/2/2
f 154/5/5 177/10/5 52/8/5
f 18/1/2 41/4/2 49/2/2
f 37/9/5 52/8/5 179/10/5
f 23/1/3 44/4/3 43/2/3
f 22/1/2 43/4/2 39/2/2
f 34/1/4 49/4/4 50/2/4
f 24/1/3 45/4/3 44/2/3
f 17/1/3 39/4/3 48/2/3
f 35/1/4 50/4/4 51/2/4
f 29/1/4 47/4/4 41/2/4
f 48/1/6 39/4/6 53/2/6
f 53/1/6 41/4/6 47/2/6
f 49/1/6 41/4/6 54/2/6
f 54/1/6 42/4/6 51/2/6
f 52/11/6 177/6/6 42/7/6
f 55/11/6 40/6/6 179/7/6
f 44/1/6 45/4/6 40/2/6
f 43/1/6 44/4/6 56/2/6
f 42/11/5 60/6/5 62/7/5
f 41/11/4 59/6/4 64/7/4
f 39/11/2 57/6/2 61/7/2
f 56/11/3 63/6/3 57/7/3
f 55/11/5 62/6/5 58/7/5
f 54/11/4 64/6/4 60/7/4
f 53/11/2 61/6/2 59/7/2
f 40/11/3 58/6/3 63/7/3
f 62/13/1 65/14/1 67/2/1
f 60/13/1 66/14/1 65/2/1
f 59/13/1 68/14/1 70/2/1
f 66/4/1 60/13/1 69/14/1
f 60/4/1 64/13/1 70/14/1
f 58/13/1 73/14/1 74/2/1
f 58/4/1 67/13/1 75/14/1
f 63/13/1 74/14/1 72/2/1
f 71/13/5 79/14/5 78/2/5
f 75/4/5 67/13/5 76/14/5
f 66/13/5 78/14/5 77/2/5
f 65/13/5 77/14/5 76/2/5
f 75/13/3 80/14/3 82/2/3
f 79/13/4 71/14/4 69/2/4
f 73/13/1 86/14/1 87/2/1
f 82/13/5 89/14/5 86/2/5
f 74/13/1 87/14/1 85/2/1
f 72/13/2 85/14/2 88/2/2
f 83/13/2 93/14/2 90/2/2
f 68/13/1 90/14/1 92/2/1
f 69/13/5 91/14/5 94/2/5
f 70/13/1 92/14/1 91/2/1
f 90/13/4 93/14/4 95/2/4
f 95/13/4 94/14/4 91/2/4
f 86/13/3 89/14/3 96/2/3
f 96/13/3 88/14/3 85/2/3
f 84/13/4 174/14/4 100/2/4
f 83/13/2 164/14/2 103/2/2
f 79/13/5 100/14/5 99/2/5
f 89/13/3 102/14/3 199/2/3
f 88/13/2 198/14/2 165/2/2
f 76/13/5 97/14/5 101/2/5
f 96/13/3 199/14/3 198/2/3
f 94/13/5 104/14/5 174/2/5
f 80/13/3 101/14/3 172/2/3
f 78/13/5 99/14/5 98/2/5
f 77/13/5 98/14/5 97/2/5
f 93/13/4 103/14/4 105/2/4
f 95/13/4 105/14/4 104/2/4
f 82/13/5 172/14/5 102/2/5
f 164/13/2 111/14/2 115/2/2
f 104/13/5 116/14/5 112/2/5
f 103/13/4 115/14/4 117/2/4
f 105/13/4 117/14/4 116/2/4
f 102/13/3 114/14/3 118/2/3
f 99/13/5 106/14/5 107/2/5
f 98/13/5 107/14/5 108/2/5
f 172/13/5 110/14/5 114/2/5
f 198/13/2 113/14/2 109/2/2
f 118/13/6 114/14/6 110/2/6
f 113/13/6 118/14/6 120/2/6
f 117/13/6 115/14/6 111/2/6
f 116/13/6 117/14/6 119/2/6
f 110/13/3 122/14/3 123/2/3
f 169/13/5 124/14/5 122/2/5
f 120/13/3 123/14/3 121/2/3
f 109/13/2 121/14/2 129/2/2
f 111/13/4 125/14/4 127/2/4
f 167/13/2 130/14/2 125/2/2
f 119/13/4 127/14/4 126/2/4
f 112/13/5 126/14/5 128/2/5
f 128/15/5 141/16/5 142/2/5
f 126/15/5 135/16/5 141/2/5
f 140/15/5 133/16/5 122/2/5
f 121/15/2 134/16/2 137/2/2
f 132/15/5 142/16/5 140/2/5
f 138/15/2 136/16/2 125/2/2
f 127/14/4 125/15/4 136/16/4
f 143/15/4 135/16/4 126/2/4
f 129/15/2 137/16/2 139/2/2
f 123/14/3 122/15/3 133/16/3
f 144/15/3 134/16/3 121/2/3
f 131/15/2 139/16/2 138/2/2
f 149/1/5 152/4/5 151/2/5
f 148/1/5 151/4/5 153/2/5
f 38/1/5 156/4/5 155/2/5
f 152/1/5 157/4/5 176/2/5
f 21/3/1 12/1/1 153/4/1
f 3/1/3 150/4/3 153/2/3
f 9/1/1 149/4/1 148/2/1
f 33/1/1 157/4/1 152/2/1
f 16/1/4 152/4/4 149/2/4
f 59/13/2 160/14/2 83/2/2
f 72/13/2 81/14/2 158/2/2
f 57/13/2 158/14/2 159/2/2
f 61/13/2 159/14/2 160/2/2
f 159/13/2 162/14/2 161/2/2
f 83/4/2 160/13/2 161/14/2
f 159/4/2 158/13/2 163/14/2
f 158/4/2 81/13/2 165/14/2
f 161/13/2 167/14/2 111/2/2
f 163/13/2 166/14/2 168/2/2
f 165/13/2 109/14/2 166/2/2
f 162/13/2 168/14/2 167/2/2
f 168/13/2 166/14/2 129/2/2
f 130/13/2 167/14/2 168/2/2
f 132/13/5 171/14/5 170/2/5
f 124/13/5 169/14/5 171/2/5
f 106/13/6 170/14/6 171/2/6
f 107/4/6 171/13/6 169/14/6
f 110/13/5 172/14/5 173/2/5
f 169/13/3 173/14/3 97/2/3
f 173/13/6 172/14/6 101/2/6
f 170/13/5 175/14/5 174/2/5
f 99/4/6 100/13/6 174/14/6
f 175/13/4 170/14/4 106/2/4
f 176/1/5 178/4/5 177/2/5
f 51/1/4 178/4/4 176/2/4
f 42/1/6 177/4/6 178/2/6
f 38/1/5 179/4/5 180/2/5
f 45/1/6 180/4/6 179/2/6
f 24/1/3 156/4/3 180/2/3
f 134/15/2 182/16/2 185/2/2
f 142/15/5 190/16/5 188/2/5
f 133/15/3 181/16/3 192/2/3
f 137/15/2 185/16/2 187/2/2
f 138/15/2 186/16/2 184/2/2
f 135/15/5 183/16/5 189/2/5
f 144/15/3 192/16/3 182/2/3
f 139/15/2 187/16/2 186/2/2
f 143/15/4 191/16/4 183/2/4
f 140/15/5 188/16/5 181/2/5
f 141/15/5 189/16/5 190/2/5
f 136/15/4 184/16/4 191/2/4
f 191/15/4 146/16/4 147/2/4
f 188/15/5 145/16/5 203/2/5
f 189/15/5 197/16/5 195/2/5
f 184/15/4 193/16/4 146/2/4
f 182/15/2 202/16/2 200/2/2
f 190/15/5 195/16/5 145/2/5
f 181/15/3 203/16/3 196/2/3
f 185/15/2 200/16/2 201/2/2
f 186/15/2 194/16/2 193/2/2
f 183/15/5 147/16/5 197/2/5
f 192/15/3 196/16/3 202/2/3
f 187/15/2 201/16/2 194/2/2
f 113/2/3 198/2/3 199/14/3
f 145/15/5 210/16/5 215/2/5
f 203/15/3 215/16/3 207/2/3
f 197/15/5 213/16/5 205/2/5
f 194/15/2 204/16/2 211/2/2
f 202/15/2 214/16/2 208/2/2
f 196/15/3 207/16/3 214/2/3
f 195/15/5 205/16/5 210/2/5
f 146/15/4 206/16/4 212/2/4
f 147/15/5 212/16/5 213/2/5
f 200/15/2 208/16/2 209/2/2
f 193/15/4 211/16/4 206/2/4
f 201/15/2 209/16/2 204/2/2
f 213/15/6 217/16/6 216/2/6
f 217/15/6 213/16/6 212/2/6
f 217/15/6 206/16/6 211/2/6
f 209/14/6 216/15/6 217/16/6
f 215/15/6 210/16/6 218/2/6
f 207/14/6 218/15/6 208/16/6
f 218/15/6 216/16/6 209/2/6
f 205/15/6 216/16/6 218/2/6
