# Blender 4.5.0
# www.blender.org
o Cube
o Sphere
o Sphere.001
v -0.125000 -0.125000 1.250000
v -0.125000 0.000000 1.250000
v -0.125000 0.125000 1.250000
v -0.000000 -0.125000 1.250000
v 0.000000 0.000000 1.250000
v 0.000000 0.125000 1.250000
v 0.125000 -0.125000 1.250000
v 0.125000 -0.000000 1.250000
v 0.125000 0.125000 1.250000
v -0.125000 -0.125000 1.125000
v -0.125000 0.000000 1.125000
v -0.125000 0.125000 1.125000
v -0.000000 -0.125000 1.125000
v 0.125000 -0.125000 1.125000
v 0.125000 -0.000000 1.125000
v 0.125000 0.125000 1.125000
v -0.125000 -0.125000 1.000000
v 0.125000 -0.125000 1.000000
v -0.250000 -0.125000 1.125000
v -0.250000 0.000000 1.125000
v -0.250000 0.125000 1.125000
v -0.250000 -0.125000 1.000000
v -0.250000 0.000000 1.000000
v -0.250000 0.125000 1.000000
v -0.000000 -0.250000 1.125000
v 0.125000 -0.250000 1.125000
v -0.125000 -0.250000 1.125000
v -0.000000 -0.250000 1.000000
v 0.125000 -0.250000 1.000000
v -0.125000 -0.250000 1.000000
v 0.250000 -0.125000 1.125000
v 0.250000 -0.000000 1.125000
v 0.250000 0.125000 1.125000
v 0.250000 -0.125000 1.000000
v 0.250000 -0.000000 1.000000
v 0.250000 0.125000 1.000000
v 0.000000 0.250000 1.000000
v -0.125000 0.250000 1.000000
v -0.125000 -0.125000 0.875000
v -0.125000 0.125000 0.875000
v 0.125000 -0.125000 0.875000
v 0.125000 0.125000 0.875000
v -0.250000 -0.125000 0.875000
v -0.250000 0.000000 0.875000
v -0.250000 0.125000 0.875000
v -0.000000 -0.250000 0.875000
v 0.125000 -0.250000 0.875000
v -0.125000 -0.250000 0.875000
v 0.250000 -0.125000 0.875000
v 0.250000 -0.000000 0.875000
v 0.250000 0.125000 0.875000
v 0.000000 0.250000 0.875000
v -0.000000 -0.125000 0.875000
v 0.125000 -0.000000 0.875000
v 0.000000 0.125000 0.875000
v -0.125000 0.000000 0.875000
v -0.125000 -0.125000 0.750000
v -0.125000 0.125000 0.750000
v 0.125000 -0.125000 0.750000
v 0.125000 0.125000 0.750000
v -0.000000 -0.125000 0.750000
v 0.000000 0.125000 0.750000
v -0.125000 0.000000 0.750000
v 0.125000 -0.000000 0.750000
v 0.000000 0.250000 0.750000
v 0.125000 0.250000 0.750000
v -0.125000 0.250000 0.750000
v 0.250000 -0.125000 0.750000
v 0.250000 0.125000 0.750000
v 0.250000 -0.000000 0.750000
v 0.250000 0.250000 0.750000
v -0.250000 -0.125000 0.750000
v -0.250000 0.125000 0.750000
v -0.250000 0.000000 0.750000
v -0.250000 0.250000 0.750000
v -0.125000 0.250000 0.625000
v 0.000000 0.250000 0.625000
v 0.125000 0.250000 0.625000
v 0.250000 0.250000 0.625000
v -0.250000 0.250000 0.625000
v -0.250000 -0.125000 0.625000
v -0.250000 0.125000 0.625000
v 0.250000 -0.125000 0.625000
v 0.250000 0.125000 0.625000
v -0.375000 -0.125000 0.750000
v -0.375000 0.125000 0.750000
v -0.375000 0.000000 0.750000
v -0.375000 -0.125000 0.625000
v -0.375000 0.125000 0.625000
v 0.375000 -0.125000 0.750000
v 0.375000 0.125000 0.750000
v 0.375000 -0.000000 0.750000
v 0.375000 -0.125000 0.625000
v 0.375000 0.125000 0.625000
v 0.375000 -0.000000 0.625000
v -0.375000 0.000000 0.625000
v -0.125000 0.250000 0.500000
v 0.000000 0.250000 0.500000
v 0.125000 0.250000 0.500000
v 0.250000 0.250000 0.500000
v -0.250000 0.250000 0.500000
v -0.375000 0.125000 0.500000
v 0.375000 -0.125000 0.500000
v 0.375000 0.125000 0.500000
v 0.375000 -0.000000 0.500000
v 0.125000 0.250000 0.375000
v 0.000000 0.250000 0.375000
v -0.125000 0.250000 0.375000
v -0.250000 -0.125000 0.375000
v -0.250000 0.125000 0.375000
v 0.250000 -0.125000 0.375000
v 0.250000 0.125000 0.375000
v -0.375000 -0.125000 0.375000
v -0.375000 0.125000 0.375000
v 0.375000 -0.125000 0.375000
v 0.375000 0.125000 0.375000
v 0.375000 -0.000000 0.375000
v -0.375000 0.000000 0.375000
v 0.250000 -0.000000 0.375000
v -0.250000 0.000000 0.375000
v -0.250000 -0.125000 0.250000
v -0.250000 0.125000 0.250000
v -0.250000 0.000000 0.250000
v -0.125000 0.125000 0.250000
v 0.250000 -0.125000 0.250000
v 0.250000 0.125000 0.250000
v 0.250000 -0.000000 0.250000
v 0.125000 0.125000 0.250000
v -0.125000 -0.125000 0.250000
v 0.125000 -0.125000 0.250000
v -0.000000 -0.125000 0.250000
v 0.000000 0.125000 0.250000
v -0.250000 0.125000 0.125000
v -0.250000 -0.125000 0.125000
v 0.250000 0.125000 0.125000
v 0.250000 -0.125000 0.125000
v -0.125000 -0.125000 0.125000
v 0.125000 -0.125000 0.125000
v -0.000000 -0.125000 0.125000
v -0.125000 0.125000 0.125000
v 0.125000 0.125000 0.125000
v 0.000000 0.125000 0.125000
v 0.250000 -0.000000 0.125000
v -0.250000 0.000000 0.125000
v 0.125000 -0.125000 -0.375000
v 0.250000 -0.000000 -0.375000
v -0.250000 0.000000 -0.375000
v -0.125000 0.125000 -0.375000
v -0.000000 -0.125000 -0.375000
v -0.250000 0.125000 -0.375000
v -0.250000 -0.125000 -0.375000
v 0.250000 0.125000 -0.375000
v -0.125000 0.125000 -0.250000
v -0.000000 -0.125000 -0.250000
v -0.125000 -0.125000 -0.250000
v -0.250000 0.000000 -0.250000
v 0.250000 -0.000000 -0.250000
v 0.000000 0.125000 -0.250000
v 0.125000 -0.125000 -0.250000
v 0.250000 -0.125000 -0.250000
v 0.250000 0.125000 -0.250000
v 0.000000 0.250000 1.250000
v 0.125000 0.250000 1.250000
v -0.125000 0.250000 1.250000
v 0.000000 0.250000 1.125000
v 0.125000 0.250000 1.125000
v -0.125000 0.250000 1.125000
v 0.125000 0.250000 1.000000
v -0.250000 0.250000 1.125000
v -0.250000 0.250000 1.000000
v 0.250000 0.250000 1.125000
v -0.125000 -0.125000 0.625000
v -0.000000 -0.125000 0.625000
v 0.125000 -0.125000 0.625000
v 0.125000 -0.125000 0.500000
v -0.000000 -0.125000 0.500000
v -0.125000 -0.125000 0.500000
v 0.250000 -0.125000 0.500000
v -0.250000 -0.125000 0.500000
v -0.125000 -0.125000 0.375000
v 0.125000 -0.125000 0.375000
v -0.000000 -0.125000 0.375000
v -0.125000 0.125000 0.375000
v 0.125000 0.125000 0.375000
v 0.000000 0.125000 0.375000
v -0.250000 0.125000 0.500000
v -0.125000 0.125000 0.500000
v 0.250000 0.125000 0.500000
v 0.125000 0.125000 0.500000
v 0.250000 0.250000 1.000000
v 0.125000 0.250000 0.875000
v 0.250000 0.250000 0.875000
v -0.125000 0.250000 0.875000
v -0.250000 0.250000 0.875000
v -0.250000 0.125000 0.000000
v -0.250000 -0.125000 0.000000
v 0.250000 0.125000 0.000000
v 0.250000 -0.125000 0.000000
v -0.125000 -0.125000 0.000000
v 0.125000 -0.125000 0.000000
v -0.000000 -0.125000 0.000000
v -0.125000 0.125000 0.000000
v 0.125000 0.125000 0.000000
v 0.000000 0.125000 0.000000
v 0.250000 -0.000000 0.000000
v -0.250000 0.000000 0.000000
v -0.250000 0.125000 -0.125000
v -0.250000 -0.125000 -0.125000
v 0.250000 0.125000 -0.125000
v 0.250000 -0.125000 -0.125000
v 0.125000 -0.125000 -0.125000
v 0.000000 0.125000 -0.125000
v 0.250000 -0.000000 -0.125000
v -0.250000 0.000000 -0.125000
v 0.000000 0.125000 -0.375000
v -0.125000 -0.125000 -0.375000
v 0.125000 0.125000 -0.250000
v -0.375000 -0.125000 0.500000
v -0.375000 0.000000 0.500000
v -0.125000 -0.125000 -0.125000
v -0.000000 -0.125000 -0.125000
v -0.125000 0.125000 -0.125000
v 0.125000 0.125000 -0.125000
v -0.250000 -0.125000 -0.250000
v -0.250000 0.125000 -0.250000
v 0.250000 -0.125000 -0.375000
v 0.125000 0.125000 -0.375000
v 0.125000 -0.125000 -0.500000
v 0.000000 0.125000 -0.500000
v 0.250000 -0.000000 -0.500000
v -0.250000 0.000000 -0.500000
v -0.125000 -0.125000 -0.500000
v -0.000000 -0.125000 -0.500000
v -0.125000 0.125000 -0.500000
v 0.250000 -0.125000 -0.500000
v 0.250000 0.125000 -0.500000
v 0.125000 0.125000 -0.500000
v -0.250000 -0.125000 -0.500000
v -0.250000 0.125000 -0.500000
v 0.000000 0.000000 -0.500000
v 0.125000 -0.000000 -0.500000
v -0.125000 0.000000 -0.500000
vn -0.0000 -0.0000 1.0000
vn -0.0000 -1.0000 -0.0000
vn -1.0000 -0.0000 -0.0000
vn 1.0000 -0.0000 -0.0000
vn -0.0000 1.0000 -0.0000
vn -0.0000 -0.0000 -1.0000
vt 0.000000 0.500000
vt 0.250000 0.250000
vt 0.250000 0.500000
vt 0.000000 0.250000
vt 0.500000 1.000000
vt 0.250000 0.750000
vt 0.250000 1.000000
vt 0.750000 0.750000
vt 0.750000 1.000000
vt 0.500000 0.750000
vt 0.000000 0.750000
vt 0.000000 1.000000
vt 0.000000 0.000000
vt 0.250000 0.000000
vt 0.500000 0.000000
vt 0.500000 0.250000
s 0
f 5/1/1 9/2/1 6/3/1
f 4/1/1 8/2/1 5/3/1
f 2/1/1 6/2/1 3/3/1
f 2/3/1 4/4/1 5/2/1
f 4/1/2 14/2/2 7/3/2
f 21/1/3 170/2/3 24/3/3
f 7/1/4 15/2/4 8/3/4
f 1/1/2 13/2/2 4/3/2
f 2/1/3 10/2/3 1/3/3
f 36/1/4 171/2/4 33/3/4
f 8/1/4 16/2/4 9/3/4
f 3/1/3 11/2/3 2/3/3
f 12/1/1 20/2/1 11/3/1
f 18/1/2 31/2/2 14/3/2
f 20/1/3 22/2/3 19/3/3
f 21/1/3 23/2/3 20/3/3
f 10/1/2 22/2/2 17/3/2
f 11/1/1 19/2/1 10/3/1
f 27/1/2 28/2/2 25/3/2
f 25/1/2 29/2/2 26/3/2
f 17/1/3 27/2/3 10/3/3
f 10/1/1 25/2/1 13/3/1
f 14/1/4 29/2/4 18/3/4
f 13/1/1 26/2/1 14/3/1
f 32/1/4 36/2/4 33/3/4
f 31/1/4 35/2/4 32/3/4
f 15/1/1 33/2/1 16/3/1
f 6/1/1 164/2/1 3/3/1
f 14/1/1 32/2/1 15/3/1
f 165/5/5 38/6/5 167/7/5
f 166/5/5 37/6/5 165/7/5
f 28/1/2 47/2/2 29/3/2
f 30/1/2 46/2/2 28/3/2
f 168/5/5 52/8/5 37/9/5
f 18/1/2 49/2/2 34/3/2
f 37/9/5 193/10/5 38/5/5
f 23/1/3 43/2/3 22/3/3
f 22/1/2 39/2/2 17/3/2
f 34/1/4 50/2/4 35/3/4
f 24/1/3 44/2/3 23/3/3
f 17/1/3 48/2/3 30/3/3
f 35/1/4 51/2/4 36/3/4
f 29/1/4 41/2/4 18/3/4
f 48/1/6 53/2/6 46/3/6
f 53/1/6 47/2/6 46/3/6
f 49/1/6 54/2/6 50/3/6
f 54/1/6 51/2/6 50/3/6
f 52/11/6 42/7/6 55/12/6
f 55/11/6 193/7/6 52/12/6
f 44/1/6 40/2/6 56/3/6
f 43/1/6 56/2/6 39/3/6
f 42/11/5 62/7/5 55/12/5
f 41/11/4 64/7/4 54/12/4
f 39/11/2 61/7/2 53/12/2
f 56/11/3 57/7/3 39/12/3
f 55/11/5 58/7/5 40/12/5
f 54/11/4 60/7/4 42/12/4
f 53/11/2 59/7/2 41/12/2
f 40/11/3 63/7/3 56/12/3
f 62/13/1 67/2/1 58/4/1
f 60/13/1 65/2/1 62/4/1
f 59/13/1 70/2/1 64/4/1
f 66/4/1 69/14/1 71/2/1
f 60/4/1 70/14/1 69/2/1
f 58/13/1 74/2/1 63/4/1
f 58/4/1 75/14/1 73/2/1
f 63/13/1 72/2/1 57/4/1
f 71/13/5 78/2/5 66/4/5
f 75/4/5 76/14/5 80/2/5
f 66/13/5 77/2/5 65/4/5
f 65/13/5 76/2/5 67/4/5
f 75/13/3 82/2/3 73/4/3
f 79/13/4 69/2/4 84/4/4
f 73/13/1 87/2/1 74/4/1
f 82/13/5 86/2/5 73/4/5
f 74/13/1 85/2/1 72/4/1
f 72/13/2 88/2/2 81/4/2
f 83/13/2 90/2/2 68/4/2
f 68/13/1 92/2/1 70/4/1
f 69/13/5 94/2/5 84/4/5
f 70/13/1 91/2/1 69/4/1
f 90/13/4 95/2/4 92/4/4
f 95/13/4 91/2/4 92/4/4
f 86/13/3 96/2/3 87/4/3
f 96/13/3 85/2/3 87/4/3
f 84/13/4 100/2/4 79/4/4
f 83/13/2 103/2/2 93/4/2
f 79/13/5 99/2/5 78/4/5
f 89/13/3 219/2/3 96/4/3
f 88/13/2 179/2/2 81/4/2
f 76/13/5 101/2/5 80/4/5
f 96/13/3 218/2/3 88/4/3
f 94/13/5 188/2/5 84/4/5
f 80/13/3 186/2/3 82/4/3
f 78/13/5 98/2/5 77/4/5
f 77/13/5 97/2/5 76/4/5
f 93/13/4 105/2/4 95/4/4
f 95/13/4 104/2/4 94/4/4
f 82/13/5 102/2/5 89/4/5
f 178/13/2 115/2/2 103/4/2
f 104/13/5 112/2/5 188/4/5
f 103/13/4 117/2/4 105/4/4
f 105/13/4 116/2/4 104/4/4
f 102/13/3 118/2/3 219/4/3
f 99/13/5 107/2/5 98/4/5
f 98/13/5 108/2/5 97/4/5
f 186/13/5 114/2/5 102/4/5
f 218/13/2 109/2/2 179/4/2
f 118/13/6 110/2/6 120/4/6
f 113/13/6 120/2/6 109/4/6
f 117/13/6 111/2/6 119/4/6
f 116/13/6 119/2/6 112/4/6
f 110/13/3 123/2/3 120/4/3
f 183/13/5 122/2/5 110/4/5
f 120/13/3 121/2/3 109/4/3
f 109/13/2 129/2/2 180/4/2
f 111/13/4 127/2/4 119/4/4
f 181/13/2 125/2/2 111/4/2
f 119/13/4 126/2/4 112/4/4
f 112/13/5 128/2/5 184/4/5
f 128/15/5 142/2/5 132/14/5
f 126/15/5 141/2/5 128/14/5
f 140/15/5 122/2/5 124/14/5
f 121/15/2 137/2/2 129/14/2
f 132/15/5 140/2/5 124/14/5
f 138/15/2 125/2/2 130/14/2
f 127/14/4 136/16/4 143/2/4
f 143/15/4 126/2/4 127/14/4
f 129/15/2 139/2/2 131/14/2
f 123/14/3 133/16/3 144/2/3
f 144/15/3 121/2/3 123/14/3
f 131/15/2 138/2/2 130/14/2
f 211/15/2 160/2/2 210/14/2
f 221/15/2 159/2/2 211/14/2
f 208/15/2 155/2/2 220/14/2
f 207/15/3 156/2/3 214/14/3
f 163/1/5 165/2/5 162/3/5
f 162/1/5 167/2/5 164/3/5
f 38/1/5 169/2/5 167/3/5
f 166/1/5 190/2/5 168/3/5
f 21/3/1 167/4/1 169/2/1
f 3/1/3 167/2/3 12/3/3
f 9/1/1 162/2/1 6/3/1
f 33/1/1 166/2/1 16/3/1
f 16/1/4 163/2/4 9/3/4
f 59/13/2 83/2/2 68/4/2
f 72/13/2 172/2/2 57/4/2
f 57/13/2 173/2/2 61/4/2
f 61/13/2 174/2/2 59/4/2
f 173/13/2 175/2/2 174/4/2
f 83/4/2 175/14/2 178/2/2
f 173/4/2 177/14/2 176/2/2
f 172/4/2 179/14/2 177/2/2
f 175/13/2 111/2/2 178/4/2
f 177/13/2 182/2/2 176/4/2
f 179/13/2 180/2/2 177/4/2
f 176/13/2 181/2/2 175/4/2
f 182/13/2 129/2/2 131/4/2
f 130/13/2 182/2/2 131/4/2
f 132/13/5 184/2/5 128/4/5
f 124/13/5 185/2/5 132/4/5
f 106/13/6 185/2/6 107/4/6
f 107/4/6 183/14/6 108/2/6
f 110/13/5 187/2/5 183/4/5
f 183/13/3 97/2/3 108/4/3
f 187/13/6 101/2/6 97/4/6
f 184/13/5 188/2/5 112/4/5
f 99/4/6 188/14/6 189/2/6
f 189/13/4 106/2/4 99/4/4
f 190/1/5 191/2/5 168/3/5
f 51/1/4 190/2/4 36/3/4
f 42/1/6 192/2/6 51/3/6
f 38/1/5 194/2/5 170/3/5
f 45/1/6 193/2/6 40/3/6
f 24/1/3 194/2/3 45/3/3
f 134/15/2 199/2/2 137/14/2
f 142/15/5 202/2/5 140/14/5
f 133/15/3 206/2/3 144/14/3
f 137/15/2 201/2/2 139/14/2
f 138/15/2 198/2/2 136/14/2
f 135/15/5 203/2/5 141/14/5
f 144/15/3 196/2/3 134/14/3
f 139/15/2 200/2/2 138/14/2
f 143/15/4 197/2/4 135/14/4
f 140/15/5 195/2/5 133/14/5
f 141/15/5 204/2/5 142/14/5
f 136/15/4 205/2/4 143/14/4
f 205/15/4 209/2/4 197/14/4
f 202/15/5 207/2/5 195/14/5
f 203/15/5 212/2/5 204/14/5
f 198/15/4 213/2/4 205/14/4
f 196/15/2 220/2/2 199/14/2
f 204/15/5 222/2/5 202/14/5
f 195/15/3 214/2/3 206/14/3
f 199/15/2 221/2/2 201/14/2
f 200/15/2 210/2/2 198/14/2
f 197/15/5 223/2/5 203/14/5
f 206/15/3 208/2/3 196/14/3
f 201/15/2 211/2/2 200/14/2
f 154/15/2 145/2/2 159/14/2
f 157/15/4 152/2/4 161/14/4
f 153/15/5 150/2/5 225/14/5
f 155/15/2 149/2/2 154/14/2
f 159/15/2 226/2/2 160/14/2
f 217/15/5 215/2/5 158/14/5
f 224/15/2 216/2/2 155/14/2
f 225/15/3 147/2/3 156/14/3
f 158/15/5 148/2/5 153/14/5
f 160/15/4 146/2/4 157/14/4
f 161/15/5 227/2/5 217/14/5
f 156/15/3 151/2/3 224/14/3
f 222/15/5 225/2/5 207/14/5
f 113/2/3 219/14/3 118/14/3
f 213/15/4 161/2/4 209/14/4
f 223/15/5 158/2/5 212/14/5
f 214/15/3 224/2/3 208/14/3
f 220/15/2 154/2/2 221/14/2
f 210/15/4 157/2/4 213/14/4
f 212/15/5 153/2/5 222/14/5
f 209/15/5 217/2/5 223/14/5
f 148/15/5 239/2/5 150/14/5
f 150/15/3 231/2/3 147/14/3
f 227/15/5 229/2/5 215/14/5
f 145/15/2 235/2/2 226/14/2
f 151/15/2 232/2/2 216/14/2
f 147/15/3 238/2/3 151/14/3
f 215/15/5 234/2/5 148/14/5
f 146/15/4 236/2/4 152/14/4
f 152/15/5 237/2/5 227/14/5
f 216/15/2 233/2/2 149/14/2
f 226/15/4 230/2/4 146/14/4
f 149/15/2 228/2/2 145/14/2
f 237/15/6 240/2/6 229/14/6
f 241/15/6 236/2/6 230/14/6
f 241/15/6 235/2/6 228/14/6
f 233/14/6 241/16/6 228/2/6
f 239/15/6 242/2/6 231/14/6
f 231/14/6 232/16/6 238/2/6
f 242/15/6 233/2/6 232/14/6
f 229/15/6 242/2/6 234/14/6
f 5/1/1 8/4/1 9/2/1
f 4/1/1 7/4/1 8/2/1
f 2/1/1 5/4/1 6/2/1
f 2/3/1 1/1/1 4/4/1
f 4/1/2 13/4/2 14/2/2
f 21/1/3 169/4/3 170/2/3
f 7/1/4 14/4/4 15/2/4
f 1/1/2 10/4/2 13/2/2
f 2/1/3 11/4/3 10/2/3
f 36/1/4 190/4/4 171/2/4
f 8/1/4 15/4/4 16/2/4
f 3/1/3 12/4/3 11/2/3
f 12/1/1 21/4/1 20/2/1
f 18/1/2 34/4/2 31/2/2
f 20/1/3 23/4/3 22/2/3
f 21/1/3 24/4/3 23/2/3
f 10/1/2 19/4/2 22/2/2
f 11/1/1 20/4/1 19/2/1
f 27/1/2 30/4/2 28/2/2
f 25/1/2 28/4/2 29/2/2
f 17/1/3 30/4/3 27/2/3
f 10/1/1 27/4/1 25/2/1
f 14/1/4 26/4/4 29/2/4
f 13/1/1 25/4/1 26/2/1
f 32/1/4 35/4/4 36/2/4
f 31/1/4 34/4/4 35/2/4
f 15/1/1 32/4/1 33/2/1
f 6/1/1 162/4/1 164/2/1
f 14/1/1 31/4/1 32/2/1
f 165/5/5 37/10/5 38/6/5
f 166/5/5 168/10/5 37/6/5
f 28/1/2 46/4/2 47/2/2
f 30/1/2 48/4/2 46/2/2
f 168/5/5 191/10/5 52/8/5
f 18/1/2 41/4/2 49/2/2
f 37/9/5 52/8/5 193/10/5
f 23/1/3 44/4/3 43/2/3
f 22/1/2 43/4/2 39/2/2
f 34/1/4 49/4/4 50/2/4
f 24/1/3 45/4/3 44/2/3
f 17/1/3 39/4/3 48/2/3
f 35/1/4 50/4/4 51/2/4
f 29/1/4 47/4/4 41/2/4
f 48/1/6 39/4/6 53/2/6
f 53/1/6 41/4/6 47/2/6
f 49/1/6 41/4/6 54/2/6
f 54/1/6 42/4/6 51/2/6
f 52/11/6 191/6/6 42/7/6
f 55/11/6 40/6/6 193/7/6
f 44/1/6 45/4/6 40/2/6
f 43/1/6 44/4/6 56/2/6
f 42/11/5 60/6/5 62/7/5
f 41/11/4 59/6/4 64/7/4
f 39/11/2 57/6/2 61/7/2
f 56/11/3 63/6/3 57/7/3
f 55/11/5 62/6/5 58/7/5
f 54/11/4 64/6/4 60/7/4
f 53/11/2 61/6/2 59/7/2
f 40/11/3 58/6/3 63/7/3
f 62/13/1 65/14/1 67/2/1
f 60/13/1 66/14/1 65/2/1
f 59/13/1 68/14/1 70/2/1
f 66/4/1 60/13/1 69/14/1
f 60/4/1 64/13/1 70/14/1
f 58/13/1 73/14/1 74/2/1
f 58/4/1 67/13/1 75/14/1
f 63/13/1 74/14/1 72/2/1
f 71/13/5 79/14/5 78/2/5
f 75/4/5 67/13/5 76/14/5
f 66/13/5 78/14/5 77/2/5
f 65/13/5 77/14/5 76/2/5
f 75/13/3 80/14/3 82/2/3
f 79/13/4 71/14/4 69/2/4
f 73/13/1 86/14/1 87/2/1
f 82/13/5 89/14/5 86/2/5
f 74/13/1 87/14/1 85/2/1
f 72/13/2 85/14/2 88/2/2
f 83/13/2 93/14/2 90/2/2
f 68/13/1 90/14/1 92/2/1
f 69/13/5 91/14/5 94/2/5
f 70/13/1 92/14/1 91/2/1
f 90/13/4 93/14/4 95/2/4
f 95/13/4 94/14/4 91/2/4
f 86/13/3 89/14/3 96/2/3
f 96/13/3 88/14/3 85/2/3
f 84/13/4 188/14/4 100/2/4
f 83/13/2 178/14/2 103/2/2
f 79/13/5 100/14/5 99/2/5
f 89/13/3 102/14/3 219/2/3
f 88/13/2 218/14/2 179/2/2
f 76/13/5 97/14/5 101/2/5
f 96/13/3 219/14/3 218/2/3
f 94/13/5 104/14/5 188/2/5
f 80/13/3 101/14/3 186/2/3
f 78/13/5 99/14/5 98/2/5
f 77/13/5 98/14/5 97/2/5
f 93/13/4 103/14/4 105/2/4
f 95/13/4 105/14/4 104/2/4
f 82/13/5 186/14/5 102/2/5
f 178/13/2 111/14/2 115/2/2
f 104/13/5 116/14/5 112/2/5
f 103/13/4 115/14/4 117/2/4
f 105/13/4 117/14/4 116/2/4
f 102/13/3 114/14/3 118/2/3
f 99/13/5 106/14/5 107/2/5
f 98/13/5 107/14/5 108/2/5
f 186/13/5 110/14/5 114/2/5
f 218/13/2 113/14/2 109/2/2
f 118/13/6 114/14/6 110/2/6
f 113/13/6 118/14/6 120/2/6
f 117/13/6 115/14/6 111/2/6
f 116/13/6 117/14/6 119/2/6
f 110/13/3 122/14/3 123/2/3
f 183/13/5 124/14/5 122/2/5
f 120/13/3 123/14/3 121/2/3
f 109/13/2 121/14/2 129/2/2
f 111/13/4 125/14/4 127/2/4
f 181/13/2 130/14/2 125/2/2
f 119/13/4 127/14/4 126/2/4
f 112/13/5 126/14/5 128/2/5
f 128/15/5 141/16/5 142/2/5
f 126/15/5 135/16/5 141/2/5
f 140/15/5 133/16/5 122/2/5
f 121/15/2 134/16/2 137/2/2
f 132/15/5 142/16/5 140/2/5
f 138/15/2 136/16/2 125/2/2
f 127/14/4 125/15/4 136/16/4
f 143/15/4 135/16/4 126/2/4
f 129/15/2 137/16/2 139/2/2
f 123/14/3 122/15/3 133/16/3
f 144/15/3 134/16/3 121/2/3
f 131/15/2 139/16/2 138/2/2
f 211/15/2 159/16/2 160/2/2
f 221/15/2 154/16/2 159/2/2
f 208/15/2 224/16/2 155/2/2
f 207/15/3 225/16/3 156/2/3
f 163/1/5 166/4/5 165/2/5
f 162/1/5 165/4/5 167/2/5
f 38/1/5 170/4/5 169/2/5
f 166/1/5 171/4/5 190/2/5
f 21/3/1 12/1/1 167/4/1
f 3/1/3 164/4/3 167/2/3
f 9/1/1 163/4/1 162/2/1
f 33/1/1 171/4/1 166/2/1
f 16/1/4 166/4/4 163/2/4
f 59/13/2 174/14/2 83/2/2
f 72/13/2 81/14/2 172/2/2
f 57/13/2 172/14/2 173/2/2
f 61/13/2 173/14/2 174/2/2
f 173/13/2 176/14/2 175/2/2
f 83/4/2 174/13/2 175/14/2
f 173/4/2 172/13/2 177/14/2
f 172/4/2 81/13/2 179/14/2
f 175/13/2 181/14/2 111/2/2
f 177/13/2 180/14/2 182/2/2
f 179/13/2 109/14/2 180/2/2
f 176/13/2 182/14/2 181/2/2
f 182/13/2 180/14/2 129/2/2
f 130/13/2 181/14/2 182/2/2
f 132/13/5 185/14/5 184/2/5
f 124/13/5 183/14/5 185/2/5
f 106/13/6 184/14/6 185/2/6
f 107/4/6 185/13/6 183/14/6
f 110/13/5 186/14/5 187/2/5
f 183/13/3 187/14/3 97/2/3
f 187/13/6 186/14/6 101/2/6
f 184/13/5 189/14/5 188/2/5
f 99/4/6 100/13/6 188/14/6
f 189/13/4 184/14/4 106/2/4
f 190/1/5 192/4/5 191/2/5
f 51/1/4 192/4/4 190/2/4
f 42/1/6 191/4/6 192/2/6
f 38/1/5 193/4/5 194/2/5
f 45/1/6 194/4/6 193/2/6
f 24/1/3 170/4/3 194/2/3
f 134/15/2 196/16/2 199/2/2
f 142/15/5 204/16/5 202/2/5
f 133/15/3 195/16/3 206/2/3
f 137/15/2 199/16/2 201/2/2
f 138/15/2 200/16/2 198/2/2
f 135/15/5 197/16/5 203/2/5
f 144/15/3 206/16/3 196/2/3
f 139/15/2 201/16/2 200/2/2
f 143/15/4 205/16/4 197/2/4
f 140/15/5 202/16/5 195/2/5
f 141/15/5 203/16/5 204/2/5
f 136/15/4 198/16/4 205/2/4
f 205/15/4 213/16/4 209/2/4
f 202/15/5 222/16/5 207/2/5
f 203/15/5 223/16/5 212/2/5
f 198/15/4 210/16/4 213/2/4
f 196/15/2 208/16/2 220/2/2
f 204/15/5 212/16/5 222/2/5
f 195/15/3 207/16/3 214/2/3
f 199/15/2 220/16/2 221/2/2
f 200/15/2 211/16/2 210/2/2
f 197/15/5 209/16/5 223/2/5
f 206/15/3 214/16/3 208/2/3
f 201/15/2 221/16/2 211/2/2
f 154/15/2 149/16/2 145/2/2
f 157/15/4 146/16/4 152/2/4
f 153/15/5 148/16/5 150/2/5
f 155/15/2 216/16/2 149/2/2
f 159/15/2 145/16/2 226/2/2
f 217/15/5 227/16/5 215/2/5
f 224/15/2 151/16/2 216/2/2
f 225/15/3 150/16/3 147/2/3
f 158/15/5 215/16/5 148/2/5
f 160/15/4 226/16/4 146/2/4
f 161/15/5 152/16/5 227/2/5
f 156/15/3 147/16/3 151/2/3
f 222/15/5 153/16/5 225/2/5
f 113/2/3 218/2/3 219/14/3
f 213/15/4 157/16/4 161/2/4
f 223/15/5 217/16/5 158/2/5
f 214/15/3 156/16/3 224/2/3
f 220/15/2 155/16/2 154/2/2
f 210/15/4 160/16/4 157/2/4
f 212/15/5 158/16/5 153/2/5
f 209/15/5 161/16/5 217/2/5
f 148/15/5 234/16/5 239/2/5
f 150/15/3 239/16/3 231/2/3
f 227/15/5 237/16/5 229/2/5
f 145/15/2 228/16/2 235/2/2
f 151/15/2 238/16/2 232/2/2
f 147/15/3 231/16/3 238/2/3
f 215/15/5 229/16/5 234/2/5
f 146/15/4 230/16/4 236/2/4
f 152/15/5 236/16/5 237/2/5
f 216/15/2 232/16/2 233/2/2
f 226/15/4 235/16/4 230/2/4
f 149/15/2 233/16/2 228/2/2
f 237/15/6 241/16/6 240/2/6
f 241/15/6 237/16/6 236/2/6
f 241/15/6 230/16/6 235/2/6
f 233/14/6 240/15/6 241/16/6
f 239/15/6 234/16/6 242/2/6
f 231/14/6 242/15/6 232/16/6
f 242/15/6 240/16/6 233/2/6
f 229/15/6 240/16/6 242/2/6
