# Blender 4.5.0
# www.blender.org
o Cube
o Sphere
o Sphere.001
v -0.125000 -0.125000 1.375000
v -0.125000 0.000000 1.375000
v -0.125000 0.125000 1.375000
v -0.000000 -0.125000 1.375000
v 0.000000 0.000000 1.375000
v 0.000000 0.125000 1.375000
v 0.125000 -0.125000 1.375000
v 0.125000 -0.000000 1.375000
v 0.125000 0.125000 1.375000
v -0.125000 -0.125000 1.250000
v -0.125000 0.000000 1.250000
v -0.125000 0.125000 1.250000
v -0.000000 -0.125000 1.250000
v 0.125000 -0.125000 1.250000
v 0.125000 -0.000000 1.250000
v 0.125000 0.125000 1.250000
v -0.125000 -0.125000 1.125000
v 0.125000 -0.125000 1.125000
v -0.250000 -0.125000 1.250000
v -0.250000 0.000000 1.250000
v -0.250000 0.125000 1.250000
v -0.250000 -0.125000 1.125000
v -0.250000 0.000000 1.125000
v -0.250000 0.125000 1.125000
v -0.000000 -0.250000 1.250000
v 0.125000 -0.250000 1.250000
v -0.125000 -0.250000 1.250000
v -0.000000 -0.250000 1.125000
v 0.125000 -0.250000 1.125000
v -0.125000 -0.250000 1.125000
v 0.250000 -0.125000 1.250000
v 0.250000 -0.000000 1.250000
v 0.250000 0.125000 1.250000
v 0.250000 -0.125000 1.125000
v 0.250000 -0.000000 1.125000
v 0.250000 0.125000 1.125000
v 0.000000 0.250000 1.125000
v -0.125000 0.250000 1.125000
v -0.125000 -0.125000 1.000000
v -0.125000 0.125000 1.000000
v 0.125000 -0.125000 1.000000
v 0.125000 0.125000 1.000000
v -0.250000 -0.125000 1.000000
v -0.250000 0.000000 1.000000
v -0.250000 0.125000 1.000000
v -0.000000 -0.250000 1.000000
v 0.125000 -0.250000 1.000000
v -0.125000 -0.250000 1.000000
v 0.250000 -0.125000 1.000000
v 0.250000 -0.000000 1.000000
v 0.250000 0.125000 1.000000
v 0.000000 0.250000 1.000000
v -0.000000 -0.125000 1.000000
v 0.125000 -0.000000 1.000000
v 0.000000 0.125000 1.000000
v -0.125000 0.000000 1.000000
v -0.125000 -0.125000 0.875000
v -0.125000 0.125000 0.875000
v 0.125000 -0.125000 0.875000
v 0.125000 0.125000 0.875000
v -0.000000 -0.125000 0.875000
v 0.125000 -0.000000 0.875000
v 0.000000 0.125000 0.875000
v -0.125000 0.000000 0.875000
v 0.250000 -0.125000 0.875000
v 0.250000 0.125000 0.875000
v 0.250000 -0.000000 0.875000
v -0.250000 -0.125000 0.875000
v -0.250000 0.125000 0.875000
v -0.250000 0.000000 0.875000
v -0.125000 0.250000 0.875000
v 0.125000 0.250000 0.875000
v 0.000000 0.250000 0.875000
v 0.250000 0.250000 0.875000
v -0.250000 0.250000 0.875000
v 0.375000 -0.125000 0.875000
v 0.375000 0.125000 0.875000
v 0.375000 -0.000000 0.875000
v 0.375000 0.250000 0.875000
v -0.375000 -0.125000 0.875000
v -0.375000 0.125000 0.875000
v -0.375000 0.000000 0.875000
v -0.375000 0.250000 0.875000
v -0.125000 0.250000 0.750000
v 0.125000 0.250000 0.750000
v 0.000000 0.250000 0.750000
v 0.250000 0.250000 0.750000
v -0.250000 0.250000 0.750000
v 0.375000 0.250000 0.750000
v -0.375000 0.250000 0.750000
v -0.375000 -0.125000 0.750000
v -0.375000 0.125000 0.750000
v 0.375000 -0.125000 0.750000
v 0.375000 0.125000 0.750000
v -0.500000 -0.125000 0.875000
v -0.500000 0.125000 0.875000
v -0.500000 0.000000 0.875000
v -0.500000 -0.125000 0.750000
v -0.500000 0.125000 0.750000
v 0.500000 -0.125000 0.875000
v 0.500000 0.125000 0.875000
v 0.500000 -0.000000 0.875000
v 0.500000 -0.125000 0.750000
v 0.500000 0.125000 0.750000
v 0.500000 -0.000000 0.750000
v -0.500000 0.000000 0.750000
v -0.125000 0.250000 0.625000
v 0.125000 0.250000 0.625000
v 0.000000 0.250000 0.625000
v 0.250000 0.250000 0.625000
v -0.250000 0.250000 0.625000
v 0.375000 0.250000 0.625000
v -0.375000 0.250000 0.625000
v -0.500000 0.125000 0.625000
v 0.500000 -0.125000 0.625000
v 0.500000 0.125000 0.625000
v 0.500000 -0.000000 0.625000
v -0.125000 0.250000 0.500000
v 0.125000 0.250000 0.500000
v 0.000000 0.250000 0.500000
v 0.250000 0.250000 0.500000
v -0.250000 0.250000 0.500000
v -0.375000 -0.125000 0.500000
v -0.375000 0.125000 0.500000
v 0.375000 -0.125000 0.500000
v 0.375000 0.125000 0.500000
v -0.500000 -0.125000 0.500000
v -0.500000 0.125000 0.500000
v 0.500000 -0.125000 0.500000
v 0.500000 0.125000 0.500000
v 0.500000 -0.000000 0.500000
v -0.500000 0.000000 0.500000
v 0.375000 -0.000000 0.500000
v -0.375000 0.000000 0.500000
v -0.375000 -0.125000 0.375000
v -0.375000 0.125000 0.375000
v -0.375000 0.000000 0.375000
v -0.250000 0.125000 0.375000
v -0.250000 -0.125000 0.375000
v 0.375000 -0.125000 0.375000
v 0.375000 0.125000 0.375000
v 0.375000 -0.000000 0.375000
v 0.250000 0.125000 0.375000
v 0.250000 -0.125000 0.375000
v -0.125000 -0.125000 0.375000
v 0.125000 -0.125000 0.375000
v -0.000000 -0.125000 0.375000
v -0.125000 0.125000 0.375000
v 0.125000 0.125000 0.375000
v 0.000000 0.125000 0.375000
v 0.250000 -0.000000 0.375000
v -0.250000 0.000000 0.375000
v -0.250000 0.125000 0.250000
v -0.250000 -0.125000 0.250000
v 0.250000 0.125000 0.250000
v 0.250000 -0.125000 0.250000
v -0.125000 -0.125000 0.250000
v 0.125000 -0.125000 0.250000
v -0.000000 -0.125000 0.250000
v -0.125000 0.125000 0.250000
v 0.125000 0.125000 0.250000
v 0.000000 0.125000 0.250000
v 0.250000 -0.000000 0.250000
v -0.250000 0.000000 0.250000
v 0.125000 -0.125000 -0.375000
v 0.250000 -0.000000 -0.375000
v -0.250000 0.000000 -0.375000
v -0.125000 0.125000 -0.375000
v -0.000000 -0.125000 -0.375000
v -0.125000 -0.125000 -0.375000
v 0.000000 0.125000 -0.375000
v -0.250000 0.125000 -0.375000
v -0.250000 0.125000 -0.250000
v -0.250000 -0.125000 -0.250000
v 0.125000 0.125000 -0.250000
v 0.250000 0.125000 -0.250000
v 0.250000 -0.125000 -0.250000
v -0.125000 0.125000 -0.125000
v -0.000000 -0.125000 -0.125000
v -0.125000 -0.125000 -0.125000
v -0.250000 0.000000 -0.125000
v 0.250000 -0.000000 -0.125000
v 0.000000 0.125000 -0.125000
v 0.125000 -0.125000 -0.125000
v 0.250000 -0.125000 -0.125000
v 0.250000 0.125000 -0.125000
v 0.000000 0.250000 1.375000
v 0.125000 0.250000 1.375000
v -0.125000 0.250000 1.375000
v 0.000000 0.250000 1.250000
v 0.125000 0.250000 1.250000
v -0.125000 0.250000 1.250000
v 0.125000 0.250000 1.125000
v -0.250000 0.250000 1.250000
v -0.250000 0.250000 1.125000
v 0.250000 0.250000 1.250000
v -0.125000 -0.125000 0.750000
v 0.125000 -0.125000 0.750000
v -0.000000 -0.125000 0.750000
v 0.250000 -0.125000 0.750000
v -0.250000 -0.125000 0.750000
v -0.125000 -0.125000 0.625000
v 0.125000 -0.125000 0.625000
v -0.000000 -0.125000 0.625000
v 0.250000 -0.125000 0.625000
v -0.250000 -0.125000 0.625000
v 0.375000 -0.125000 0.625000
v -0.375000 -0.125000 0.625000
v -0.125000 -0.125000 0.500000
v 0.125000 -0.125000 0.500000
v -0.000000 -0.125000 0.500000
v 0.250000 -0.125000 0.500000
v -0.250000 -0.125000 0.500000
v -0.250000 0.125000 0.500000
v 0.250000 0.125000 0.500000
v -0.125000 0.125000 0.500000
v 0.125000 0.125000 0.500000
v 0.000000 0.125000 0.500000
v -0.375000 0.125000 0.625000
v -0.250000 0.125000 0.625000
v 0.375000 0.125000 0.625000
v 0.250000 0.125000 0.625000
v 0.250000 0.250000 1.125000
v 0.125000 0.250000 1.000000
v 0.250000 0.250000 1.000000
v -0.125000 0.250000 1.000000
v -0.250000 0.250000 1.000000
v -0.250000 0.125000 0.125000
v -0.250000 -0.125000 0.125000
v 0.250000 0.125000 0.125000
v 0.250000 -0.125000 0.125000
v -0.125000 -0.125000 0.125000
v 0.125000 -0.125000 0.125000
v -0.000000 -0.125000 0.125000
v -0.125000 0.125000 0.125000
v 0.125000 0.125000 0.125000
v 0.000000 0.125000 0.125000
v 0.250000 -0.000000 0.125000
v -0.250000 0.000000 0.125000
v -0.250000 0.125000 0.000000
v -0.250000 -0.125000 0.000000
v 0.250000 0.125000 0.000000
v 0.250000 -0.125000 0.000000
v 0.125000 -0.125000 0.000000
v 0.000000 0.125000 0.000000
v 0.250000 -0.000000 0.000000
v -0.250000 0.000000 0.000000
v 0.125000 -0.125000 -0.250000
v 0.000000 0.125000 -0.250000
v 0.250000 -0.000000 -0.250000
v -0.250000 0.000000 -0.250000
v -0.125000 -0.125000 -0.250000
v -0.000000 -0.125000 -0.250000
v -0.125000 0.125000 -0.250000
v 0.125000 0.125000 -0.125000
v -0.500000 -0.125000 0.625000
v -0.500000 0.000000 0.625000
v -0.125000 -0.125000 0.000000
v -0.000000 -0.125000 0.000000
v -0.125000 0.125000 0.000000
v 0.125000 0.125000 0.000000
v -0.250000 -0.125000 -0.125000
v -0.250000 0.125000 -0.125000
v 0.250000 -0.125000 -0.375000
v 0.250000 0.125000 -0.375000
v 0.125000 0.125000 -0.375000
v -0.250000 -0.125000 -0.375000
v 0.125000 -0.125000 -0.500000
v 0.000000 0.125000 -0.500000
v 0.250000 -0.000000 -0.500000
v -0.250000 0.000000 -0.500000
v -0.125000 -0.125000 -0.500000
v -0.000000 -0.125000 -0.500000
v -0.125000 0.125000 -0.500000
v 0.250000 -0.125000 -0.500000
v 0.250000 0.125000 -0.500000
v 0.125000 0.125000 -0.500000
v -0.250000 -0.125000 -0.500000
v -0.250000 0.125000 -0.500000
v 0.000000 0.000000 -0.500000
v 0.125000 -0.000000 -0.500000
v -0.125000 0.000000 -0.500000
vn -0.0000 -0.0000 1.0000
vn -0.0000 -1.0000 -0.0000
vn -1.0000 -0.0000 -0.0000
vn 1.0000 -0.0000 -0.0000
vn -0.0000 1.0000 -0.0000
vn -0.0000 -0.0000 -1.0000
vt 0.000000 0.500000
vt 0.250000 0.250000
vt 0.250000 0.500000
vt 0.000000 0.250000
vt 0.500000 1.000000
vt 0.250000 0.750000
vt 0.250000 1.000000
vt 0.750000 0.750000
vt 0.750000 1.000000
vt 0.500000 0.750000
vt 0.000000 0.750000
vt 0.000000 1.000000
vt 0.000000 0.000000
vt 0.250000 0.000000
vt 0.500000 0.000000
vt 0.500000 0.250000
s 0
f 5/1/1 9/2/1 6/3/1
f 4/1/1 8/2/1 5/3/1
f 2/1/1 6/2/1 3/3/1
f 2/3/1 4/4/1 5/2/1
f 4/1/2 14/2/2 7/3/2
f 21/1/3 195/2/3 24/3/3
f 7/1/4 15/2/4 8/3/4
f 1/1/2 13/2/2 4/3/2
f 2/1/3 10/2/3 1/3/3
f 36/1/4 196/2/4 33/3/4
f 8/1/4 16/2/4 9/3/4
f 3/1/3 11/2/3 2/3/3
f 12/1/1 20/2/1 11/3/1
f 18/1/2 31/2/2 14/3/2
f 20/1/3 22/2/3 19/3/3
f 21/1/3 23/2/3 20/3/3
f 10/1/2 22/2/2 17/3/2
f 11/1/1 19/2/1 10/3/1
f 27/1/2 28/2/2 25/3/2
f 25/1/2 29/2/2 26/3/2
f 17/1/3 27/2/3 10/3/3
f 10/1/1 25/2/1 13/3/1
f 14/1/4 29/2/4 18/3/4
f 13/1/1 26/2/1 14/3/1
f 32/1/4 36/2/4 33/3/4
f 31/1/4 35/2/4 32/3/4
f 15/1/1 33/2/1 16/3/1
f 6/1/1 189/2/1 3/3/1
f 14/1/1 32/2/1 15/3/1
f 190/5/5 38/6/5 192/7/5
f 191/5/5 37/6/5 190/7/5
f 28/1/2 47/2/2 29/3/2
f 30/1/2 46/2/2 28/3/2
f 193/5/5 52/8/5 37/9/5
f 18/1/2 49/2/2 34/3/2
f 37/9/5 226/10/5 38/5/5
f 23/1/3 43/2/3 22/3/3
f 22/1/2 39/2/2 17/3/2
f 34/1/4 50/2/4 35/3/4
f 24/1/3 44/2/3 23/3/3
f 17/1/3 48/2/3 30/3/3
f 35/1/4 51/2/4 36/3/4
f 29/1/4 41/2/4 18/3/4
f 48/1/6 53/2/6 46/3/6
f 53/1/6 47/2/6 46/3/6
f 49/1/6 54/2/6 50/3/6
f 54/1/6 51/2/6 50/3/6
f 52/11/6 42/7/6 55/12/6
f 55/11/6 226/7/6 52/12/6
f 44/1/6 40/2/6 56/3/6
f 43/1/6 56/2/6 39/3/6
f 42/11/5 63/7/5 55/12/5
f 41/11/4 62/7/4 54/12/4
f 39/11/2 61/7/2 53/12/2
f 56/11/3 57/7/3 39/12/3
f 55/11/5 58/7/5 40/12/5
f 54/11/4 60/7/4 42/12/4
f 53/11/2 59/7/2 41/12/2
f 40/11/3 64/7/3 56/12/3
f 62/13/1 66/2/1 60/4/1
f 59/13/1 67/2/1 62/4/1
f 64/13/1 68/2/1 57/4/1
f 58/13/1 70/2/1 64/4/1
f 63/13/1 71/2/1 58/4/1
f 69/4/1 71/14/1 75/2/1
f 60/13/1 73/2/1 63/4/1
f 66/13/1 72/2/1 60/4/1
f 65/13/1 78/2/1 67/4/1
f 66/13/1 79/2/1 74/4/1
f 67/13/1 77/2/1 66/4/1
f 69/13/1 82/2/1 70/4/1
f 75/13/1 81/2/1 69/4/1
f 70/13/1 80/2/1 68/4/1
f 79/13/5 87/2/5 74/4/5
f 74/13/5 85/2/5 72/4/5
f 75/13/5 90/2/5 83/4/5
f 72/13/5 86/2/5 73/4/5
f 71/13/5 88/2/5 75/4/5
f 73/13/5 84/2/5 71/4/5
f 83/13/3 92/2/3 81/4/3
f 89/13/4 77/2/4 94/4/4
f 81/13/1 97/2/1 82/4/1
f 92/13/5 96/2/5 81/4/5
f 82/13/1 95/2/1 80/4/1
f 80/13/2 98/2/2 91/4/2
f 93/13/2 100/2/2 76/4/2
f 76/13/1 102/2/1 78/4/1
f 77/13/5 104/2/5 94/4/5
f 78/13/1 101/2/1 77/4/1
f 100/13/4 105/2/4 102/4/4
f 105/13/4 101/2/4 102/4/4
f 96/13/3 106/2/3 97/4/3
f 106/13/3 95/2/3 97/4/3
f 94/13/4 112/2/4 89/4/4
f 93/13/2 115/2/2 103/4/2
f 89/13/5 110/2/5 87/4/5
f 99/13/3 257/2/3 106/4/3
f 98/13/2 208/2/2 91/4/2
f 88/13/5 113/2/5 90/4/5
f 106/13/3 256/2/3 98/4/3
f 104/13/5 221/2/5 94/4/5
f 90/13/3 219/2/3 92/4/3
f 85/13/5 109/2/5 86/4/5
f 86/13/5 107/2/5 84/4/5
f 103/13/4 117/2/4 105/4/4
f 87/13/5 108/2/5 85/4/5
f 105/13/4 116/2/4 104/4/4
f 92/13/5 114/2/5 99/4/5
f 84/13/5 111/2/5 88/4/5
f 107/13/5 122/2/5 111/4/5
f 207/13/2 129/2/2 115/4/2
f 116/13/5 126/2/5 221/4/5
f 115/13/4 131/2/4 117/4/4
f 117/13/4 130/2/4 116/4/4
f 114/13/3 132/2/3 257/4/3
f 108/13/5 120/2/5 109/4/5
f 109/13/5 118/2/5 107/4/5
f 219/13/5 128/2/5 114/4/5
f 110/13/5 119/2/5 108/4/5
f 256/13/2 123/2/2 208/4/2
f 132/13/6 124/2/6 134/4/6
f 127/13/6 134/2/6 123/4/6
f 131/13/6 125/2/6 133/4/6
f 130/13/6 133/2/6 126/4/6
f 124/13/3 137/2/3 134/4/3
f 214/13/5 136/2/5 124/4/5
f 134/13/3 135/2/3 123/4/3
f 123/13/2 139/2/2 213/4/2
f 125/13/4 142/2/4 133/4/4
f 212/13/2 140/2/2 125/4/2
f 133/13/4 141/2/4 126/4/4
f 126/13/5 143/2/5 215/4/5
f 151/13/6 141/2/6 142/4/6
f 142/4/6 144/14/6 151/2/6
f 137/4/6 138/14/6 152/2/6
f 152/13/6 135/2/6 137/4/6
f 149/15/5 162/2/5 150/14/5
f 139/15/2 157/2/2 145/14/2
f 152/15/3 154/2/3 139/14/3
f 151/15/4 155/2/4 143/14/4
f 150/15/5 160/2/5 148/14/5
f 146/15/2 156/2/2 144/14/2
f 143/15/5 161/2/5 149/14/5
f 144/15/4 163/2/4 151/14/4
f 145/15/2 159/2/2 147/14/2
f 148/15/5 153/2/5 138/14/5
f 138/15/3 164/2/3 152/14/3
f 147/15/2 158/2/2 146/14/2
f 254/15/5 172/2/5 173/14/5
f 249/15/5 168/2/5 254/14/5
f 253/15/2 165/2/2 248/14/2
f 177/15/4 166/2/4 250/14/4
f 252/15/2 169/2/2 253/14/2
f 175/15/5 171/2/5 249/14/5
f 176/15/5 266/2/5 175/14/5
f 250/15/4 265/2/4 176/14/4
f 244/15/2 185/2/2 243/14/2
f 259/15/2 184/2/2 244/14/2
f 241/15/2 180/2/2 258/14/2
f 240/15/3 181/2/3 247/14/3
f 251/15/3 267/2/3 174/14/3
f 174/15/2 170/2/2 252/14/2
f 248/15/2 264/2/2 177/14/2
f 173/15/3 167/2/3 251/14/3
f 188/1/5 190/2/5 187/3/5
f 187/1/5 192/2/5 189/3/5
f 38/1/5 194/2/5 192/3/5
f 191/1/5 223/2/5 193/3/5
f 21/3/1 192/4/1 194/2/1
f 3/1/3 192/2/3 12/3/3
f 9/1/1 187/2/1 6/3/1
f 33/1/1 191/2/1 16/3/1
f 16/1/4 188/2/4 9/3/4
f 65/13/2 93/2/2 76/4/2
f 80/13/2 201/2/2 68/4/2
f 57/13/2 199/2/2 61/4/2
f 59/13/2 200/2/2 65/4/2
f 61/13/2 198/2/2 59/4/2
f 68/13/2 197/2/2 57/4/2
f 199/13/2 203/2/2 198/4/2
f 200/13/2 207/2/2 93/4/2
f 198/13/2 205/2/2 200/4/2
f 197/13/2 204/2/2 199/4/2
f 91/13/2 206/2/2 201/4/2
f 201/13/2 202/2/2 197/4/2
f 205/13/2 125/2/2 207/4/2
f 203/13/2 212/2/2 205/4/2
f 202/13/2 211/2/2 204/4/2
f 208/13/2 213/2/2 206/4/2
f 206/13/2 209/2/2 202/4/2
f 204/13/2 210/2/2 203/4/2
f 209/13/2 139/2/2 145/4/2
f 211/13/2 145/2/2 147/4/2
f 146/13/2 211/2/2 147/4/2
f 212/13/2 146/2/2 144/4/2
f 149/13/5 215/2/5 143/4/5
f 150/13/5 217/2/5 149/4/5
f 138/13/5 216/2/5 148/4/5
f 148/13/5 218/2/5 150/4/5
f 119/4/6 215/14/6 217/2/6
f 119/13/6 218/2/6 120/4/6
f 218/13/6 118/2/6 120/4/6
f 118/4/6 214/14/6 122/2/6
f 124/13/5 220/2/5 214/4/5
f 214/13/3 111/2/3 122/4/3
f 220/13/6 113/2/6 111/4/6
f 215/13/5 221/2/5 126/4/5
f 110/4/6 221/14/6 222/2/6
f 222/13/4 121/2/4 110/4/4
f 223/1/5 224/2/5 193/3/5
f 51/1/4 223/2/4 36/3/4
f 42/1/6 225/2/6 51/3/6
f 38/1/5 227/2/5 195/3/5
f 45/1/6 226/2/6 40/3/6
f 24/1/3 227/2/3 45/3/3
f 154/15/2 232/2/2 157/14/2
f 162/15/5 235/2/5 160/14/5
f 153/15/3 239/2/3 164/14/3
f 157/15/2 234/2/2 159/14/2
f 158/15/2 231/2/2 156/14/2
f 155/15/5 236/2/5 161/14/5
f 164/15/3 229/2/3 154/14/3
f 159/15/2 233/2/2 158/14/2
f 163/15/4 230/2/4 155/14/4
f 160/15/5 228/2/5 153/14/5
f 161/15/5 237/2/5 162/14/5
f 156/15/4 238/2/4 163/14/4
f 238/15/4 242/2/4 230/14/4
f 235/15/5 240/2/5 228/14/5
f 236/15/5 245/2/5 237/14/5
f 231/15/4 246/2/4 238/14/4
f 229/15/2 258/2/2 232/14/2
f 237/15/5 260/2/5 235/14/5
f 228/15/3 247/2/3 239/14/3
f 232/15/2 259/2/2 234/14/2
f 233/15/2 243/2/2 231/14/2
f 230/15/5 261/2/5 236/14/5
f 239/15/3 241/2/3 229/14/3
f 234/15/2 244/2/2 233/14/2
f 179/15/2 248/2/2 184/14/2
f 182/15/4 176/2/4 186/14/4
f 178/15/5 173/2/5 263/14/5
f 180/15/2 253/2/2 179/14/2
f 184/15/2 177/2/2 185/14/2
f 255/15/5 249/2/5 183/14/5
f 262/15/2 252/2/2 180/14/2
f 263/15/3 251/2/3 181/14/3
f 183/15/5 254/2/5 178/14/5
f 185/15/4 250/2/4 182/14/4
f 186/15/5 175/2/5 255/14/5
f 181/15/3 174/2/3 262/14/3
f 260/15/5 263/2/5 240/14/5
f 127/2/3 257/14/3 132/14/3
f 246/15/4 186/2/4 242/14/4
f 261/15/5 183/2/5 245/14/5
f 247/15/3 262/2/3 241/14/3
f 258/15/2 179/2/2 259/14/2
f 243/15/4 182/2/4 246/14/4
f 245/15/5 178/2/5 260/14/5
f 242/15/5 255/2/5 261/14/5
f 168/15/5 279/2/5 172/14/5
f 172/15/3 271/2/3 167/14/3
f 266/15/5 269/2/5 171/14/5
f 165/15/2 275/2/2 264/14/2
f 267/15/2 272/2/2 170/14/2
f 167/15/3 278/2/3 267/14/3
f 171/15/5 274/2/5 168/14/5
f 166/15/4 276/2/4 265/14/4
f 265/15/5 277/2/5 266/14/5
f 170/15/2 273/2/2 169/14/2
f 264/15/4 270/2/4 166/14/4
f 169/15/2 268/2/2 165/14/2
f 277/15/6 280/2/6 269/14/6
f 281/15/6 276/2/6 270/14/6
f 281/15/6 275/2/6 268/14/6
f 273/14/6 281/16/6 268/2/6
f 279/15/6 282/2/6 271/14/6
f 271/14/6 272/16/6 278/2/6
f 282/15/6 273/2/6 272/14/6
f 269/15/6 282/2/6 274/14/6
f 5/1/1 8/4/1 9/2/1
f 4/1/1 7/4/1 8/2/1
f 2/1/1 5/4/1 6/2/1
f 2/3/1 1/1/1 4/4/1
f 4/1/2 13/4/2 14/2/2
f 21/1/3 194/4/3 195/2/3
f 7/1/4 14/4/4 15/2/4
f 1/1/2 10/4/2 13/2/2
f 2/1/3 11/4/3 10/2/3
f 36/1/4 223/4/4 196/2/4
f 8/1/4 15/4/4 16/2/4
f 3/1/3 12/4/3 11/2/3
f 12/1/1 21/4/1 20/2/1
f 18/1/2 34/4/2 31/2/2
f 20/1/3 23/4/3 22/2/3
f 21/1/3 24/4/3 23/2/3
f 10/1/2 19/4/2 22/2/2
f 11/1/1 20/4/1 19/2/1
f 27/1/2 30/4/2 28/2/2
f 25/1/2 28/4/2 29/2/2
f 17/1/3 30/4/3 27/2/3
f 10/1/1 27/4/1 25/2/1
f 14/1/4 26/4/4 29/2/4
f 13/1/1 25/4/1 26/2/1
f 32/1/4 35/4/4 36/2/4
f 31/1/4 34/4/4 35/2/4
f 15/1/1 32/4/1 33/2/1
f 6/1/1 187/4/1 189/2/1
f 14/1/1 31/4/1 32/2/1
f 190/5/5 37/10/5 38/6/5
f 191/5/5 193/10/5 37/6/5
f 28/1/2 46/4/2 47/2/2
f 30/1/2 48/4/2 46/2/2
f 193/5/5 224/10/5 52/8/5
f 18/1/2 41/4/2 49/2/2
f 37/9/5 52/8/5 226/10/5
f 23/1/3 44/4/3 43/2/3
f 22/1/2 43/4/2 39/2/2
f 34/1/4 49/4/4 50/2/4
f 24/1/3 45/4/3 44/2/3
f 17/1/3 39/4/3 48/2/3
f 35/1/4 50/4/4 51/2/4
f 29/1/4 47/4/4 41/2/4
f 48/1/6 39/4/6 53/2/6
f 53/1/6 41/4/6 47/2/6
f 49/1/6 41/4/6 54/2/6
f 54/1/6 42/4/6 51/2/6
f 52/11/6 224/6/6 42/7/6
f 55/11/6 40/6/6 226/7/6
f 44/1/6 45/4/6 40/2/6
f 43/1/6 44/4/6 56/2/6
f 42/11/5 60/6/5 63/7/5
f 41/11/4 59/6/4 62/7/4
f 39/11/2 57/6/2 61/7/2
f 56/11/3 64/6/3 57/7/3
f 55/11/5 63/6/5 58/7/5
f 54/11/4 62/6/4 60/7/4
f 53/11/2 61/6/2 59/7/2
f 40/11/3 58/6/3 64/7/3
f 62/13/1 67/14/1 66/2/1
f 59/13/1 65/14/1 67/2/1
f 64/13/1 70/14/1 68/2/1
f 58/13/1 69/14/1 70/2/1
f 63/13/1 73/14/1 71/2/1
f 69/4/1 58/13/1 71/14/1
f 60/13/1 72/14/1 73/2/1
f 66/13/1 74/14/1 72/2/1
f 65/13/1 76/14/1 78/2/1
f 66/13/1 77/14/1 79/2/1
f 67/13/1 78/14/1 77/2/1
f 69/13/1 81/14/1 82/2/1
f 75/13/1 83/14/1 81/2/1
f 70/13/1 82/14/1 80/2/1
f 79/13/5 89/14/5 87/2/5
f 74/13/5 87/14/5 85/2/5
f 75/13/5 88/14/5 90/2/5
f 72/13/5 85/14/5 86/2/5
f 71/13/5 84/14/5 88/2/5
f 73/13/5 86/14/5 84/2/5
f 83/13/3 90/14/3 92/2/3
f 89/13/4 79/14/4 77/2/4
f 81/13/1 96/14/1 97/2/1
f 92/13/5 99/14/5 96/2/5
f 82/13/1 97/14/1 95/2/1
f 80/13/2 95/14/2 98/2/2
f 93/13/2 103/14/2 100/2/2
f 76/13/1 100/14/1 102/2/1
f 77/13/5 101/14/5 104/2/5
f 78/13/1 102/14/1 101/2/1
f 100/13/4 103/14/4 105/2/4
f 105/13/4 104/14/4 101/2/4
f 96/13/3 99/14/3 106/2/3
f 106/13/3 98/14/3 95/2/3
f 94/13/4 221/14/4 112/2/4
f 93/13/2 207/14/2 115/2/2
f 89/13/5 112/14/5 110/2/5
f 99/13/3 114/14/3 257/2/3
f 98/13/2 256/14/2 208/2/2
f 88/13/5 111/14/5 113/2/5
f 106/13/3 257/14/3 256/2/3
f 104/13/5 116/14/5 221/2/5
f 90/13/3 113/14/3 219/2/3
f 85/13/5 108/14/5 109/2/5
f 86/13/5 109/14/5 107/2/5
f 103/13/4 115/14/4 117/2/4
f 87/13/5 110/14/5 108/2/5
f 105/13/4 117/14/4 116/2/4
f 92/13/5 219/14/5 114/2/5
f 84/13/5 107/14/5 111/2/5
f 107/13/5 118/14/5 122/2/5
f 207/13/2 125/14/2 129/2/2
f 116/13/5 130/14/5 126/2/5
f 115/13/4 129/14/4 131/2/4
f 117/13/4 131/14/4 130/2/4
f 114/13/3 128/14/3 132/2/3
f 108/13/5 119/14/5 120/2/5
f 109/13/5 120/14/5 118/2/5
f 219/13/5 124/14/5 128/2/5
f 110/13/5 121/14/5 119/2/5
f 256/13/2 127/14/2 123/2/2
f 132/13/6 128/14/6 124/2/6
f 127/13/6 132/14/6 134/2/6
f 131/13/6 129/14/6 125/2/6
f 130/13/6 131/14/6 133/2/6
f 124/13/3 136/14/3 137/2/3
f 214/13/5 138/14/5 136/2/5
f 134/13/3 137/14/3 135/2/3
f 123/13/2 135/14/2 139/2/2
f 125/13/4 140/14/4 142/2/4
f 212/13/2 144/14/2 140/2/2
f 133/13/4 142/14/4 141/2/4
f 126/13/5 141/14/5 143/2/5
f 151/13/6 143/14/6 141/2/6
f 142/4/6 140/13/6 144/14/6
f 137/4/6 136/13/6 138/14/6
f 152/13/6 139/14/6 135/2/6
f 149/15/5 161/16/5 162/2/5
f 139/15/2 154/16/2 157/2/2
f 152/15/3 164/16/3 154/2/3
f 151/15/4 163/16/4 155/2/4
f 150/15/5 162/16/5 160/2/5
f 146/15/2 158/16/2 156/2/2
f 143/15/5 155/16/5 161/2/5
f 144/15/4 156/16/4 163/2/4
f 145/15/2 157/16/2 159/2/2
f 148/15/5 160/16/5 153/2/5
f 138/15/3 153/16/3 164/2/3
f 147/15/2 159/16/2 158/2/2
f 254/15/5 168/16/5 172/2/5
f 249/15/5 171/16/5 168/2/5
f 253/15/2 169/16/2 165/2/2
f 177/15/4 264/16/4 166/2/4
f 252/15/2 170/16/2 169/2/2
f 175/15/5 266/16/5 171/2/5
f 176/15/5 265/16/5 266/2/5
f 250/15/4 166/16/4 265/2/4
f 244/15/2 184/16/2 185/2/2
f 259/15/2 179/16/2 184/2/2
f 241/15/2 262/16/2 180/2/2
f 240/15/3 263/16/3 181/2/3
f 251/15/3 167/16/3 267/2/3
f 174/15/2 267/16/2 170/2/2
f 248/15/2 165/16/2 264/2/2
f 173/15/3 172/16/3 167/2/3
f 188/1/5 191/4/5 190/2/5
f 187/1/5 190/4/5 192/2/5
f 38/1/5 195/4/5 194/2/5
f 191/1/5 196/4/5 223/2/5
f 21/3/1 12/1/1 192/4/1
f 3/1/3 189/4/3 192/2/3
f 9/1/1 188/4/1 187/2/1
f 33/1/1 196/4/1 191/2/1
f 16/1/4 191/4/4 188/2/4
f 65/13/2 200/14/2 93/2/2
f 80/13/2 91/14/2 201/2/2
f 57/13/2 197/14/2 199/2/2
f 59/13/2 198/14/2 200/2/2
f 61/13/2 199/14/2 198/2/2
f 68/13/2 201/14/2 197/2/2
f 199/13/2 204/14/2 203/2/2
f 200/13/2 205/14/2 207/2/2
f 198/13/2 203/14/2 205/2/2
f 197/13/2 202/14/2 204/2/2
f 91/13/2 208/14/2 206/2/2
f 201/13/2 206/14/2 202/2/2
f 205/13/2 212/14/2 125/2/2
f 203/13/2 210/14/2 212/2/2
f 202/13/2 209/14/2 211/2/2
f 208/13/2 123/14/2 213/2/2
f 206/13/2 213/14/2 209/2/2
f 204/13/2 211/14/2 210/2/2
f 209/13/2 213/14/2 139/2/2
f 211/13/2 209/14/2 145/2/2
f 146/13/2 210/14/2 211/2/2
f 212/13/2 210/14/2 146/2/2
f 149/13/5 217/14/5 215/2/5
f 150/13/5 218/14/5 217/2/5
f 138/13/5 214/14/5 216/2/5
f 148/13/5 216/14/5 218/2/5
f 119/4/6 121/13/6 215/14/6
f 119/13/6 217/14/6 218/2/6
f 218/13/6 216/14/6 118/2/6
f 118/4/6 216/13/6 214/14/6
f 124/13/5 219/14/5 220/2/5
f 214/13/3 220/14/3 111/2/3
f 220/13/6 219/14/6 113/2/6
f 215/13/5 222/14/5 221/2/5
f 110/4/6 112/13/6 221/14/6
f 222/13/4 215/14/4 121/2/4
f 223/1/5 225/4/5 224/2/5
f 51/1/4 225/4/4 223/2/4
f 42/1/6 224/4/6 225/2/6
f 38/1/5 226/4/5 227/2/5
f 45/1/6 227/4/6 226/2/6
f 24/1/3 195/4/3 227/2/3
f 154/15/2 229/16/2 232/2/2
f 162/15/5 237/16/5 235/2/5
f 153/15/3 228/16/3 239/2/3
f 157/15/2 232/16/2 234/2/2
f 158/15/2 233/16/2 231/2/2
f 155/15/5 230/16/5 236/2/5
f 164/15/3 239/16/3 229/2/3
f 159/15/2 234/16/2 233/2/2
f 163/15/4 238/16/4 230/2/4
f 160/15/5 235/16/5 228/2/5
f 161/15/5 236/16/5 237/2/5
f 156/15/4 231/16/4 238/2/4
f 238/15/4 246/16/4 242/2/4
f 235/15/5 260/16/5 240/2/5
f 236/15/5 261/16/5 245/2/5
f 231/15/4 243/16/4 246/2/4
f 229/15/2 241/16/2 258/2/2
f 237/15/5 245/16/5 260/2/5
f 228/15/3 240/16/3 247/2/3
f 232/15/2 258/16/2 259/2/2
f 233/15/2 244/16/2 243/2/2
f 230/15/5 242/16/5 261/2/5
f 239/15/3 247/16/3 241/2/3
f 234/15/2 259/16/2 244/2/2
f 179/15/2 253/16/2 248/2/2
f 182/15/4 250/16/4 176/2/4
f 178/15/5 254/16/5 173/2/5
f 180/15/2 252/16/2 253/2/2
f 184/15/2 248/16/2 177/2/2
f 255/15/5 175/16/5 249/2/5
f 262/15/2 174/16/2 252/2/2
f 263/15/3 173/16/3 251/2/3
f 183/15/5 249/16/5 254/2/5
f 185/15/4 177/16/4 250/2/4
f 186/15/5 176/16/5 175/2/5
f 181/15/3 251/16/3 174/2/3
f 260/15/5 178/16/5 263/2/5
f 127/2/3 256/2/3 257/14/3
f 246/15/4 182/16/4 186/2/4
f 261/15/5 255/16/5 183/2/5
f 247/15/3 181/16/3 262/2/3
f 258/15/2 180/16/2 179/2/2
f 243/15/4 185/16/4 182/2/4
f 245/15/5 183/16/5 178/2/5
f 242/15/5 186/16/5 255/2/5
f 168/15/5 274/16/5 279/2/5
f 172/15/3 279/16/3 271/2/3
f 266/15/5 277/16/5 269/2/5
f 165/15/2 268/16/2 275/2/2
f 267/15/2 278/16/2 272/2/2
f 167/15/3 271/16/3 278/2/3
f 171/15/5 269/16/5 274/2/5
f 166/15/4 270/16/4 276/2/4
f 265/15/5 276/16/5 277/2/5
f 170/15/2 272/16/2 273/2/2
f 264/15/4 275/16/4 270/2/4
f 169/15/2 273/16/2 268/2/2
f 277/15/6 281/16/6 280/2/6
f 281/15/6 277/16/6 276/2/6
f 281/15/6 270/16/6 275/2/6
f 273/14/6 280/15/6 281/16/6
f 279/15/6 274/16/6 282/2/6
f 271/14/6 282/15/6 272/16/6
f 282/15/6 280/16/6 273/2/6
f 269/15/6 280/16/6 282/2/6
