# Blender 4.5.0
# www.blender.org
o Cube
o Sphere
o Sphere.001
v -0.125000 -0.125000 1.375000
v -0.125000 0.000000 1.375000
v -0.125000 0.125000 1.375000
v -0.000000 -0.125000 1.375000
v 0.000000 0.000000 1.375000
v 0.000000 0.125000 1.375000
v 0.125000 -0.125000 1.375000
v 0.125000 -0.000000 1.375000
v 0.125000 0.125000 1.375000
v -0.125000 -0.125000 1.250000
v -0.125000 0.000000 1.250000
v -0.125000 0.125000 1.250000
v -0.000000 -0.125000 1.250000
v 0.125000 -0.125000 1.250000
v 0.125000 -0.000000 1.250000
v 0.125000 0.125000 1.250000
v -0.125000 -0.125000 1.125000
v 0.125000 -0.125000 1.125000
v -0.250000 -0.125000 1.250000
v -0.250000 0.000000 1.250000
v -0.250000 0.125000 1.250000
v -0.250000 -0.125000 1.125000
v -0.250000 0.000000 1.125000
v -0.250000 0.125000 1.125000
v -0.000000 -0.250000 1.250000
v 0.125000 -0.250000 1.250000
v -0.125000 -0.250000 1.250000
v -0.000000 -0.250000 1.125000
v 0.125000 -0.250000 1.125000
v -0.125000 -0.250000 1.125000
v 0.250000 -0.125000 1.250000
v 0.250000 -0.000000 1.250000
v 0.250000 0.125000 1.250000
v 0.250000 -0.125000 1.125000
v 0.250000 -0.000000 1.125000
v 0.250000 0.125000 1.125000
v 0.000000 0.250000 1.125000
v -0.125000 0.250000 1.125000
v -0.125000 -0.125000 1.000000
v -0.125000 0.125000 1.000000
v 0.125000 -0.125000 1.000000
v 0.125000 0.125000 1.000000
v -0.250000 -0.125000 1.000000
v -0.250000 0.000000 1.000000
v -0.250000 0.125000 1.000000
v -0.000000 -0.250000 1.000000
v 0.125000 -0.250000 1.000000
v -0.125000 -0.250000 1.000000
v 0.250000 -0.125000 1.000000
v 0.250000 -0.000000 1.000000
v 0.250000 0.125000 1.000000
v 0.000000 0.250000 1.000000
v -0.000000 -0.125000 1.000000
v 0.125000 -0.000000 1.000000
v 0.000000 0.125000 1.000000
v -0.125000 0.000000 1.000000
v -0.125000 -0.125000 0.875000
v -0.125000 0.125000 0.875000
v 0.125000 -0.125000 0.875000
v 0.125000 0.125000 0.875000
v -0.000000 -0.125000 0.875000
v 0.125000 -0.000000 0.875000
v 0.000000 0.125000 0.875000
v -0.125000 0.000000 0.875000
v 0.250000 -0.125000 0.875000
v 0.250000 0.125000 0.875000
v 0.250000 -0.000000 0.875000
v -0.250000 -0.125000 0.875000
v -0.250000 0.125000 0.875000
v -0.250000 0.000000 0.875000
v -0.125000 0.250000 0.875000
v 0.125000 0.250000 0.875000
v 0.000000 0.250000 0.875000
v 0.250000 0.250000 0.875000
v -0.250000 0.250000 0.875000
v 0.375000 -0.125000 0.875000
v 0.375000 0.125000 0.875000
v 0.375000 -0.000000 0.875000
v 0.375000 0.250000 0.875000
v -0.375000 -0.125000 0.875000
v -0.375000 0.125000 0.875000
v -0.375000 0.000000 0.875000
v -0.375000 0.250000 0.875000
v -0.125000 0.250000 0.750000
v 0.125000 0.250000 0.750000
v 0.000000 0.250000 0.750000
v 0.250000 0.250000 0.750000
v -0.250000 0.250000 0.750000
v 0.375000 0.250000 0.750000
v -0.375000 0.250000 0.750000
v -0.375000 -0.125000 0.750000
v -0.375000 0.125000 0.750000
v 0.375000 -0.125000 0.750000
v 0.375000 0.125000 0.750000
v -0.500000 -0.125000 0.875000
v -0.500000 0.125000 0.875000
v -0.500000 0.000000 0.875000
v -0.500000 -0.125000 0.750000
v -0.500000 0.125000 0.750000
v 0.500000 -0.125000 0.875000
v 0.500000 0.125000 0.875000
v 0.500000 -0.000000 0.875000
v 0.500000 -0.125000 0.750000
v 0.500000 0.125000 0.750000
v 0.500000 -0.000000 0.750000
v -0.500000 0.000000 0.750000
v -0.125000 0.250000 0.625000
v 0.125000 0.250000 0.625000
v 0.000000 0.250000 0.625000
v 0.250000 0.250000 0.625000
v -0.250000 0.250000 0.625000
v 0.375000 0.250000 0.625000
v -0.375000 0.250000 0.625000
v -0.500000 -0.125000 0.625000
v -0.500000 0.125000 0.625000
v 0.500000 -0.125000 0.625000
v 0.500000 0.125000 0.625000
v 0.500000 -0.000000 0.625000
v -0.500000 0.000000 0.625000
v -0.125000 0.250000 0.500000
v 0.125000 0.250000 0.500000
v 0.000000 0.250000 0.500000
v 0.250000 0.250000 0.500000
v -0.250000 0.250000 0.500000
v -0.375000 -0.125000 0.500000
v -0.375000 0.125000 0.500000
v 0.375000 -0.125000 0.500000
v 0.375000 0.125000 0.500000
v -0.500000 -0.125000 0.500000
v -0.500000 0.125000 0.500000
v 0.500000 -0.125000 0.500000
v 0.500000 0.125000 0.500000
v 0.500000 -0.000000 0.500000
v -0.500000 0.000000 0.500000
v 0.375000 -0.000000 0.500000
v -0.375000 0.000000 0.500000
v -0.375000 -0.125000 0.375000
v -0.375000 0.125000 0.375000
v -0.375000 0.000000 0.375000
v -0.250000 0.125000 0.375000
v -0.250000 -0.125000 0.375000
v 0.375000 -0.125000 0.375000
v 0.375000 0.125000 0.375000
v 0.375000 -0.000000 0.375000
v 0.250000 0.125000 0.375000
v 0.250000 -0.125000 0.375000
v -0.125000 -0.125000 0.375000
v 0.125000 -0.125000 0.375000
v -0.000000 -0.125000 0.375000
v -0.125000 0.125000 0.375000
v 0.125000 0.125000 0.375000
v 0.000000 0.125000 0.375000
v 0.250000 -0.000000 0.375000
v -0.250000 0.000000 0.375000
v -0.250000 0.125000 0.250000
v -0.250000 -0.125000 0.250000
v 0.250000 0.125000 0.250000
v 0.250000 -0.125000 0.250000
v -0.125000 -0.125000 0.250000
v 0.125000 -0.125000 0.250000
v -0.000000 -0.125000 0.250000
v -0.125000 0.125000 0.250000
v 0.125000 0.125000 0.250000
v 0.000000 0.125000 0.250000
v 0.250000 -0.000000 0.250000
v -0.250000 0.000000 0.250000
v -0.250000 0.125000 0.125000
v -0.250000 -0.125000 0.125000
v 0.250000 0.125000 0.125000
v 0.250000 -0.125000 0.125000
v -0.125000 -0.125000 0.125000
v 0.125000 -0.125000 0.125000
v -0.000000 -0.125000 0.125000
v -0.125000 0.125000 0.125000
v 0.125000 0.125000 0.125000
v 0.000000 0.125000 0.125000
v 0.250000 -0.000000 0.125000
v -0.250000 0.000000 0.125000
v -0.125000 0.000000 0.125000
v 0.125000 -0.000000 0.125000
v -0.125000 -0.125000 0.000000
v 0.125000 -0.125000 0.000000
v -0.000000 -0.125000 0.000000
v -0.125000 0.125000 0.000000
v 0.125000 0.125000 0.000000
v 0.000000 0.125000 0.000000
v -0.125000 0.000000 0.000000
v 0.125000 -0.000000 0.000000
v -0.125000 -0.125000 -0.125000
v 0.125000 -0.125000 -0.125000
v -0.000000 -0.125000 -0.125000
v -0.125000 0.125000 -0.125000
v 0.125000 0.125000 -0.125000
v 0.000000 0.125000 -0.125000
v -0.125000 0.000000 -0.125000
v 0.125000 -0.000000 -0.125000
v -0.125000 -0.125000 -0.250000
v -0.000000 -0.125000 -0.250000
v 0.125000 -0.125000 -0.250000
v 0.125000 0.125000 -0.250000
v 0.000000 0.125000 -0.250000
v -0.125000 0.125000 -0.250000
v -0.125000 0.000000 -0.250000
v 0.125000 -0.000000 -0.250000
v 0.000000 -0.000000 -0.250000
v 0.000000 0.250000 1.375000
v 0.125000 0.250000 1.375000
v -0.125000 0.250000 1.375000
v 0.000000 0.250000 1.250000
v 0.125000 0.250000 1.250000
v -0.125000 0.250000 1.250000
v 0.125000 0.250000 1.125000
v -0.250000 0.250000 1.250000
v -0.250000 0.250000 1.125000
v 0.250000 0.250000 1.250000
v -0.125000 -0.125000 0.750000
v 0.125000 -0.125000 0.750000
v -0.000000 -0.125000 0.750000
v 0.250000 -0.125000 0.750000
v -0.250000 -0.125000 0.750000
v -0.125000 -0.125000 0.625000
v 0.125000 -0.125000 0.625000
v -0.000000 -0.125000 0.625000
v 0.250000 -0.125000 0.625000
v -0.250000 -0.125000 0.625000
v 0.375000 -0.125000 0.625000
v -0.375000 -0.125000 0.625000
v -0.125000 -0.125000 0.500000
v 0.125000 -0.125000 0.500000
v -0.000000 -0.125000 0.500000
v 0.250000 -0.125000 0.500000
v -0.250000 -0.125000 0.500000
v -0.250000 0.125000 0.500000
v 0.250000 0.125000 0.500000
v -0.125000 0.125000 0.500000
v 0.125000 0.125000 0.500000
v 0.000000 0.125000 0.500000
v -0.375000 0.125000 0.625000
v -0.250000 0.125000 0.625000
v 0.375000 0.125000 0.625000
v 0.250000 0.125000 0.625000
v 0.250000 0.250000 1.125000
v 0.125000 0.250000 1.000000
v 0.250000 0.250000 1.000000
v -0.125000 0.250000 1.000000
v -0.250000 0.250000 1.000000
vn -0.0000 -0.0000 1.0000
vn -0.0000 -1.0000 -0.0000
vn -1.0000 -0.0000 -0.0000
vn 1.0000 -0.0000 -0.0000
vn -0.0000 1.0000 -0.0000
vn -0.0000 -0.0000 -1.0000
vt 0.000000 0.500000
vt 0.250000 0.250000
vt 0.250000 0.500000
vt 0.000000 0.250000
vt 0.500000 1.000000
vt 0.250000 0.750000
vt 0.250000 1.000000
vt 0.750000 0.750000
vt 0.750000 1.000000
vt 0.500000 0.750000
vt 0.000000 0.750000
vt 0.000000 1.000000
vt 0.000000 0.000000
vt 0.250000 0.000000
vt 0.500000 0.000000
vt 0.500000 0.250000
s 0
f 5/1/1 9/2/1 6/3/1
f 4/1/1 8/2/1 5/3/1
f 2/1/1 6/2/1 3/3/1
f 2/3/1 4/4/1 5/2/1
f 4/1/2 14/2/2 7/3/2
f 21/1/3 214/2/3 24/3/3
f 7/1/4 15/2/4 8/3/4
f 1/1/2 13/2/2 4/3/2
f 2/1/3 10/2/3 1/3/3
f 36/1/4 215/2/4 33/3/4
f 8/1/4 16/2/4 9/3/4
f 3/1/3 11/2/3 2/3/3
f 12/1/1 20/2/1 11/3/1
f 18/1/2 31/2/2 14/3/2
f 20/1/3 22/2/3 19/3/3
f 21/1/3 23/2/3 20/3/3
f 10/1/2 22/2/2 17/3/2
f 11/1/1 19/2/1 10/3/1
f 27/1/2 28/2/2 25/3/2
f 25/1/2 29/2/2 26/3/2
f 17/1/3 27/2/3 10/3/3
f 10/1/1 25/2/1 13/3/1
f 14/1/4 29/2/4 18/3/4
f 13/1/1 26/2/1 14/3/1
f 32/1/4 36/2/4 33/3/4
f 31/1/4 35/2/4 32/3/4
f 15/1/1 33/2/1 16/3/1
f 6/1/1 208/2/1 3/3/1
f 14/1/1 32/2/1 15/3/1
f 209/5/5 38/6/5 211/7/5
f 210/5/5 37/6/5 209/7/5
f 28/1/2 47/2/2 29/3/2
f 30/1/2 46/2/2 28/3/2
f 212/5/5 52/8/5 37/9/5
f 18/1/2 49/2/2 34/3/2
f 37/9/5 245/10/5 38/5/5
f 23/1/3 43/2/3 22/3/3
f 22/1/2 39/2/2 17/3/2
f 34/1/4 50/2/4 35/3/4
f 24/1/3 44/2/3 23/3/3
f 17/1/3 48/2/3 30/3/3
f 35/1/4 51/2/4 36/3/4
f 29/1/4 41/2/4 18/3/4
f 48/1/6 53/2/6 46/3/6
f 53/1/6 47/2/6 46/3/6
f 49/1/6 54/2/6 50/3/6
f 54/1/6 51/2/6 50/3/6
f 52/11/6 42/7/6 55/12/6
f 55/11/6 245/7/6 52/12/6
f 44/1/6 40/2/6 56/3/6
f 43/1/6 56/2/6 39/3/6
f 42/11/5 63/7/5 55/12/5
f 41/11/4 62/7/4 54/12/4
f 39/11/2 61/7/2 53/12/2
f 56/11/3 57/7/3 39/12/3
f 55/11/5 58/7/5 40/12/5
f 54/11/4 60/7/4 42/12/4
f 53/11/2 59/7/2 41/12/2
f 40/11/3 64/7/3 56/12/3
f 62/13/1 66/2/1 60/4/1
f 59/13/1 67/2/1 62/4/1
f 64/13/1 68/2/1 57/4/1
f 58/13/1 70/2/1 64/4/1
f 63/13/1 71/2/1 58/4/1
f 69/4/1 71/14/1 75/2/1
f 60/13/1 73/2/1 63/4/1
f 66/13/1 72/2/1 60/4/1
f 65/13/1 78/2/1 67/4/1
f 66/13/1 79/2/1 74/4/1
f 67/13/1 77/2/1 66/4/1
f 69/13/1 82/2/1 70/4/1
f 75/13/1 81/2/1 69/4/1
f 70/13/1 80/2/1 68/4/1
f 79/13/5 87/2/5 74/4/5
f 74/13/5 85/2/5 72/4/5
f 75/13/5 90/2/5 83/4/5
f 72/13/5 86/2/5 73/4/5
f 71/13/5 88/2/5 75/4/5
f 73/13/5 84/2/5 71/4/5
f 83/13/3 92/2/3 81/4/3
f 89/13/4 77/2/4 94/4/4
f 81/13/1 97/2/1 82/4/1
f 92/13/5 96/2/5 81/4/5
f 82/13/1 95/2/1 80/4/1
f 80/13/2 98/2/2 91/4/2
f 93/13/2 100/2/2 76/4/2
f 76/13/1 102/2/1 78/4/1
f 77/13/5 104/2/5 94/4/5
f 78/13/1 101/2/1 77/4/1
f 100/13/4 105/2/4 102/4/4
f 105/13/4 101/2/4 102/4/4
f 96/13/3 106/2/3 97/4/3
f 106/13/3 95/2/3 97/4/3
f 94/13/4 112/2/4 89/4/4
f 93/13/2 116/2/2 103/4/2
f 89/13/5 110/2/5 87/4/5
f 99/13/3 119/2/3 106/4/3
f 98/13/2 227/2/2 91/4/2
f 88/13/5 113/2/5 90/4/5
f 106/13/3 114/2/3 98/4/3
f 104/13/5 240/2/5 94/4/5
f 90/13/3 238/2/3 92/4/3
f 85/13/5 109/2/5 86/4/5
f 86/13/5 107/2/5 84/4/5
f 103/13/4 118/2/4 105/4/4
f 87/13/5 108/2/5 85/4/5
f 105/13/4 117/2/4 104/4/4
f 92/13/5 115/2/5 99/4/5
f 84/13/5 111/2/5 88/4/5
f 107/13/5 124/2/5 111/4/5
f 226/13/2 131/2/2 116/4/2
f 117/13/5 128/2/5 240/4/5
f 116/13/4 133/2/4 118/4/4
f 118/13/4 132/2/4 117/4/4
f 115/13/3 134/2/3 119/4/3
f 108/13/5 122/2/5 109/4/5
f 119/13/3 129/2/3 114/4/3
f 109/13/5 120/2/5 107/4/5
f 238/13/5 130/2/5 115/4/5
f 110/13/5 121/2/5 108/4/5
f 114/13/2 125/2/2 227/4/2
f 134/13/6 126/2/6 136/4/6
f 129/13/6 136/2/6 125/4/6
f 133/13/6 127/2/6 135/4/6
f 132/13/6 135/2/6 128/4/6
f 126/13/3 139/2/3 136/4/3
f 233/13/5 138/2/5 126/4/5
f 136/13/3 137/2/3 125/4/3
f 125/13/2 141/2/2 232/4/2
f 127/13/4 144/2/4 135/4/4
f 231/13/2 142/2/2 127/4/2
f 135/13/4 143/2/4 128/4/4
f 128/13/5 145/2/5 234/4/5
f 153/13/6 143/2/6 144/4/6
f 144/4/6 146/14/6 153/2/6
f 139/4/6 140/14/6 154/2/6
f 154/13/6 137/2/6 139/4/6
f 151/15/5 164/2/5 152/14/5
f 141/15/2 159/2/2 147/14/2
f 154/15/3 156/2/3 141/14/3
f 153/15/4 157/2/4 145/14/4
f 152/15/5 162/2/5 150/14/5
f 148/15/2 158/2/2 146/14/2
f 145/15/5 163/2/5 151/14/5
f 146/15/4 165/2/4 153/14/4
f 147/15/2 161/2/2 149/14/2
f 150/15/5 155/2/5 140/14/5
f 140/15/3 166/2/3 154/14/3
f 149/15/2 160/2/2 148/14/2
f 155/15/3 178/2/3 166/14/3
f 159/15/2 173/2/2 161/14/2
f 160/15/2 170/2/2 158/14/2
f 157/15/5 175/2/5 163/14/5
f 166/15/3 168/2/3 156/14/3
f 161/15/2 172/2/2 160/14/2
f 165/15/4 169/2/4 157/14/4
f 162/15/5 167/2/5 155/14/5
f 163/15/5 176/2/5 164/14/5
f 158/15/4 177/2/4 165/14/4
f 156/15/2 171/2/2 159/14/2
f 164/15/5 174/2/5 162/14/5
f 169/15/6 180/2/6 175/14/6
f 179/15/6 167/2/6 174/14/6
f 168/15/6 179/2/6 171/14/6
f 180/15/6 170/2/6 172/14/6
f 173/15/2 182/2/2 172/14/2
f 172/15/4 188/2/4 180/14/4
f 174/15/3 187/2/3 179/14/3
f 175/15/5 186/2/5 176/14/5
f 171/15/2 183/2/2 173/14/2
f 179/15/3 181/2/3 171/14/3
f 180/15/4 185/2/4 175/14/4
f 176/15/5 184/2/5 174/14/5
f 182/15/4 196/2/4 188/14/4
f 184/15/3 195/2/3 187/14/3
f 185/15/5 194/2/5 186/14/5
f 181/15/2 191/2/2 183/14/2
f 187/15/3 189/2/3 181/14/3
f 188/15/4 193/2/4 185/14/4
f 186/15/5 192/2/5 184/14/5
f 183/15/2 190/2/2 182/14/2
f 189/15/2 198/2/2 191/14/2
f 193/15/5 201/2/5 194/14/5
f 192/15/3 203/2/3 195/14/3
f 190/15/4 204/2/4 196/14/4
f 205/15/6 199/2/6 198/14/6
f 201/14/6 204/16/6 205/2/6
f 205/15/6 202/2/6 201/14/6
f 198/14/6 203/16/6 205/2/6
f 195/15/3 197/2/3 189/14/3
f 196/15/4 200/2/4 193/14/4
f 194/15/5 202/2/5 192/14/5
f 191/15/2 199/2/2 190/14/2
f 207/1/5 209/2/5 206/3/5
f 206/1/5 211/2/5 208/3/5
f 38/1/5 213/2/5 211/3/5
f 210/1/5 242/2/5 212/3/5
f 21/3/1 211/4/1 213/2/1
f 3/1/3 211/2/3 12/3/3
f 9/1/1 206/2/1 6/3/1
f 33/1/1 210/2/1 16/3/1
f 16/1/4 207/2/4 9/3/4
f 65/13/2 93/2/2 76/4/2
f 80/13/2 220/2/2 68/4/2
f 57/13/2 218/2/2 61/4/2
f 59/13/2 219/2/2 65/4/2
f 61/13/2 217/2/2 59/4/2
f 68/13/2 216/2/2 57/4/2
f 218/13/2 222/2/2 217/4/2
f 219/13/2 226/2/2 93/4/2
f 217/13/2 224/2/2 219/4/2
f 216/13/2 223/2/2 218/4/2
f 91/13/2 225/2/2 220/4/2
f 220/13/2 221/2/2 216/4/2
f 224/13/2 127/2/2 226/4/2
f 222/13/2 231/2/2 224/4/2
f 221/13/2 230/2/2 223/4/2
f 227/13/2 232/2/2 225/4/2
f 225/13/2 228/2/2 221/4/2
f 223/13/2 229/2/2 222/4/2
f 228/13/2 141/2/2 147/4/2
f 230/13/2 147/2/2 149/4/2
f 148/13/2 230/2/2 149/4/2
f 231/13/2 148/2/2 146/4/2
f 151/13/5 234/2/5 145/4/5
f 152/13/5 236/2/5 151/4/5
f 140/13/5 235/2/5 150/4/5
f 150/13/5 237/2/5 152/4/5
f 121/4/6 234/14/6 236/2/6
f 121/13/6 237/2/6 122/4/6
f 237/13/6 120/2/6 122/4/6
f 120/4/6 233/14/6 124/2/6
f 126/13/5 239/2/5 233/4/5
f 233/13/3 111/2/3 124/4/3
f 239/13/6 113/2/6 111/4/6
f 234/13/5 240/2/5 128/4/5
f 110/4/6 240/14/6 241/2/6
f 241/13/4 123/2/4 110/4/4
f 242/1/5 243/2/5 212/3/5
f 51/1/4 242/2/4 36/3/4
f 42/1/6 244/2/6 51/3/6
f 38/1/5 246/2/5 214/3/5
f 45/1/6 245/2/6 40/3/6
f 24/1/3 246/2/3 45/3/3
f 5/1/1 8/4/1 9/2/1
f 4/1/1 7/4/1 8/2/1
f 2/1/1 5/4/1 6/2/1
f 2/3/1 1/1/1 4/4/1
f 4/1/2 13/4/2 14/2/2
f 21/1/3 213/4/3 214/2/3
f 7/1/4 14/4/4 15/2/4
f 1/1/2 10/4/2 13/2/2
f 2/1/3 11/4/3 10/2/3
f 36/1/4 242/4/4 215/2/4
f 8/1/4 15/4/4 16/2/4
f 3/1/3 12/4/3 11/2/3
f 12/1/1 21/4/1 20/2/1
f 18/1/2 34/4/2 31/2/2
f 20/1/3 23/4/3 22/2/3
f 21/1/3 24/4/3 23/2/3
f 10/1/2 19/4/2 22/2/2
f 11/1/1 20/4/1 19/2/1
f 27/1/2 30/4/2 28/2/2
f 25/1/2 28/4/2 29/2/2
f 17/1/3 30/4/3 27/2/3
f 10/1/1 27/4/1 25/2/1
f 14/1/4 26/4/4 29/2/4
f 13/1/1 25/4/1 26/2/1
f 32/1/4 35/4/4 36/2/4
f 31/1/4 34/4/4 35/2/4
f 15/1/1 32/4/1 33/2/1
f 6/1/1 206/4/1 208/2/1
f 14/1/1 31/4/1 32/2/1
f 209/5/5 37/10/5 38/6/5
f 210/5/5 212/10/5 37/6/5
f 28/1/2 46/4/2 47/2/2
f 30/1/2 48/4/2 46/2/2
f 212/5/5 243/10/5 52/8/5
f 18/1/2 41/4/2 49/2/2
f 37/9/5 52/8/5 245/10/5
f 23/1/3 44/4/3 43/2/3
f 22/1/2 43/4/2 39/2/2
f 34/1/4 49/4/4 50/2/4
f 24/1/3 45/4/3 44/2/3
f 17/1/3 39/4/3 48/2/3
f 35/1/4 50/4/4 51/2/4
f 29/1/4 47/4/4 41/2/4
f 48/1/6 39/4/6 53/2/6
f 53/1/6 41/4/6 47/2/6
f 49/1/6 41/4/6 54/2/6
f 54/1/6 42/4/6 51/2/6
f 52/11/6 243/6/6 42/7/6
f 55/11/6 40/6/6 245/7/6
f 44/1/6 45/4/6 40/2/6
f 43/1/6 44/4/6 56/2/6
f 42/11/5 60/6/5 63/7/5
f 41/11/4 59/6/4 62/7/4
f 39/11/2 57/6/2 61/7/2
f 56/11/3 64/6/3 57/7/3
f 55/11/5 63/6/5 58/7/5
f 54/11/4 62/6/4 60/7/4
f 53/11/2 61/6/2 59/7/2
f 40/11/3 58/6/3 64/7/3
f 62/13/1 67/14/1 66/2/1
f 59/13/1 65/14/1 67/2/1
f 64/13/1 70/14/1 68/2/1
f 58/13/1 69/14/1 70/2/1
f 63/13/1 73/14/1 71/2/1
f 69/4/1 58/13/1 71/14/1
f 60/13/1 72/14/1 73/2/1
f 66/13/1 74/14/1 72/2/1
f 65/13/1 76/14/1 78/2/1
f 66/13/1 77/14/1 79/2/1
f 67/13/1 78/14/1 77/2/1
f 69/13/1 81/14/1 82/2/1
f 75/13/1 83/14/1 81/2/1
f 70/13/1 82/14/1 80/2/1
f 79/13/5 89/14/5 87/2/5
f 74/13/5 87/14/5 85/2/5
f 75/13/5 88/14/5 90/2/5
f 72/13/5 85/14/5 86/2/5
f 71/13/5 84/14/5 88/2/5
f 73/13/5 86/14/5 84/2/5
f 83/13/3 90/14/3 92/2/3
f 89/13/4 79/14/4 77/2/4
f 81/13/1 96/14/1 97/2/1
f 92/13/5 99/14/5 96/2/5
f 82/13/1 97/14/1 95/2/1
f 80/13/2 95/14/2 98/2/2
f 93/13/2 103/14/2 100/2/2
f 76/13/1 100/14/1 102/2/1
f 77/13/5 101/14/5 104/2/5
f 78/13/1 102/14/1 101/2/1
f 100/13/4 103/14/4 105/2/4
f 105/13/4 104/14/4 101/2/4
f 96/13/3 99/14/3 106/2/3
f 106/13/3 98/14/3 95/2/3
f 94/13/4 240/14/4 112/2/4
f 93/13/2 226/14/2 116/2/2
f 89/13/5 112/14/5 110/2/5
f 99/13/3 115/14/3 119/2/3
f 98/13/2 114/14/2 227/2/2
f 88/13/5 111/14/5 113/2/5
f 106/13/3 119/14/3 114/2/3
f 104/13/5 117/14/5 240/2/5
f 90/13/3 113/14/3 238/2/3
f 85/13/5 108/14/5 109/2/5
f 86/13/5 109/14/5 107/2/5
f 103/13/4 116/14/4 118/2/4
f 87/13/5 110/14/5 108/2/5
f 105/13/4 118/14/4 117/2/4
f 92/13/5 238/14/5 115/2/5
f 84/13/5 107/14/5 111/2/5
f 107/13/5 120/14/5 124/2/5
f 226/13/2 127/14/2 131/2/2
f 117/13/5 132/14/5 128/2/5
f 116/13/4 131/14/4 133/2/4
f 118/13/4 133/14/4 132/2/4
f 115/13/3 130/14/3 134/2/3
f 108/13/5 121/14/5 122/2/5
f 119/13/3 134/14/3 129/2/3
f 109/13/5 122/14/5 120/2/5
f 238/13/5 126/14/5 130/2/5
f 110/13/5 123/14/5 121/2/5
f 114/13/2 129/14/2 125/2/2
f 134/13/6 130/14/6 126/2/6
f 129/13/6 134/14/6 136/2/6
f 133/13/6 131/14/6 127/2/6
f 132/13/6 133/14/6 135/2/6
f 126/13/3 138/14/3 139/2/3
f 233/13/5 140/14/5 138/2/5
f 136/13/3 139/14/3 137/2/3
f 125/13/2 137/14/2 141/2/2
f 127/13/4 142/14/4 144/2/4
f 231/13/2 146/14/2 142/2/2
f 135/13/4 144/14/4 143/2/4
f 128/13/5 143/14/5 145/2/5
f 153/13/6 145/14/6 143/2/6
f 144/4/6 142/13/6 146/14/6
f 139/4/6 138/13/6 140/14/6
f 154/13/6 141/14/6 137/2/6
f 151/15/5 163/16/5 164/2/5
f 141/15/2 156/16/2 159/2/2
f 154/15/3 166/16/3 156/2/3
f 153/15/4 165/16/4 157/2/4
f 152/15/5 164/16/5 162/2/5
f 148/15/2 160/16/2 158/2/2
f 145/15/5 157/16/5 163/2/5
f 146/15/4 158/16/4 165/2/4
f 147/15/2 159/16/2 161/2/2
f 150/15/5 162/16/5 155/2/5
f 140/15/3 155/16/3 166/2/3
f 149/15/2 161/16/2 160/2/2
f 155/15/3 167/16/3 178/2/3
f 159/15/2 171/16/2 173/2/2
f 160/15/2 172/16/2 170/2/2
f 157/15/5 169/16/5 175/2/5
f 166/15/3 178/16/3 168/2/3
f 161/15/2 173/16/2 172/2/2
f 165/15/4 177/16/4 169/2/4
f 162/15/5 174/16/5 167/2/5
f 163/15/5 175/16/5 176/2/5
f 158/15/4 170/16/4 177/2/4
f 156/15/2 168/16/2 171/2/2
f 164/15/5 176/16/5 174/2/5
f 169/15/6 177/16/6 180/2/6
f 179/15/6 178/16/6 167/2/6
f 168/15/6 178/16/6 179/2/6
f 180/15/6 177/16/6 170/2/6
f 173/15/2 183/16/2 182/2/2
f 172/15/4 182/16/4 188/2/4
f 174/15/3 184/16/3 187/2/3
f 175/15/5 185/16/5 186/2/5
f 171/15/2 181/16/2 183/2/2
f 179/15/3 187/16/3 181/2/3
f 180/15/4 188/16/4 185/2/4
f 176/15/5 186/16/5 184/2/5
f 182/15/4 190/16/4 196/2/4
f 184/15/3 192/16/3 195/2/3
f 185/15/5 193/16/5 194/2/5
f 181/15/2 189/16/2 191/2/2
f 187/15/3 195/16/3 189/2/3
f 188/15/4 196/16/4 193/2/4
f 186/15/5 194/16/5 192/2/5
f 183/15/2 191/16/2 190/2/2
f 189/15/2 197/16/2 198/2/2
f 193/15/5 200/16/5 201/2/5
f 192/15/3 202/16/3 203/2/3
f 190/15/4 199/16/4 204/2/4
f 205/15/6 204/16/6 199/2/6
f 201/14/6 200/15/6 204/16/6
f 205/15/6 203/16/6 202/2/6
f 198/14/6 197/15/6 203/16/6
f 195/15/3 203/16/3 197/2/3
f 196/15/4 204/16/4 200/2/4
f 194/15/5 201/16/5 202/2/5
f 191/15/2 198/16/2 199/2/2
f 207/1/5 210/4/5 209/2/5
f 206/1/5 209/4/5 211/2/5
f 38/1/5 214/4/5 213/2/5
f 210/1/5 215/4/5 242/2/5
f 21/3/1 12/1/1 211/4/1
f 3/1/3 208/4/3 211/2/3
f 9/1/1 207/4/1 206/2/1
f 33/1/1 215/4/1 210/2/1
f 16/1/4 210/4/4 207/2/4
f 65/13/2 219/14/2 93/2/2
f 80/13/2 91/14/2 220/2/2
f 57/13/2 216/14/2 218/2/2
f 59/13/2 217/14/2 219/2/2
f 61/13/2 218/14/2 217/2/2
f 68/13/2 220/14/2 216/2/2
f 218/13/2 223/14/2 222/2/2
f 219/13/2 224/14/2 226/2/2
f 217/13/2 222/14/2 224/2/2
f 216/13/2 221/14/2 223/2/2
f 91/13/2 227/14/2 225/2/2
f 220/13/2 225/14/2 221/2/2
f 224/13/2 231/14/2 127/2/2
f 222/13/2 229/14/2 231/2/2
f 221/13/2 228/14/2 230/2/2
f 227/13/2 125/14/2 232/2/2
f 225/13/2 232/14/2 228/2/2
f 223/13/2 230/14/2 229/2/2
f 228/13/2 232/14/2 141/2/2
f 230/13/2 228/14/2 147/2/2
f 148/13/2 229/14/2 230/2/2
f 231/13/2 229/14/2 148/2/2
f 151/13/5 236/14/5 234/2/5
f 152/13/5 237/14/5 236/2/5
f 140/13/5 233/14/5 235/2/5
f 150/13/5 235/14/5 237/2/5
f 121/4/6 123/13/6 234/14/6
f 121/13/6 236/14/6 237/2/6
f 237/13/6 235/14/6 120/2/6
f 120/4/6 235/13/6 233/14/6
f 126/13/5 238/14/5 239/2/5
f 233/13/3 239/14/3 111/2/3
f 239/13/6 238/14/6 113/2/6
f 234/13/5 241/14/5 240/2/5
f 110/4/6 112/13/6 240/14/6
f 241/13/4 234/14/4 123/2/4
f 242/1/5 244/4/5 243/2/5
f 51/1/4 244/4/4 242/2/4
f 42/1/6 243/4/6 244/2/6
f 38/1/5 245/4/5 246/2/5
f 45/1/6 246/4/6 245/2/6
f 24/1/3 214/4/3 246/2/3
