# Blender 4.5.0
# www.blender.org
o Cube
o Sphere
o Sphere.001
v -0.000000 0.250000 1.250000
v -0.125000 0.250000 1.250000
v -0.000000 0.250000 1.125000
v -0.125000 0.250000 1.125000
v 0.125000 0.125000 1.000000
v 0.125000 -0.125000 1.000000
v -0.125000 0.125000 1.000000
v -0.125000 -0.125000 1.000000
v -0.000000 0.250000 1.000000
v 0.000000 -0.250000 1.000000
v -0.125000 -0.250000 1.000000
v 0.125000 -0.250000 1.000000
v -0.000000 0.125000 1.000000
v -0.125000 -0.000000 1.000000
v 0.000000 -0.125000 1.000000
v 0.125000 0.000000 1.000000
v 0.125000 0.125000 0.875000
v 0.125000 -0.125000 0.875000
v -0.125000 0.125000 0.875000
v -0.125000 -0.125000 0.875000
v -0.000000 0.125000 0.875000
v -0.125000 -0.000000 0.875000
v 0.000000 -0.125000 0.875000
v 0.125000 0.000000 0.875000
v -0.250000 0.125000 0.875000
v -0.250000 -0.125000 0.875000
v -0.250000 -0.000000 0.875000
v 0.250000 0.125000 0.875000
v 0.250000 -0.125000 0.875000
v 0.250000 0.000000 0.875000
v 0.125000 0.250000 0.875000
v -0.125000 0.250000 0.875000
v -0.000000 0.250000 0.875000
v -0.250000 0.250000 0.875000
v 0.250000 0.250000 0.875000
v -0.375000 0.125000 0.875000
v -0.375000 -0.125000 0.875000
v -0.375000 -0.000000 0.875000
v 0.375000 0.125000 0.875000
v 0.375000 -0.125000 0.875000
v 0.375000 0.000000 0.875000
v 0.125000 0.250000 0.750000
v -0.125000 0.250000 0.750000
v -0.000000 0.250000 0.750000
v -0.250000 0.250000 0.750000
v 0.250000 0.250000 0.750000
v 0.125000 0.250000 0.625000
v -0.125000 0.250000 0.625000
v -0.000000 0.250000 0.625000
v -0.250000 0.250000 0.625000
v 0.250000 0.250000 0.625000
v -0.250000 -0.125000 0.500000
v 0.250000 -0.125000 0.500000
v -0.250000 0.125000 0.500000
v 0.250000 0.125000 0.500000
v 0.250000 -0.125000 0.375000
v 0.250000 0.125000 0.375000
v -0.250000 -0.125000 0.375000
v -0.250000 0.125000 0.375000
v 0.125000 0.125000 0.375000
v -0.125000 0.125000 0.375000
v -0.000000 0.125000 0.375000
v 0.125000 -0.125000 0.375000
v -0.125000 -0.125000 0.375000
v 0.000000 -0.125000 0.375000
v -0.250000 -0.000000 0.375000
v 0.250000 0.000000 0.375000
v 0.250000 0.125000 0.750000
v 0.250000 -0.125000 0.750000
v 0.375000 0.125000 0.750000
v 0.375000 -0.125000 0.750000
v 0.375000 0.000000 0.750000
v 0.250000 0.125000 0.625000
v 0.375000 0.125000 0.625000
v 0.375000 -0.125000 0.625000
v 0.375000 0.000000 0.625000
v -0.250000 0.125000 0.750000
v -0.375000 0.125000 0.750000
v -0.375000 -0.125000 0.750000
v -0.375000 -0.000000 0.750000
v -0.250000 0.125000 0.625000
v -0.250000 -0.125000 0.625000
v -0.375000 0.125000 0.625000
v -0.375000 -0.125000 0.625000
v -0.375000 -0.000000 0.625000
v 0.250000 0.000000 0.625000
v -0.250000 -0.000000 0.625000
v 0.250000 0.000000 0.500000
v -0.250000 -0.000000 0.500000
v 0.125000 0.125000 0.500000
v -0.125000 0.125000 0.500000
v -0.000000 0.125000 0.500000
v 0.125000 -0.125000 0.500000
v -0.125000 -0.125000 0.500000
v 0.000000 -0.125000 0.500000
v -0.125000 -0.125000 0.625000
v 0.125000 0.125000 0.625000
v -0.125000 0.125000 0.625000
v -0.000000 0.125000 0.625000
v 0.250000 -0.125000 0.250000
v 0.250000 0.125000 0.250000
v -0.250000 -0.125000 0.250000
v -0.250000 0.125000 0.250000
v 0.125000 0.125000 0.250000
v -0.125000 0.125000 0.250000
v -0.000000 0.125000 0.250000
v 0.125000 -0.125000 0.250000
v -0.125000 -0.125000 0.250000
v 0.000000 -0.125000 0.250000
v -0.250000 -0.000000 0.250000
v 0.250000 0.000000 0.250000
v 0.250000 -0.125000 0.125000
v 0.250000 0.125000 0.125000
v -0.250000 -0.125000 0.125000
v -0.250000 0.125000 0.125000
v 0.125000 0.125000 0.125000
v -0.125000 0.125000 0.125000
v -0.000000 0.125000 0.125000
v 0.125000 -0.125000 0.125000
v -0.125000 -0.125000 0.125000
v 0.000000 -0.125000 0.125000
v -0.250000 -0.000000 0.125000
v 0.250000 0.000000 0.125000
v 0.250000 -0.125000 0.000000
v 0.250000 0.125000 0.000000
v -0.250000 -0.125000 0.000000
v -0.250000 0.125000 0.000000
v 0.125000 0.125000 0.000000
v -0.125000 0.125000 0.000000
v -0.000000 0.125000 0.000000
v 0.125000 -0.125000 0.000000
v -0.125000 -0.125000 0.000000
v 0.000000 -0.125000 0.000000
v -0.250000 -0.000000 0.000000
v 0.250000 0.000000 0.000000
v 0.250000 -0.125000 -0.125000
v 0.250000 0.125000 -0.125000
v -0.250000 -0.125000 -0.125000
v -0.250000 0.125000 -0.125000
v 0.125000 0.125000 -0.125000
v -0.125000 0.125000 -0.125000
v -0.000000 0.125000 -0.125000
v 0.125000 -0.125000 -0.125000
v -0.125000 -0.125000 -0.125000
v 0.000000 -0.125000 -0.125000
v -0.250000 -0.000000 -0.125000
v 0.250000 0.000000 -0.125000
v 0.125000 0.000000 -0.125000
v -0.125000 -0.000000 -0.125000
v 0.125000 0.125000 -0.250000
v -0.125000 0.125000 -0.250000
v -0.000000 0.125000 -0.250000
v 0.125000 -0.125000 -0.250000
v -0.125000 -0.125000 -0.250000
v 0.000000 -0.125000 -0.250000
v 0.125000 0.000000 -0.250000
v -0.125000 -0.000000 -0.250000
v 0.000000 0.000000 -0.250000
v 0.125000 0.250000 1.250000
v 0.125000 0.250000 1.125000
v 0.250000 0.250000 1.125000
v 0.250000 0.250000 1.250000
v 0.125000 0.250000 1.000000
v -0.125000 0.250000 1.000000
v 0.125000 -0.125000 0.750000
v -0.125000 -0.125000 0.750000
v 0.000000 -0.125000 0.750000
v -0.250000 -0.125000 0.750000
v 0.125000 -0.125000 0.625000
v 0.000000 -0.125000 0.625000
v 0.250000 -0.125000 0.625000
v 0.125000 0.125000 1.375000
v 0.125000 0.000000 1.375000
v 0.125000 -0.125000 1.375000
v -0.000000 0.125000 1.375000
v 0.000000 0.000000 1.375000
v 0.000000 -0.125000 1.375000
v -0.125000 0.125000 1.375000
v -0.125000 -0.000000 1.375000
v -0.125000 -0.125000 1.375000
v 0.125000 0.125000 1.250000
v 0.125000 0.000000 1.250000
v 0.125000 -0.125000 1.250000
v 0.000000 -0.125000 1.250000
v -0.125000 0.125000 1.250000
v -0.125000 -0.000000 1.250000
v -0.125000 -0.125000 1.250000
v 0.125000 -0.125000 1.125000
v -0.125000 -0.125000 1.125000
v 0.250000 0.125000 1.250000
v 0.250000 0.000000 1.250000
v 0.250000 -0.125000 1.250000
v 0.250000 0.125000 1.125000
v 0.250000 0.000000 1.125000
v 0.250000 -0.125000 1.125000
v -0.000000 0.250000 1.250000
v -0.125000 0.250000 1.250000
v -0.125000 0.250000 1.125000
v -0.250000 0.125000 1.250000
v -0.250000 -0.000000 1.250000
v -0.250000 -0.125000 1.250000
v -0.250000 0.125000 1.125000
v -0.250000 -0.000000 1.125000
v -0.250000 -0.125000 1.125000
v 0.000000 -0.250000 1.250000
v -0.125000 -0.250000 1.250000
v 0.125000 -0.250000 1.250000
v 0.000000 -0.250000 1.125000
v -0.125000 -0.250000 1.125000
v 0.125000 -0.250000 1.125000
v 0.125000 0.125000 1.000000
v 0.125000 -0.125000 1.000000
v -0.125000 0.125000 1.000000
v -0.125000 -0.125000 1.000000
v 0.250000 0.125000 1.000000
v 0.250000 0.000000 1.000000
v 0.250000 -0.125000 1.000000
v -0.000000 0.250000 1.000000
v -0.250000 0.125000 1.000000
v -0.250000 -0.000000 1.000000
v -0.250000 -0.125000 1.000000
v 0.000000 -0.250000 1.000000
v -0.125000 -0.250000 1.000000
v 0.125000 -0.250000 1.000000
v -0.000000 0.125000 1.000000
v -0.125000 -0.000000 1.000000
v 0.125000 0.000000 1.000000
v -0.000000 0.250000 1.375000
v -0.125000 0.250000 1.375000
v 0.125000 0.250000 1.375000
v 0.125000 0.250000 1.250000
v 0.125000 0.250000 1.125000
v 0.250000 0.250000 1.125000
v 0.250000 0.250000 1.250000
v -0.250000 0.250000 1.125000
v -0.250000 0.250000 1.250000
v 0.125000 0.250000 1.000000
v 0.250000 0.250000 1.000000
v -0.250000 0.250000 1.000000
v -0.125000 0.250000 1.000000
vn -0.0000 1.0000 -0.0000
vn -0.0000 -0.0000 -1.0000
vn -0.0000 -1.0000 -0.0000
vn -1.0000 -0.0000 -0.0000
vn 1.0000 -0.0000 -0.0000
vn -0.0000 -0.0000 1.0000
vt 0.250000 1.000000
vt 0.500000 0.750000
vt 0.500000 1.000000
vt 0.750000 1.000000
vt 0.750000 0.750000
vt 0.000000 0.250000
vt 0.250000 0.000000
vt 0.250000 0.250000
vt 1.000000 1.000000
vt 0.500000 0.250000
vt 0.750000 0.500000
vt 0.500000 0.500000
vt 1.000000 0.250000
vt 0.750000 0.250000
vt 1.000000 0.500000
vt 0.000000 0.000000
vt 0.250000 0.750000
vt 1.000000 0.750000
s 0
f 159/1/1 3/2/1 1/3/1
f 1/1/1 4/2/1 2/3/1
f 3/4/1 164/2/1 4/3/1
f 160/3/1 9/5/1 3/4/1
f 10/6/2 8/7/2 15/8/2
f 15/6/2 12/7/2 10/8/2
f 8/5/3 23/9/3 15/4/3
f 7/5/4 22/9/4 14/4/4
f 5/5/1 21/9/1 13/4/1
f 16/5/5 17/9/5 5/4/5
f 15/5/3 18/9/3 6/4/3
f 14/5/4 20/9/4 8/4/4
f 13/5/1 19/9/1 7/4/1
f 6/5/5 24/9/5 16/4/5
f 22/10/6 26/11/6 20/12/6
f 19/10/6 27/11/6 22/12/6
f 24/10/6 28/11/6 17/12/6
f 18/10/6 30/11/6 24/12/6
f 19/10/6 34/11/6 25/12/6
f 21/10/6 32/11/6 19/12/6
f 28/10/6 31/11/6 17/12/6
f 17/10/6 33/11/6 21/12/6
f 25/10/6 38/11/6 27/12/6
f 27/10/6 37/11/6 26/12/6
f 29/10/6 41/11/6 30/12/6
f 30/10/6 39/11/6 28/12/6
f 32/10/1 45/11/1 34/12/1
f 31/10/1 44/11/1 33/12/1
f 35/10/1 42/11/1 31/12/1
f 33/10/1 43/11/1 32/12/1
f 42/10/1 49/11/1 44/12/1
f 44/10/1 48/11/1 43/12/1
f 43/10/1 50/11/1 45/12/1
f 46/10/1 47/11/1 42/12/1
f 39/10/1 68/11/1 28/12/1
f 40/10/5 72/11/5 41/12/5
f 29/10/3 71/11/3 40/12/3
f 41/10/5 70/11/5 39/12/5
f 69/10/3 75/11/3 71/12/3
f 71/10/5 76/11/5 72/12/5
f 70/10/1 73/11/1 68/12/1
f 72/10/5 74/11/5 70/12/5
f 68/10/5 35/11/5 28/12/5
f 68/10/5 51/11/5 46/12/5
f 37/10/3 168/11/3 26/12/3
f 36/10/4 80/11/4 38/12/4
f 25/10/1 78/11/1 36/12/1
f 38/10/4 79/11/4 37/12/4
f 77/10/1 83/11/1 78/12/1
f 78/10/4 85/11/4 80/12/4
f 79/10/3 82/11/3 168/12/3
f 80/10/4 84/11/4 79/12/4
f 34/10/4 77/11/4 25/12/4
f 81/10/4 45/11/4 50/12/4
f 75/10/2 86/11/2 76/12/2
f 86/10/2 74/11/2 76/12/2
f 83/10/2 87/11/2 85/12/2
f 87/10/2 84/11/2 85/12/2
f 86/10/5 53/11/5 88/12/5
f 73/10/5 88/11/5 55/12/5
f 56/10/5 88/11/5 53/12/5
f 88/10/5 57/11/5 55/12/5
f 87/10/4 54/11/4 89/12/4
f 82/10/4 89/11/4 52/12/4
f 89/10/4 58/11/4 52/12/4
f 59/10/4 89/11/4 54/12/4
f 65/10/3 94/11/3 64/12/3
f 62/10/1 90/11/1 60/12/1
f 63/10/3 95/11/3 65/12/3
f 61/10/1 92/11/1 62/12/1
f 64/10/3 52/11/3 58/12/3
f 93/10/3 56/11/3 53/12/3
f 60/10/1 55/11/1 57/12/1
f 91/10/1 59/11/1 54/12/1
f 93/10/3 170/11/3 95/12/3
f 95/10/3 96/11/3 94/12/3
f 91/10/1 99/11/1 92/12/1
f 92/10/1 97/11/1 90/12/1
f 47/10/2 99/11/2 49/12/2
f 99/10/2 48/11/2 49/12/2
f 90/10/1 73/11/1 55/12/1
f 98/10/1 54/11/1 81/12/1
f 98/10/2 50/11/2 48/12/2
f 51/10/2 97/11/2 47/12/2
f 169/10/3 53/11/3 171/12/3
f 94/10/3 82/11/3 52/12/3
f 62/13/1 105/11/1 61/14/1
f 66/13/4 102/11/4 58/14/4
f 63/13/3 100/11/3 56/14/3
f 64/13/3 109/11/3 65/14/3
f 59/13/4 110/11/4 66/14/4
f 57/13/1 104/11/1 60/14/1
f 65/13/3 107/11/3 63/14/3
f 56/13/5 111/11/5 67/14/5
f 60/13/1 106/11/1 62/14/1
f 61/13/1 103/11/1 59/14/1
f 58/13/3 108/11/3 64/14/3
f 67/13/5 101/11/5 57/14/5
f 106/13/1 117/11/1 105/14/1
f 110/13/4 114/11/4 102/14/4
f 107/13/3 112/11/3 100/14/3
f 108/13/3 121/11/3 109/14/3
f 103/13/4 122/11/4 110/14/4
f 101/13/1 116/11/1 104/14/1
f 109/13/3 119/11/3 107/14/3
f 100/13/5 123/11/5 111/14/5
f 104/13/1 118/11/1 106/14/1
f 105/13/1 115/11/1 103/14/1
f 102/13/3 120/11/3 108/14/3
f 111/13/5 113/11/5 101/14/5
f 123/13/5 125/11/5 113/14/5
f 118/13/1 129/11/1 117/14/1
f 122/13/4 126/11/4 114/14/4
f 119/13/3 124/11/3 112/14/3
f 120/13/3 133/11/3 121/14/3
f 115/13/4 134/11/4 122/14/4
f 113/13/1 128/11/1 116/14/1
f 121/13/3 131/11/3 119/14/3
f 112/13/5 135/11/5 123/14/5
f 116/13/1 130/11/1 118/14/1
f 117/13/1 127/11/1 115/14/1
f 114/13/3 132/11/3 120/14/3
f 131/13/3 136/11/3 124/14/3
f 132/13/3 145/11/3 133/14/3
f 127/13/4 146/11/4 134/14/4
f 125/13/1 140/11/1 128/14/1
f 133/13/3 143/11/3 131/14/3
f 124/13/5 147/11/5 135/14/5
f 128/13/1 142/11/1 130/14/1
f 129/13/1 139/11/1 127/14/1
f 126/13/3 144/11/3 132/14/3
f 135/13/5 137/11/5 125/14/5
f 130/13/1 141/11/1 129/14/1
f 134/13/4 138/11/4 126/14/4
f 137/13/2 148/11/2 140/14/2
f 148/13/2 136/11/2 143/14/2
f 149/13/2 139/11/2 141/14/2
f 138/13/2 149/11/2 144/14/2
f 142/13/1 151/11/1 141/14/1
f 141/13/4 157/11/4 149/14/4
f 148/13/5 150/11/5 140/14/5
f 144/13/3 155/11/3 145/14/3
f 140/13/1 152/11/1 142/14/1
f 149/13/4 154/11/4 144/14/4
f 143/13/5 156/11/5 148/14/5
f 145/13/3 153/11/3 143/14/3
f 150/13/2 158/11/2 152/14/2
f 155/14/2 156/15/2 153/11/2
f 158/13/2 151/11/2 152/14/2
f 155/14/2 157/15/2 158/11/2
f 159/6/1 161/7/1 160/8/1
f 20/10/3 167/11/3 23/12/3
f 26/10/3 166/11/3 20/12/3
f 23/10/3 165/11/3 18/12/3
f 18/10/3 69/11/3 29/12/3
f 167/10/3 169/11/3 165/12/3
f 168/10/3 96/11/3 166/12/3
f 166/10/3 170/11/3 167/12/3
f 165/10/3 171/11/3 69/12/3
f 176/6/6 180/7/6 177/8/6
f 175/6/6 179/7/6 176/8/6
f 173/6/6 177/7/6 174/8/6
f 172/6/6 176/7/6 173/8/6
f 199/6/4 235/7/4 202/8/4
f 180/6/3 184/7/3 177/8/3
f 178/6/4 186/7/4 179/8/4
f 193/6/5 234/7/5 190/8/5
f 173/6/5 181/7/5 172/8/5
f 177/6/3 183/7/3 174/8/3
f 179/6/4 187/7/4 180/8/4
f 174/6/5 182/7/5 173/8/5
f 183/6/6 191/7/6 182/8/6
f 175/6/6 229/7/6 178/8/6
f 189/6/4 206/7/4 187/8/4
f 183/6/5 210/7/5 188/8/5
f 191/6/5 193/7/5 190/8/5
f 192/6/5 194/7/5 191/8/5
f 188/6/3 192/7/3 183/8/3
f 182/6/6 190/7/6 181/8/6
f 200/6/4 204/7/4 201/8/4
f 199/6/4 203/7/4 200/8/4
f 186/6/6 201/7/6 187/8/6
f 187/6/3 204/7/3 189/8/3
f 185/6/6 200/7/6 186/8/6
f 205/6/3 210/7/3 207/8/3
f 206/6/3 208/7/3 205/8/3
f 184/6/6 207/7/6 183/8/6
f 187/6/6 205/7/6 184/8/6
f 189/6/4 223/7/4 209/8/4
f 209/6/3 222/7/3 208/8/3
f 208/6/3 224/7/3 210/8/3
f 188/6/3 217/7/3 195/8/3
f 194/6/5 215/7/5 193/8/5
f 215/6/5 233/7/5 193/8/5
f 202/6/4 220/7/4 203/8/4
f 195/6/5 216/7/5 194/8/5
f 203/6/4 221/7/4 204/8/4
f 204/6/3 214/7/3 189/8/3
f 210/6/5 212/7/5 188/8/5
f 237/5/2 225/9/2 218/4/2
f 225/5/2 240/9/2 218/4/2
f 219/6/2 226/7/2 220/8/2
f 226/6/2 221/7/2 220/8/2
f 216/6/2 212/7/2 227/8/2
f 215/6/2 227/7/2 211/8/2
f 228/6/1 197/7/1 229/8/1
f 230/6/1 196/7/1 228/8/1
f 198/6/1 236/7/1 197/8/1
f 181/6/5 230/7/5 172/8/5
f 172/6/6 228/7/6 175/8/6
f 178/6/4 197/7/4 185/8/4
f 185/6/6 236/7/6 199/8/6
f 181/8/6 234/16/6 231/7/6
f 235/8/1 240/16/1 239/7/1
f 233/6/1 237/7/1 232/8/1
f 211/6/2 238/7/2 215/8/2
f 202/6/4 239/7/4 219/8/4
f 219/6/2 240/7/2 213/8/2
f 159/1/1 160/17/1 3/2/1
f 1/1/1 3/17/1 4/2/1
f 3/4/1 9/5/1 164/2/1
f 160/3/1 163/2/1 9/5/1
f 10/6/2 11/16/2 8/7/2
f 15/6/2 6/16/2 12/7/2
f 8/5/3 20/18/3 23/9/3
f 7/5/4 19/18/4 22/9/4
f 5/5/1 17/18/1 21/9/1
f 16/5/5 24/18/5 17/9/5
f 15/5/3 23/18/3 18/9/3
f 14/5/4 22/18/4 20/9/4
f 13/5/1 21/18/1 19/9/1
f 6/5/5 18/18/5 24/9/5
f 22/10/6 27/14/6 26/11/6
f 19/10/6 25/14/6 27/11/6
f 24/10/6 30/14/6 28/11/6
f 18/10/6 29/14/6 30/11/6
f 19/10/6 32/14/6 34/11/6
f 21/10/6 33/14/6 32/11/6
f 28/10/6 35/14/6 31/11/6
f 17/10/6 31/14/6 33/11/6
f 25/10/6 36/14/6 38/11/6
f 27/10/6 38/14/6 37/11/6
f 29/10/6 40/14/6 41/11/6
f 30/10/6 41/14/6 39/11/6
f 32/10/1 43/14/1 45/11/1
f 31/10/1 42/14/1 44/11/1
f 35/10/1 46/14/1 42/11/1
f 33/10/1 44/14/1 43/11/1
f 42/10/1 47/14/1 49/11/1
f 44/10/1 49/14/1 48/11/1
f 43/10/1 48/14/1 50/11/1
f 46/10/1 51/14/1 47/11/1
f 39/10/1 70/14/1 68/11/1
f 40/10/5 71/14/5 72/11/5
f 29/10/3 69/14/3 71/11/3
f 41/10/5 72/14/5 70/11/5
f 69/10/3 171/14/3 75/11/3
f 71/10/5 75/14/5 76/11/5
f 70/10/1 74/14/1 73/11/1
f 72/10/5 76/14/5 74/11/5
f 68/10/5 46/14/5 35/11/5
f 68/10/5 73/14/5 51/11/5
f 37/10/3 79/14/3 168/11/3
f 36/10/4 78/14/4 80/11/4
f 25/10/1 77/14/1 78/11/1
f 38/10/4 80/14/4 79/11/4
f 77/10/1 81/14/1 83/11/1
f 78/10/4 83/14/4 85/11/4
f 79/10/3 84/14/3 82/11/3
f 80/10/4 85/14/4 84/11/4
f 34/10/4 45/14/4 77/11/4
f 81/10/4 77/14/4 45/11/4
f 75/10/2 171/14/2 86/11/2
f 86/10/2 73/14/2 74/11/2
f 83/10/2 81/14/2 87/11/2
f 87/10/2 82/14/2 84/11/2
f 86/10/5 171/14/5 53/11/5
f 73/10/5 86/14/5 88/11/5
f 56/10/5 67/14/5 88/11/5
f 88/10/5 67/14/5 57/11/5
f 87/10/4 81/14/4 54/11/4
f 82/10/4 87/14/4 89/11/4
f 89/10/4 66/14/4 58/11/4
f 59/10/4 66/14/4 89/11/4
f 65/10/3 95/14/3 94/11/3
f 62/10/1 92/14/1 90/11/1
f 63/10/3 93/14/3 95/11/3
f 61/10/1 91/14/1 92/11/1
f 64/10/3 94/14/3 52/11/3
f 93/10/3 63/14/3 56/11/3
f 60/10/1 90/14/1 55/11/1
f 91/10/1 61/14/1 59/11/1
f 93/10/3 169/14/3 170/11/3
f 95/10/3 170/14/3 96/11/3
f 91/10/1 98/14/1 99/11/1
f 92/10/1 99/14/1 97/11/1
f 47/10/2 97/14/2 99/11/2
f 99/10/2 98/14/2 48/11/2
f 90/10/1 97/14/1 73/11/1
f 98/10/1 91/14/1 54/11/1
f 98/10/2 81/14/2 50/11/2
f 51/10/2 73/14/2 97/11/2
f 169/10/3 93/14/3 53/11/3
f 94/10/3 96/14/3 82/11/3
f 62/13/1 106/15/1 105/11/1
f 66/13/4 110/15/4 102/11/4
f 63/13/3 107/15/3 100/11/3
f 64/13/3 108/15/3 109/11/3
f 59/13/4 103/15/4 110/11/4
f 57/13/1 101/15/1 104/11/1
f 65/13/3 109/15/3 107/11/3
f 56/13/5 100/15/5 111/11/5
f 60/13/1 104/15/1 106/11/1
f 61/13/1 105/15/1 103/11/1
f 58/13/3 102/15/3 108/11/3
f 67/13/5 111/15/5 101/11/5
f 106/13/1 118/15/1 117/11/1
f 110/13/4 122/15/4 114/11/4
f 107/13/3 119/15/3 112/11/3
f 108/13/3 120/15/3 121/11/3
f 103/13/4 115/15/4 122/11/4
f 101/13/1 113/15/1 116/11/1
f 109/13/3 121/15/3 119/11/3
f 100/13/5 112/15/5 123/11/5
f 104/13/1 116/15/1 118/11/1
f 105/13/1 117/15/1 115/11/1
f 102/13/3 114/15/3 120/11/3
f 111/13/5 123/15/5 113/11/5
f 123/13/5 135/15/5 125/11/5
f 118/13/1 130/15/1 129/11/1
f 122/13/4 134/15/4 126/11/4
f 119/13/3 131/15/3 124/11/3
f 120/13/3 132/15/3 133/11/3
f 115/13/4 127/15/4 134/11/4
f 113/13/1 125/15/1 128/11/1
f 121/13/3 133/15/3 131/11/3
f 112/13/5 124/15/5 135/11/5
f 116/13/1 128/15/1 130/11/1
f 117/13/1 129/15/1 127/11/1
f 114/13/3 126/15/3 132/11/3
f 131/13/3 143/15/3 136/11/3
f 132/13/3 144/15/3 145/11/3
f 127/13/4 139/15/4 146/11/4
f 125/13/1 137/15/1 140/11/1
f 133/13/3 145/15/3 143/11/3
f 124/13/5 136/15/5 147/11/5
f 128/13/1 140/15/1 142/11/1
f 129/13/1 141/15/1 139/11/1
f 126/13/3 138/15/3 144/11/3
f 135/13/5 147/15/5 137/11/5
f 130/13/1 142/15/1 141/11/1
f 134/13/4 146/15/4 138/11/4
f 137/13/2 147/15/2 148/11/2
f 148/13/2 147/15/2 136/11/2
f 149/13/2 146/15/2 139/11/2
f 138/13/2 146/15/2 149/11/2
f 142/13/1 152/15/1 151/11/1
f 141/13/4 151/15/4 157/11/4
f 148/13/5 156/15/5 150/11/5
f 144/13/3 154/15/3 155/11/3
f 140/13/1 150/15/1 152/11/1
f 149/13/4 157/15/4 154/11/4
f 143/13/5 153/15/5 156/11/5
f 145/13/3 155/15/3 153/11/3
f 150/13/2 156/15/2 158/11/2
f 155/14/2 158/13/2 156/15/2
f 158/13/2 157/15/2 151/11/2
f 155/14/2 154/13/2 157/15/2
f 159/6/1 162/16/1 161/7/1
f 20/10/3 166/14/3 167/11/3
f 26/10/3 168/14/3 166/11/3
f 23/10/3 167/14/3 165/11/3
f 18/10/3 165/14/3 69/11/3
f 167/10/3 170/14/3 169/11/3
f 168/10/3 82/14/3 96/11/3
f 166/10/3 96/14/3 170/11/3
f 165/10/3 169/14/3 171/11/3
f 176/6/6 179/16/6 180/7/6
f 175/6/6 178/16/6 179/7/6
f 173/6/6 176/16/6 177/7/6
f 172/6/6 175/16/6 176/7/6
f 199/6/4 236/16/4 235/7/4
f 180/6/3 187/16/3 184/7/3
f 178/6/4 185/16/4 186/7/4
f 193/6/5 233/16/5 234/7/5
f 173/6/5 182/16/5 181/7/5
f 177/6/3 184/16/3 183/7/3
f 179/6/4 186/16/4 187/7/4
f 174/6/5 183/16/5 182/7/5
f 183/6/6 192/16/6 191/7/6
f 175/6/6 228/16/6 229/7/6
f 189/6/4 209/16/4 206/7/4
f 183/6/5 207/16/5 210/7/5
f 191/6/5 194/16/5 193/7/5
f 192/6/5 195/16/5 194/7/5
f 188/6/3 195/16/3 192/7/3
f 182/6/6 191/16/6 190/7/6
f 200/6/4 203/16/4 204/7/4
f 199/6/4 202/16/4 203/7/4
f 186/6/6 200/16/6 201/7/6
f 187/6/3 201/16/3 204/7/3
f 185/6/6 199/16/6 200/7/6
f 205/6/3 208/16/3 210/7/3
f 206/6/3 209/16/3 208/7/3
f 184/6/6 205/16/6 207/7/6
f 187/6/6 206/16/6 205/7/6
f 189/6/4 214/16/4 223/7/4
f 209/6/3 223/16/3 222/7/3
f 208/6/3 222/16/3 224/7/3
f 188/6/3 212/16/3 217/7/3
f 194/6/5 216/16/5 215/7/5
f 215/6/5 238/16/5 233/7/5
f 202/6/4 219/16/4 220/7/4
f 195/6/5 217/16/5 216/7/5
f 203/6/4 220/16/4 221/7/4
f 204/6/3 221/16/3 214/7/3
f 210/6/5 224/16/5 212/7/5
f 237/5/2 211/18/2 225/9/2
f 225/5/2 213/18/2 240/9/2
f 219/6/2 213/16/2 226/7/2
f 226/6/2 214/16/2 221/7/2
f 216/6/2 217/16/2 212/7/2
f 215/6/2 216/16/2 227/7/2
f 228/6/1 196/16/1 197/7/1
f 230/6/1 231/16/1 196/7/1
f 198/6/1 235/16/1 236/7/1
f 181/6/5 231/16/5 230/7/5
f 172/6/6 230/16/6 228/7/6
f 178/6/4 229/16/4 197/7/4
f 185/6/6 197/16/6 236/7/6
f 181/8/6 190/6/6 234/16/6
f 235/8/1 198/6/1 240/16/1
f 233/6/1 238/16/1 237/7/1
f 211/6/2 237/16/2 238/7/2
f 202/6/4 235/16/4 239/7/4
f 219/6/2 239/16/2 240/7/2
