# Blender 4.5.0
# www.blender.org
o Cube
v -0.500000 0.250000 -0.500000
v 0.500000 0.250000 -0.500000
v -0.500000 -0.250000 -0.500000
v 0.500000 -0.250000 -0.500000
v -0.500000 0.250000 0.500000
v 0.500000 0.250000 0.500000
v -0.500000 -0.250000 0.500000
v 0.500000 -0.250000 0.500000
vn -0.0000 -0.0000 -1.0000
vn -0.0000 -0.0000 1.0000
vn -0.0000 -1.0000 -0.0000
vn -1.0000 -0.0000 -0.0000
vn -0.0000 1.0000 -0.0000
vn 1.0000 -0.0000 -0.0000
vt 0.000000 0.250000
vt 1.000000 0.750000
vt 0.000000 0.750000
vt 1.000000 1.000000
vt -0.000000 0.000000
vt 1.000000 0.000000
vt 1.000000 1.000000
vt 0.500000 0.000000
vt 1.000000 0.000000
vt -0.000000 0.000000
vt 1.000000 -0.000000
vt 0.500000 1.000000
vt -0.000000 0.000000
vt 0.500000 0.000000
vt 1.000000 0.250000
vt 0.000000 1.000000
vt 0.500000 1.000000
vt 0.000000 1.000000
s 0
f 1/1/1 4/2/1 3/3/1
f 6/1/2 7/2/2 8/3/2
f 8/4/3 3/5/3 4/6/3
f 7/7/4 1/8/4 3/9/4
f 5/4/5 2/10/5 1/11/5
f 6/12/6 4/13/6 2/14/6
f 1/1/1 2/15/1 4/2/1
f 6/1/2 5/15/2 7/2/2
f 8/4/3 7/16/3 3/5/3
f 7/7/4 5/17/4 1/8/4
f 5/4/5 6/18/5 2/10/5
f 6/12/6 8/16/6 4/13/6
