# Blender 4.5.0
# www.blender.org
o Cube
v -0.250000 -0.250000 0.500000
v -0.250000 -0.250000 -0.500000
v -0.250000 -0.500000 0.500000
v -0.250000 -0.500000 -0.500000
v -0.500000 -0.250000 0.500000
v -0.500000 -0.250000 -0.500000
v -0.500000 -0.500000 0.500000
v -0.500000 -0.500000 -0.500000
v 0.500000 -0.250000 0.500000
v 0.500000 -0.250000 -0.500000
v 0.500000 -0.500000 0.500000
v 0.500000 -0.500000 -0.500000
v 0.250000 -0.250000 0.500000
v 0.250000 -0.250000 -0.500000
v 0.250000 -0.500000 0.500000
v 0.250000 -0.500000 -0.500000
v -0.250000 -0.500000 0.125000
v -0.250000 -0.500000 0.375000
v -0.250000 -0.250000 0.125000
v -0.250000 -0.250000 0.375000
v 0.250000 -0.500000 0.125000
v 0.250000 -0.500000 0.375000
v 0.250000 -0.250000 0.125000
v 0.250000 -0.250000 0.375000
v -0.250000 -0.500000 -0.375000
v -0.250000 -0.500000 -0.125000
v -0.250000 -0.250000 -0.375000
v -0.250000 -0.250000 -0.125000
v 0.250000 -0.500000 -0.375000
v 0.250000 -0.500000 -0.125000
v 0.250000 -0.250000 -0.375000
v 0.250000 -0.250000 -0.125000
vn -0.0000 -0.0000 1.0000
vn -0.0000 -0.0000 -1.0000
vn -0.0000 -1.0000 -0.0000
vn 1.0000 -0.0000 -0.0000
vn -0.0000 1.0000 -0.0000
vn -1.0000 -0.0000 -0.0000
vt 0.500000 0.500000
vt 0.250000 0.250000
vt 0.500000 0.250000
vt 0.000000 0.000000
vt 0.250000 1.000000
vt 0.000000 1.000000
vt 0.250000 0.500000
vt 0.750000 0.250000
vt 0.250000 0.000000
vt 0.750000 0.000000
s 0
f 5/1/1 3/2/1 1/3/1
f 2/1/2 8/2/2 6/3/2
f 3/4/3 8/5/3 4/6/3
f 1/4/4 4/5/4 2/6/4
f 5/4/5 2/5/5 6/6/5
f 7/4/6 6/5/6 8/6/6
f 13/1/1 11/2/1 9/3/1
f 10/1/2 16/2/2 14/3/2
f 11/4/3 16/5/3 12/6/3
f 9/4/4 12/5/4 10/6/4
f 13/4/5 10/5/5 14/6/5
f 15/4/6 14/5/6 16/6/6
f 18/7/6 19/3/6 17/1/6
f 20/8/5 23/9/5 19/10/5
f 24/7/4 21/3/4 23/1/4
f 22/8/3 17/9/3 21/10/3
f 23/10/2 17/2/2 19/9/2
f 20/10/1 22/2/1 24/9/1
f 26/7/6 27/3/6 25/1/6
f 28/8/5 31/9/5 27/10/5
f 32/7/4 29/3/4 31/1/4
f 30/8/3 25/9/3 29/10/3
f 31/10/2 25/2/2 27/9/2
f 28/10/1 30/2/1 32/9/1
f 5/1/1 7/7/1 3/2/1
f 2/1/2 4/7/2 8/2/2
f 3/4/3 7/9/3 8/5/3
f 1/4/4 3/9/4 4/5/4
f 5/4/5 1/9/5 2/5/5
f 7/4/6 5/9/6 6/5/6
f 13/1/1 15/7/1 11/2/1
f 10/1/2 12/7/2 16/2/2
f 11/4/3 15/9/3 16/5/3
f 9/4/4 11/9/4 12/5/4
f 13/4/5 9/9/5 10/5/5
f 15/4/6 13/9/6 14/5/6
f 18/7/6 20/2/6 19/3/6
f 20/8/5 24/2/5 23/9/5
f 24/7/4 22/2/4 21/3/4
f 22/8/3 18/2/3 17/9/3
f 23/10/2 21/8/2 17/2/2
f 20/10/1 18/8/1 22/2/1
f 26/7/6 28/2/6 27/3/6
f 28/8/5 32/2/5 31/9/5
f 32/7/4 30/2/4 29/3/4
f 30/8/3 26/2/3 25/9/3
f 31/10/2 29/8/2 25/2/2
f 28/10/1 26/8/1 30/2/1
